%TF.GenerationSoftware,KiCad,Pcbnew,7.0.7*%
%TF.CreationDate,2024-04-09T00:53:37+02:00*%
%TF.ProjectId,vfd_display,7666645f-6469-4737-906c-61792e6b6963,rev?*%
%TF.SameCoordinates,Original*%
%TF.FileFunction,Legend,Bot*%
%TF.FilePolarity,Positive*%
%FSLAX46Y46*%
G04 Gerber Fmt 4.6, Leading zero omitted, Abs format (unit mm)*
G04 Created by KiCad (PCBNEW 7.0.7) date 2024-04-09 00:53:37*
%MOMM*%
%LPD*%
G01*
G04 APERTURE LIST*
%ADD10C,0.150000*%
%ADD11C,0.120000*%
G04 APERTURE END LIST*
D10*
X177500000Y-69500000D02*
X179150000Y-69500000D01*
X179750000Y-69500000D02*
X181400000Y-69500000D01*
X182000000Y-69500000D02*
X183650000Y-69500000D01*
X184250000Y-69500000D02*
X185900000Y-69500000D01*
X186500000Y-69500000D02*
X188150000Y-69500000D01*
X188750000Y-69500000D02*
X190400000Y-69500000D01*
X191000000Y-69500000D02*
X192650000Y-69500000D01*
X193250000Y-69500000D02*
X194900000Y-69500000D01*
X195000000Y-69500000D02*
X195000000Y-71150000D01*
X195000000Y-71750000D02*
X195000000Y-73400000D01*
X195000000Y-74000000D02*
X195000000Y-75650000D01*
X195000000Y-76250000D02*
X195000000Y-77900000D01*
X195000000Y-78500000D02*
X195000000Y-79000000D01*
X195000000Y-79000000D02*
X193350000Y-79000000D01*
X192750000Y-79000000D02*
X191100000Y-79000000D01*
X190500000Y-79000000D02*
X188850000Y-79000000D01*
X188250000Y-79000000D02*
X186600000Y-79000000D01*
X186000000Y-79000000D02*
X184350000Y-79000000D01*
X183750000Y-79000000D02*
X182100000Y-79000000D01*
X181500000Y-79000000D02*
X179850000Y-79000000D01*
X179250000Y-79000000D02*
X177600000Y-79000000D01*
X177500000Y-79000000D02*
X177500000Y-77350000D01*
X177500000Y-76750000D02*
X177500000Y-75100000D01*
X177500000Y-74500000D02*
X177500000Y-72850000D01*
X177500000Y-72250000D02*
X177500000Y-70600000D01*
X177500000Y-70000000D02*
X177500000Y-69500000D01*
X92000000Y-68750000D02*
X92000000Y-70500000D01*
X91500000Y-69250000D02*
X92500000Y-69250000D01*
X91500000Y-69250000D01*
X92500000Y-70000000D02*
X91500000Y-70000000D01*
X92000000Y-69250000D01*
X92500000Y-70000000D01*
G36*
X92500000Y-70000000D02*
G01*
X91500000Y-70000000D01*
X92000000Y-69250000D01*
X92500000Y-70000000D01*
G37*
G36*
X211618769Y-71672676D02*
G01*
X208378520Y-71672676D01*
X208378520Y-71441795D01*
X208521377Y-71441795D01*
X208530286Y-71492319D01*
X208569586Y-71525296D01*
X208595238Y-71529819D01*
X209071428Y-71529819D01*
X209089736Y-71523155D01*
X209108928Y-71519771D01*
X209113278Y-71514586D01*
X209119637Y-71512272D01*
X209129379Y-71495398D01*
X209141905Y-71480471D01*
X209143622Y-71470728D01*
X209145289Y-71467843D01*
X209144710Y-71464560D01*
X209146428Y-71454819D01*
X209472618Y-71454819D01*
X209490165Y-71503028D01*
X209534594Y-71528680D01*
X209585118Y-71519771D01*
X209618095Y-71480471D01*
X209622618Y-71454819D01*
X209622618Y-70454819D01*
X209617878Y-70441795D01*
X209854710Y-70441795D01*
X209863619Y-70492319D01*
X209902919Y-70525296D01*
X209928571Y-70529819D01*
X210329761Y-70529819D01*
X210329761Y-70856009D01*
X210071428Y-70856009D01*
X210023219Y-70873556D01*
X209997567Y-70917985D01*
X210006476Y-70968509D01*
X210045776Y-71001486D01*
X210071428Y-71006009D01*
X210329761Y-71006009D01*
X210329761Y-71454819D01*
X210347308Y-71503028D01*
X210391737Y-71528680D01*
X210442261Y-71519771D01*
X210475238Y-71480471D01*
X210479761Y-71454819D01*
X210479761Y-70454819D01*
X210479015Y-70452770D01*
X210663123Y-70452770D01*
X210666944Y-70478536D01*
X211000277Y-71478536D01*
X211001619Y-71480227D01*
X211001678Y-71482386D01*
X211017427Y-71500147D01*
X211032168Y-71518722D01*
X211034281Y-71519154D01*
X211035715Y-71520771D01*
X211059185Y-71524251D01*
X211082429Y-71529008D01*
X211084328Y-71527979D01*
X211086464Y-71528296D01*
X211106677Y-71515877D01*
X211127543Y-71504579D01*
X211128336Y-71502571D01*
X211130176Y-71501441D01*
X211142579Y-71478536D01*
X211475912Y-70478536D01*
X211474511Y-70427253D01*
X211440473Y-70388867D01*
X211389725Y-70381342D01*
X211346012Y-70408197D01*
X211333610Y-70431102D01*
X211071428Y-71217648D01*
X210809246Y-70431102D01*
X210777355Y-70390916D01*
X210727094Y-70380630D01*
X210681980Y-70405059D01*
X210663123Y-70452770D01*
X210479015Y-70452770D01*
X210473097Y-70436510D01*
X210469713Y-70417319D01*
X210464528Y-70412968D01*
X210462214Y-70406610D01*
X210445340Y-70396867D01*
X210430413Y-70384342D01*
X210420670Y-70382624D01*
X210417785Y-70380958D01*
X210414502Y-70381536D01*
X210404761Y-70379819D01*
X209928571Y-70379819D01*
X209880362Y-70397366D01*
X209854710Y-70441795D01*
X209617878Y-70441795D01*
X209605071Y-70406610D01*
X209560642Y-70380958D01*
X209510118Y-70389867D01*
X209477141Y-70429167D01*
X209472618Y-70454819D01*
X209472618Y-71454819D01*
X209146428Y-71454819D01*
X209146428Y-70454819D01*
X209128881Y-70406610D01*
X209084452Y-70380958D01*
X209033928Y-70389867D01*
X209000951Y-70429167D01*
X208996428Y-70454819D01*
X208996428Y-71379819D01*
X208595238Y-71379819D01*
X208547029Y-71397366D01*
X208521377Y-71441795D01*
X208378520Y-71441795D01*
X208378520Y-70236962D01*
X211618769Y-70236962D01*
X211618769Y-71672676D01*
G37*
X218011904Y-78454819D02*
X218011904Y-79264342D01*
X218011904Y-79264342D02*
X217964285Y-79359580D01*
X217964285Y-79359580D02*
X217916666Y-79407200D01*
X217916666Y-79407200D02*
X217821428Y-79454819D01*
X217821428Y-79454819D02*
X217630952Y-79454819D01*
X217630952Y-79454819D02*
X217535714Y-79407200D01*
X217535714Y-79407200D02*
X217488095Y-79359580D01*
X217488095Y-79359580D02*
X217440476Y-79264342D01*
X217440476Y-79264342D02*
X217440476Y-78454819D01*
X217059523Y-78454819D02*
X216440476Y-78454819D01*
X216440476Y-78454819D02*
X216773809Y-78835771D01*
X216773809Y-78835771D02*
X216630952Y-78835771D01*
X216630952Y-78835771D02*
X216535714Y-78883390D01*
X216535714Y-78883390D02*
X216488095Y-78931009D01*
X216488095Y-78931009D02*
X216440476Y-79026247D01*
X216440476Y-79026247D02*
X216440476Y-79264342D01*
X216440476Y-79264342D02*
X216488095Y-79359580D01*
X216488095Y-79359580D02*
X216535714Y-79407200D01*
X216535714Y-79407200D02*
X216630952Y-79454819D01*
X216630952Y-79454819D02*
X216916666Y-79454819D01*
X216916666Y-79454819D02*
X217011904Y-79407200D01*
X217011904Y-79407200D02*
X217059523Y-79359580D01*
X214142857Y-79454819D02*
X214476190Y-78978628D01*
X214714285Y-79454819D02*
X214714285Y-78454819D01*
X214714285Y-78454819D02*
X214333333Y-78454819D01*
X214333333Y-78454819D02*
X214238095Y-78502438D01*
X214238095Y-78502438D02*
X214190476Y-78550057D01*
X214190476Y-78550057D02*
X214142857Y-78645295D01*
X214142857Y-78645295D02*
X214142857Y-78788152D01*
X214142857Y-78788152D02*
X214190476Y-78883390D01*
X214190476Y-78883390D02*
X214238095Y-78931009D01*
X214238095Y-78931009D02*
X214333333Y-78978628D01*
X214333333Y-78978628D02*
X214714285Y-78978628D01*
X213190476Y-79454819D02*
X213761904Y-79454819D01*
X213476190Y-79454819D02*
X213476190Y-78454819D01*
X213476190Y-78454819D02*
X213571428Y-78597676D01*
X213571428Y-78597676D02*
X213666666Y-78692914D01*
X213666666Y-78692914D02*
X213761904Y-78740533D01*
X212857142Y-78454819D02*
X212238095Y-78454819D01*
X212238095Y-78454819D02*
X212571428Y-78835771D01*
X212571428Y-78835771D02*
X212428571Y-78835771D01*
X212428571Y-78835771D02*
X212333333Y-78883390D01*
X212333333Y-78883390D02*
X212285714Y-78931009D01*
X212285714Y-78931009D02*
X212238095Y-79026247D01*
X212238095Y-79026247D02*
X212238095Y-79264342D01*
X212238095Y-79264342D02*
X212285714Y-79359580D01*
X212285714Y-79359580D02*
X212333333Y-79407200D01*
X212333333Y-79407200D02*
X212428571Y-79454819D01*
X212428571Y-79454819D02*
X212714285Y-79454819D01*
X212714285Y-79454819D02*
X212809523Y-79407200D01*
X212809523Y-79407200D02*
X212857142Y-79359580D01*
G36*
X93809245Y-87172675D02*
G01*
X91329762Y-87172675D01*
X91329762Y-86954819D01*
X91472619Y-86954819D01*
X91474990Y-86961335D01*
X91473817Y-86968171D01*
X91483556Y-86984868D01*
X91490166Y-87003028D01*
X91496171Y-87006495D01*
X91499666Y-87012487D01*
X91517857Y-87019016D01*
X91534595Y-87028680D01*
X91541426Y-87027475D01*
X91547953Y-87029818D01*
X91566084Y-87023127D01*
X91585119Y-87019771D01*
X91589576Y-87014458D01*
X91596083Y-87012058D01*
X91612737Y-86992029D01*
X92044047Y-86237235D01*
X92044047Y-86954819D01*
X92061594Y-87003028D01*
X92106023Y-87028680D01*
X92156547Y-87019771D01*
X92189524Y-86980471D01*
X92194047Y-86954819D01*
X92520237Y-86954819D01*
X92537784Y-87003028D01*
X92582213Y-87028680D01*
X92632737Y-87019771D01*
X92665714Y-86980471D01*
X92670237Y-86954819D01*
X92670237Y-85954819D01*
X92669491Y-85952770D01*
X92853599Y-85952770D01*
X92857420Y-85978536D01*
X93190753Y-86978536D01*
X93192095Y-86980227D01*
X93192154Y-86982386D01*
X93207903Y-87000147D01*
X93222644Y-87018722D01*
X93224757Y-87019154D01*
X93226191Y-87020771D01*
X93249661Y-87024251D01*
X93272905Y-87029008D01*
X93274804Y-87027979D01*
X93276940Y-87028296D01*
X93297153Y-87015877D01*
X93318019Y-87004579D01*
X93318812Y-87002571D01*
X93320652Y-87001441D01*
X93333055Y-86978536D01*
X93666388Y-85978536D01*
X93664987Y-85927253D01*
X93630949Y-85888867D01*
X93580201Y-85881342D01*
X93536488Y-85908197D01*
X93524086Y-85931102D01*
X93261904Y-86717648D01*
X92999722Y-85931102D01*
X92967831Y-85890916D01*
X92917570Y-85880630D01*
X92872456Y-85905059D01*
X92853599Y-85952770D01*
X92669491Y-85952770D01*
X92652690Y-85906610D01*
X92608261Y-85880958D01*
X92557737Y-85889867D01*
X92524760Y-85929167D01*
X92520237Y-85954819D01*
X92520237Y-86954819D01*
X92194047Y-86954819D01*
X92194047Y-85954819D01*
X92191674Y-85948301D01*
X92192849Y-85941466D01*
X92183109Y-85924768D01*
X92176500Y-85906610D01*
X92170495Y-85903142D01*
X92167000Y-85897151D01*
X92148808Y-85890621D01*
X92132071Y-85880958D01*
X92125239Y-85882162D01*
X92118713Y-85879820D01*
X92100581Y-85886510D01*
X92081547Y-85889867D01*
X92077089Y-85895179D01*
X92070583Y-85897580D01*
X92053929Y-85917608D01*
X91622619Y-86672402D01*
X91622619Y-85954819D01*
X91605072Y-85906610D01*
X91560643Y-85880958D01*
X91510119Y-85889867D01*
X91477142Y-85929167D01*
X91472619Y-85954819D01*
X91472619Y-86954819D01*
X91329762Y-86954819D01*
X91329762Y-85736963D01*
X93809245Y-85736963D01*
X93809245Y-87172675D01*
G37*
G36*
X98163094Y-76879819D02*
G01*
X98012169Y-76879819D01*
X97897656Y-76841648D01*
X97823543Y-76767534D01*
X97785049Y-76690547D01*
X97741666Y-76517013D01*
X97741666Y-76392623D01*
X97785049Y-76219089D01*
X97823542Y-76142103D01*
X97897655Y-76067990D01*
X98012169Y-76029819D01*
X98163094Y-76029819D01*
X98163094Y-76879819D01*
G37*
G36*
X100551189Y-77172676D02*
G01*
X97448809Y-77172676D01*
X97448809Y-76526247D01*
X97591666Y-76526247D01*
X97592851Y-76529504D01*
X97593905Y-76544437D01*
X97641524Y-76734913D01*
X97643512Y-76737857D01*
X97647203Y-76750264D01*
X97694822Y-76845502D01*
X97696008Y-76846625D01*
X97708871Y-76864994D01*
X97804109Y-76960233D01*
X97808173Y-76962128D01*
X97810520Y-76965948D01*
X97833425Y-76978351D01*
X97976281Y-77025970D01*
X97977916Y-77025925D01*
X97999999Y-77029819D01*
X98238094Y-77029819D01*
X98256402Y-77023155D01*
X98275594Y-77019771D01*
X98279944Y-77014586D01*
X98286303Y-77012272D01*
X98296045Y-76995398D01*
X98308571Y-76980471D01*
X98310288Y-76970728D01*
X98311955Y-76967843D01*
X98311376Y-76964560D01*
X98313094Y-76954819D01*
X98639285Y-76954819D01*
X98641656Y-76961335D01*
X98640483Y-76968171D01*
X98650222Y-76984868D01*
X98656832Y-77003028D01*
X98662837Y-77006495D01*
X98666332Y-77012487D01*
X98684523Y-77019016D01*
X98701261Y-77028680D01*
X98708092Y-77027475D01*
X98714619Y-77029818D01*
X98732750Y-77023127D01*
X98751785Y-77019771D01*
X98756242Y-77014458D01*
X98762749Y-77012058D01*
X98779403Y-76992029D01*
X99210713Y-76237235D01*
X99210713Y-76954819D01*
X99228260Y-77003028D01*
X99272689Y-77028680D01*
X99323213Y-77019771D01*
X99356190Y-76980471D01*
X99360713Y-76954819D01*
X99360713Y-76859580D01*
X99639285Y-76859580D01*
X99644884Y-76874963D01*
X99646311Y-76891275D01*
X99655703Y-76904689D01*
X99656832Y-76907789D01*
X99658581Y-76908798D01*
X99661251Y-76912612D01*
X99708870Y-76960232D01*
X99712934Y-76962127D01*
X99715282Y-76965948D01*
X99738187Y-76978351D01*
X99881043Y-77025970D01*
X99882678Y-77025925D01*
X99904761Y-77029819D01*
X99999999Y-77029819D01*
X100001537Y-77029258D01*
X100023716Y-77025970D01*
X100166573Y-76978351D01*
X100170085Y-76975563D01*
X100174552Y-76975173D01*
X100195889Y-76960233D01*
X100291128Y-76864993D01*
X100291819Y-76863510D01*
X100305176Y-76845502D01*
X100352795Y-76750264D01*
X100353201Y-76746735D01*
X100358474Y-76734913D01*
X100406093Y-76544437D01*
X100405732Y-76540988D01*
X100408332Y-76526247D01*
X100408332Y-76383390D01*
X100407146Y-76380132D01*
X100406093Y-76365200D01*
X100358474Y-76174724D01*
X100356485Y-76171779D01*
X100352795Y-76159373D01*
X100305176Y-76064135D01*
X100303989Y-76063011D01*
X100291127Y-76044643D01*
X100195889Y-75949405D01*
X100191825Y-75947510D01*
X100189478Y-75943689D01*
X100166573Y-75931287D01*
X100023716Y-75883668D01*
X100022081Y-75883712D01*
X99999999Y-75879819D01*
X99857142Y-75879819D01*
X99852928Y-75881352D01*
X99848567Y-75880311D01*
X99823601Y-75887737D01*
X99728363Y-75935356D01*
X99693091Y-75972610D01*
X99690016Y-76023821D01*
X99720580Y-76065026D01*
X99770478Y-76076946D01*
X99795445Y-76069520D01*
X99874847Y-76029819D01*
X99987829Y-76029819D01*
X100102342Y-76067990D01*
X100176455Y-76142103D01*
X100214948Y-76219090D01*
X100258332Y-76392624D01*
X100258332Y-76517013D01*
X100214948Y-76690547D01*
X100176454Y-76767534D01*
X100102342Y-76841647D01*
X99987829Y-76879819D01*
X99916931Y-76879819D01*
X99802418Y-76841648D01*
X99789285Y-76828514D01*
X99789285Y-76601247D01*
X99904761Y-76601247D01*
X99952970Y-76583700D01*
X99978622Y-76539271D01*
X99969713Y-76488747D01*
X99930413Y-76455770D01*
X99904761Y-76451247D01*
X99714285Y-76451247D01*
X99695976Y-76457910D01*
X99676785Y-76461295D01*
X99672434Y-76466479D01*
X99666076Y-76468794D01*
X99656333Y-76485667D01*
X99643808Y-76500595D01*
X99642090Y-76510337D01*
X99640424Y-76513223D01*
X99641002Y-76516505D01*
X99639285Y-76526247D01*
X99639285Y-76859580D01*
X99360713Y-76859580D01*
X99360713Y-75954819D01*
X99358340Y-75948301D01*
X99359515Y-75941466D01*
X99349775Y-75924768D01*
X99343166Y-75906610D01*
X99337161Y-75903142D01*
X99333666Y-75897151D01*
X99315474Y-75890621D01*
X99298737Y-75880958D01*
X99291905Y-75882162D01*
X99285379Y-75879820D01*
X99267247Y-75886510D01*
X99248213Y-75889867D01*
X99243755Y-75895179D01*
X99237249Y-75897580D01*
X99220595Y-75917608D01*
X98789285Y-76672402D01*
X98789285Y-75954819D01*
X98771738Y-75906610D01*
X98727309Y-75880958D01*
X98676785Y-75889867D01*
X98643808Y-75929167D01*
X98639285Y-75954819D01*
X98639285Y-76954819D01*
X98313094Y-76954819D01*
X98313094Y-75954819D01*
X98306430Y-75936510D01*
X98303046Y-75917319D01*
X98297861Y-75912968D01*
X98295547Y-75906610D01*
X98278673Y-75896867D01*
X98263746Y-75884342D01*
X98254003Y-75882624D01*
X98251118Y-75880958D01*
X98247835Y-75881536D01*
X98238094Y-75879819D01*
X97999999Y-75879819D01*
X97998461Y-75880378D01*
X97976281Y-75883668D01*
X97833425Y-75931287D01*
X97829914Y-75934073D01*
X97825446Y-75934464D01*
X97804109Y-75949405D01*
X97708871Y-76044643D01*
X97708180Y-76046124D01*
X97694822Y-76064135D01*
X97647203Y-76159373D01*
X97646796Y-76162901D01*
X97641524Y-76174724D01*
X97593905Y-76365200D01*
X97594265Y-76368648D01*
X97591666Y-76383390D01*
X97591666Y-76526247D01*
X97448809Y-76526247D01*
X97448809Y-75736962D01*
X100551189Y-75736962D01*
X100551189Y-77172676D01*
G37*
G36*
X103234523Y-76403628D02*
G01*
X102946276Y-76403628D01*
X102877760Y-76369370D01*
X102847352Y-76338962D01*
X102813095Y-76270446D01*
X102813095Y-76163000D01*
X102847352Y-76094484D01*
X102877760Y-76064076D01*
X102946276Y-76029819D01*
X103234523Y-76029819D01*
X103234523Y-76403628D01*
G37*
G36*
X105571150Y-77171865D02*
G01*
X102520238Y-77171865D01*
X102520238Y-76288152D01*
X102663095Y-76288152D01*
X102664628Y-76292365D01*
X102663587Y-76296726D01*
X102671013Y-76321693D01*
X102718632Y-76416931D01*
X102719821Y-76418056D01*
X102732681Y-76436423D01*
X102780300Y-76484042D01*
X102781781Y-76484733D01*
X102799792Y-76498091D01*
X102895030Y-76545710D01*
X102899483Y-76546222D01*
X102902919Y-76549105D01*
X102928571Y-76553628D01*
X103234523Y-76553628D01*
X103234523Y-76954819D01*
X103252070Y-77003028D01*
X103296499Y-77028680D01*
X103347023Y-77019771D01*
X103380000Y-76980471D01*
X103384523Y-76954819D01*
X103710714Y-76954819D01*
X103728261Y-77003028D01*
X103772690Y-77028680D01*
X103823214Y-77019771D01*
X103856191Y-76980471D01*
X103860714Y-76954819D01*
X103860714Y-76506009D01*
X104282142Y-76506009D01*
X104282142Y-76954819D01*
X104299689Y-77003028D01*
X104344118Y-77028680D01*
X104394642Y-77019771D01*
X104427619Y-76980471D01*
X104432142Y-76954819D01*
X104432142Y-75954819D01*
X104431396Y-75952770D01*
X104615504Y-75952770D01*
X104619325Y-75978536D01*
X104952658Y-76978536D01*
X104954000Y-76980227D01*
X104954059Y-76982386D01*
X104969808Y-77000147D01*
X104984549Y-77018722D01*
X104986662Y-77019154D01*
X104988096Y-77020771D01*
X105011566Y-77024251D01*
X105034810Y-77029008D01*
X105036709Y-77027979D01*
X105038845Y-77028296D01*
X105059058Y-77015877D01*
X105079924Y-77004579D01*
X105080717Y-77002571D01*
X105082557Y-77001441D01*
X105094960Y-76978536D01*
X105428293Y-75978536D01*
X105426892Y-75927253D01*
X105392854Y-75888867D01*
X105342106Y-75881342D01*
X105298393Y-75908197D01*
X105285991Y-75931102D01*
X105023809Y-76717648D01*
X104761627Y-75931102D01*
X104729736Y-75890916D01*
X104679475Y-75880630D01*
X104634361Y-75905059D01*
X104615504Y-75952770D01*
X104431396Y-75952770D01*
X104414595Y-75906610D01*
X104370166Y-75880958D01*
X104319642Y-75889867D01*
X104286665Y-75929167D01*
X104282142Y-75954819D01*
X104282142Y-76356009D01*
X103860714Y-76356009D01*
X103860714Y-75954819D01*
X103843167Y-75906610D01*
X103798738Y-75880958D01*
X103748214Y-75889867D01*
X103715237Y-75929167D01*
X103710714Y-75954819D01*
X103710714Y-76954819D01*
X103384523Y-76954819D01*
X103384523Y-75954819D01*
X103377859Y-75936510D01*
X103374475Y-75917319D01*
X103369290Y-75912968D01*
X103366976Y-75906610D01*
X103350102Y-75896867D01*
X103335175Y-75884342D01*
X103325432Y-75882624D01*
X103322547Y-75880958D01*
X103319264Y-75881536D01*
X103309523Y-75879819D01*
X102928571Y-75879819D01*
X102924357Y-75881352D01*
X102919996Y-75880311D01*
X102895030Y-75887737D01*
X102799792Y-75935356D01*
X102798666Y-75936545D01*
X102780300Y-75949405D01*
X102732681Y-75997024D01*
X102731990Y-75998505D01*
X102718632Y-76016516D01*
X102671013Y-76111754D01*
X102670500Y-76116207D01*
X102667618Y-76119643D01*
X102663095Y-76145295D01*
X102663095Y-76288152D01*
X102520238Y-76288152D01*
X102520238Y-75736962D01*
X105571150Y-75736962D01*
X105571150Y-77171865D01*
G37*
X103129166Y-69179580D02*
X103176785Y-69227200D01*
X103176785Y-69227200D02*
X103319642Y-69274819D01*
X103319642Y-69274819D02*
X103414880Y-69274819D01*
X103414880Y-69274819D02*
X103557737Y-69227200D01*
X103557737Y-69227200D02*
X103652975Y-69131961D01*
X103652975Y-69131961D02*
X103700594Y-69036723D01*
X103700594Y-69036723D02*
X103748213Y-68846247D01*
X103748213Y-68846247D02*
X103748213Y-68703390D01*
X103748213Y-68703390D02*
X103700594Y-68512914D01*
X103700594Y-68512914D02*
X103652975Y-68417676D01*
X103652975Y-68417676D02*
X103557737Y-68322438D01*
X103557737Y-68322438D02*
X103414880Y-68274819D01*
X103414880Y-68274819D02*
X103319642Y-68274819D01*
X103319642Y-68274819D02*
X103176785Y-68322438D01*
X103176785Y-68322438D02*
X103129166Y-68370057D01*
X102557737Y-68703390D02*
X102652975Y-68655771D01*
X102652975Y-68655771D02*
X102700594Y-68608152D01*
X102700594Y-68608152D02*
X102748213Y-68512914D01*
X102748213Y-68512914D02*
X102748213Y-68465295D01*
X102748213Y-68465295D02*
X102700594Y-68370057D01*
X102700594Y-68370057D02*
X102652975Y-68322438D01*
X102652975Y-68322438D02*
X102557737Y-68274819D01*
X102557737Y-68274819D02*
X102367261Y-68274819D01*
X102367261Y-68274819D02*
X102272023Y-68322438D01*
X102272023Y-68322438D02*
X102224404Y-68370057D01*
X102224404Y-68370057D02*
X102176785Y-68465295D01*
X102176785Y-68465295D02*
X102176785Y-68512914D01*
X102176785Y-68512914D02*
X102224404Y-68608152D01*
X102224404Y-68608152D02*
X102272023Y-68655771D01*
X102272023Y-68655771D02*
X102367261Y-68703390D01*
X102367261Y-68703390D02*
X102557737Y-68703390D01*
X102557737Y-68703390D02*
X102652975Y-68751009D01*
X102652975Y-68751009D02*
X102700594Y-68798628D01*
X102700594Y-68798628D02*
X102748213Y-68893866D01*
X102748213Y-68893866D02*
X102748213Y-69084342D01*
X102748213Y-69084342D02*
X102700594Y-69179580D01*
X102700594Y-69179580D02*
X102652975Y-69227200D01*
X102652975Y-69227200D02*
X102557737Y-69274819D01*
X102557737Y-69274819D02*
X102367261Y-69274819D01*
X102367261Y-69274819D02*
X102272023Y-69227200D01*
X102272023Y-69227200D02*
X102224404Y-69179580D01*
X102224404Y-69179580D02*
X102176785Y-69084342D01*
X102176785Y-69084342D02*
X102176785Y-68893866D01*
X102176785Y-68893866D02*
X102224404Y-68798628D01*
X102224404Y-68798628D02*
X102272023Y-68751009D01*
X102272023Y-68751009D02*
X102367261Y-68703390D01*
X175642857Y-74859580D02*
X175690476Y-74907200D01*
X175690476Y-74907200D02*
X175833333Y-74954819D01*
X175833333Y-74954819D02*
X175928571Y-74954819D01*
X175928571Y-74954819D02*
X176071428Y-74907200D01*
X176071428Y-74907200D02*
X176166666Y-74811961D01*
X176166666Y-74811961D02*
X176214285Y-74716723D01*
X176214285Y-74716723D02*
X176261904Y-74526247D01*
X176261904Y-74526247D02*
X176261904Y-74383390D01*
X176261904Y-74383390D02*
X176214285Y-74192914D01*
X176214285Y-74192914D02*
X176166666Y-74097676D01*
X176166666Y-74097676D02*
X176071428Y-74002438D01*
X176071428Y-74002438D02*
X175928571Y-73954819D01*
X175928571Y-73954819D02*
X175833333Y-73954819D01*
X175833333Y-73954819D02*
X175690476Y-74002438D01*
X175690476Y-74002438D02*
X175642857Y-74050057D01*
X175261904Y-74050057D02*
X175214285Y-74002438D01*
X175214285Y-74002438D02*
X175119047Y-73954819D01*
X175119047Y-73954819D02*
X174880952Y-73954819D01*
X174880952Y-73954819D02*
X174785714Y-74002438D01*
X174785714Y-74002438D02*
X174738095Y-74050057D01*
X174738095Y-74050057D02*
X174690476Y-74145295D01*
X174690476Y-74145295D02*
X174690476Y-74240533D01*
X174690476Y-74240533D02*
X174738095Y-74383390D01*
X174738095Y-74383390D02*
X175309523Y-74954819D01*
X175309523Y-74954819D02*
X174690476Y-74954819D01*
X173785714Y-73954819D02*
X174261904Y-73954819D01*
X174261904Y-73954819D02*
X174309523Y-74431009D01*
X174309523Y-74431009D02*
X174261904Y-74383390D01*
X174261904Y-74383390D02*
X174166666Y-74335771D01*
X174166666Y-74335771D02*
X173928571Y-74335771D01*
X173928571Y-74335771D02*
X173833333Y-74383390D01*
X173833333Y-74383390D02*
X173785714Y-74431009D01*
X173785714Y-74431009D02*
X173738095Y-74526247D01*
X173738095Y-74526247D02*
X173738095Y-74764342D01*
X173738095Y-74764342D02*
X173785714Y-74859580D01*
X173785714Y-74859580D02*
X173833333Y-74907200D01*
X173833333Y-74907200D02*
X173928571Y-74954819D01*
X173928571Y-74954819D02*
X174166666Y-74954819D01*
X174166666Y-74954819D02*
X174261904Y-74907200D01*
X174261904Y-74907200D02*
X174309523Y-74859580D01*
X206642857Y-72434580D02*
X206690476Y-72482200D01*
X206690476Y-72482200D02*
X206833333Y-72529819D01*
X206833333Y-72529819D02*
X206928571Y-72529819D01*
X206928571Y-72529819D02*
X207071428Y-72482200D01*
X207071428Y-72482200D02*
X207166666Y-72386961D01*
X207166666Y-72386961D02*
X207214285Y-72291723D01*
X207214285Y-72291723D02*
X207261904Y-72101247D01*
X207261904Y-72101247D02*
X207261904Y-71958390D01*
X207261904Y-71958390D02*
X207214285Y-71767914D01*
X207214285Y-71767914D02*
X207166666Y-71672676D01*
X207166666Y-71672676D02*
X207071428Y-71577438D01*
X207071428Y-71577438D02*
X206928571Y-71529819D01*
X206928571Y-71529819D02*
X206833333Y-71529819D01*
X206833333Y-71529819D02*
X206690476Y-71577438D01*
X206690476Y-71577438D02*
X206642857Y-71625057D01*
X206261904Y-71625057D02*
X206214285Y-71577438D01*
X206214285Y-71577438D02*
X206119047Y-71529819D01*
X206119047Y-71529819D02*
X205880952Y-71529819D01*
X205880952Y-71529819D02*
X205785714Y-71577438D01*
X205785714Y-71577438D02*
X205738095Y-71625057D01*
X205738095Y-71625057D02*
X205690476Y-71720295D01*
X205690476Y-71720295D02*
X205690476Y-71815533D01*
X205690476Y-71815533D02*
X205738095Y-71958390D01*
X205738095Y-71958390D02*
X206309523Y-72529819D01*
X206309523Y-72529819D02*
X205690476Y-72529819D01*
X204833333Y-71863152D02*
X204833333Y-72529819D01*
X205071428Y-71482200D02*
X205309523Y-72196485D01*
X205309523Y-72196485D02*
X204690476Y-72196485D01*
X181454819Y-71261905D02*
X180454819Y-71261905D01*
X180454819Y-71261905D02*
X180454819Y-71500000D01*
X180454819Y-71500000D02*
X180502438Y-71642857D01*
X180502438Y-71642857D02*
X180597676Y-71738095D01*
X180597676Y-71738095D02*
X180692914Y-71785714D01*
X180692914Y-71785714D02*
X180883390Y-71833333D01*
X180883390Y-71833333D02*
X181026247Y-71833333D01*
X181026247Y-71833333D02*
X181216723Y-71785714D01*
X181216723Y-71785714D02*
X181311961Y-71738095D01*
X181311961Y-71738095D02*
X181407200Y-71642857D01*
X181407200Y-71642857D02*
X181454819Y-71500000D01*
X181454819Y-71500000D02*
X181454819Y-71261905D01*
X180454819Y-72690476D02*
X180454819Y-72500000D01*
X180454819Y-72500000D02*
X180502438Y-72404762D01*
X180502438Y-72404762D02*
X180550057Y-72357143D01*
X180550057Y-72357143D02*
X180692914Y-72261905D01*
X180692914Y-72261905D02*
X180883390Y-72214286D01*
X180883390Y-72214286D02*
X181264342Y-72214286D01*
X181264342Y-72214286D02*
X181359580Y-72261905D01*
X181359580Y-72261905D02*
X181407200Y-72309524D01*
X181407200Y-72309524D02*
X181454819Y-72404762D01*
X181454819Y-72404762D02*
X181454819Y-72595238D01*
X181454819Y-72595238D02*
X181407200Y-72690476D01*
X181407200Y-72690476D02*
X181359580Y-72738095D01*
X181359580Y-72738095D02*
X181264342Y-72785714D01*
X181264342Y-72785714D02*
X181026247Y-72785714D01*
X181026247Y-72785714D02*
X180931009Y-72738095D01*
X180931009Y-72738095D02*
X180883390Y-72690476D01*
X180883390Y-72690476D02*
X180835771Y-72595238D01*
X180835771Y-72595238D02*
X180835771Y-72404762D01*
X180835771Y-72404762D02*
X180883390Y-72309524D01*
X180883390Y-72309524D02*
X180931009Y-72261905D01*
X180931009Y-72261905D02*
X181026247Y-72214286D01*
X173495357Y-104194580D02*
X173542976Y-104242200D01*
X173542976Y-104242200D02*
X173685833Y-104289819D01*
X173685833Y-104289819D02*
X173781071Y-104289819D01*
X173781071Y-104289819D02*
X173923928Y-104242200D01*
X173923928Y-104242200D02*
X174019166Y-104146961D01*
X174019166Y-104146961D02*
X174066785Y-104051723D01*
X174066785Y-104051723D02*
X174114404Y-103861247D01*
X174114404Y-103861247D02*
X174114404Y-103718390D01*
X174114404Y-103718390D02*
X174066785Y-103527914D01*
X174066785Y-103527914D02*
X174019166Y-103432676D01*
X174019166Y-103432676D02*
X173923928Y-103337438D01*
X173923928Y-103337438D02*
X173781071Y-103289819D01*
X173781071Y-103289819D02*
X173685833Y-103289819D01*
X173685833Y-103289819D02*
X173542976Y-103337438D01*
X173542976Y-103337438D02*
X173495357Y-103385057D01*
X173114404Y-103385057D02*
X173066785Y-103337438D01*
X173066785Y-103337438D02*
X172971547Y-103289819D01*
X172971547Y-103289819D02*
X172733452Y-103289819D01*
X172733452Y-103289819D02*
X172638214Y-103337438D01*
X172638214Y-103337438D02*
X172590595Y-103385057D01*
X172590595Y-103385057D02*
X172542976Y-103480295D01*
X172542976Y-103480295D02*
X172542976Y-103575533D01*
X172542976Y-103575533D02*
X172590595Y-103718390D01*
X172590595Y-103718390D02*
X173162023Y-104289819D01*
X173162023Y-104289819D02*
X172542976Y-104289819D01*
X171971547Y-103718390D02*
X172066785Y-103670771D01*
X172066785Y-103670771D02*
X172114404Y-103623152D01*
X172114404Y-103623152D02*
X172162023Y-103527914D01*
X172162023Y-103527914D02*
X172162023Y-103480295D01*
X172162023Y-103480295D02*
X172114404Y-103385057D01*
X172114404Y-103385057D02*
X172066785Y-103337438D01*
X172066785Y-103337438D02*
X171971547Y-103289819D01*
X171971547Y-103289819D02*
X171781071Y-103289819D01*
X171781071Y-103289819D02*
X171685833Y-103337438D01*
X171685833Y-103337438D02*
X171638214Y-103385057D01*
X171638214Y-103385057D02*
X171590595Y-103480295D01*
X171590595Y-103480295D02*
X171590595Y-103527914D01*
X171590595Y-103527914D02*
X171638214Y-103623152D01*
X171638214Y-103623152D02*
X171685833Y-103670771D01*
X171685833Y-103670771D02*
X171781071Y-103718390D01*
X171781071Y-103718390D02*
X171971547Y-103718390D01*
X171971547Y-103718390D02*
X172066785Y-103766009D01*
X172066785Y-103766009D02*
X172114404Y-103813628D01*
X172114404Y-103813628D02*
X172162023Y-103908866D01*
X172162023Y-103908866D02*
X172162023Y-104099342D01*
X172162023Y-104099342D02*
X172114404Y-104194580D01*
X172114404Y-104194580D02*
X172066785Y-104242200D01*
X172066785Y-104242200D02*
X171971547Y-104289819D01*
X171971547Y-104289819D02*
X171781071Y-104289819D01*
X171781071Y-104289819D02*
X171685833Y-104242200D01*
X171685833Y-104242200D02*
X171638214Y-104194580D01*
X171638214Y-104194580D02*
X171590595Y-104099342D01*
X171590595Y-104099342D02*
X171590595Y-103908866D01*
X171590595Y-103908866D02*
X171638214Y-103813628D01*
X171638214Y-103813628D02*
X171685833Y-103766009D01*
X171685833Y-103766009D02*
X171781071Y-103718390D01*
X171642857Y-74954819D02*
X171976190Y-74478628D01*
X172214285Y-74954819D02*
X172214285Y-73954819D01*
X172214285Y-73954819D02*
X171833333Y-73954819D01*
X171833333Y-73954819D02*
X171738095Y-74002438D01*
X171738095Y-74002438D02*
X171690476Y-74050057D01*
X171690476Y-74050057D02*
X171642857Y-74145295D01*
X171642857Y-74145295D02*
X171642857Y-74288152D01*
X171642857Y-74288152D02*
X171690476Y-74383390D01*
X171690476Y-74383390D02*
X171738095Y-74431009D01*
X171738095Y-74431009D02*
X171833333Y-74478628D01*
X171833333Y-74478628D02*
X172214285Y-74478628D01*
X170690476Y-74954819D02*
X171261904Y-74954819D01*
X170976190Y-74954819D02*
X170976190Y-73954819D01*
X170976190Y-73954819D02*
X171071428Y-74097676D01*
X171071428Y-74097676D02*
X171166666Y-74192914D01*
X171166666Y-74192914D02*
X171261904Y-74240533D01*
X170214285Y-74954819D02*
X170023809Y-74954819D01*
X170023809Y-74954819D02*
X169928571Y-74907200D01*
X169928571Y-74907200D02*
X169880952Y-74859580D01*
X169880952Y-74859580D02*
X169785714Y-74716723D01*
X169785714Y-74716723D02*
X169738095Y-74526247D01*
X169738095Y-74526247D02*
X169738095Y-74145295D01*
X169738095Y-74145295D02*
X169785714Y-74050057D01*
X169785714Y-74050057D02*
X169833333Y-74002438D01*
X169833333Y-74002438D02*
X169928571Y-73954819D01*
X169928571Y-73954819D02*
X170119047Y-73954819D01*
X170119047Y-73954819D02*
X170214285Y-74002438D01*
X170214285Y-74002438D02*
X170261904Y-74050057D01*
X170261904Y-74050057D02*
X170309523Y-74145295D01*
X170309523Y-74145295D02*
X170309523Y-74383390D01*
X170309523Y-74383390D02*
X170261904Y-74478628D01*
X170261904Y-74478628D02*
X170214285Y-74526247D01*
X170214285Y-74526247D02*
X170119047Y-74573866D01*
X170119047Y-74573866D02*
X169928571Y-74573866D01*
X169928571Y-74573866D02*
X169833333Y-74526247D01*
X169833333Y-74526247D02*
X169785714Y-74478628D01*
X169785714Y-74478628D02*
X169738095Y-74383390D01*
X109454819Y-71817142D02*
X108978628Y-71483809D01*
X109454819Y-71245714D02*
X108454819Y-71245714D01*
X108454819Y-71245714D02*
X108454819Y-71626666D01*
X108454819Y-71626666D02*
X108502438Y-71721904D01*
X108502438Y-71721904D02*
X108550057Y-71769523D01*
X108550057Y-71769523D02*
X108645295Y-71817142D01*
X108645295Y-71817142D02*
X108788152Y-71817142D01*
X108788152Y-71817142D02*
X108883390Y-71769523D01*
X108883390Y-71769523D02*
X108931009Y-71721904D01*
X108931009Y-71721904D02*
X108978628Y-71626666D01*
X108978628Y-71626666D02*
X108978628Y-71245714D01*
X108550057Y-72198095D02*
X108502438Y-72245714D01*
X108502438Y-72245714D02*
X108454819Y-72340952D01*
X108454819Y-72340952D02*
X108454819Y-72579047D01*
X108454819Y-72579047D02*
X108502438Y-72674285D01*
X108502438Y-72674285D02*
X108550057Y-72721904D01*
X108550057Y-72721904D02*
X108645295Y-72769523D01*
X108645295Y-72769523D02*
X108740533Y-72769523D01*
X108740533Y-72769523D02*
X108883390Y-72721904D01*
X108883390Y-72721904D02*
X109454819Y-72150476D01*
X109454819Y-72150476D02*
X109454819Y-72769523D01*
X108454819Y-73388571D02*
X108454819Y-73483809D01*
X108454819Y-73483809D02*
X108502438Y-73579047D01*
X108502438Y-73579047D02*
X108550057Y-73626666D01*
X108550057Y-73626666D02*
X108645295Y-73674285D01*
X108645295Y-73674285D02*
X108835771Y-73721904D01*
X108835771Y-73721904D02*
X109073866Y-73721904D01*
X109073866Y-73721904D02*
X109264342Y-73674285D01*
X109264342Y-73674285D02*
X109359580Y-73626666D01*
X109359580Y-73626666D02*
X109407200Y-73579047D01*
X109407200Y-73579047D02*
X109454819Y-73483809D01*
X109454819Y-73483809D02*
X109454819Y-73388571D01*
X109454819Y-73388571D02*
X109407200Y-73293333D01*
X109407200Y-73293333D02*
X109359580Y-73245714D01*
X109359580Y-73245714D02*
X109264342Y-73198095D01*
X109264342Y-73198095D02*
X109073866Y-73150476D01*
X109073866Y-73150476D02*
X108835771Y-73150476D01*
X108835771Y-73150476D02*
X108645295Y-73198095D01*
X108645295Y-73198095D02*
X108550057Y-73245714D01*
X108550057Y-73245714D02*
X108502438Y-73293333D01*
X108502438Y-73293333D02*
X108454819Y-73388571D01*
X182724819Y-103782142D02*
X182248628Y-103448809D01*
X182724819Y-103210714D02*
X181724819Y-103210714D01*
X181724819Y-103210714D02*
X181724819Y-103591666D01*
X181724819Y-103591666D02*
X181772438Y-103686904D01*
X181772438Y-103686904D02*
X181820057Y-103734523D01*
X181820057Y-103734523D02*
X181915295Y-103782142D01*
X181915295Y-103782142D02*
X182058152Y-103782142D01*
X182058152Y-103782142D02*
X182153390Y-103734523D01*
X182153390Y-103734523D02*
X182201009Y-103686904D01*
X182201009Y-103686904D02*
X182248628Y-103591666D01*
X182248628Y-103591666D02*
X182248628Y-103210714D01*
X182724819Y-104734523D02*
X182724819Y-104163095D01*
X182724819Y-104448809D02*
X181724819Y-104448809D01*
X181724819Y-104448809D02*
X181867676Y-104353571D01*
X181867676Y-104353571D02*
X181962914Y-104258333D01*
X181962914Y-104258333D02*
X182010533Y-104163095D01*
X181724819Y-105353571D02*
X181724819Y-105448809D01*
X181724819Y-105448809D02*
X181772438Y-105544047D01*
X181772438Y-105544047D02*
X181820057Y-105591666D01*
X181820057Y-105591666D02*
X181915295Y-105639285D01*
X181915295Y-105639285D02*
X182105771Y-105686904D01*
X182105771Y-105686904D02*
X182343866Y-105686904D01*
X182343866Y-105686904D02*
X182534342Y-105639285D01*
X182534342Y-105639285D02*
X182629580Y-105591666D01*
X182629580Y-105591666D02*
X182677200Y-105544047D01*
X182677200Y-105544047D02*
X182724819Y-105448809D01*
X182724819Y-105448809D02*
X182724819Y-105353571D01*
X182724819Y-105353571D02*
X182677200Y-105258333D01*
X182677200Y-105258333D02*
X182629580Y-105210714D01*
X182629580Y-105210714D02*
X182534342Y-105163095D01*
X182534342Y-105163095D02*
X182343866Y-105115476D01*
X182343866Y-105115476D02*
X182105771Y-105115476D01*
X182105771Y-105115476D02*
X181915295Y-105163095D01*
X181915295Y-105163095D02*
X181820057Y-105210714D01*
X181820057Y-105210714D02*
X181772438Y-105258333D01*
X181772438Y-105258333D02*
X181724819Y-105353571D01*
X104189580Y-92393333D02*
X104237200Y-92345714D01*
X104237200Y-92345714D02*
X104284819Y-92202857D01*
X104284819Y-92202857D02*
X104284819Y-92107619D01*
X104284819Y-92107619D02*
X104237200Y-91964762D01*
X104237200Y-91964762D02*
X104141961Y-91869524D01*
X104141961Y-91869524D02*
X104046723Y-91821905D01*
X104046723Y-91821905D02*
X103856247Y-91774286D01*
X103856247Y-91774286D02*
X103713390Y-91774286D01*
X103713390Y-91774286D02*
X103522914Y-91821905D01*
X103522914Y-91821905D02*
X103427676Y-91869524D01*
X103427676Y-91869524D02*
X103332438Y-91964762D01*
X103332438Y-91964762D02*
X103284819Y-92107619D01*
X103284819Y-92107619D02*
X103284819Y-92202857D01*
X103284819Y-92202857D02*
X103332438Y-92345714D01*
X103332438Y-92345714D02*
X103380057Y-92393333D01*
X103618152Y-93250476D02*
X104284819Y-93250476D01*
X103237200Y-93012381D02*
X103951485Y-92774286D01*
X103951485Y-92774286D02*
X103951485Y-93393333D01*
X125599942Y-90021238D02*
X125647561Y-90116476D01*
X125647561Y-90116476D02*
X125742800Y-90211714D01*
X125742800Y-90211714D02*
X125885657Y-90354571D01*
X125885657Y-90354571D02*
X125933276Y-90449809D01*
X125933276Y-90449809D02*
X125933276Y-90545047D01*
X125695180Y-90497428D02*
X125742800Y-90592666D01*
X125742800Y-90592666D02*
X125838038Y-90687904D01*
X125838038Y-90687904D02*
X126028514Y-90735523D01*
X126028514Y-90735523D02*
X126361847Y-90735523D01*
X126361847Y-90735523D02*
X126552323Y-90687904D01*
X126552323Y-90687904D02*
X126647561Y-90592666D01*
X126647561Y-90592666D02*
X126695180Y-90497428D01*
X126695180Y-90497428D02*
X126695180Y-90306952D01*
X126695180Y-90306952D02*
X126647561Y-90211714D01*
X126647561Y-90211714D02*
X126552323Y-90116476D01*
X126552323Y-90116476D02*
X126361847Y-90068857D01*
X126361847Y-90068857D02*
X126028514Y-90068857D01*
X126028514Y-90068857D02*
X125838038Y-90116476D01*
X125838038Y-90116476D02*
X125742800Y-90211714D01*
X125742800Y-90211714D02*
X125695180Y-90306952D01*
X125695180Y-90306952D02*
X125695180Y-90497428D01*
X125695180Y-89116476D02*
X125695180Y-89687904D01*
X125695180Y-89402190D02*
X126695180Y-89402190D01*
X126695180Y-89402190D02*
X126552323Y-89497428D01*
X126552323Y-89497428D02*
X126457085Y-89592666D01*
X126457085Y-89592666D02*
X126409466Y-89687904D01*
X204324819Y-101758333D02*
X204324819Y-101282143D01*
X204324819Y-101282143D02*
X203324819Y-101282143D01*
X203420057Y-102044048D02*
X203372438Y-102091667D01*
X203372438Y-102091667D02*
X203324819Y-102186905D01*
X203324819Y-102186905D02*
X203324819Y-102425000D01*
X203324819Y-102425000D02*
X203372438Y-102520238D01*
X203372438Y-102520238D02*
X203420057Y-102567857D01*
X203420057Y-102567857D02*
X203515295Y-102615476D01*
X203515295Y-102615476D02*
X203610533Y-102615476D01*
X203610533Y-102615476D02*
X203753390Y-102567857D01*
X203753390Y-102567857D02*
X204324819Y-101996429D01*
X204324819Y-101996429D02*
X204324819Y-102615476D01*
X200642857Y-71304819D02*
X200976190Y-70828628D01*
X201214285Y-71304819D02*
X201214285Y-70304819D01*
X201214285Y-70304819D02*
X200833333Y-70304819D01*
X200833333Y-70304819D02*
X200738095Y-70352438D01*
X200738095Y-70352438D02*
X200690476Y-70400057D01*
X200690476Y-70400057D02*
X200642857Y-70495295D01*
X200642857Y-70495295D02*
X200642857Y-70638152D01*
X200642857Y-70638152D02*
X200690476Y-70733390D01*
X200690476Y-70733390D02*
X200738095Y-70781009D01*
X200738095Y-70781009D02*
X200833333Y-70828628D01*
X200833333Y-70828628D02*
X201214285Y-70828628D01*
X199690476Y-71304819D02*
X200261904Y-71304819D01*
X199976190Y-71304819D02*
X199976190Y-70304819D01*
X199976190Y-70304819D02*
X200071428Y-70447676D01*
X200071428Y-70447676D02*
X200166666Y-70542914D01*
X200166666Y-70542914D02*
X200261904Y-70590533D01*
X199357142Y-70304819D02*
X198690476Y-70304819D01*
X198690476Y-70304819D02*
X199119047Y-71304819D01*
X171991666Y-91739819D02*
X172324999Y-91263628D01*
X172563094Y-91739819D02*
X172563094Y-90739819D01*
X172563094Y-90739819D02*
X172182142Y-90739819D01*
X172182142Y-90739819D02*
X172086904Y-90787438D01*
X172086904Y-90787438D02*
X172039285Y-90835057D01*
X172039285Y-90835057D02*
X171991666Y-90930295D01*
X171991666Y-90930295D02*
X171991666Y-91073152D01*
X171991666Y-91073152D02*
X172039285Y-91168390D01*
X172039285Y-91168390D02*
X172086904Y-91216009D01*
X172086904Y-91216009D02*
X172182142Y-91263628D01*
X172182142Y-91263628D02*
X172563094Y-91263628D01*
X171420237Y-91168390D02*
X171515475Y-91120771D01*
X171515475Y-91120771D02*
X171563094Y-91073152D01*
X171563094Y-91073152D02*
X171610713Y-90977914D01*
X171610713Y-90977914D02*
X171610713Y-90930295D01*
X171610713Y-90930295D02*
X171563094Y-90835057D01*
X171563094Y-90835057D02*
X171515475Y-90787438D01*
X171515475Y-90787438D02*
X171420237Y-90739819D01*
X171420237Y-90739819D02*
X171229761Y-90739819D01*
X171229761Y-90739819D02*
X171134523Y-90787438D01*
X171134523Y-90787438D02*
X171086904Y-90835057D01*
X171086904Y-90835057D02*
X171039285Y-90930295D01*
X171039285Y-90930295D02*
X171039285Y-90977914D01*
X171039285Y-90977914D02*
X171086904Y-91073152D01*
X171086904Y-91073152D02*
X171134523Y-91120771D01*
X171134523Y-91120771D02*
X171229761Y-91168390D01*
X171229761Y-91168390D02*
X171420237Y-91168390D01*
X171420237Y-91168390D02*
X171515475Y-91216009D01*
X171515475Y-91216009D02*
X171563094Y-91263628D01*
X171563094Y-91263628D02*
X171610713Y-91358866D01*
X171610713Y-91358866D02*
X171610713Y-91549342D01*
X171610713Y-91549342D02*
X171563094Y-91644580D01*
X171563094Y-91644580D02*
X171515475Y-91692200D01*
X171515475Y-91692200D02*
X171420237Y-91739819D01*
X171420237Y-91739819D02*
X171229761Y-91739819D01*
X171229761Y-91739819D02*
X171134523Y-91692200D01*
X171134523Y-91692200D02*
X171086904Y-91644580D01*
X171086904Y-91644580D02*
X171039285Y-91549342D01*
X171039285Y-91549342D02*
X171039285Y-91358866D01*
X171039285Y-91358866D02*
X171086904Y-91263628D01*
X171086904Y-91263628D02*
X171134523Y-91216009D01*
X171134523Y-91216009D02*
X171229761Y-91168390D01*
X181454819Y-75910142D02*
X180978628Y-75576809D01*
X181454819Y-75338714D02*
X180454819Y-75338714D01*
X180454819Y-75338714D02*
X180454819Y-75719666D01*
X180454819Y-75719666D02*
X180502438Y-75814904D01*
X180502438Y-75814904D02*
X180550057Y-75862523D01*
X180550057Y-75862523D02*
X180645295Y-75910142D01*
X180645295Y-75910142D02*
X180788152Y-75910142D01*
X180788152Y-75910142D02*
X180883390Y-75862523D01*
X180883390Y-75862523D02*
X180931009Y-75814904D01*
X180931009Y-75814904D02*
X180978628Y-75719666D01*
X180978628Y-75719666D02*
X180978628Y-75338714D01*
X180550057Y-76291095D02*
X180502438Y-76338714D01*
X180502438Y-76338714D02*
X180454819Y-76433952D01*
X180454819Y-76433952D02*
X180454819Y-76672047D01*
X180454819Y-76672047D02*
X180502438Y-76767285D01*
X180502438Y-76767285D02*
X180550057Y-76814904D01*
X180550057Y-76814904D02*
X180645295Y-76862523D01*
X180645295Y-76862523D02*
X180740533Y-76862523D01*
X180740533Y-76862523D02*
X180883390Y-76814904D01*
X180883390Y-76814904D02*
X181454819Y-76243476D01*
X181454819Y-76243476D02*
X181454819Y-76862523D01*
X180454819Y-77195857D02*
X180454819Y-77814904D01*
X180454819Y-77814904D02*
X180835771Y-77481571D01*
X180835771Y-77481571D02*
X180835771Y-77624428D01*
X180835771Y-77624428D02*
X180883390Y-77719666D01*
X180883390Y-77719666D02*
X180931009Y-77767285D01*
X180931009Y-77767285D02*
X181026247Y-77814904D01*
X181026247Y-77814904D02*
X181264342Y-77814904D01*
X181264342Y-77814904D02*
X181359580Y-77767285D01*
X181359580Y-77767285D02*
X181407200Y-77719666D01*
X181407200Y-77719666D02*
X181454819Y-77624428D01*
X181454819Y-77624428D02*
X181454819Y-77338714D01*
X181454819Y-77338714D02*
X181407200Y-77243476D01*
X181407200Y-77243476D02*
X181359580Y-77195857D01*
X179454819Y-75910142D02*
X178978628Y-75576809D01*
X179454819Y-75338714D02*
X178454819Y-75338714D01*
X178454819Y-75338714D02*
X178454819Y-75719666D01*
X178454819Y-75719666D02*
X178502438Y-75814904D01*
X178502438Y-75814904D02*
X178550057Y-75862523D01*
X178550057Y-75862523D02*
X178645295Y-75910142D01*
X178645295Y-75910142D02*
X178788152Y-75910142D01*
X178788152Y-75910142D02*
X178883390Y-75862523D01*
X178883390Y-75862523D02*
X178931009Y-75814904D01*
X178931009Y-75814904D02*
X178978628Y-75719666D01*
X178978628Y-75719666D02*
X178978628Y-75338714D01*
X178550057Y-76291095D02*
X178502438Y-76338714D01*
X178502438Y-76338714D02*
X178454819Y-76433952D01*
X178454819Y-76433952D02*
X178454819Y-76672047D01*
X178454819Y-76672047D02*
X178502438Y-76767285D01*
X178502438Y-76767285D02*
X178550057Y-76814904D01*
X178550057Y-76814904D02*
X178645295Y-76862523D01*
X178645295Y-76862523D02*
X178740533Y-76862523D01*
X178740533Y-76862523D02*
X178883390Y-76814904D01*
X178883390Y-76814904D02*
X179454819Y-76243476D01*
X179454819Y-76243476D02*
X179454819Y-76862523D01*
X178788152Y-77719666D02*
X179454819Y-77719666D01*
X178407200Y-77481571D02*
X179121485Y-77243476D01*
X179121485Y-77243476D02*
X179121485Y-77862523D01*
X92738094Y-73454819D02*
X92738094Y-72454819D01*
X92738094Y-72454819D02*
X92499999Y-72454819D01*
X92499999Y-72454819D02*
X92357142Y-72502438D01*
X92357142Y-72502438D02*
X92261904Y-72597676D01*
X92261904Y-72597676D02*
X92214285Y-72692914D01*
X92214285Y-72692914D02*
X92166666Y-72883390D01*
X92166666Y-72883390D02*
X92166666Y-73026247D01*
X92166666Y-73026247D02*
X92214285Y-73216723D01*
X92214285Y-73216723D02*
X92261904Y-73311961D01*
X92261904Y-73311961D02*
X92357142Y-73407200D01*
X92357142Y-73407200D02*
X92499999Y-73454819D01*
X92499999Y-73454819D02*
X92738094Y-73454819D01*
X91595237Y-72883390D02*
X91690475Y-72835771D01*
X91690475Y-72835771D02*
X91738094Y-72788152D01*
X91738094Y-72788152D02*
X91785713Y-72692914D01*
X91785713Y-72692914D02*
X91785713Y-72645295D01*
X91785713Y-72645295D02*
X91738094Y-72550057D01*
X91738094Y-72550057D02*
X91690475Y-72502438D01*
X91690475Y-72502438D02*
X91595237Y-72454819D01*
X91595237Y-72454819D02*
X91404761Y-72454819D01*
X91404761Y-72454819D02*
X91309523Y-72502438D01*
X91309523Y-72502438D02*
X91261904Y-72550057D01*
X91261904Y-72550057D02*
X91214285Y-72645295D01*
X91214285Y-72645295D02*
X91214285Y-72692914D01*
X91214285Y-72692914D02*
X91261904Y-72788152D01*
X91261904Y-72788152D02*
X91309523Y-72835771D01*
X91309523Y-72835771D02*
X91404761Y-72883390D01*
X91404761Y-72883390D02*
X91595237Y-72883390D01*
X91595237Y-72883390D02*
X91690475Y-72931009D01*
X91690475Y-72931009D02*
X91738094Y-72978628D01*
X91738094Y-72978628D02*
X91785713Y-73073866D01*
X91785713Y-73073866D02*
X91785713Y-73264342D01*
X91785713Y-73264342D02*
X91738094Y-73359580D01*
X91738094Y-73359580D02*
X91690475Y-73407200D01*
X91690475Y-73407200D02*
X91595237Y-73454819D01*
X91595237Y-73454819D02*
X91404761Y-73454819D01*
X91404761Y-73454819D02*
X91309523Y-73407200D01*
X91309523Y-73407200D02*
X91261904Y-73359580D01*
X91261904Y-73359580D02*
X91214285Y-73264342D01*
X91214285Y-73264342D02*
X91214285Y-73073866D01*
X91214285Y-73073866D02*
X91261904Y-72978628D01*
X91261904Y-72978628D02*
X91309523Y-72931009D01*
X91309523Y-72931009D02*
X91404761Y-72883390D01*
X115924166Y-102829580D02*
X115971785Y-102877200D01*
X115971785Y-102877200D02*
X116114642Y-102924819D01*
X116114642Y-102924819D02*
X116209880Y-102924819D01*
X116209880Y-102924819D02*
X116352737Y-102877200D01*
X116352737Y-102877200D02*
X116447975Y-102781961D01*
X116447975Y-102781961D02*
X116495594Y-102686723D01*
X116495594Y-102686723D02*
X116543213Y-102496247D01*
X116543213Y-102496247D02*
X116543213Y-102353390D01*
X116543213Y-102353390D02*
X116495594Y-102162914D01*
X116495594Y-102162914D02*
X116447975Y-102067676D01*
X116447975Y-102067676D02*
X116352737Y-101972438D01*
X116352737Y-101972438D02*
X116209880Y-101924819D01*
X116209880Y-101924819D02*
X116114642Y-101924819D01*
X116114642Y-101924819D02*
X115971785Y-101972438D01*
X115971785Y-101972438D02*
X115924166Y-102020057D01*
X115019404Y-101924819D02*
X115495594Y-101924819D01*
X115495594Y-101924819D02*
X115543213Y-102401009D01*
X115543213Y-102401009D02*
X115495594Y-102353390D01*
X115495594Y-102353390D02*
X115400356Y-102305771D01*
X115400356Y-102305771D02*
X115162261Y-102305771D01*
X115162261Y-102305771D02*
X115067023Y-102353390D01*
X115067023Y-102353390D02*
X115019404Y-102401009D01*
X115019404Y-102401009D02*
X114971785Y-102496247D01*
X114971785Y-102496247D02*
X114971785Y-102734342D01*
X114971785Y-102734342D02*
X115019404Y-102829580D01*
X115019404Y-102829580D02*
X115067023Y-102877200D01*
X115067023Y-102877200D02*
X115162261Y-102924819D01*
X115162261Y-102924819D02*
X115400356Y-102924819D01*
X115400356Y-102924819D02*
X115495594Y-102877200D01*
X115495594Y-102877200D02*
X115543213Y-102829580D01*
X179649166Y-87864580D02*
X179696785Y-87912200D01*
X179696785Y-87912200D02*
X179839642Y-87959819D01*
X179839642Y-87959819D02*
X179934880Y-87959819D01*
X179934880Y-87959819D02*
X180077737Y-87912200D01*
X180077737Y-87912200D02*
X180172975Y-87816961D01*
X180172975Y-87816961D02*
X180220594Y-87721723D01*
X180220594Y-87721723D02*
X180268213Y-87531247D01*
X180268213Y-87531247D02*
X180268213Y-87388390D01*
X180268213Y-87388390D02*
X180220594Y-87197914D01*
X180220594Y-87197914D02*
X180172975Y-87102676D01*
X180172975Y-87102676D02*
X180077737Y-87007438D01*
X180077737Y-87007438D02*
X179934880Y-86959819D01*
X179934880Y-86959819D02*
X179839642Y-86959819D01*
X179839642Y-86959819D02*
X179696785Y-87007438D01*
X179696785Y-87007438D02*
X179649166Y-87055057D01*
X179172975Y-87959819D02*
X178982499Y-87959819D01*
X178982499Y-87959819D02*
X178887261Y-87912200D01*
X178887261Y-87912200D02*
X178839642Y-87864580D01*
X178839642Y-87864580D02*
X178744404Y-87721723D01*
X178744404Y-87721723D02*
X178696785Y-87531247D01*
X178696785Y-87531247D02*
X178696785Y-87150295D01*
X178696785Y-87150295D02*
X178744404Y-87055057D01*
X178744404Y-87055057D02*
X178792023Y-87007438D01*
X178792023Y-87007438D02*
X178887261Y-86959819D01*
X178887261Y-86959819D02*
X179077737Y-86959819D01*
X179077737Y-86959819D02*
X179172975Y-87007438D01*
X179172975Y-87007438D02*
X179220594Y-87055057D01*
X179220594Y-87055057D02*
X179268213Y-87150295D01*
X179268213Y-87150295D02*
X179268213Y-87388390D01*
X179268213Y-87388390D02*
X179220594Y-87483628D01*
X179220594Y-87483628D02*
X179172975Y-87531247D01*
X179172975Y-87531247D02*
X179077737Y-87578866D01*
X179077737Y-87578866D02*
X178887261Y-87578866D01*
X178887261Y-87578866D02*
X178792023Y-87531247D01*
X178792023Y-87531247D02*
X178744404Y-87483628D01*
X178744404Y-87483628D02*
X178696785Y-87388390D01*
X119734166Y-102379580D02*
X119781785Y-102427200D01*
X119781785Y-102427200D02*
X119924642Y-102474819D01*
X119924642Y-102474819D02*
X120019880Y-102474819D01*
X120019880Y-102474819D02*
X120162737Y-102427200D01*
X120162737Y-102427200D02*
X120257975Y-102331961D01*
X120257975Y-102331961D02*
X120305594Y-102236723D01*
X120305594Y-102236723D02*
X120353213Y-102046247D01*
X120353213Y-102046247D02*
X120353213Y-101903390D01*
X120353213Y-101903390D02*
X120305594Y-101712914D01*
X120305594Y-101712914D02*
X120257975Y-101617676D01*
X120257975Y-101617676D02*
X120162737Y-101522438D01*
X120162737Y-101522438D02*
X120019880Y-101474819D01*
X120019880Y-101474819D02*
X119924642Y-101474819D01*
X119924642Y-101474819D02*
X119781785Y-101522438D01*
X119781785Y-101522438D02*
X119734166Y-101570057D01*
X118781785Y-102474819D02*
X119353213Y-102474819D01*
X119067499Y-102474819D02*
X119067499Y-101474819D01*
X119067499Y-101474819D02*
X119162737Y-101617676D01*
X119162737Y-101617676D02*
X119257975Y-101712914D01*
X119257975Y-101712914D02*
X119353213Y-101760533D01*
X179611666Y-84119819D02*
X179944999Y-83643628D01*
X180183094Y-84119819D02*
X180183094Y-83119819D01*
X180183094Y-83119819D02*
X179802142Y-83119819D01*
X179802142Y-83119819D02*
X179706904Y-83167438D01*
X179706904Y-83167438D02*
X179659285Y-83215057D01*
X179659285Y-83215057D02*
X179611666Y-83310295D01*
X179611666Y-83310295D02*
X179611666Y-83453152D01*
X179611666Y-83453152D02*
X179659285Y-83548390D01*
X179659285Y-83548390D02*
X179706904Y-83596009D01*
X179706904Y-83596009D02*
X179802142Y-83643628D01*
X179802142Y-83643628D02*
X180183094Y-83643628D01*
X179278332Y-83119819D02*
X178611666Y-83119819D01*
X178611666Y-83119819D02*
X179040237Y-84119819D01*
X179666904Y-98844819D02*
X179666904Y-99654342D01*
X179666904Y-99654342D02*
X179619285Y-99749580D01*
X179619285Y-99749580D02*
X179571666Y-99797200D01*
X179571666Y-99797200D02*
X179476428Y-99844819D01*
X179476428Y-99844819D02*
X179285952Y-99844819D01*
X179285952Y-99844819D02*
X179190714Y-99797200D01*
X179190714Y-99797200D02*
X179143095Y-99749580D01*
X179143095Y-99749580D02*
X179095476Y-99654342D01*
X179095476Y-99654342D02*
X179095476Y-98844819D01*
X178190714Y-98844819D02*
X178381190Y-98844819D01*
X178381190Y-98844819D02*
X178476428Y-98892438D01*
X178476428Y-98892438D02*
X178524047Y-98940057D01*
X178524047Y-98940057D02*
X178619285Y-99082914D01*
X178619285Y-99082914D02*
X178666904Y-99273390D01*
X178666904Y-99273390D02*
X178666904Y-99654342D01*
X178666904Y-99654342D02*
X178619285Y-99749580D01*
X178619285Y-99749580D02*
X178571666Y-99797200D01*
X178571666Y-99797200D02*
X178476428Y-99844819D01*
X178476428Y-99844819D02*
X178285952Y-99844819D01*
X178285952Y-99844819D02*
X178190714Y-99797200D01*
X178190714Y-99797200D02*
X178143095Y-99749580D01*
X178143095Y-99749580D02*
X178095476Y-99654342D01*
X178095476Y-99654342D02*
X178095476Y-99416247D01*
X178095476Y-99416247D02*
X178143095Y-99321009D01*
X178143095Y-99321009D02*
X178190714Y-99273390D01*
X178190714Y-99273390D02*
X178285952Y-99225771D01*
X178285952Y-99225771D02*
X178476428Y-99225771D01*
X178476428Y-99225771D02*
X178571666Y-99273390D01*
X178571666Y-99273390D02*
X178619285Y-99321009D01*
X178619285Y-99321009D02*
X178666904Y-99416247D01*
X183454819Y-75910142D02*
X182978628Y-75576809D01*
X183454819Y-75338714D02*
X182454819Y-75338714D01*
X182454819Y-75338714D02*
X182454819Y-75719666D01*
X182454819Y-75719666D02*
X182502438Y-75814904D01*
X182502438Y-75814904D02*
X182550057Y-75862523D01*
X182550057Y-75862523D02*
X182645295Y-75910142D01*
X182645295Y-75910142D02*
X182788152Y-75910142D01*
X182788152Y-75910142D02*
X182883390Y-75862523D01*
X182883390Y-75862523D02*
X182931009Y-75814904D01*
X182931009Y-75814904D02*
X182978628Y-75719666D01*
X182978628Y-75719666D02*
X182978628Y-75338714D01*
X182550057Y-76291095D02*
X182502438Y-76338714D01*
X182502438Y-76338714D02*
X182454819Y-76433952D01*
X182454819Y-76433952D02*
X182454819Y-76672047D01*
X182454819Y-76672047D02*
X182502438Y-76767285D01*
X182502438Y-76767285D02*
X182550057Y-76814904D01*
X182550057Y-76814904D02*
X182645295Y-76862523D01*
X182645295Y-76862523D02*
X182740533Y-76862523D01*
X182740533Y-76862523D02*
X182883390Y-76814904D01*
X182883390Y-76814904D02*
X183454819Y-76243476D01*
X183454819Y-76243476D02*
X183454819Y-76862523D01*
X182550057Y-77243476D02*
X182502438Y-77291095D01*
X182502438Y-77291095D02*
X182454819Y-77386333D01*
X182454819Y-77386333D02*
X182454819Y-77624428D01*
X182454819Y-77624428D02*
X182502438Y-77719666D01*
X182502438Y-77719666D02*
X182550057Y-77767285D01*
X182550057Y-77767285D02*
X182645295Y-77814904D01*
X182645295Y-77814904D02*
X182740533Y-77814904D01*
X182740533Y-77814904D02*
X182883390Y-77767285D01*
X182883390Y-77767285D02*
X183454819Y-77195857D01*
X183454819Y-77195857D02*
X183454819Y-77814904D01*
X103726666Y-96604819D02*
X104059999Y-96128628D01*
X104298094Y-96604819D02*
X104298094Y-95604819D01*
X104298094Y-95604819D02*
X103917142Y-95604819D01*
X103917142Y-95604819D02*
X103821904Y-95652438D01*
X103821904Y-95652438D02*
X103774285Y-95700057D01*
X103774285Y-95700057D02*
X103726666Y-95795295D01*
X103726666Y-95795295D02*
X103726666Y-95938152D01*
X103726666Y-95938152D02*
X103774285Y-96033390D01*
X103774285Y-96033390D02*
X103821904Y-96081009D01*
X103821904Y-96081009D02*
X103917142Y-96128628D01*
X103917142Y-96128628D02*
X104298094Y-96128628D01*
X103345713Y-95700057D02*
X103298094Y-95652438D01*
X103298094Y-95652438D02*
X103202856Y-95604819D01*
X103202856Y-95604819D02*
X102964761Y-95604819D01*
X102964761Y-95604819D02*
X102869523Y-95652438D01*
X102869523Y-95652438D02*
X102821904Y-95700057D01*
X102821904Y-95700057D02*
X102774285Y-95795295D01*
X102774285Y-95795295D02*
X102774285Y-95890533D01*
X102774285Y-95890533D02*
X102821904Y-96033390D01*
X102821904Y-96033390D02*
X103393332Y-96604819D01*
X103393332Y-96604819D02*
X102774285Y-96604819D01*
X96105357Y-70359580D02*
X96152976Y-70407200D01*
X96152976Y-70407200D02*
X96295833Y-70454819D01*
X96295833Y-70454819D02*
X96391071Y-70454819D01*
X96391071Y-70454819D02*
X96533928Y-70407200D01*
X96533928Y-70407200D02*
X96629166Y-70311961D01*
X96629166Y-70311961D02*
X96676785Y-70216723D01*
X96676785Y-70216723D02*
X96724404Y-70026247D01*
X96724404Y-70026247D02*
X96724404Y-69883390D01*
X96724404Y-69883390D02*
X96676785Y-69692914D01*
X96676785Y-69692914D02*
X96629166Y-69597676D01*
X96629166Y-69597676D02*
X96533928Y-69502438D01*
X96533928Y-69502438D02*
X96391071Y-69454819D01*
X96391071Y-69454819D02*
X96295833Y-69454819D01*
X96295833Y-69454819D02*
X96152976Y-69502438D01*
X96152976Y-69502438D02*
X96105357Y-69550057D01*
X95724404Y-69550057D02*
X95676785Y-69502438D01*
X95676785Y-69502438D02*
X95581547Y-69454819D01*
X95581547Y-69454819D02*
X95343452Y-69454819D01*
X95343452Y-69454819D02*
X95248214Y-69502438D01*
X95248214Y-69502438D02*
X95200595Y-69550057D01*
X95200595Y-69550057D02*
X95152976Y-69645295D01*
X95152976Y-69645295D02*
X95152976Y-69740533D01*
X95152976Y-69740533D02*
X95200595Y-69883390D01*
X95200595Y-69883390D02*
X95772023Y-70454819D01*
X95772023Y-70454819D02*
X95152976Y-70454819D01*
X94819642Y-69454819D02*
X94152976Y-69454819D01*
X94152976Y-69454819D02*
X94581547Y-70454819D01*
X119696666Y-99904819D02*
X120029999Y-99428628D01*
X120268094Y-99904819D02*
X120268094Y-98904819D01*
X120268094Y-98904819D02*
X119887142Y-98904819D01*
X119887142Y-98904819D02*
X119791904Y-98952438D01*
X119791904Y-98952438D02*
X119744285Y-99000057D01*
X119744285Y-99000057D02*
X119696666Y-99095295D01*
X119696666Y-99095295D02*
X119696666Y-99238152D01*
X119696666Y-99238152D02*
X119744285Y-99333390D01*
X119744285Y-99333390D02*
X119791904Y-99381009D01*
X119791904Y-99381009D02*
X119887142Y-99428628D01*
X119887142Y-99428628D02*
X120268094Y-99428628D01*
X118744285Y-99904819D02*
X119315713Y-99904819D01*
X119029999Y-99904819D02*
X119029999Y-98904819D01*
X119029999Y-98904819D02*
X119125237Y-99047676D01*
X119125237Y-99047676D02*
X119220475Y-99142914D01*
X119220475Y-99142914D02*
X119315713Y-99190533D01*
X183330357Y-100449819D02*
X183663690Y-99973628D01*
X183901785Y-100449819D02*
X183901785Y-99449819D01*
X183901785Y-99449819D02*
X183520833Y-99449819D01*
X183520833Y-99449819D02*
X183425595Y-99497438D01*
X183425595Y-99497438D02*
X183377976Y-99545057D01*
X183377976Y-99545057D02*
X183330357Y-99640295D01*
X183330357Y-99640295D02*
X183330357Y-99783152D01*
X183330357Y-99783152D02*
X183377976Y-99878390D01*
X183377976Y-99878390D02*
X183425595Y-99926009D01*
X183425595Y-99926009D02*
X183520833Y-99973628D01*
X183520833Y-99973628D02*
X183901785Y-99973628D01*
X182949404Y-99545057D02*
X182901785Y-99497438D01*
X182901785Y-99497438D02*
X182806547Y-99449819D01*
X182806547Y-99449819D02*
X182568452Y-99449819D01*
X182568452Y-99449819D02*
X182473214Y-99497438D01*
X182473214Y-99497438D02*
X182425595Y-99545057D01*
X182425595Y-99545057D02*
X182377976Y-99640295D01*
X182377976Y-99640295D02*
X182377976Y-99735533D01*
X182377976Y-99735533D02*
X182425595Y-99878390D01*
X182425595Y-99878390D02*
X182997023Y-100449819D01*
X182997023Y-100449819D02*
X182377976Y-100449819D01*
X181473214Y-99449819D02*
X181949404Y-99449819D01*
X181949404Y-99449819D02*
X181997023Y-99926009D01*
X181997023Y-99926009D02*
X181949404Y-99878390D01*
X181949404Y-99878390D02*
X181854166Y-99830771D01*
X181854166Y-99830771D02*
X181616071Y-99830771D01*
X181616071Y-99830771D02*
X181520833Y-99878390D01*
X181520833Y-99878390D02*
X181473214Y-99926009D01*
X181473214Y-99926009D02*
X181425595Y-100021247D01*
X181425595Y-100021247D02*
X181425595Y-100259342D01*
X181425595Y-100259342D02*
X181473214Y-100354580D01*
X181473214Y-100354580D02*
X181520833Y-100402200D01*
X181520833Y-100402200D02*
X181616071Y-100449819D01*
X181616071Y-100449819D02*
X181854166Y-100449819D01*
X181854166Y-100449819D02*
X181949404Y-100402200D01*
X181949404Y-100402200D02*
X181997023Y-100354580D01*
X125754819Y-91733333D02*
X125754819Y-91257143D01*
X125754819Y-91257143D02*
X124754819Y-91257143D01*
X125754819Y-92590476D02*
X125754819Y-92019048D01*
X125754819Y-92304762D02*
X124754819Y-92304762D01*
X124754819Y-92304762D02*
X124897676Y-92209524D01*
X124897676Y-92209524D02*
X124992914Y-92114286D01*
X124992914Y-92114286D02*
X125040533Y-92019048D01*
X115886666Y-97364819D02*
X116219999Y-96888628D01*
X116458094Y-97364819D02*
X116458094Y-96364819D01*
X116458094Y-96364819D02*
X116077142Y-96364819D01*
X116077142Y-96364819D02*
X115981904Y-96412438D01*
X115981904Y-96412438D02*
X115934285Y-96460057D01*
X115934285Y-96460057D02*
X115886666Y-96555295D01*
X115886666Y-96555295D02*
X115886666Y-96698152D01*
X115886666Y-96698152D02*
X115934285Y-96793390D01*
X115934285Y-96793390D02*
X115981904Y-96841009D01*
X115981904Y-96841009D02*
X116077142Y-96888628D01*
X116077142Y-96888628D02*
X116458094Y-96888628D01*
X115553332Y-96364819D02*
X114934285Y-96364819D01*
X114934285Y-96364819D02*
X115267618Y-96745771D01*
X115267618Y-96745771D02*
X115124761Y-96745771D01*
X115124761Y-96745771D02*
X115029523Y-96793390D01*
X115029523Y-96793390D02*
X114981904Y-96841009D01*
X114981904Y-96841009D02*
X114934285Y-96936247D01*
X114934285Y-96936247D02*
X114934285Y-97174342D01*
X114934285Y-97174342D02*
X114981904Y-97269580D01*
X114981904Y-97269580D02*
X115029523Y-97317200D01*
X115029523Y-97317200D02*
X115124761Y-97364819D01*
X115124761Y-97364819D02*
X115410475Y-97364819D01*
X115410475Y-97364819D02*
X115505713Y-97317200D01*
X115505713Y-97317200D02*
X115553332Y-97269580D01*
X185454819Y-75857142D02*
X184978628Y-75523809D01*
X185454819Y-75285714D02*
X184454819Y-75285714D01*
X184454819Y-75285714D02*
X184454819Y-75666666D01*
X184454819Y-75666666D02*
X184502438Y-75761904D01*
X184502438Y-75761904D02*
X184550057Y-75809523D01*
X184550057Y-75809523D02*
X184645295Y-75857142D01*
X184645295Y-75857142D02*
X184788152Y-75857142D01*
X184788152Y-75857142D02*
X184883390Y-75809523D01*
X184883390Y-75809523D02*
X184931009Y-75761904D01*
X184931009Y-75761904D02*
X184978628Y-75666666D01*
X184978628Y-75666666D02*
X184978628Y-75285714D01*
X184550057Y-76238095D02*
X184502438Y-76285714D01*
X184502438Y-76285714D02*
X184454819Y-76380952D01*
X184454819Y-76380952D02*
X184454819Y-76619047D01*
X184454819Y-76619047D02*
X184502438Y-76714285D01*
X184502438Y-76714285D02*
X184550057Y-76761904D01*
X184550057Y-76761904D02*
X184645295Y-76809523D01*
X184645295Y-76809523D02*
X184740533Y-76809523D01*
X184740533Y-76809523D02*
X184883390Y-76761904D01*
X184883390Y-76761904D02*
X185454819Y-76190476D01*
X185454819Y-76190476D02*
X185454819Y-76809523D01*
X185454819Y-77761904D02*
X185454819Y-77190476D01*
X185454819Y-77476190D02*
X184454819Y-77476190D01*
X184454819Y-77476190D02*
X184597676Y-77380952D01*
X184597676Y-77380952D02*
X184692914Y-77285714D01*
X184692914Y-77285714D02*
X184740533Y-77190476D01*
X183404819Y-71261905D02*
X182404819Y-71261905D01*
X182404819Y-71261905D02*
X182404819Y-71500000D01*
X182404819Y-71500000D02*
X182452438Y-71642857D01*
X182452438Y-71642857D02*
X182547676Y-71738095D01*
X182547676Y-71738095D02*
X182642914Y-71785714D01*
X182642914Y-71785714D02*
X182833390Y-71833333D01*
X182833390Y-71833333D02*
X182976247Y-71833333D01*
X182976247Y-71833333D02*
X183166723Y-71785714D01*
X183166723Y-71785714D02*
X183261961Y-71738095D01*
X183261961Y-71738095D02*
X183357200Y-71642857D01*
X183357200Y-71642857D02*
X183404819Y-71500000D01*
X183404819Y-71500000D02*
X183404819Y-71261905D01*
X182404819Y-72738095D02*
X182404819Y-72261905D01*
X182404819Y-72261905D02*
X182881009Y-72214286D01*
X182881009Y-72214286D02*
X182833390Y-72261905D01*
X182833390Y-72261905D02*
X182785771Y-72357143D01*
X182785771Y-72357143D02*
X182785771Y-72595238D01*
X182785771Y-72595238D02*
X182833390Y-72690476D01*
X182833390Y-72690476D02*
X182881009Y-72738095D01*
X182881009Y-72738095D02*
X182976247Y-72785714D01*
X182976247Y-72785714D02*
X183214342Y-72785714D01*
X183214342Y-72785714D02*
X183309580Y-72738095D01*
X183309580Y-72738095D02*
X183357200Y-72690476D01*
X183357200Y-72690476D02*
X183404819Y-72595238D01*
X183404819Y-72595238D02*
X183404819Y-72357143D01*
X183404819Y-72357143D02*
X183357200Y-72261905D01*
X183357200Y-72261905D02*
X183309580Y-72214286D01*
X129746666Y-104644819D02*
X130079999Y-104168628D01*
X130318094Y-104644819D02*
X130318094Y-103644819D01*
X130318094Y-103644819D02*
X129937142Y-103644819D01*
X129937142Y-103644819D02*
X129841904Y-103692438D01*
X129841904Y-103692438D02*
X129794285Y-103740057D01*
X129794285Y-103740057D02*
X129746666Y-103835295D01*
X129746666Y-103835295D02*
X129746666Y-103978152D01*
X129746666Y-103978152D02*
X129794285Y-104073390D01*
X129794285Y-104073390D02*
X129841904Y-104121009D01*
X129841904Y-104121009D02*
X129937142Y-104168628D01*
X129937142Y-104168628D02*
X130318094Y-104168628D01*
X128841904Y-103644819D02*
X129318094Y-103644819D01*
X129318094Y-103644819D02*
X129365713Y-104121009D01*
X129365713Y-104121009D02*
X129318094Y-104073390D01*
X129318094Y-104073390D02*
X129222856Y-104025771D01*
X129222856Y-104025771D02*
X128984761Y-104025771D01*
X128984761Y-104025771D02*
X128889523Y-104073390D01*
X128889523Y-104073390D02*
X128841904Y-104121009D01*
X128841904Y-104121009D02*
X128794285Y-104216247D01*
X128794285Y-104216247D02*
X128794285Y-104454342D01*
X128794285Y-104454342D02*
X128841904Y-104549580D01*
X128841904Y-104549580D02*
X128889523Y-104597200D01*
X128889523Y-104597200D02*
X128984761Y-104644819D01*
X128984761Y-104644819D02*
X129222856Y-104644819D01*
X129222856Y-104644819D02*
X129318094Y-104597200D01*
X129318094Y-104597200D02*
X129365713Y-104549580D01*
X170849580Y-97934642D02*
X170897200Y-97887023D01*
X170897200Y-97887023D02*
X170944819Y-97744166D01*
X170944819Y-97744166D02*
X170944819Y-97648928D01*
X170944819Y-97648928D02*
X170897200Y-97506071D01*
X170897200Y-97506071D02*
X170801961Y-97410833D01*
X170801961Y-97410833D02*
X170706723Y-97363214D01*
X170706723Y-97363214D02*
X170516247Y-97315595D01*
X170516247Y-97315595D02*
X170373390Y-97315595D01*
X170373390Y-97315595D02*
X170182914Y-97363214D01*
X170182914Y-97363214D02*
X170087676Y-97410833D01*
X170087676Y-97410833D02*
X169992438Y-97506071D01*
X169992438Y-97506071D02*
X169944819Y-97648928D01*
X169944819Y-97648928D02*
X169944819Y-97744166D01*
X169944819Y-97744166D02*
X169992438Y-97887023D01*
X169992438Y-97887023D02*
X170040057Y-97934642D01*
X170944819Y-98887023D02*
X170944819Y-98315595D01*
X170944819Y-98601309D02*
X169944819Y-98601309D01*
X169944819Y-98601309D02*
X170087676Y-98506071D01*
X170087676Y-98506071D02*
X170182914Y-98410833D01*
X170182914Y-98410833D02*
X170230533Y-98315595D01*
X169944819Y-99220357D02*
X169944819Y-99839404D01*
X169944819Y-99839404D02*
X170325771Y-99506071D01*
X170325771Y-99506071D02*
X170325771Y-99648928D01*
X170325771Y-99648928D02*
X170373390Y-99744166D01*
X170373390Y-99744166D02*
X170421009Y-99791785D01*
X170421009Y-99791785D02*
X170516247Y-99839404D01*
X170516247Y-99839404D02*
X170754342Y-99839404D01*
X170754342Y-99839404D02*
X170849580Y-99791785D01*
X170849580Y-99791785D02*
X170897200Y-99744166D01*
X170897200Y-99744166D02*
X170944819Y-99648928D01*
X170944819Y-99648928D02*
X170944819Y-99363214D01*
X170944819Y-99363214D02*
X170897200Y-99267976D01*
X170897200Y-99267976D02*
X170849580Y-99220357D01*
X185139580Y-103819642D02*
X185187200Y-103772023D01*
X185187200Y-103772023D02*
X185234819Y-103629166D01*
X185234819Y-103629166D02*
X185234819Y-103533928D01*
X185234819Y-103533928D02*
X185187200Y-103391071D01*
X185187200Y-103391071D02*
X185091961Y-103295833D01*
X185091961Y-103295833D02*
X184996723Y-103248214D01*
X184996723Y-103248214D02*
X184806247Y-103200595D01*
X184806247Y-103200595D02*
X184663390Y-103200595D01*
X184663390Y-103200595D02*
X184472914Y-103248214D01*
X184472914Y-103248214D02*
X184377676Y-103295833D01*
X184377676Y-103295833D02*
X184282438Y-103391071D01*
X184282438Y-103391071D02*
X184234819Y-103533928D01*
X184234819Y-103533928D02*
X184234819Y-103629166D01*
X184234819Y-103629166D02*
X184282438Y-103772023D01*
X184282438Y-103772023D02*
X184330057Y-103819642D01*
X185234819Y-104772023D02*
X185234819Y-104200595D01*
X185234819Y-104486309D02*
X184234819Y-104486309D01*
X184234819Y-104486309D02*
X184377676Y-104391071D01*
X184377676Y-104391071D02*
X184472914Y-104295833D01*
X184472914Y-104295833D02*
X184520533Y-104200595D01*
X184330057Y-105152976D02*
X184282438Y-105200595D01*
X184282438Y-105200595D02*
X184234819Y-105295833D01*
X184234819Y-105295833D02*
X184234819Y-105533928D01*
X184234819Y-105533928D02*
X184282438Y-105629166D01*
X184282438Y-105629166D02*
X184330057Y-105676785D01*
X184330057Y-105676785D02*
X184425295Y-105724404D01*
X184425295Y-105724404D02*
X184520533Y-105724404D01*
X184520533Y-105724404D02*
X184663390Y-105676785D01*
X184663390Y-105676785D02*
X185234819Y-105105357D01*
X185234819Y-105105357D02*
X185234819Y-105724404D01*
X115924166Y-99839580D02*
X115971785Y-99887200D01*
X115971785Y-99887200D02*
X116114642Y-99934819D01*
X116114642Y-99934819D02*
X116209880Y-99934819D01*
X116209880Y-99934819D02*
X116352737Y-99887200D01*
X116352737Y-99887200D02*
X116447975Y-99791961D01*
X116447975Y-99791961D02*
X116495594Y-99696723D01*
X116495594Y-99696723D02*
X116543213Y-99506247D01*
X116543213Y-99506247D02*
X116543213Y-99363390D01*
X116543213Y-99363390D02*
X116495594Y-99172914D01*
X116495594Y-99172914D02*
X116447975Y-99077676D01*
X116447975Y-99077676D02*
X116352737Y-98982438D01*
X116352737Y-98982438D02*
X116209880Y-98934819D01*
X116209880Y-98934819D02*
X116114642Y-98934819D01*
X116114642Y-98934819D02*
X115971785Y-98982438D01*
X115971785Y-98982438D02*
X115924166Y-99030057D01*
X115543213Y-99030057D02*
X115495594Y-98982438D01*
X115495594Y-98982438D02*
X115400356Y-98934819D01*
X115400356Y-98934819D02*
X115162261Y-98934819D01*
X115162261Y-98934819D02*
X115067023Y-98982438D01*
X115067023Y-98982438D02*
X115019404Y-99030057D01*
X115019404Y-99030057D02*
X114971785Y-99125295D01*
X114971785Y-99125295D02*
X114971785Y-99220533D01*
X114971785Y-99220533D02*
X115019404Y-99363390D01*
X115019404Y-99363390D02*
X115590832Y-99934819D01*
X115590832Y-99934819D02*
X114971785Y-99934819D01*
X81954819Y-79166666D02*
X82669104Y-79166666D01*
X82669104Y-79166666D02*
X82811961Y-79119047D01*
X82811961Y-79119047D02*
X82907200Y-79023809D01*
X82907200Y-79023809D02*
X82954819Y-78880952D01*
X82954819Y-78880952D02*
X82954819Y-78785714D01*
X82288152Y-80071428D02*
X82954819Y-80071428D01*
X81907200Y-79833333D02*
X82621485Y-79595238D01*
X82621485Y-79595238D02*
X82621485Y-80214285D01*
X185600357Y-102924580D02*
X185647976Y-102972200D01*
X185647976Y-102972200D02*
X185790833Y-103019819D01*
X185790833Y-103019819D02*
X185886071Y-103019819D01*
X185886071Y-103019819D02*
X186028928Y-102972200D01*
X186028928Y-102972200D02*
X186124166Y-102876961D01*
X186124166Y-102876961D02*
X186171785Y-102781723D01*
X186171785Y-102781723D02*
X186219404Y-102591247D01*
X186219404Y-102591247D02*
X186219404Y-102448390D01*
X186219404Y-102448390D02*
X186171785Y-102257914D01*
X186171785Y-102257914D02*
X186124166Y-102162676D01*
X186124166Y-102162676D02*
X186028928Y-102067438D01*
X186028928Y-102067438D02*
X185886071Y-102019819D01*
X185886071Y-102019819D02*
X185790833Y-102019819D01*
X185790833Y-102019819D02*
X185647976Y-102067438D01*
X185647976Y-102067438D02*
X185600357Y-102115057D01*
X185219404Y-102115057D02*
X185171785Y-102067438D01*
X185171785Y-102067438D02*
X185076547Y-102019819D01*
X185076547Y-102019819D02*
X184838452Y-102019819D01*
X184838452Y-102019819D02*
X184743214Y-102067438D01*
X184743214Y-102067438D02*
X184695595Y-102115057D01*
X184695595Y-102115057D02*
X184647976Y-102210295D01*
X184647976Y-102210295D02*
X184647976Y-102305533D01*
X184647976Y-102305533D02*
X184695595Y-102448390D01*
X184695595Y-102448390D02*
X185267023Y-103019819D01*
X185267023Y-103019819D02*
X184647976Y-103019819D01*
X184171785Y-103019819D02*
X183981309Y-103019819D01*
X183981309Y-103019819D02*
X183886071Y-102972200D01*
X183886071Y-102972200D02*
X183838452Y-102924580D01*
X183838452Y-102924580D02*
X183743214Y-102781723D01*
X183743214Y-102781723D02*
X183695595Y-102591247D01*
X183695595Y-102591247D02*
X183695595Y-102210295D01*
X183695595Y-102210295D02*
X183743214Y-102115057D01*
X183743214Y-102115057D02*
X183790833Y-102067438D01*
X183790833Y-102067438D02*
X183886071Y-102019819D01*
X183886071Y-102019819D02*
X184076547Y-102019819D01*
X184076547Y-102019819D02*
X184171785Y-102067438D01*
X184171785Y-102067438D02*
X184219404Y-102115057D01*
X184219404Y-102115057D02*
X184267023Y-102210295D01*
X184267023Y-102210295D02*
X184267023Y-102448390D01*
X184267023Y-102448390D02*
X184219404Y-102543628D01*
X184219404Y-102543628D02*
X184171785Y-102591247D01*
X184171785Y-102591247D02*
X184076547Y-102638866D01*
X184076547Y-102638866D02*
X183886071Y-102638866D01*
X183886071Y-102638866D02*
X183790833Y-102591247D01*
X183790833Y-102591247D02*
X183743214Y-102543628D01*
X183743214Y-102543628D02*
X183695595Y-102448390D01*
X185454819Y-71261905D02*
X184454819Y-71261905D01*
X184454819Y-71261905D02*
X184454819Y-71500000D01*
X184454819Y-71500000D02*
X184502438Y-71642857D01*
X184502438Y-71642857D02*
X184597676Y-71738095D01*
X184597676Y-71738095D02*
X184692914Y-71785714D01*
X184692914Y-71785714D02*
X184883390Y-71833333D01*
X184883390Y-71833333D02*
X185026247Y-71833333D01*
X185026247Y-71833333D02*
X185216723Y-71785714D01*
X185216723Y-71785714D02*
X185311961Y-71738095D01*
X185311961Y-71738095D02*
X185407200Y-71642857D01*
X185407200Y-71642857D02*
X185454819Y-71500000D01*
X185454819Y-71500000D02*
X185454819Y-71261905D01*
X184788152Y-72690476D02*
X185454819Y-72690476D01*
X184407200Y-72452381D02*
X185121485Y-72214286D01*
X185121485Y-72214286D02*
X185121485Y-72833333D01*
X97333333Y-80431009D02*
X97666666Y-80431009D01*
X97666666Y-80954819D02*
X97666666Y-79954819D01*
X97666666Y-79954819D02*
X97190476Y-79954819D01*
X96285714Y-80954819D02*
X96857142Y-80954819D01*
X96571428Y-80954819D02*
X96571428Y-79954819D01*
X96571428Y-79954819D02*
X96666666Y-80097676D01*
X96666666Y-80097676D02*
X96761904Y-80192914D01*
X96761904Y-80192914D02*
X96857142Y-80240533D01*
X178072857Y-100449819D02*
X178406190Y-99973628D01*
X178644285Y-100449819D02*
X178644285Y-99449819D01*
X178644285Y-99449819D02*
X178263333Y-99449819D01*
X178263333Y-99449819D02*
X178168095Y-99497438D01*
X178168095Y-99497438D02*
X178120476Y-99545057D01*
X178120476Y-99545057D02*
X178072857Y-99640295D01*
X178072857Y-99640295D02*
X178072857Y-99783152D01*
X178072857Y-99783152D02*
X178120476Y-99878390D01*
X178120476Y-99878390D02*
X178168095Y-99926009D01*
X178168095Y-99926009D02*
X178263333Y-99973628D01*
X178263333Y-99973628D02*
X178644285Y-99973628D01*
X177120476Y-100449819D02*
X177691904Y-100449819D01*
X177406190Y-100449819D02*
X177406190Y-99449819D01*
X177406190Y-99449819D02*
X177501428Y-99592676D01*
X177501428Y-99592676D02*
X177596666Y-99687914D01*
X177596666Y-99687914D02*
X177691904Y-99735533D01*
X176168095Y-100449819D02*
X176739523Y-100449819D01*
X176453809Y-100449819D02*
X176453809Y-99449819D01*
X176453809Y-99449819D02*
X176549047Y-99592676D01*
X176549047Y-99592676D02*
X176644285Y-99687914D01*
X176644285Y-99687914D02*
X176739523Y-99735533D01*
X187870357Y-100449819D02*
X188203690Y-99973628D01*
X188441785Y-100449819D02*
X188441785Y-99449819D01*
X188441785Y-99449819D02*
X188060833Y-99449819D01*
X188060833Y-99449819D02*
X187965595Y-99497438D01*
X187965595Y-99497438D02*
X187917976Y-99545057D01*
X187917976Y-99545057D02*
X187870357Y-99640295D01*
X187870357Y-99640295D02*
X187870357Y-99783152D01*
X187870357Y-99783152D02*
X187917976Y-99878390D01*
X187917976Y-99878390D02*
X187965595Y-99926009D01*
X187965595Y-99926009D02*
X188060833Y-99973628D01*
X188060833Y-99973628D02*
X188441785Y-99973628D01*
X186917976Y-100449819D02*
X187489404Y-100449819D01*
X187203690Y-100449819D02*
X187203690Y-99449819D01*
X187203690Y-99449819D02*
X187298928Y-99592676D01*
X187298928Y-99592676D02*
X187394166Y-99687914D01*
X187394166Y-99687914D02*
X187489404Y-99735533D01*
X186537023Y-99545057D02*
X186489404Y-99497438D01*
X186489404Y-99497438D02*
X186394166Y-99449819D01*
X186394166Y-99449819D02*
X186156071Y-99449819D01*
X186156071Y-99449819D02*
X186060833Y-99497438D01*
X186060833Y-99497438D02*
X186013214Y-99545057D01*
X186013214Y-99545057D02*
X185965595Y-99640295D01*
X185965595Y-99640295D02*
X185965595Y-99735533D01*
X185965595Y-99735533D02*
X186013214Y-99878390D01*
X186013214Y-99878390D02*
X186584642Y-100449819D01*
X186584642Y-100449819D02*
X185965595Y-100449819D01*
X119696666Y-97364819D02*
X120029999Y-96888628D01*
X120268094Y-97364819D02*
X120268094Y-96364819D01*
X120268094Y-96364819D02*
X119887142Y-96364819D01*
X119887142Y-96364819D02*
X119791904Y-96412438D01*
X119791904Y-96412438D02*
X119744285Y-96460057D01*
X119744285Y-96460057D02*
X119696666Y-96555295D01*
X119696666Y-96555295D02*
X119696666Y-96698152D01*
X119696666Y-96698152D02*
X119744285Y-96793390D01*
X119744285Y-96793390D02*
X119791904Y-96841009D01*
X119791904Y-96841009D02*
X119887142Y-96888628D01*
X119887142Y-96888628D02*
X120268094Y-96888628D01*
X118839523Y-96698152D02*
X118839523Y-97364819D01*
X119077618Y-96317200D02*
X119315713Y-97031485D01*
X119315713Y-97031485D02*
X118696666Y-97031485D01*
X179454819Y-71261905D02*
X178454819Y-71261905D01*
X178454819Y-71261905D02*
X178454819Y-71500000D01*
X178454819Y-71500000D02*
X178502438Y-71642857D01*
X178502438Y-71642857D02*
X178597676Y-71738095D01*
X178597676Y-71738095D02*
X178692914Y-71785714D01*
X178692914Y-71785714D02*
X178883390Y-71833333D01*
X178883390Y-71833333D02*
X179026247Y-71833333D01*
X179026247Y-71833333D02*
X179216723Y-71785714D01*
X179216723Y-71785714D02*
X179311961Y-71738095D01*
X179311961Y-71738095D02*
X179407200Y-71642857D01*
X179407200Y-71642857D02*
X179454819Y-71500000D01*
X179454819Y-71500000D02*
X179454819Y-71261905D01*
X178454819Y-72166667D02*
X178454819Y-72833333D01*
X178454819Y-72833333D02*
X179454819Y-72404762D01*
X185832857Y-97844580D02*
X185880476Y-97892200D01*
X185880476Y-97892200D02*
X186023333Y-97939819D01*
X186023333Y-97939819D02*
X186118571Y-97939819D01*
X186118571Y-97939819D02*
X186261428Y-97892200D01*
X186261428Y-97892200D02*
X186356666Y-97796961D01*
X186356666Y-97796961D02*
X186404285Y-97701723D01*
X186404285Y-97701723D02*
X186451904Y-97511247D01*
X186451904Y-97511247D02*
X186451904Y-97368390D01*
X186451904Y-97368390D02*
X186404285Y-97177914D01*
X186404285Y-97177914D02*
X186356666Y-97082676D01*
X186356666Y-97082676D02*
X186261428Y-96987438D01*
X186261428Y-96987438D02*
X186118571Y-96939819D01*
X186118571Y-96939819D02*
X186023333Y-96939819D01*
X186023333Y-96939819D02*
X185880476Y-96987438D01*
X185880476Y-96987438D02*
X185832857Y-97035057D01*
X185499523Y-96939819D02*
X184880476Y-96939819D01*
X184880476Y-96939819D02*
X185213809Y-97320771D01*
X185213809Y-97320771D02*
X185070952Y-97320771D01*
X185070952Y-97320771D02*
X184975714Y-97368390D01*
X184975714Y-97368390D02*
X184928095Y-97416009D01*
X184928095Y-97416009D02*
X184880476Y-97511247D01*
X184880476Y-97511247D02*
X184880476Y-97749342D01*
X184880476Y-97749342D02*
X184928095Y-97844580D01*
X184928095Y-97844580D02*
X184975714Y-97892200D01*
X184975714Y-97892200D02*
X185070952Y-97939819D01*
X185070952Y-97939819D02*
X185356666Y-97939819D01*
X185356666Y-97939819D02*
X185451904Y-97892200D01*
X185451904Y-97892200D02*
X185499523Y-97844580D01*
X184261428Y-96939819D02*
X184166190Y-96939819D01*
X184166190Y-96939819D02*
X184070952Y-96987438D01*
X184070952Y-96987438D02*
X184023333Y-97035057D01*
X184023333Y-97035057D02*
X183975714Y-97130295D01*
X183975714Y-97130295D02*
X183928095Y-97320771D01*
X183928095Y-97320771D02*
X183928095Y-97558866D01*
X183928095Y-97558866D02*
X183975714Y-97749342D01*
X183975714Y-97749342D02*
X184023333Y-97844580D01*
X184023333Y-97844580D02*
X184070952Y-97892200D01*
X184070952Y-97892200D02*
X184166190Y-97939819D01*
X184166190Y-97939819D02*
X184261428Y-97939819D01*
X184261428Y-97939819D02*
X184356666Y-97892200D01*
X184356666Y-97892200D02*
X184404285Y-97844580D01*
X184404285Y-97844580D02*
X184451904Y-97749342D01*
X184451904Y-97749342D02*
X184499523Y-97558866D01*
X184499523Y-97558866D02*
X184499523Y-97320771D01*
X184499523Y-97320771D02*
X184451904Y-97130295D01*
X184451904Y-97130295D02*
X184404285Y-97035057D01*
X184404285Y-97035057D02*
X184356666Y-96987438D01*
X184356666Y-96987438D02*
X184261428Y-96939819D01*
X103239580Y-94055833D02*
X103287200Y-94008214D01*
X103287200Y-94008214D02*
X103334819Y-93865357D01*
X103334819Y-93865357D02*
X103334819Y-93770119D01*
X103334819Y-93770119D02*
X103287200Y-93627262D01*
X103287200Y-93627262D02*
X103191961Y-93532024D01*
X103191961Y-93532024D02*
X103096723Y-93484405D01*
X103096723Y-93484405D02*
X102906247Y-93436786D01*
X102906247Y-93436786D02*
X102763390Y-93436786D01*
X102763390Y-93436786D02*
X102572914Y-93484405D01*
X102572914Y-93484405D02*
X102477676Y-93532024D01*
X102477676Y-93532024D02*
X102382438Y-93627262D01*
X102382438Y-93627262D02*
X102334819Y-93770119D01*
X102334819Y-93770119D02*
X102334819Y-93865357D01*
X102334819Y-93865357D02*
X102382438Y-94008214D01*
X102382438Y-94008214D02*
X102430057Y-94055833D01*
X102334819Y-94389167D02*
X102334819Y-95008214D01*
X102334819Y-95008214D02*
X102715771Y-94674881D01*
X102715771Y-94674881D02*
X102715771Y-94817738D01*
X102715771Y-94817738D02*
X102763390Y-94912976D01*
X102763390Y-94912976D02*
X102811009Y-94960595D01*
X102811009Y-94960595D02*
X102906247Y-95008214D01*
X102906247Y-95008214D02*
X103144342Y-95008214D01*
X103144342Y-95008214D02*
X103239580Y-94960595D01*
X103239580Y-94960595D02*
X103287200Y-94912976D01*
X103287200Y-94912976D02*
X103334819Y-94817738D01*
X103334819Y-94817738D02*
X103334819Y-94532024D01*
X103334819Y-94532024D02*
X103287200Y-94436786D01*
X103287200Y-94436786D02*
X103239580Y-94389167D01*
X151312857Y-113349580D02*
X151360476Y-113397200D01*
X151360476Y-113397200D02*
X151503333Y-113444819D01*
X151503333Y-113444819D02*
X151598571Y-113444819D01*
X151598571Y-113444819D02*
X151741428Y-113397200D01*
X151741428Y-113397200D02*
X151836666Y-113301961D01*
X151836666Y-113301961D02*
X151884285Y-113206723D01*
X151884285Y-113206723D02*
X151931904Y-113016247D01*
X151931904Y-113016247D02*
X151931904Y-112873390D01*
X151931904Y-112873390D02*
X151884285Y-112682914D01*
X151884285Y-112682914D02*
X151836666Y-112587676D01*
X151836666Y-112587676D02*
X151741428Y-112492438D01*
X151741428Y-112492438D02*
X151598571Y-112444819D01*
X151598571Y-112444819D02*
X151503333Y-112444819D01*
X151503333Y-112444819D02*
X151360476Y-112492438D01*
X151360476Y-112492438D02*
X151312857Y-112540057D01*
X150360476Y-113444819D02*
X150931904Y-113444819D01*
X150646190Y-113444819D02*
X150646190Y-112444819D01*
X150646190Y-112444819D02*
X150741428Y-112587676D01*
X150741428Y-112587676D02*
X150836666Y-112682914D01*
X150836666Y-112682914D02*
X150931904Y-112730533D01*
X149408095Y-113444819D02*
X149979523Y-113444819D01*
X149693809Y-113444819D02*
X149693809Y-112444819D01*
X149693809Y-112444819D02*
X149789047Y-112587676D01*
X149789047Y-112587676D02*
X149884285Y-112682914D01*
X149884285Y-112682914D02*
X149979523Y-112730533D01*
X129746666Y-107594819D02*
X130079999Y-107118628D01*
X130318094Y-107594819D02*
X130318094Y-106594819D01*
X130318094Y-106594819D02*
X129937142Y-106594819D01*
X129937142Y-106594819D02*
X129841904Y-106642438D01*
X129841904Y-106642438D02*
X129794285Y-106690057D01*
X129794285Y-106690057D02*
X129746666Y-106785295D01*
X129746666Y-106785295D02*
X129746666Y-106928152D01*
X129746666Y-106928152D02*
X129794285Y-107023390D01*
X129794285Y-107023390D02*
X129841904Y-107071009D01*
X129841904Y-107071009D02*
X129937142Y-107118628D01*
X129937142Y-107118628D02*
X130318094Y-107118628D01*
X128889523Y-106594819D02*
X129079999Y-106594819D01*
X129079999Y-106594819D02*
X129175237Y-106642438D01*
X129175237Y-106642438D02*
X129222856Y-106690057D01*
X129222856Y-106690057D02*
X129318094Y-106832914D01*
X129318094Y-106832914D02*
X129365713Y-107023390D01*
X129365713Y-107023390D02*
X129365713Y-107404342D01*
X129365713Y-107404342D02*
X129318094Y-107499580D01*
X129318094Y-107499580D02*
X129270475Y-107547200D01*
X129270475Y-107547200D02*
X129175237Y-107594819D01*
X129175237Y-107594819D02*
X128984761Y-107594819D01*
X128984761Y-107594819D02*
X128889523Y-107547200D01*
X128889523Y-107547200D02*
X128841904Y-107499580D01*
X128841904Y-107499580D02*
X128794285Y-107404342D01*
X128794285Y-107404342D02*
X128794285Y-107166247D01*
X128794285Y-107166247D02*
X128841904Y-107071009D01*
X128841904Y-107071009D02*
X128889523Y-107023390D01*
X128889523Y-107023390D02*
X128984761Y-106975771D01*
X128984761Y-106975771D02*
X129175237Y-106975771D01*
X129175237Y-106975771D02*
X129270475Y-107023390D01*
X129270475Y-107023390D02*
X129318094Y-107071009D01*
X129318094Y-107071009D02*
X129365713Y-107166247D01*
X174061904Y-79974819D02*
X174061904Y-80784342D01*
X174061904Y-80784342D02*
X174014285Y-80879580D01*
X174014285Y-80879580D02*
X173966666Y-80927200D01*
X173966666Y-80927200D02*
X173871428Y-80974819D01*
X173871428Y-80974819D02*
X173680952Y-80974819D01*
X173680952Y-80974819D02*
X173585714Y-80927200D01*
X173585714Y-80927200D02*
X173538095Y-80879580D01*
X173538095Y-80879580D02*
X173490476Y-80784342D01*
X173490476Y-80784342D02*
X173490476Y-79974819D01*
X173061904Y-80070057D02*
X173014285Y-80022438D01*
X173014285Y-80022438D02*
X172919047Y-79974819D01*
X172919047Y-79974819D02*
X172680952Y-79974819D01*
X172680952Y-79974819D02*
X172585714Y-80022438D01*
X172585714Y-80022438D02*
X172538095Y-80070057D01*
X172538095Y-80070057D02*
X172490476Y-80165295D01*
X172490476Y-80165295D02*
X172490476Y-80260533D01*
X172490476Y-80260533D02*
X172538095Y-80403390D01*
X172538095Y-80403390D02*
X173109523Y-80974819D01*
X173109523Y-80974819D02*
X172490476Y-80974819D01*
X110466904Y-94489819D02*
X110466904Y-95299342D01*
X110466904Y-95299342D02*
X110419285Y-95394580D01*
X110419285Y-95394580D02*
X110371666Y-95442200D01*
X110371666Y-95442200D02*
X110276428Y-95489819D01*
X110276428Y-95489819D02*
X110085952Y-95489819D01*
X110085952Y-95489819D02*
X109990714Y-95442200D01*
X109990714Y-95442200D02*
X109943095Y-95394580D01*
X109943095Y-95394580D02*
X109895476Y-95299342D01*
X109895476Y-95299342D02*
X109895476Y-94489819D01*
X108895476Y-95489819D02*
X109466904Y-95489819D01*
X109181190Y-95489819D02*
X109181190Y-94489819D01*
X109181190Y-94489819D02*
X109276428Y-94632676D01*
X109276428Y-94632676D02*
X109371666Y-94727914D01*
X109371666Y-94727914D02*
X109466904Y-94775533D01*
X173389580Y-97934642D02*
X173437200Y-97887023D01*
X173437200Y-97887023D02*
X173484819Y-97744166D01*
X173484819Y-97744166D02*
X173484819Y-97648928D01*
X173484819Y-97648928D02*
X173437200Y-97506071D01*
X173437200Y-97506071D02*
X173341961Y-97410833D01*
X173341961Y-97410833D02*
X173246723Y-97363214D01*
X173246723Y-97363214D02*
X173056247Y-97315595D01*
X173056247Y-97315595D02*
X172913390Y-97315595D01*
X172913390Y-97315595D02*
X172722914Y-97363214D01*
X172722914Y-97363214D02*
X172627676Y-97410833D01*
X172627676Y-97410833D02*
X172532438Y-97506071D01*
X172532438Y-97506071D02*
X172484819Y-97648928D01*
X172484819Y-97648928D02*
X172484819Y-97744166D01*
X172484819Y-97744166D02*
X172532438Y-97887023D01*
X172532438Y-97887023D02*
X172580057Y-97934642D01*
X173484819Y-98887023D02*
X173484819Y-98315595D01*
X173484819Y-98601309D02*
X172484819Y-98601309D01*
X172484819Y-98601309D02*
X172627676Y-98506071D01*
X172627676Y-98506071D02*
X172722914Y-98410833D01*
X172722914Y-98410833D02*
X172770533Y-98315595D01*
X172818152Y-99744166D02*
X173484819Y-99744166D01*
X172437200Y-99506071D02*
X173151485Y-99267976D01*
X173151485Y-99267976D02*
X173151485Y-99887023D01*
X175801666Y-91739819D02*
X176134999Y-91263628D01*
X176373094Y-91739819D02*
X176373094Y-90739819D01*
X176373094Y-90739819D02*
X175992142Y-90739819D01*
X175992142Y-90739819D02*
X175896904Y-90787438D01*
X175896904Y-90787438D02*
X175849285Y-90835057D01*
X175849285Y-90835057D02*
X175801666Y-90930295D01*
X175801666Y-90930295D02*
X175801666Y-91073152D01*
X175801666Y-91073152D02*
X175849285Y-91168390D01*
X175849285Y-91168390D02*
X175896904Y-91216009D01*
X175896904Y-91216009D02*
X175992142Y-91263628D01*
X175992142Y-91263628D02*
X176373094Y-91263628D01*
X175325475Y-91739819D02*
X175134999Y-91739819D01*
X175134999Y-91739819D02*
X175039761Y-91692200D01*
X175039761Y-91692200D02*
X174992142Y-91644580D01*
X174992142Y-91644580D02*
X174896904Y-91501723D01*
X174896904Y-91501723D02*
X174849285Y-91311247D01*
X174849285Y-91311247D02*
X174849285Y-90930295D01*
X174849285Y-90930295D02*
X174896904Y-90835057D01*
X174896904Y-90835057D02*
X174944523Y-90787438D01*
X174944523Y-90787438D02*
X175039761Y-90739819D01*
X175039761Y-90739819D02*
X175230237Y-90739819D01*
X175230237Y-90739819D02*
X175325475Y-90787438D01*
X175325475Y-90787438D02*
X175373094Y-90835057D01*
X175373094Y-90835057D02*
X175420713Y-90930295D01*
X175420713Y-90930295D02*
X175420713Y-91168390D01*
X175420713Y-91168390D02*
X175373094Y-91263628D01*
X175373094Y-91263628D02*
X175325475Y-91311247D01*
X175325475Y-91311247D02*
X175230237Y-91358866D01*
X175230237Y-91358866D02*
X175039761Y-91358866D01*
X175039761Y-91358866D02*
X174944523Y-91311247D01*
X174944523Y-91311247D02*
X174896904Y-91263628D01*
X174896904Y-91263628D02*
X174849285Y-91168390D01*
X218313333Y-84834819D02*
X218313333Y-85549104D01*
X218313333Y-85549104D02*
X218360952Y-85691961D01*
X218360952Y-85691961D02*
X218456190Y-85787200D01*
X218456190Y-85787200D02*
X218599047Y-85834819D01*
X218599047Y-85834819D02*
X218694285Y-85834819D01*
X217313333Y-85834819D02*
X217884761Y-85834819D01*
X217599047Y-85834819D02*
X217599047Y-84834819D01*
X217599047Y-84834819D02*
X217694285Y-84977676D01*
X217694285Y-84977676D02*
X217789523Y-85072914D01*
X217789523Y-85072914D02*
X217884761Y-85120533D01*
X218313333Y-96834819D02*
X218313333Y-97549104D01*
X218313333Y-97549104D02*
X218360952Y-97691961D01*
X218360952Y-97691961D02*
X218456190Y-97787200D01*
X218456190Y-97787200D02*
X218599047Y-97834819D01*
X218599047Y-97834819D02*
X218694285Y-97834819D01*
X217884761Y-96930057D02*
X217837142Y-96882438D01*
X217837142Y-96882438D02*
X217741904Y-96834819D01*
X217741904Y-96834819D02*
X217503809Y-96834819D01*
X217503809Y-96834819D02*
X217408571Y-96882438D01*
X217408571Y-96882438D02*
X217360952Y-96930057D01*
X217360952Y-96930057D02*
X217313333Y-97025295D01*
X217313333Y-97025295D02*
X217313333Y-97120533D01*
X217313333Y-97120533D02*
X217360952Y-97263390D01*
X217360952Y-97263390D02*
X217932380Y-97834819D01*
X217932380Y-97834819D02*
X217313333Y-97834819D01*
X150836666Y-101919580D02*
X150884285Y-101967200D01*
X150884285Y-101967200D02*
X151027142Y-102014819D01*
X151027142Y-102014819D02*
X151122380Y-102014819D01*
X151122380Y-102014819D02*
X151265237Y-101967200D01*
X151265237Y-101967200D02*
X151360475Y-101871961D01*
X151360475Y-101871961D02*
X151408094Y-101776723D01*
X151408094Y-101776723D02*
X151455713Y-101586247D01*
X151455713Y-101586247D02*
X151455713Y-101443390D01*
X151455713Y-101443390D02*
X151408094Y-101252914D01*
X151408094Y-101252914D02*
X151360475Y-101157676D01*
X151360475Y-101157676D02*
X151265237Y-101062438D01*
X151265237Y-101062438D02*
X151122380Y-101014819D01*
X151122380Y-101014819D02*
X151027142Y-101014819D01*
X151027142Y-101014819D02*
X150884285Y-101062438D01*
X150884285Y-101062438D02*
X150836666Y-101110057D01*
X150503332Y-101014819D02*
X149836666Y-101014819D01*
X149836666Y-101014819D02*
X150265237Y-102014819D01*
X175929580Y-97934642D02*
X175977200Y-97887023D01*
X175977200Y-97887023D02*
X176024819Y-97744166D01*
X176024819Y-97744166D02*
X176024819Y-97648928D01*
X176024819Y-97648928D02*
X175977200Y-97506071D01*
X175977200Y-97506071D02*
X175881961Y-97410833D01*
X175881961Y-97410833D02*
X175786723Y-97363214D01*
X175786723Y-97363214D02*
X175596247Y-97315595D01*
X175596247Y-97315595D02*
X175453390Y-97315595D01*
X175453390Y-97315595D02*
X175262914Y-97363214D01*
X175262914Y-97363214D02*
X175167676Y-97410833D01*
X175167676Y-97410833D02*
X175072438Y-97506071D01*
X175072438Y-97506071D02*
X175024819Y-97648928D01*
X175024819Y-97648928D02*
X175024819Y-97744166D01*
X175024819Y-97744166D02*
X175072438Y-97887023D01*
X175072438Y-97887023D02*
X175120057Y-97934642D01*
X175120057Y-98315595D02*
X175072438Y-98363214D01*
X175072438Y-98363214D02*
X175024819Y-98458452D01*
X175024819Y-98458452D02*
X175024819Y-98696547D01*
X175024819Y-98696547D02*
X175072438Y-98791785D01*
X175072438Y-98791785D02*
X175120057Y-98839404D01*
X175120057Y-98839404D02*
X175215295Y-98887023D01*
X175215295Y-98887023D02*
X175310533Y-98887023D01*
X175310533Y-98887023D02*
X175453390Y-98839404D01*
X175453390Y-98839404D02*
X176024819Y-98267976D01*
X176024819Y-98267976D02*
X176024819Y-98887023D01*
X175024819Y-99744166D02*
X175024819Y-99553690D01*
X175024819Y-99553690D02*
X175072438Y-99458452D01*
X175072438Y-99458452D02*
X175120057Y-99410833D01*
X175120057Y-99410833D02*
X175262914Y-99315595D01*
X175262914Y-99315595D02*
X175453390Y-99267976D01*
X175453390Y-99267976D02*
X175834342Y-99267976D01*
X175834342Y-99267976D02*
X175929580Y-99315595D01*
X175929580Y-99315595D02*
X175977200Y-99363214D01*
X175977200Y-99363214D02*
X176024819Y-99458452D01*
X176024819Y-99458452D02*
X176024819Y-99648928D01*
X176024819Y-99648928D02*
X175977200Y-99744166D01*
X175977200Y-99744166D02*
X175929580Y-99791785D01*
X175929580Y-99791785D02*
X175834342Y-99839404D01*
X175834342Y-99839404D02*
X175596247Y-99839404D01*
X175596247Y-99839404D02*
X175501009Y-99791785D01*
X175501009Y-99791785D02*
X175453390Y-99744166D01*
X175453390Y-99744166D02*
X175405771Y-99648928D01*
X175405771Y-99648928D02*
X175405771Y-99458452D01*
X175405771Y-99458452D02*
X175453390Y-99363214D01*
X175453390Y-99363214D02*
X175501009Y-99315595D01*
X175501009Y-99315595D02*
X175596247Y-99267976D01*
X139344819Y-94561905D02*
X138344819Y-94561905D01*
X138344819Y-94561905D02*
X138344819Y-94800000D01*
X138344819Y-94800000D02*
X138392438Y-94942857D01*
X138392438Y-94942857D02*
X138487676Y-95038095D01*
X138487676Y-95038095D02*
X138582914Y-95085714D01*
X138582914Y-95085714D02*
X138773390Y-95133333D01*
X138773390Y-95133333D02*
X138916247Y-95133333D01*
X138916247Y-95133333D02*
X139106723Y-95085714D01*
X139106723Y-95085714D02*
X139201961Y-95038095D01*
X139201961Y-95038095D02*
X139297200Y-94942857D01*
X139297200Y-94942857D02*
X139344819Y-94800000D01*
X139344819Y-94800000D02*
X139344819Y-94561905D01*
X139344819Y-96085714D02*
X139344819Y-95514286D01*
X139344819Y-95800000D02*
X138344819Y-95800000D01*
X138344819Y-95800000D02*
X138487676Y-95704762D01*
X138487676Y-95704762D02*
X138582914Y-95609524D01*
X138582914Y-95609524D02*
X138630533Y-95514286D01*
X166964580Y-86219642D02*
X167012200Y-86172023D01*
X167012200Y-86172023D02*
X167059819Y-86029166D01*
X167059819Y-86029166D02*
X167059819Y-85933928D01*
X167059819Y-85933928D02*
X167012200Y-85791071D01*
X167012200Y-85791071D02*
X166916961Y-85695833D01*
X166916961Y-85695833D02*
X166821723Y-85648214D01*
X166821723Y-85648214D02*
X166631247Y-85600595D01*
X166631247Y-85600595D02*
X166488390Y-85600595D01*
X166488390Y-85600595D02*
X166297914Y-85648214D01*
X166297914Y-85648214D02*
X166202676Y-85695833D01*
X166202676Y-85695833D02*
X166107438Y-85791071D01*
X166107438Y-85791071D02*
X166059819Y-85933928D01*
X166059819Y-85933928D02*
X166059819Y-86029166D01*
X166059819Y-86029166D02*
X166107438Y-86172023D01*
X166107438Y-86172023D02*
X166155057Y-86219642D01*
X167059819Y-87172023D02*
X167059819Y-86600595D01*
X167059819Y-86886309D02*
X166059819Y-86886309D01*
X166059819Y-86886309D02*
X166202676Y-86791071D01*
X166202676Y-86791071D02*
X166297914Y-86695833D01*
X166297914Y-86695833D02*
X166345533Y-86600595D01*
X166059819Y-87791071D02*
X166059819Y-87886309D01*
X166059819Y-87886309D02*
X166107438Y-87981547D01*
X166107438Y-87981547D02*
X166155057Y-88029166D01*
X166155057Y-88029166D02*
X166250295Y-88076785D01*
X166250295Y-88076785D02*
X166440771Y-88124404D01*
X166440771Y-88124404D02*
X166678866Y-88124404D01*
X166678866Y-88124404D02*
X166869342Y-88076785D01*
X166869342Y-88076785D02*
X166964580Y-88029166D01*
X166964580Y-88029166D02*
X167012200Y-87981547D01*
X167012200Y-87981547D02*
X167059819Y-87886309D01*
X167059819Y-87886309D02*
X167059819Y-87791071D01*
X167059819Y-87791071D02*
X167012200Y-87695833D01*
X167012200Y-87695833D02*
X166964580Y-87648214D01*
X166964580Y-87648214D02*
X166869342Y-87600595D01*
X166869342Y-87600595D02*
X166678866Y-87552976D01*
X166678866Y-87552976D02*
X166440771Y-87552976D01*
X166440771Y-87552976D02*
X166250295Y-87600595D01*
X166250295Y-87600595D02*
X166155057Y-87648214D01*
X166155057Y-87648214D02*
X166107438Y-87695833D01*
X166107438Y-87695833D02*
X166059819Y-87791071D01*
X150836666Y-90489580D02*
X150884285Y-90537200D01*
X150884285Y-90537200D02*
X151027142Y-90584819D01*
X151027142Y-90584819D02*
X151122380Y-90584819D01*
X151122380Y-90584819D02*
X151265237Y-90537200D01*
X151265237Y-90537200D02*
X151360475Y-90441961D01*
X151360475Y-90441961D02*
X151408094Y-90346723D01*
X151408094Y-90346723D02*
X151455713Y-90156247D01*
X151455713Y-90156247D02*
X151455713Y-90013390D01*
X151455713Y-90013390D02*
X151408094Y-89822914D01*
X151408094Y-89822914D02*
X151360475Y-89727676D01*
X151360475Y-89727676D02*
X151265237Y-89632438D01*
X151265237Y-89632438D02*
X151122380Y-89584819D01*
X151122380Y-89584819D02*
X151027142Y-89584819D01*
X151027142Y-89584819D02*
X150884285Y-89632438D01*
X150884285Y-89632438D02*
X150836666Y-89680057D01*
X149979523Y-89584819D02*
X150169999Y-89584819D01*
X150169999Y-89584819D02*
X150265237Y-89632438D01*
X150265237Y-89632438D02*
X150312856Y-89680057D01*
X150312856Y-89680057D02*
X150408094Y-89822914D01*
X150408094Y-89822914D02*
X150455713Y-90013390D01*
X150455713Y-90013390D02*
X150455713Y-90394342D01*
X150455713Y-90394342D02*
X150408094Y-90489580D01*
X150408094Y-90489580D02*
X150360475Y-90537200D01*
X150360475Y-90537200D02*
X150265237Y-90584819D01*
X150265237Y-90584819D02*
X150074761Y-90584819D01*
X150074761Y-90584819D02*
X149979523Y-90537200D01*
X149979523Y-90537200D02*
X149931904Y-90489580D01*
X149931904Y-90489580D02*
X149884285Y-90394342D01*
X149884285Y-90394342D02*
X149884285Y-90156247D01*
X149884285Y-90156247D02*
X149931904Y-90061009D01*
X149931904Y-90061009D02*
X149979523Y-90013390D01*
X149979523Y-90013390D02*
X150074761Y-89965771D01*
X150074761Y-89965771D02*
X150265237Y-89965771D01*
X150265237Y-89965771D02*
X150360475Y-90013390D01*
X150360475Y-90013390D02*
X150408094Y-90061009D01*
X150408094Y-90061009D02*
X150455713Y-90156247D01*
D11*
%TO.C,VFIL*%
X211200000Y-68000000D02*
G75*
G03*
X211200000Y-68000000I-1200000J0D01*
G01*
%TO.C,U3*%
X219220000Y-76025000D02*
X218245000Y-76025000D01*
X219220000Y-74837500D01*
X219220000Y-76025000D01*
G36*
X219220000Y-76025000D02*
G01*
X218245000Y-76025000D01*
X219220000Y-74837500D01*
X219220000Y-76025000D01*
G37*
X219220000Y-71275000D02*
X215320000Y-71275000D01*
X215320000Y-71275000D02*
X215320000Y-76025000D01*
X215320000Y-76025000D02*
X219220000Y-76025000D01*
X219220000Y-76025000D02*
X219220000Y-71275000D01*
%TO.C,R13*%
X212765000Y-76027064D02*
X212765000Y-75572936D01*
X214235000Y-76027064D02*
X214235000Y-75572936D01*
%TO.C,VIN*%
X93700000Y-83500000D02*
G75*
G03*
X93700000Y-83500000I-1200000J0D01*
G01*
%TO.C,GND*%
X100200000Y-73500000D02*
G75*
G03*
X100200000Y-73500000I-1200000J0D01*
G01*
%TO.C,VHP*%
X105200000Y-73500000D02*
G75*
G03*
X105200000Y-73500000I-1200000J0D01*
G01*
%TO.C,C8*%
X103223752Y-69765000D02*
X102701248Y-69765000D01*
X103223752Y-71235000D02*
X102701248Y-71235000D01*
%TO.C,C25*%
X174265000Y-71798752D02*
X174265000Y-71276248D01*
X175735000Y-71798752D02*
X175735000Y-71276248D01*
%TO.C,C24*%
X206735000Y-68776248D02*
X206735000Y-69298752D01*
X205265000Y-68776248D02*
X205265000Y-69298752D01*
%TO.C,D6*%
X190000000Y-74150000D02*
X190000000Y-70290000D01*
X190000000Y-74150000D02*
X188000000Y-74150000D01*
X188000000Y-74150000D02*
X188000000Y-70290000D01*
%TO.C,C28*%
X172591248Y-102890000D02*
X173113752Y-102890000D01*
X172591248Y-101420000D02*
X173113752Y-101420000D01*
%TO.C,R19*%
X170265000Y-71312936D02*
X170265000Y-71767064D01*
X171735000Y-71312936D02*
X171735000Y-71767064D01*
%TO.C,R20*%
X106265000Y-72272936D02*
X106265000Y-72727064D01*
X107735000Y-72272936D02*
X107735000Y-72727064D01*
%TO.C,R10*%
X183185000Y-104197936D02*
X183185000Y-104652064D01*
X184655000Y-104197936D02*
X184655000Y-104652064D01*
%TO.C,C4*%
X102890000Y-89150000D02*
X100540000Y-89150000D01*
X96070000Y-89150000D02*
X98420000Y-89150000D01*
X102890000Y-94905563D02*
X102890000Y-89150000D01*
X96070000Y-94905563D02*
X96070000Y-89150000D01*
X101825563Y-95970000D02*
X102890000Y-94905563D01*
X101825563Y-95970000D02*
X100540000Y-95970000D01*
X97134437Y-95970000D02*
X96070000Y-94905563D01*
X97134437Y-95970000D02*
X98420000Y-95970000D01*
X101721250Y-96603750D02*
X100933750Y-96603750D01*
X101327500Y-96997500D02*
X101327500Y-96210000D01*
%TO.C,L2*%
X203020000Y-96175000D02*
G75*
G03*
X202370000Y-95525000I-650000J0D01*
G01*
X190870000Y-95525000D02*
G75*
G03*
X190220000Y-96175000I0J-650000D01*
G01*
X202370000Y-108325000D02*
G75*
G03*
X203020000Y-107675000I-1J650001D01*
G01*
X190220000Y-107675000D02*
G75*
G03*
X190870000Y-108325000I650001J1D01*
G01*
X202370000Y-95525000D02*
X199620000Y-95525000D01*
X193620000Y-95525000D02*
X190870000Y-95525000D01*
X190220000Y-96175000D02*
X190220000Y-107675000D01*
X203020000Y-107675000D02*
X203020000Y-96175000D01*
X202370000Y-108325000D02*
X199620000Y-108325000D01*
X193620000Y-108325000D02*
X190870000Y-108325000D01*
%TO.C,R17*%
X200227064Y-73235000D02*
X199772936Y-73235000D01*
X200227064Y-71765000D02*
X199772936Y-71765000D01*
%TO.C,R8*%
X171597936Y-90370000D02*
X172052064Y-90370000D01*
X171597936Y-88900000D02*
X172052064Y-88900000D01*
%TO.C,R23*%
X188265000Y-76847064D02*
X188265000Y-76392936D01*
X189735000Y-76847064D02*
X189735000Y-76392936D01*
%TO.C,R24*%
X186265000Y-76847064D02*
X186265000Y-76392936D01*
X187735000Y-76847064D02*
X187735000Y-76392936D01*
%TO.C,D8*%
X91000000Y-67290000D02*
X91000000Y-71300000D01*
X91000000Y-67290000D02*
X93000000Y-67290000D01*
X93000000Y-67290000D02*
X93000000Y-71300000D01*
%TO.C,C5*%
X116018752Y-103415000D02*
X115496248Y-103415000D01*
X116018752Y-104885000D02*
X115496248Y-104885000D01*
%TO.C,C9*%
X179221248Y-86560000D02*
X179743752Y-86560000D01*
X179221248Y-85090000D02*
X179743752Y-85090000D01*
%TO.C,C1*%
X119306248Y-101075000D02*
X119828752Y-101075000D01*
X119306248Y-99605000D02*
X119828752Y-99605000D01*
%TO.C,R7*%
X179217936Y-82750000D02*
X179672064Y-82750000D01*
X179217936Y-81280000D02*
X179672064Y-81280000D01*
%TO.C,U6*%
X178905000Y-100230000D02*
X176955000Y-100230000D01*
X178905000Y-100230000D02*
X182355000Y-100230000D01*
X178905000Y-105350000D02*
X176955000Y-105350000D01*
X178905000Y-105350000D02*
X180855000Y-105350000D01*
%TO.C,R22*%
X190215000Y-76847064D02*
X190215000Y-76392936D01*
X191685000Y-76847064D02*
X191685000Y-76392936D01*
%TO.C,R2*%
X103787064Y-97065000D02*
X103332936Y-97065000D01*
X103787064Y-98535000D02*
X103332936Y-98535000D01*
%TO.C,C27*%
X95201248Y-68735000D02*
X95723752Y-68735000D01*
X95201248Y-67265000D02*
X95723752Y-67265000D01*
%TO.C,R1*%
X119302936Y-98535000D02*
X119757064Y-98535000D01*
X119302936Y-97065000D02*
X119757064Y-97065000D01*
%TO.C,R25*%
X182460436Y-99080000D02*
X182914564Y-99080000D01*
X182460436Y-97610000D02*
X182914564Y-97610000D01*
%TO.C,L1*%
X126200000Y-98200000D02*
X129200000Y-98200000D01*
X135800000Y-98200000D02*
X138800000Y-98200000D01*
X138800000Y-98200000D02*
X138800000Y-85600000D01*
X126200000Y-85600000D02*
X126200000Y-98200000D01*
X129200000Y-85600000D02*
X126200000Y-85600000D01*
X138800000Y-85600000D02*
X135800000Y-85600000D01*
%TO.C,R3*%
X115492936Y-95995000D02*
X115947064Y-95995000D01*
X115492936Y-94525000D02*
X115947064Y-94525000D01*
%TO.C,R21*%
X192265000Y-76847064D02*
X192265000Y-76392936D01*
X193735000Y-76847064D02*
X193735000Y-76392936D01*
%TO.C,D5*%
X191950000Y-74150000D02*
X191950000Y-70290000D01*
X191950000Y-74150000D02*
X189950000Y-74150000D01*
X189950000Y-74150000D02*
X189950000Y-70290000D01*
%TO.C,R5*%
X129807064Y-105105000D02*
X129352936Y-105105000D01*
X129807064Y-106575000D02*
X129352936Y-106575000D01*
%TO.C,C13*%
X169545000Y-98838752D02*
X169545000Y-98316248D01*
X168075000Y-98838752D02*
X168075000Y-98316248D01*
%TO.C,C12*%
X185725000Y-104201248D02*
X185725000Y-104723752D01*
X187195000Y-104201248D02*
X187195000Y-104723752D01*
%TO.C,C2*%
X115496248Y-98535000D02*
X116018752Y-98535000D01*
X115496248Y-97065000D02*
X116018752Y-97065000D01*
%TO.C,J4*%
X88300000Y-74850000D02*
X85850000Y-74850000D01*
X79150000Y-74850000D02*
X75600000Y-74850000D01*
X75600000Y-74850000D02*
X75600000Y-84050000D01*
X90300000Y-75250000D02*
X88300000Y-75250000D01*
X88300000Y-75250000D02*
X88300000Y-74850000D01*
X90300000Y-76850000D02*
X90300000Y-75250000D01*
X93940000Y-80640000D02*
X93940000Y-78900000D01*
X92200000Y-80640000D02*
X93940000Y-80640000D01*
X90300000Y-83650000D02*
X90300000Y-80650000D01*
X88300000Y-83650000D02*
X90300000Y-83650000D01*
X88300000Y-84050000D02*
X88300000Y-83650000D01*
X85850000Y-84050000D02*
X88300000Y-84050000D01*
X75600000Y-84050000D02*
X79150000Y-84050000D01*
%TO.C,C29*%
X184696248Y-101620000D02*
X185218752Y-101620000D01*
X184696248Y-100150000D02*
X185218752Y-100150000D01*
%TO.C,D4*%
X194000000Y-74150000D02*
X194000000Y-70290000D01*
X194000000Y-74150000D02*
X192000000Y-74150000D01*
X192000000Y-74150000D02*
X192000000Y-70290000D01*
%TO.C,F1*%
X96763748Y-79460000D02*
X97286252Y-79460000D01*
X96763748Y-78040000D02*
X97286252Y-78040000D01*
%TO.C,R11*%
X177202936Y-99080000D02*
X177657064Y-99080000D01*
X177202936Y-97610000D02*
X177657064Y-97610000D01*
%TO.C,R12*%
X187000436Y-99080000D02*
X187454564Y-99080000D01*
X187000436Y-97610000D02*
X187454564Y-97610000D01*
%TO.C,R4*%
X119302936Y-95995000D02*
X119757064Y-95995000D01*
X119302936Y-94525000D02*
X119757064Y-94525000D01*
%TO.C,D7*%
X188000000Y-74150000D02*
X188000000Y-70290000D01*
X188000000Y-74150000D02*
X186000000Y-74150000D01*
X186000000Y-74150000D02*
X186000000Y-70290000D01*
%TO.C,C30*%
X184928748Y-96540000D02*
X185451252Y-96540000D01*
X184928748Y-95070000D02*
X185451252Y-95070000D01*
%TO.C,C3*%
X103825000Y-93961248D02*
X103825000Y-94483752D01*
X105295000Y-93961248D02*
X105295000Y-94483752D01*
%TO.C,C11*%
X156030000Y-112050000D02*
X156030000Y-108200000D01*
X156030000Y-101330000D02*
X156030000Y-105180000D01*
X146374437Y-112050000D02*
X156030000Y-112050000D01*
X146374437Y-101330000D02*
X156030000Y-101330000D01*
X145310000Y-110985563D02*
X146374437Y-112050000D01*
X145310000Y-110985563D02*
X145310000Y-108200000D01*
X145310000Y-102394437D02*
X146374437Y-101330000D01*
X145310000Y-102394437D02*
X145310000Y-105180000D01*
X144445000Y-110075000D02*
X144445000Y-108825000D01*
X143820000Y-109450000D02*
X145070000Y-109450000D01*
%TO.C,R6*%
X129807064Y-108055000D02*
X129352936Y-108055000D01*
X129807064Y-109525000D02*
X129352936Y-109525000D01*
%TO.C,U2*%
X173300000Y-81360000D02*
X171350000Y-81360000D01*
X173300000Y-81360000D02*
X176750000Y-81360000D01*
X173300000Y-86480000D02*
X171350000Y-86480000D01*
X173300000Y-86480000D02*
X175250000Y-86480000D01*
%TO.C,U1*%
X109705000Y-95875000D02*
X107755000Y-95875000D01*
X109705000Y-95875000D02*
X113155000Y-95875000D01*
X109705000Y-100995000D02*
X107755000Y-100995000D01*
X109705000Y-100995000D02*
X111655000Y-100995000D01*
%TO.C,C14*%
X172085000Y-98838752D02*
X172085000Y-98316248D01*
X170615000Y-98838752D02*
X170615000Y-98316248D01*
%TO.C,R9*%
X175407936Y-90370000D02*
X175862064Y-90370000D01*
X175407936Y-88900000D02*
X175862064Y-88900000D01*
%TO.C,J1*%
X212490000Y-86820000D02*
X212490000Y-88150000D01*
X213600000Y-86820000D02*
X212490000Y-86820000D01*
X215060000Y-86820000D02*
X215060000Y-97100000D01*
X215060000Y-87790000D02*
X214710000Y-87790000D01*
X215060000Y-88510000D02*
X214710000Y-88510000D01*
X215060000Y-90330000D02*
X214650000Y-90330000D01*
X215060000Y-91050000D02*
X214650000Y-91050000D01*
X215060000Y-92870000D02*
X214650000Y-92870000D01*
X215060000Y-93590000D02*
X214650000Y-93590000D01*
X215060000Y-95410000D02*
X214650000Y-95410000D01*
X215060000Y-96130000D02*
X214650000Y-96130000D01*
X223690000Y-86820000D02*
X215060000Y-86820000D01*
X223690000Y-86820000D02*
X223690000Y-97100000D01*
X223690000Y-86940000D02*
X215060000Y-86940000D01*
X223690000Y-87058095D02*
X215060000Y-87058095D01*
X223690000Y-87176190D02*
X215060000Y-87176190D01*
X223690000Y-87294285D02*
X215060000Y-87294285D01*
X223690000Y-87412380D02*
X215060000Y-87412380D01*
X223690000Y-87530475D02*
X215060000Y-87530475D01*
X223690000Y-87648570D02*
X215060000Y-87648570D01*
X223690000Y-87766665D02*
X215060000Y-87766665D01*
X223690000Y-87884760D02*
X215060000Y-87884760D01*
X223690000Y-88002855D02*
X215060000Y-88002855D01*
X223690000Y-88120950D02*
X215060000Y-88120950D01*
X223690000Y-88239045D02*
X215060000Y-88239045D01*
X223690000Y-88357140D02*
X215060000Y-88357140D01*
X223690000Y-88475235D02*
X215060000Y-88475235D01*
X223690000Y-88593330D02*
X215060000Y-88593330D01*
X223690000Y-88711425D02*
X215060000Y-88711425D01*
X223690000Y-88829520D02*
X215060000Y-88829520D01*
X223690000Y-88947615D02*
X215060000Y-88947615D01*
X223690000Y-89065710D02*
X215060000Y-89065710D01*
X223690000Y-89183805D02*
X215060000Y-89183805D01*
X223690000Y-89301900D02*
X215060000Y-89301900D01*
X223690000Y-89420000D02*
X215060000Y-89420000D01*
X223690000Y-91960000D02*
X215060000Y-91960000D01*
X223690000Y-94500000D02*
X215060000Y-94500000D01*
X223690000Y-97100000D02*
X215060000Y-97100000D01*
%TO.C,J2*%
X212490000Y-98820000D02*
X212490000Y-100150000D01*
X213600000Y-98820000D02*
X212490000Y-98820000D01*
X215060000Y-98820000D02*
X215060000Y-109100000D01*
X215060000Y-99790000D02*
X214710000Y-99790000D01*
X215060000Y-100510000D02*
X214710000Y-100510000D01*
X215060000Y-102330000D02*
X214650000Y-102330000D01*
X215060000Y-103050000D02*
X214650000Y-103050000D01*
X215060000Y-104870000D02*
X214650000Y-104870000D01*
X215060000Y-105590000D02*
X214650000Y-105590000D01*
X215060000Y-107410000D02*
X214650000Y-107410000D01*
X215060000Y-108130000D02*
X214650000Y-108130000D01*
X223690000Y-98820000D02*
X215060000Y-98820000D01*
X223690000Y-98820000D02*
X223690000Y-109100000D01*
X223690000Y-98940000D02*
X215060000Y-98940000D01*
X223690000Y-99058095D02*
X215060000Y-99058095D01*
X223690000Y-99176190D02*
X215060000Y-99176190D01*
X223690000Y-99294285D02*
X215060000Y-99294285D01*
X223690000Y-99412380D02*
X215060000Y-99412380D01*
X223690000Y-99530475D02*
X215060000Y-99530475D01*
X223690000Y-99648570D02*
X215060000Y-99648570D01*
X223690000Y-99766665D02*
X215060000Y-99766665D01*
X223690000Y-99884760D02*
X215060000Y-99884760D01*
X223690000Y-100002855D02*
X215060000Y-100002855D01*
X223690000Y-100120950D02*
X215060000Y-100120950D01*
X223690000Y-100239045D02*
X215060000Y-100239045D01*
X223690000Y-100357140D02*
X215060000Y-100357140D01*
X223690000Y-100475235D02*
X215060000Y-100475235D01*
X223690000Y-100593330D02*
X215060000Y-100593330D01*
X223690000Y-100711425D02*
X215060000Y-100711425D01*
X223690000Y-100829520D02*
X215060000Y-100829520D01*
X223690000Y-100947615D02*
X215060000Y-100947615D01*
X223690000Y-101065710D02*
X215060000Y-101065710D01*
X223690000Y-101183805D02*
X215060000Y-101183805D01*
X223690000Y-101301900D02*
X215060000Y-101301900D01*
X223690000Y-101420000D02*
X215060000Y-101420000D01*
X223690000Y-103960000D02*
X215060000Y-103960000D01*
X223690000Y-106500000D02*
X215060000Y-106500000D01*
X223690000Y-109100000D02*
X215060000Y-109100000D01*
%TO.C,C7*%
X156030000Y-100620000D02*
X156030000Y-96770000D01*
X156030000Y-89900000D02*
X156030000Y-93750000D01*
X146374437Y-100620000D02*
X156030000Y-100620000D01*
X146374437Y-89900000D02*
X156030000Y-89900000D01*
X145310000Y-99555563D02*
X146374437Y-100620000D01*
X145310000Y-99555563D02*
X145310000Y-96770000D01*
X145310000Y-90964437D02*
X146374437Y-89900000D01*
X145310000Y-90964437D02*
X145310000Y-93750000D01*
X144445000Y-98645000D02*
X144445000Y-97395000D01*
X143820000Y-98020000D02*
X145070000Y-98020000D01*
%TO.C,C26*%
X174625000Y-98838752D02*
X174625000Y-98316248D01*
X173155000Y-98838752D02*
X173155000Y-98316248D01*
%TO.C,D1*%
X139740000Y-90790000D02*
X139740000Y-97800000D01*
X139740000Y-90790000D02*
X143040000Y-90790000D01*
X143040000Y-90790000D02*
X143040000Y-97800000D01*
%TO.C,C10*%
X167550000Y-86601248D02*
X167550000Y-87123752D01*
X169020000Y-86601248D02*
X169020000Y-87123752D01*
%TO.C,C6*%
X156030000Y-89190000D02*
X156030000Y-85340000D01*
X156030000Y-78470000D02*
X156030000Y-82320000D01*
X146374437Y-89190000D02*
X156030000Y-89190000D01*
X146374437Y-78470000D02*
X156030000Y-78470000D01*
X145310000Y-88125563D02*
X146374437Y-89190000D01*
X145310000Y-88125563D02*
X145310000Y-85340000D01*
X145310000Y-79534437D02*
X146374437Y-78470000D01*
X145310000Y-79534437D02*
X145310000Y-82320000D01*
X144445000Y-87215000D02*
X144445000Y-85965000D01*
X143820000Y-86590000D02*
X145070000Y-86590000D01*
%TD*%
M02*
