M48
; DRILL file {KiCad 7.0.7} date Mon Jun 10 21:29:19 2024
; FORMAT={-:-/ absolute / metric / decimal}
; #@! TF.CreationDate,2024-06-10T21:29:19+02:00
; #@! TF.GenerationSoftware,Kicad,Pcbnew,7.0.7
; #@! TF.FileFunction,Plated,1,2,PTH
FMAT,2
METRIC
; #@! TA.AperFunction,Plated,PTH,ViaDrill
T1C0.400
; #@! TA.AperFunction,Plated,PTH,ViaDrill
T2C0.500
; #@! TA.AperFunction,Plated,PTH,ComponentDrill
T3C0.900
; #@! TA.AperFunction,Plated,PTH,ViaDrill
T4C1.000
; #@! TA.AperFunction,Plated,PTH,ViaDrill
T5C2.000
%
G90
G05
T1
X187.0Y-71.81
X189.167Y-71.81
X191.333Y-71.81
X193.5Y-72.0
T2
X78.0Y-95.75
X78.0Y-97.75
X78.0Y-99.75
X78.0Y-101.75
X78.0Y-103.75
X78.0Y-105.75
X78.0Y-107.75
X80.25Y-94.75
X80.25Y-96.75
X80.25Y-98.75
X80.25Y-100.75
X80.25Y-102.75
X80.25Y-104.75
X80.25Y-106.75
X82.5Y-95.75
X82.5Y-97.75
X82.5Y-99.75
X82.5Y-101.75
X82.5Y-103.75
X82.5Y-105.75
X82.5Y-107.75
X84.75Y-94.75
X84.75Y-96.75
X84.75Y-98.75
X84.75Y-100.75
X84.75Y-102.75
X84.75Y-104.75
X84.75Y-106.75
X87.0Y-95.75
X87.0Y-97.75
X87.0Y-99.75
X87.0Y-101.75
X87.0Y-103.75
X87.0Y-105.75
X87.0Y-107.75
X99.75Y-95.75
X101.5Y-95.75
X103.25Y-95.75
X104.0Y-88.04
X108.5Y-96.5
X109.5Y-82.5
X109.5Y-95.5
X110.5Y-96.5
X112.25Y-96.5
X113.895Y-89.0
X114.0Y-96.5
X117.0Y-93.04
X118.75Y-88.75
X119.25Y-98.54
X120.5Y-80.0
X139.0Y-96.25
X139.0Y-100.75
X140.0Y-98.5
X141.0Y-96.25
X141.0Y-100.75
X142.0Y-98.5
X143.0Y-96.25
X143.0Y-100.75
X144.75Y-80.25
X144.75Y-82.25
X144.75Y-84.25
X144.75Y-86.25
X144.75Y-88.25
X147.0Y-81.25
X147.0Y-83.25
X147.0Y-85.25
X147.0Y-87.25
X149.25Y-80.25
X149.25Y-82.25
X149.25Y-84.25
X149.25Y-86.25
X149.25Y-88.25
X151.5Y-81.25
X151.5Y-83.25
X151.5Y-85.25
X151.5Y-87.25
X153.75Y-80.25
X153.75Y-82.25
X153.75Y-84.25
X153.75Y-86.25
X153.75Y-88.25
X156.05Y-100.9
X156.05Y-102.9
X157.75Y-87.5
X160.25Y-107.0
X163.0Y-94.287
X163.0Y-96.5
X163.25Y-81.037
X168.0Y-87.787
X169.6Y-98.0
X170.6Y-99.5
X172.6Y-101.0
X209.5Y-73.0
X209.5Y-78.0
X217.0Y-98.0
X217.0Y-105.62
T3
X83.0Y-68.0
X85.0Y-68.0
X87.0Y-68.0
X89.0Y-68.0
X99.0Y-68.0
X101.0Y-68.0
X107.0Y-68.0
X109.0Y-68.0
X111.0Y-68.0
X169.0Y-68.0
X171.0Y-68.0
X173.0Y-68.0
X175.0Y-68.0
X177.0Y-68.0
X179.0Y-68.0
X181.0Y-68.0
X183.0Y-68.0
X185.0Y-68.0
X187.0Y-68.0
X189.0Y-68.0
X191.0Y-68.0
X193.0Y-68.0
X195.0Y-68.0
X197.0Y-68.0
X199.0Y-68.0
X201.0Y-68.0
X203.0Y-68.0
X213.0Y-68.0
X215.0Y-68.0
X217.0Y-68.0
X219.0Y-68.0
T4
X141.0Y-85.25
X141.0Y-89.0
T5
X82.5Y-79.5
T0
M30
