G04 #@! TF.GenerationSoftware,KiCad,Pcbnew,7.0.7*
G04 #@! TF.CreationDate,2024-06-14T09:16:29+02:00*
G04 #@! TF.ProjectId,vfd_display,7666645f-6469-4737-906c-61792e6b6963,rev?*
G04 #@! TF.SameCoordinates,Original*
G04 #@! TF.FileFunction,Soldermask,Bot*
G04 #@! TF.FilePolarity,Negative*
%FSLAX46Y46*%
G04 Gerber Fmt 4.6, Leading zero omitted, Abs format (unit mm)*
G04 Created by KiCad (PCBNEW 7.0.7) date 2024-06-14 09:16:29*
%MOMM*%
%LPD*%
G01*
G04 APERTURE LIST*
G04 Aperture macros list*
%AMRoundRect*
0 Rectangle with rounded corners*
0 $1 Rounding radius*
0 $2 $3 $4 $5 $6 $7 $8 $9 X,Y pos of 4 corners*
0 Add a 4 corners polygon primitive as box body*
4,1,4,$2,$3,$4,$5,$6,$7,$8,$9,$2,$3,0*
0 Add four circle primitives for the rounded corners*
1,1,$1+$1,$2,$3*
1,1,$1+$1,$4,$5*
1,1,$1+$1,$6,$7*
1,1,$1+$1,$8,$9*
0 Add four rect primitives between the rounded corners*
20,1,$1+$1,$2,$3,$4,$5,0*
20,1,$1+$1,$4,$5,$6,$7,0*
20,1,$1+$1,$6,$7,$8,$9,0*
20,1,$1+$1,$8,$9,$2,$3,0*%
G04 Aperture macros list end*
%ADD10C,3.200000*%
%ADD11C,1.600000*%
%ADD12RoundRect,0.250000X0.300000X-0.300000X0.300000X0.300000X-0.300000X0.300000X-0.300000X-0.300000X0*%
%ADD13RoundRect,0.250000X-0.450000X0.350000X-0.450000X-0.350000X0.450000X-0.350000X0.450000X0.350000X0*%
%ADD14RoundRect,0.250000X-0.337500X-0.475000X0.337500X-0.475000X0.337500X0.475000X-0.337500X0.475000X0*%
%ADD15RoundRect,0.250000X1.500000X0.550000X-1.500000X0.550000X-1.500000X-0.550000X1.500000X-0.550000X0*%
%ADD16R,1.500000X2.900000*%
%ADD17R,6.300000X6.500000*%
%ADD18RoundRect,0.250000X0.450000X-0.350000X0.450000X0.350000X-0.450000X0.350000X-0.450000X-0.350000X0*%
%ADD19RoundRect,0.250000X0.337500X0.475000X-0.337500X0.475000X-0.337500X-0.475000X0.337500X-0.475000X0*%
%ADD20RoundRect,0.250000X0.350000X0.450000X-0.350000X0.450000X-0.350000X-0.450000X0.350000X-0.450000X0*%
%ADD21RoundRect,0.225000X-0.375000X0.225000X-0.375000X-0.225000X0.375000X-0.225000X0.375000X0.225000X0*%
%ADD22RoundRect,0.250000X-0.475000X0.337500X-0.475000X-0.337500X0.475000X-0.337500X0.475000X0.337500X0*%
%ADD23C,2.000000*%
%ADD24RoundRect,0.250000X-0.350000X-0.450000X0.350000X-0.450000X0.350000X0.450000X-0.350000X0.450000X0*%
%ADD25RoundRect,0.250000X0.475000X-0.337500X0.475000X0.337500X-0.475000X0.337500X-0.475000X-0.337500X0*%
%ADD26R,1.000000X0.700000*%
%ADD27R,4.900000X5.400000*%
%ADD28R,0.700000X1.000000*%
%ADD29R,4.400000X3.300000*%
%ADD30R,6.200000X3.900000*%
%ADD31RoundRect,0.250000X-0.325000X-0.450000X0.325000X-0.450000X0.325000X0.450000X-0.325000X0.450000X0*%
%ADD32RoundRect,0.250000X-1.950000X-1.000000X1.950000X-1.000000X1.950000X1.000000X-1.950000X1.000000X0*%
%ADD33RoundRect,0.250001X0.462499X0.849999X-0.462499X0.849999X-0.462499X-0.849999X0.462499X-0.849999X0*%
%ADD34RoundRect,0.150000X-0.825000X-0.150000X0.825000X-0.150000X0.825000X0.150000X-0.825000X0.150000X0*%
%ADD35RoundRect,0.150000X0.825000X0.150000X-0.825000X0.150000X-0.825000X-0.150000X0.825000X-0.150000X0*%
%ADD36R,2.750000X1.250000*%
%ADD37RoundRect,0.250000X-0.650000X1.500000X-0.650000X-1.500000X0.650000X-1.500000X0.650000X1.500000X0*%
%ADD38RoundRect,0.250001X-0.849999X0.462499X-0.849999X-0.462499X0.849999X-0.462499X0.849999X0.462499X0*%
G04 APERTURE END LIST*
D10*
X77500000Y-114000000D03*
X77500000Y-67000000D03*
D11*
X219000000Y-68000000D03*
X217000000Y-68000000D03*
X215000000Y-68000000D03*
X213000000Y-68000000D03*
X203000000Y-68000000D03*
X201000000Y-68000000D03*
X199000000Y-68000000D03*
X197000000Y-68000000D03*
X195000000Y-68000000D03*
X193000000Y-68000000D03*
X191000000Y-68000000D03*
X189000000Y-68000000D03*
X187000000Y-68000000D03*
X185000000Y-68000000D03*
X183000000Y-68000000D03*
X181000000Y-68000000D03*
X179000000Y-68000000D03*
X177000000Y-68000000D03*
X175000000Y-68000000D03*
X173000000Y-68000000D03*
X171000000Y-68000000D03*
X169000000Y-68000000D03*
X111000000Y-68000000D03*
X109000000Y-68000000D03*
X107000000Y-68000000D03*
X101000000Y-68000000D03*
X99000000Y-68000000D03*
X89000000Y-68000000D03*
X87000000Y-68000000D03*
X85000000Y-68000000D03*
X83000000Y-68000000D03*
D10*
X224500000Y-114000000D03*
X224500000Y-67000000D03*
D12*
X189166666Y-73340000D03*
X189166666Y-70540000D03*
D13*
X171000000Y-70540000D03*
X171000000Y-72540000D03*
X107000000Y-72500000D03*
X107000000Y-74500000D03*
D14*
X159925000Y-90287500D03*
X162000000Y-90287500D03*
D15*
X93000000Y-103000000D03*
X87600000Y-103000000D03*
D16*
X116214000Y-98390000D03*
D17*
X118500000Y-104890000D03*
D16*
X120786000Y-98390000D03*
D18*
X167600000Y-100000000D03*
X167600000Y-98000000D03*
D19*
X104000000Y-73500000D03*
X101925000Y-73500000D03*
D20*
X201000000Y-72500000D03*
X199000000Y-72500000D03*
X120500000Y-74500000D03*
X118500000Y-74500000D03*
D18*
X189166666Y-77620000D03*
X189166666Y-75620000D03*
X187000000Y-77620000D03*
X187000000Y-75620000D03*
D21*
X92000000Y-68000000D03*
X92000000Y-71300000D03*
D19*
X108000000Y-88040000D03*
X105925000Y-88040000D03*
D22*
X109500000Y-76500000D03*
X109500000Y-78575000D03*
D14*
X113000000Y-93040000D03*
X115075000Y-93040000D03*
D18*
X159500000Y-87537500D03*
X159500000Y-85537500D03*
D20*
X112750000Y-82500000D03*
X110750000Y-82500000D03*
D23*
X173000000Y-77000000D03*
D22*
X157750000Y-98875000D03*
X157750000Y-100950000D03*
D24*
X163000000Y-98450000D03*
X165000000Y-98450000D03*
D14*
X163925000Y-83037500D03*
X166000000Y-83037500D03*
D18*
X191333332Y-77620000D03*
X191333332Y-75620000D03*
D13*
X100000000Y-92040000D03*
X100000000Y-94040000D03*
D14*
X94425000Y-68000000D03*
X96500000Y-68000000D03*
D24*
X115000000Y-90540000D03*
X117000000Y-90540000D03*
D23*
X92500000Y-83500000D03*
D25*
X175000000Y-72575000D03*
X175000000Y-70500000D03*
D14*
X159962500Y-92787500D03*
X162037500Y-92787500D03*
D26*
X162900000Y-102400000D03*
X162900000Y-101450000D03*
X162900000Y-100500000D03*
X165100000Y-100500000D03*
X165100000Y-101450000D03*
X165100000Y-102400000D03*
D23*
X99000000Y-73500000D03*
X209500000Y-75500000D03*
D13*
X170600000Y-101000000D03*
X170600000Y-103000000D03*
D27*
X99600000Y-103040000D03*
X111400000Y-103040000D03*
D24*
X110750000Y-88040000D03*
X112750000Y-88040000D03*
D19*
X166000000Y-90287500D03*
X163925000Y-90287500D03*
D18*
X193500000Y-77620000D03*
X193500000Y-75620000D03*
D12*
X191333332Y-73340000D03*
X191333332Y-70540000D03*
D20*
X121500000Y-95040000D03*
X119500000Y-95040000D03*
D22*
X167500000Y-102875000D03*
X167500000Y-104950000D03*
X206000000Y-68000000D03*
X206000000Y-70075000D03*
D14*
X110750000Y-90540000D03*
X112825000Y-90540000D03*
D28*
X163500000Y-87700000D03*
X162550000Y-87700000D03*
X161600000Y-87700000D03*
X161600000Y-85500000D03*
X162550000Y-85500000D03*
X163500000Y-85500000D03*
D23*
X78700000Y-79450000D03*
D29*
X91500000Y-78750000D03*
D30*
X82500000Y-85900000D03*
X82500000Y-73000000D03*
D12*
X193500000Y-73340000D03*
X193500000Y-70540000D03*
D31*
X96000000Y-78750000D03*
X98050000Y-78750000D03*
D23*
X201000000Y-75500000D03*
X104000000Y-76500000D03*
D24*
X115000000Y-88000000D03*
X117000000Y-88000000D03*
D12*
X187000000Y-73340000D03*
X187000000Y-70540000D03*
D19*
X91287500Y-109290000D03*
X89212500Y-109290000D03*
D32*
X132000000Y-104360000D03*
X140400000Y-104360000D03*
D18*
X119500000Y-92540000D03*
X119500000Y-90540000D03*
D25*
X157750000Y-104950000D03*
X157750000Y-102875000D03*
D33*
X165162500Y-104950000D03*
X162837500Y-104950000D03*
D22*
X160250000Y-98875000D03*
X160250000Y-100950000D03*
D19*
X166000000Y-92787500D03*
X163925000Y-92787500D03*
D18*
X161500000Y-83450000D03*
X161500000Y-81450000D03*
D34*
X112500000Y-80310000D03*
X112500000Y-79040000D03*
X112500000Y-77770000D03*
X112500000Y-76500000D03*
X117450000Y-76500000D03*
X117450000Y-77770000D03*
X117450000Y-79040000D03*
X117450000Y-80310000D03*
D25*
X160250000Y-104950000D03*
X160250000Y-102875000D03*
D35*
X107975000Y-90635000D03*
X107975000Y-91905000D03*
X107975000Y-93175000D03*
X107975000Y-94445000D03*
X103025000Y-94445000D03*
X103025000Y-93175000D03*
X103025000Y-91905000D03*
X103025000Y-90635000D03*
D20*
X116690000Y-74500000D03*
X114690000Y-74500000D03*
D36*
X214000000Y-82380000D03*
X214000000Y-84920000D03*
X214000000Y-87460000D03*
X214000000Y-90000000D03*
X214000000Y-98000000D03*
X214000000Y-100540000D03*
X214000000Y-103080000D03*
X214000000Y-105620000D03*
D32*
X132000000Y-92930000D03*
X140400000Y-92930000D03*
D37*
X125500000Y-99540000D03*
X125500000Y-104540000D03*
D22*
X120500000Y-76500000D03*
X120500000Y-78575000D03*
D23*
X210000000Y-68000000D03*
D32*
X132000000Y-81500000D03*
X140400000Y-81500000D03*
D38*
X166000000Y-85537500D03*
X166000000Y-87862500D03*
M02*
