M48
; DRILL file {KiCad 7.0.7} date Tue Apr  9 00:53:39 2024
; FORMAT={-:-/ absolute / metric / decimal}
; #@! TF.CreationDate,2024-04-09T00:53:39+02:00
; #@! TF.GenerationSoftware,Kicad,Pcbnew,7.0.7
; #@! TF.FileFunction,Plated,1,2,PTH
FMAT,2
METRIC
; #@! TA.AperFunction,Plated,PTH,ViaDrill
T1C0.400
; #@! TA.AperFunction,Plated,PTH,ViaDrill
T2C0.500
; #@! TA.AperFunction,Plated,PTH,ComponentDrill
T3C0.900
; #@! TA.AperFunction,Plated,PTH,ComponentDrill
T4C1.000
; #@! TA.AperFunction,Plated,PTH,ViaDrill
T5C2.000
%
G90
G05
T1
X173.89Y-96.27
X173.89Y-104.695
X182.882Y-95.805
X187.0Y-71.81
X189.0Y-71.81
X189.0Y-105.5
X190.95Y-71.81
X193.0Y-71.81
T2
X211.5Y-74.8
T3
X83.0Y-68.0
X85.0Y-68.0
X87.0Y-68.0
X89.0Y-68.0
X99.0Y-68.0
X101.0Y-68.0
X107.0Y-68.0
X109.0Y-68.0
X111.0Y-68.0
X169.0Y-68.0
X171.0Y-68.0
X173.0Y-68.0
X175.0Y-68.0
X177.0Y-68.0
X179.0Y-68.0
X181.0Y-68.0
X183.0Y-68.0
X185.0Y-68.0
X187.0Y-68.0
X189.0Y-68.0
X191.0Y-68.0
X193.0Y-68.0
X195.0Y-68.0
X197.0Y-68.0
X199.0Y-68.0
X201.0Y-68.0
X203.0Y-68.0
X213.0Y-68.0
X215.0Y-68.0
X217.0Y-68.0
X219.0Y-68.0
T4
X213.6Y-88.15
X213.6Y-90.69
X213.6Y-93.23
X213.6Y-95.77
X213.6Y-100.15
X213.6Y-102.69
X213.6Y-105.23
X213.6Y-107.77
T5
X82.5Y-79.5
T0
M30
