%TF.GenerationSoftware,KiCad,Pcbnew,7.0.7*%
%TF.CreationDate,2024-04-09T00:53:37+02:00*%
%TF.ProjectId,vfd_display,7666645f-6469-4737-906c-61792e6b6963,rev?*%
%TF.SameCoordinates,Original*%
%TF.FileFunction,Soldermask,Bot*%
%TF.FilePolarity,Negative*%
%FSLAX46Y46*%
G04 Gerber Fmt 4.6, Leading zero omitted, Abs format (unit mm)*
G04 Created by KiCad (PCBNEW 7.0.7) date 2024-04-09 00:53:37*
%MOMM*%
%LPD*%
G01*
G04 APERTURE LIST*
G04 Aperture macros list*
%AMRoundRect*
0 Rectangle with rounded corners*
0 $1 Rounding radius*
0 $2 $3 $4 $5 $6 $7 $8 $9 X,Y pos of 4 corners*
0 Add a 4 corners polygon primitive as box body*
4,1,4,$2,$3,$4,$5,$6,$7,$8,$9,$2,$3,0*
0 Add four circle primitives for the rounded corners*
1,1,$1+$1,$2,$3*
1,1,$1+$1,$4,$5*
1,1,$1+$1,$6,$7*
1,1,$1+$1,$8,$9*
0 Add four rect primitives between the rounded corners*
20,1,$1+$1,$2,$3,$4,$5,0*
20,1,$1+$1,$4,$5,$6,$7,0*
20,1,$1+$1,$6,$7,$8,$9,0*
20,1,$1+$1,$8,$9,$2,$3,0*%
G04 Aperture macros list end*
%ADD10C,2.000000*%
%ADD11R,0.800000X1.200000*%
%ADD12RoundRect,0.250000X0.450000X-0.350000X0.450000X0.350000X-0.450000X0.350000X-0.450000X-0.350000X0*%
%ADD13C,3.200000*%
%ADD14RoundRect,0.250000X0.337500X0.475000X-0.337500X0.475000X-0.337500X-0.475000X0.337500X-0.475000X0*%
%ADD15C,1.600000*%
%ADD16RoundRect,0.250000X0.475000X-0.337500X0.475000X0.337500X-0.475000X0.337500X-0.475000X-0.337500X0*%
%ADD17RoundRect,0.250000X-0.475000X0.337500X-0.475000X-0.337500X0.475000X-0.337500X0.475000X0.337500X0*%
%ADD18RoundRect,0.250000X0.300000X-0.300000X0.300000X0.300000X-0.300000X0.300000X-0.300000X-0.300000X0*%
%ADD19RoundRect,0.250000X-0.337500X-0.475000X0.337500X-0.475000X0.337500X0.475000X-0.337500X0.475000X0*%
%ADD20RoundRect,0.250000X-0.450000X0.350000X-0.450000X-0.350000X0.450000X-0.350000X0.450000X0.350000X0*%
%ADD21RoundRect,0.250000X0.550000X-1.500000X0.550000X1.500000X-0.550000X1.500000X-0.550000X-1.500000X0*%
%ADD22R,2.900000X1.500000*%
%ADD23R,6.500000X6.300000*%
%ADD24R,5.400000X2.900000*%
%ADD25RoundRect,0.250000X0.350000X0.450000X-0.350000X0.450000X-0.350000X-0.450000X0.350000X-0.450000X0*%
%ADD26RoundRect,0.250000X-0.350000X-0.450000X0.350000X-0.450000X0.350000X0.450000X-0.350000X0.450000X0*%
%ADD27RoundRect,0.225000X-0.375000X0.225000X-0.375000X-0.225000X0.375000X-0.225000X0.375000X0.225000X0*%
%ADD28RoundRect,0.150000X0.825000X0.150000X-0.825000X0.150000X-0.825000X-0.150000X0.825000X-0.150000X0*%
%ADD29R,5.400000X4.900000*%
%ADD30R,6.200000X3.900000*%
%ADD31R,4.400000X3.300000*%
%ADD32RoundRect,0.250000X-0.325000X-0.450000X0.325000X-0.450000X0.325000X0.450000X-0.325000X0.450000X0*%
%ADD33RoundRect,0.250000X-1.950000X-1.000000X1.950000X-1.000000X1.950000X1.000000X-1.950000X1.000000X0*%
%ADD34O,1.700000X1.700000*%
%ADD35R,1.700000X1.700000*%
%ADD36RoundRect,0.250000X-0.650000X1.500000X-0.650000X-1.500000X0.650000X-1.500000X0.650000X1.500000X0*%
G04 APERTURE END LIST*
D10*
%TO.C,VFIL*%
X210000000Y-68000000D03*
%TD*%
D11*
%TO.C,U3*%
X218540000Y-70500000D03*
X216000000Y-70500000D03*
X216000000Y-76800000D03*
X218540000Y-76800000D03*
%TD*%
D12*
%TO.C,R13*%
X213500000Y-76800000D03*
X213500000Y-74800000D03*
%TD*%
D10*
%TO.C,VIN*%
X92500000Y-83500000D03*
%TD*%
%TO.C,GND*%
X99000000Y-73500000D03*
%TD*%
%TO.C,VHP*%
X104000000Y-73500000D03*
%TD*%
D13*
%TO.C,REF\u002A\u002A*%
X77500000Y-113500000D03*
%TD*%
%TO.C,REF\u002A\u002A*%
X77500000Y-67500000D03*
%TD*%
D14*
%TO.C,C8*%
X104000000Y-70500000D03*
X101925000Y-70500000D03*
%TD*%
D15*
%TO.C,U5*%
X219000000Y-68000000D03*
X217000000Y-68000000D03*
X215000000Y-68000000D03*
X213000000Y-68000000D03*
X203000000Y-68000000D03*
X201000000Y-68000000D03*
X199000000Y-68000000D03*
X197000000Y-68000000D03*
X195000000Y-68000000D03*
X193000000Y-68000000D03*
X191000000Y-68000000D03*
X189000000Y-68000000D03*
X187000000Y-68000000D03*
X185000000Y-68000000D03*
X183000000Y-68000000D03*
X181000000Y-68000000D03*
X179000000Y-68000000D03*
X177000000Y-68000000D03*
X175000000Y-68000000D03*
X173000000Y-68000000D03*
X171000000Y-68000000D03*
X169000000Y-68000000D03*
X111000000Y-68000000D03*
X109000000Y-68000000D03*
X107000000Y-68000000D03*
X101000000Y-68000000D03*
X99000000Y-68000000D03*
X89000000Y-68000000D03*
X87000000Y-68000000D03*
X85000000Y-68000000D03*
X83000000Y-68000000D03*
%TD*%
D16*
%TO.C,C25*%
X175000000Y-70500000D03*
X175000000Y-72575000D03*
%TD*%
D17*
%TO.C,C24*%
X206000000Y-70075000D03*
X206000000Y-68000000D03*
%TD*%
D13*
%TO.C,REF\u002A\u002A*%
X224500000Y-113500000D03*
%TD*%
%TO.C,REF\u002A\u002A*%
X224500000Y-67500000D03*
%TD*%
D18*
%TO.C,D6*%
X189000000Y-70540000D03*
X189000000Y-73340000D03*
%TD*%
D19*
%TO.C,C28*%
X173890000Y-102155000D03*
X171815000Y-102155000D03*
%TD*%
D20*
%TO.C,R19*%
X171000000Y-72540000D03*
X171000000Y-70540000D03*
%TD*%
%TO.C,R20*%
X107000000Y-73500000D03*
X107000000Y-71500000D03*
%TD*%
%TO.C,R10*%
X183920000Y-105425000D03*
X183920000Y-103425000D03*
%TD*%
D21*
%TO.C,C4*%
X99480000Y-89860000D03*
X99480000Y-95260000D03*
%TD*%
D22*
%TO.C,Q1*%
X114380000Y-87640000D03*
D23*
X120880000Y-89926000D03*
D22*
X114380000Y-92212000D03*
%TD*%
D24*
%TO.C,L2*%
X196620000Y-97075000D03*
X196620000Y-106775000D03*
%TD*%
D25*
%TO.C,R17*%
X201000000Y-72500000D03*
X199000000Y-72500000D03*
%TD*%
D26*
%TO.C,R8*%
X172825000Y-89635000D03*
X170825000Y-89635000D03*
%TD*%
D12*
%TO.C,R23*%
X189000000Y-77620000D03*
X189000000Y-75620000D03*
%TD*%
%TO.C,R24*%
X187000000Y-77620000D03*
X187000000Y-75620000D03*
%TD*%
D27*
%TO.C,D8*%
X92000000Y-71300000D03*
X92000000Y-68000000D03*
%TD*%
D14*
%TO.C,C5*%
X114720000Y-104150000D03*
X116795000Y-104150000D03*
%TD*%
D19*
%TO.C,C9*%
X180520000Y-85825000D03*
X178445000Y-85825000D03*
%TD*%
%TO.C,C1*%
X120605000Y-100340000D03*
X118530000Y-100340000D03*
%TD*%
D26*
%TO.C,R7*%
X180445000Y-82015000D03*
X178445000Y-82015000D03*
%TD*%
D28*
%TO.C,U6*%
X176430000Y-100885000D03*
X176430000Y-102155000D03*
X176430000Y-103425000D03*
X176430000Y-104695000D03*
X181380000Y-104695000D03*
X181380000Y-103425000D03*
X181380000Y-102155000D03*
X181380000Y-100885000D03*
%TD*%
D12*
%TO.C,R22*%
X190950000Y-77620000D03*
X190950000Y-75620000D03*
%TD*%
D25*
%TO.C,R2*%
X102560000Y-97800000D03*
X104560000Y-97800000D03*
%TD*%
D19*
%TO.C,C27*%
X96500000Y-68000000D03*
X94425000Y-68000000D03*
%TD*%
D26*
%TO.C,R1*%
X120530000Y-97800000D03*
X118530000Y-97800000D03*
%TD*%
%TO.C,R25*%
X183687500Y-98345000D03*
X181687500Y-98345000D03*
%TD*%
D29*
%TO.C,L1*%
X132500000Y-97800000D03*
X132500000Y-86000000D03*
%TD*%
D26*
%TO.C,R3*%
X116720000Y-95260000D03*
X114720000Y-95260000D03*
%TD*%
D12*
%TO.C,R21*%
X193000000Y-77620000D03*
X193000000Y-75620000D03*
%TD*%
D18*
%TO.C,D5*%
X190950000Y-70540000D03*
X190950000Y-73340000D03*
%TD*%
D25*
%TO.C,R5*%
X128580000Y-105840000D03*
X130580000Y-105840000D03*
%TD*%
D16*
%TO.C,C13*%
X168810000Y-97540000D03*
X168810000Y-99615000D03*
%TD*%
D17*
%TO.C,C12*%
X186460000Y-105500000D03*
X186460000Y-103425000D03*
%TD*%
D19*
%TO.C,C2*%
X116795000Y-97800000D03*
X114720000Y-97800000D03*
%TD*%
D30*
%TO.C,J4*%
X82500000Y-73000000D03*
X82500000Y-85900000D03*
D31*
X91500000Y-78750000D03*
D10*
X78700000Y-79450000D03*
%TD*%
D19*
%TO.C,C29*%
X185995000Y-100885000D03*
X183920000Y-100885000D03*
%TD*%
D18*
%TO.C,D4*%
X193000000Y-70540000D03*
X193000000Y-73340000D03*
%TD*%
D32*
%TO.C,F1*%
X98050000Y-78750000D03*
X96000000Y-78750000D03*
%TD*%
D26*
%TO.C,R11*%
X178430000Y-98345000D03*
X176430000Y-98345000D03*
%TD*%
%TO.C,R12*%
X188227500Y-98345000D03*
X186227500Y-98345000D03*
%TD*%
%TO.C,R4*%
X120530000Y-95260000D03*
X118530000Y-95260000D03*
%TD*%
D18*
%TO.C,D7*%
X187000000Y-70540000D03*
X187000000Y-73340000D03*
%TD*%
D19*
%TO.C,C30*%
X186227500Y-95805000D03*
X184152500Y-95805000D03*
%TD*%
D17*
%TO.C,C3*%
X104560000Y-95260000D03*
X104560000Y-93185000D03*
%TD*%
D33*
%TO.C,C11*%
X154870000Y-106690000D03*
X146470000Y-106690000D03*
%TD*%
D25*
%TO.C,R6*%
X128580000Y-108790000D03*
X130580000Y-108790000D03*
%TD*%
D28*
%TO.C,U2*%
X170825000Y-82015000D03*
X170825000Y-83285000D03*
X170825000Y-84555000D03*
X170825000Y-85825000D03*
X175775000Y-85825000D03*
X175775000Y-84555000D03*
X175775000Y-83285000D03*
X175775000Y-82015000D03*
%TD*%
%TO.C,U1*%
X107230000Y-96530000D03*
X107230000Y-97800000D03*
X107230000Y-99070000D03*
X107230000Y-100340000D03*
X112180000Y-100340000D03*
X112180000Y-99070000D03*
X112180000Y-97800000D03*
X112180000Y-96530000D03*
%TD*%
D16*
%TO.C,C14*%
X171350000Y-97540000D03*
X171350000Y-99615000D03*
%TD*%
D26*
%TO.C,R9*%
X176635000Y-89635000D03*
X174635000Y-89635000D03*
%TD*%
D34*
%TO.C,J1*%
X213600000Y-95770000D03*
X213600000Y-93230000D03*
X213600000Y-90690000D03*
D35*
X213600000Y-88150000D03*
%TD*%
D34*
%TO.C,J2*%
X213600000Y-107770000D03*
X213600000Y-105230000D03*
X213600000Y-102690000D03*
D35*
X213600000Y-100150000D03*
%TD*%
D33*
%TO.C,C7*%
X154870000Y-95260000D03*
X146470000Y-95260000D03*
%TD*%
D16*
%TO.C,C26*%
X173890000Y-97540000D03*
X173890000Y-99615000D03*
%TD*%
D36*
%TO.C,D1*%
X141390000Y-97800000D03*
X141390000Y-92800000D03*
%TD*%
D17*
%TO.C,C10*%
X168285000Y-87900000D03*
X168285000Y-85825000D03*
%TD*%
D33*
%TO.C,C6*%
X154870000Y-83830000D03*
X146470000Y-83830000D03*
%TD*%
M02*
