G04 #@! TF.GenerationSoftware,KiCad,Pcbnew,7.0.7*
G04 #@! TF.CreationDate,2024-06-10T21:29:32+02:00*
G04 #@! TF.ProjectId,vfd_display,7666645f-6469-4737-906c-61792e6b6963,rev?*
G04 #@! TF.SameCoordinates,Original*
G04 #@! TF.FileFunction,Copper,L2,Bot*
G04 #@! TF.FilePolarity,Positive*
%FSLAX46Y46*%
G04 Gerber Fmt 4.6, Leading zero omitted, Abs format (unit mm)*
G04 Created by KiCad (PCBNEW 7.0.7) date 2024-06-10 21:29:32*
%MOMM*%
%LPD*%
G01*
G04 APERTURE LIST*
G04 Aperture macros list*
%AMRoundRect*
0 Rectangle with rounded corners*
0 $1 Rounding radius*
0 $2 $3 $4 $5 $6 $7 $8 $9 X,Y pos of 4 corners*
0 Add a 4 corners polygon primitive as box body*
4,1,4,$2,$3,$4,$5,$6,$7,$8,$9,$2,$3,0*
0 Add four circle primitives for the rounded corners*
1,1,$1+$1,$2,$3*
1,1,$1+$1,$4,$5*
1,1,$1+$1,$6,$7*
1,1,$1+$1,$8,$9*
0 Add four rect primitives between the rounded corners*
20,1,$1+$1,$2,$3,$4,$5,0*
20,1,$1+$1,$4,$5,$6,$7,0*
20,1,$1+$1,$6,$7,$8,$9,0*
20,1,$1+$1,$8,$9,$2,$3,0*%
G04 Aperture macros list end*
G04 #@! TA.AperFunction,ComponentPad*
%ADD10C,1.600000*%
G04 #@! TD*
G04 #@! TA.AperFunction,SMDPad,CuDef*
%ADD11RoundRect,0.250000X0.300000X-0.300000X0.300000X0.300000X-0.300000X0.300000X-0.300000X-0.300000X0*%
G04 #@! TD*
G04 #@! TA.AperFunction,SMDPad,CuDef*
%ADD12RoundRect,0.250000X-0.450000X0.350000X-0.450000X-0.350000X0.450000X-0.350000X0.450000X0.350000X0*%
G04 #@! TD*
G04 #@! TA.AperFunction,SMDPad,CuDef*
%ADD13RoundRect,0.250000X-0.337500X-0.475000X0.337500X-0.475000X0.337500X0.475000X-0.337500X0.475000X0*%
G04 #@! TD*
G04 #@! TA.AperFunction,SMDPad,CuDef*
%ADD14RoundRect,0.250000X1.500000X0.550000X-1.500000X0.550000X-1.500000X-0.550000X1.500000X-0.550000X0*%
G04 #@! TD*
G04 #@! TA.AperFunction,SMDPad,CuDef*
%ADD15R,1.500000X2.900000*%
G04 #@! TD*
G04 #@! TA.AperFunction,SMDPad,CuDef*
%ADD16R,6.300000X6.500000*%
G04 #@! TD*
G04 #@! TA.AperFunction,SMDPad,CuDef*
%ADD17RoundRect,0.250000X0.450000X-0.350000X0.450000X0.350000X-0.450000X0.350000X-0.450000X-0.350000X0*%
G04 #@! TD*
G04 #@! TA.AperFunction,SMDPad,CuDef*
%ADD18RoundRect,0.250000X0.337500X0.475000X-0.337500X0.475000X-0.337500X-0.475000X0.337500X-0.475000X0*%
G04 #@! TD*
G04 #@! TA.AperFunction,SMDPad,CuDef*
%ADD19RoundRect,0.250000X0.350000X0.450000X-0.350000X0.450000X-0.350000X-0.450000X0.350000X-0.450000X0*%
G04 #@! TD*
G04 #@! TA.AperFunction,SMDPad,CuDef*
%ADD20RoundRect,0.225000X-0.375000X0.225000X-0.375000X-0.225000X0.375000X-0.225000X0.375000X0.225000X0*%
G04 #@! TD*
G04 #@! TA.AperFunction,SMDPad,CuDef*
%ADD21RoundRect,0.250000X-0.475000X0.337500X-0.475000X-0.337500X0.475000X-0.337500X0.475000X0.337500X0*%
G04 #@! TD*
G04 #@! TA.AperFunction,SMDPad,CuDef*
%ADD22C,2.000000*%
G04 #@! TD*
G04 #@! TA.AperFunction,SMDPad,CuDef*
%ADD23RoundRect,0.250000X-0.350000X-0.450000X0.350000X-0.450000X0.350000X0.450000X-0.350000X0.450000X0*%
G04 #@! TD*
G04 #@! TA.AperFunction,SMDPad,CuDef*
%ADD24RoundRect,0.250000X0.475000X-0.337500X0.475000X0.337500X-0.475000X0.337500X-0.475000X-0.337500X0*%
G04 #@! TD*
G04 #@! TA.AperFunction,SMDPad,CuDef*
%ADD25R,1.000000X0.700000*%
G04 #@! TD*
G04 #@! TA.AperFunction,SMDPad,CuDef*
%ADD26R,4.900000X5.400000*%
G04 #@! TD*
G04 #@! TA.AperFunction,SMDPad,CuDef*
%ADD27R,0.700000X1.000000*%
G04 #@! TD*
G04 #@! TA.AperFunction,SMDPad,CuDef*
%ADD28R,6.200000X3.900000*%
G04 #@! TD*
G04 #@! TA.AperFunction,SMDPad,CuDef*
%ADD29R,4.400000X3.300000*%
G04 #@! TD*
G04 #@! TA.AperFunction,SMDPad,CuDef*
%ADD30RoundRect,0.250000X-0.325000X-0.450000X0.325000X-0.450000X0.325000X0.450000X-0.325000X0.450000X0*%
G04 #@! TD*
G04 #@! TA.AperFunction,SMDPad,CuDef*
%ADD31RoundRect,0.250000X-1.950000X-1.000000X1.950000X-1.000000X1.950000X1.000000X-1.950000X1.000000X0*%
G04 #@! TD*
G04 #@! TA.AperFunction,SMDPad,CuDef*
%ADD32RoundRect,0.250001X0.462499X0.849999X-0.462499X0.849999X-0.462499X-0.849999X0.462499X-0.849999X0*%
G04 #@! TD*
G04 #@! TA.AperFunction,SMDPad,CuDef*
%ADD33RoundRect,0.150000X-0.825000X-0.150000X0.825000X-0.150000X0.825000X0.150000X-0.825000X0.150000X0*%
G04 #@! TD*
G04 #@! TA.AperFunction,SMDPad,CuDef*
%ADD34RoundRect,0.150000X0.825000X0.150000X-0.825000X0.150000X-0.825000X-0.150000X0.825000X-0.150000X0*%
G04 #@! TD*
G04 #@! TA.AperFunction,SMDPad,CuDef*
%ADD35R,2.750000X1.250000*%
G04 #@! TD*
G04 #@! TA.AperFunction,SMDPad,CuDef*
%ADD36RoundRect,0.250000X-0.650000X1.500000X-0.650000X-1.500000X0.650000X-1.500000X0.650000X1.500000X0*%
G04 #@! TD*
G04 #@! TA.AperFunction,SMDPad,CuDef*
%ADD37RoundRect,0.250001X-0.849999X0.462499X-0.849999X-0.462499X0.849999X-0.462499X0.849999X0.462499X0*%
G04 #@! TD*
G04 #@! TA.AperFunction,ViaPad*
%ADD38C,1.000000*%
G04 #@! TD*
G04 #@! TA.AperFunction,ViaPad*
%ADD39C,0.800000*%
G04 #@! TD*
G04 #@! TA.AperFunction,ViaPad*
%ADD40C,4.000000*%
G04 #@! TD*
G04 #@! TA.AperFunction,ViaPad*
%ADD41C,2.000000*%
G04 #@! TD*
G04 #@! TA.AperFunction,Conductor*
%ADD42C,0.500000*%
G04 #@! TD*
G04 #@! TA.AperFunction,Conductor*
%ADD43C,1.000000*%
G04 #@! TD*
G04 #@! TA.AperFunction,Conductor*
%ADD44C,2.000000*%
G04 #@! TD*
G04 #@! TA.AperFunction,Conductor*
%ADD45C,0.250000*%
G04 #@! TD*
G04 #@! TA.AperFunction,Conductor*
%ADD46C,1.500000*%
G04 #@! TD*
G04 #@! TA.AperFunction,Conductor*
%ADD47C,0.700000*%
G04 #@! TD*
G04 #@! TA.AperFunction,Conductor*
%ADD48C,0.750000*%
G04 #@! TD*
G04 APERTURE END LIST*
D10*
X83000000Y-68000000D03*
X85000000Y-68000000D03*
X87000000Y-68000000D03*
X89000000Y-68000000D03*
X99000000Y-68000000D03*
X101000000Y-68000000D03*
X107000000Y-68000000D03*
X109000000Y-68000000D03*
X111000000Y-68000000D03*
X169000000Y-68000000D03*
X171000000Y-68000000D03*
X173000000Y-68000000D03*
X175000000Y-68000000D03*
X177000000Y-68000000D03*
X179000000Y-68000000D03*
X181000000Y-68000000D03*
X183000000Y-68000000D03*
X185000000Y-68000000D03*
X187000000Y-68000000D03*
X189000000Y-68000000D03*
X191000000Y-68000000D03*
X193000000Y-68000000D03*
X195000000Y-68000000D03*
X197000000Y-68000000D03*
X199000000Y-68000000D03*
X201000000Y-68000000D03*
X203000000Y-68000000D03*
X213000000Y-68000000D03*
X215000000Y-68000000D03*
X217000000Y-68000000D03*
X219000000Y-68000000D03*
D11*
X189166666Y-70540000D03*
X189166666Y-73340000D03*
D12*
X171000000Y-72540000D03*
X171000000Y-70540000D03*
X107000000Y-74500000D03*
X107000000Y-72500000D03*
D13*
X162000000Y-90287500D03*
X159925000Y-90287500D03*
D14*
X87600000Y-103000000D03*
X93000000Y-103000000D03*
D15*
X120786000Y-98390000D03*
D16*
X118500000Y-104890000D03*
D15*
X116214000Y-98390000D03*
D17*
X167600000Y-98000000D03*
X167600000Y-100000000D03*
D18*
X101925000Y-73500000D03*
X104000000Y-73500000D03*
D19*
X199000000Y-72500000D03*
X201000000Y-72500000D03*
X118500000Y-74500000D03*
X120500000Y-74500000D03*
D17*
X189166666Y-75620000D03*
X189166666Y-77620000D03*
X187000000Y-75620000D03*
X187000000Y-77620000D03*
D20*
X92000000Y-71300000D03*
X92000000Y-68000000D03*
D18*
X105925000Y-88040000D03*
X108000000Y-88040000D03*
D21*
X109500000Y-78575000D03*
X109500000Y-76500000D03*
D13*
X115075000Y-93040000D03*
X113000000Y-93040000D03*
D17*
X159500000Y-85537500D03*
X159500000Y-87537500D03*
D19*
X110750000Y-82500000D03*
X112750000Y-82500000D03*
D22*
X173000000Y-77000000D03*
D21*
X157750000Y-100950000D03*
X157750000Y-98875000D03*
D23*
X165000000Y-98450000D03*
X163000000Y-98450000D03*
D13*
X166000000Y-83037500D03*
X163925000Y-83037500D03*
D17*
X191333332Y-75620000D03*
X191333332Y-77620000D03*
D12*
X100000000Y-94040000D03*
X100000000Y-92040000D03*
D13*
X96500000Y-68000000D03*
X94425000Y-68000000D03*
D23*
X117000000Y-90540000D03*
X115000000Y-90540000D03*
D22*
X92500000Y-83500000D03*
D24*
X175000000Y-70500000D03*
X175000000Y-72575000D03*
D13*
X162037500Y-92787500D03*
X159962500Y-92787500D03*
D25*
X165100000Y-102400000D03*
X165100000Y-101450000D03*
X165100000Y-100500000D03*
X162900000Y-100500000D03*
X162900000Y-101450000D03*
X162900000Y-102400000D03*
D22*
X99000000Y-73500000D03*
X209500000Y-75500000D03*
D12*
X170600000Y-103000000D03*
X170600000Y-101000000D03*
D26*
X111400000Y-103040000D03*
X99600000Y-103040000D03*
D23*
X112750000Y-88040000D03*
X110750000Y-88040000D03*
D18*
X163925000Y-90287500D03*
X166000000Y-90287500D03*
D17*
X193500000Y-75620000D03*
X193500000Y-77620000D03*
D11*
X191333332Y-70540000D03*
X191333332Y-73340000D03*
D19*
X119500000Y-95040000D03*
X121500000Y-95040000D03*
D21*
X167500000Y-104950000D03*
X167500000Y-102875000D03*
X206000000Y-70075000D03*
X206000000Y-68000000D03*
D13*
X112825000Y-90540000D03*
X110750000Y-90540000D03*
D27*
X163500000Y-85500000D03*
X162550000Y-85500000D03*
X161600000Y-85500000D03*
X161600000Y-87700000D03*
X162550000Y-87700000D03*
X163500000Y-87700000D03*
D28*
X82500000Y-73000000D03*
X82500000Y-85900000D03*
D29*
X91500000Y-78750000D03*
D11*
X193500000Y-70540000D03*
X193500000Y-73340000D03*
D30*
X98050000Y-78750000D03*
X96000000Y-78750000D03*
D22*
X201000000Y-75500000D03*
X104000000Y-76500000D03*
D23*
X117000000Y-88000000D03*
X115000000Y-88000000D03*
D11*
X187000000Y-70540000D03*
X187000000Y-73340000D03*
D18*
X89212500Y-109290000D03*
X91287500Y-109290000D03*
D31*
X140400000Y-104360000D03*
X132000000Y-104360000D03*
D17*
X119500000Y-90540000D03*
X119500000Y-92540000D03*
D24*
X157750000Y-102875000D03*
X157750000Y-104950000D03*
D32*
X162837500Y-104950000D03*
X165162500Y-104950000D03*
D21*
X160250000Y-100950000D03*
X160250000Y-98875000D03*
D18*
X163925000Y-92787500D03*
X166000000Y-92787500D03*
D17*
X161500000Y-81450000D03*
X161500000Y-83450000D03*
D33*
X117450000Y-80310000D03*
X117450000Y-79040000D03*
X117450000Y-77770000D03*
X117450000Y-76500000D03*
X112500000Y-76500000D03*
X112500000Y-77770000D03*
X112500000Y-79040000D03*
X112500000Y-80310000D03*
D24*
X160250000Y-102875000D03*
X160250000Y-104950000D03*
D34*
X103025000Y-90635000D03*
X103025000Y-91905000D03*
X103025000Y-93175000D03*
X103025000Y-94445000D03*
X107975000Y-94445000D03*
X107975000Y-93175000D03*
X107975000Y-91905000D03*
X107975000Y-90635000D03*
D19*
X114690000Y-74500000D03*
X116690000Y-74500000D03*
D35*
X214000000Y-90000000D03*
X214000000Y-87460000D03*
X214000000Y-84920000D03*
X214000000Y-82380000D03*
X214000000Y-105620000D03*
X214000000Y-103080000D03*
X214000000Y-100540000D03*
X214000000Y-98000000D03*
D31*
X140400000Y-92930000D03*
X132000000Y-92930000D03*
D36*
X125500000Y-104540000D03*
X125500000Y-99540000D03*
D21*
X120500000Y-78575000D03*
X120500000Y-76500000D03*
D22*
X210000000Y-68000000D03*
D31*
X140400000Y-81500000D03*
X132000000Y-81500000D03*
D37*
X166000000Y-87862500D03*
X166000000Y-85537500D03*
D38*
X140000000Y-98500000D03*
X120500000Y-80000000D03*
X147000000Y-83250000D03*
X151500000Y-83250000D03*
X80250000Y-104750000D03*
X163000000Y-96500000D03*
X157750000Y-87500000D03*
X87000000Y-101750000D03*
X149250000Y-88250000D03*
X80250000Y-98750000D03*
D39*
X191333332Y-71810000D03*
D38*
X84750000Y-96750000D03*
X104000000Y-88040000D03*
X82500000Y-97750000D03*
X78000000Y-107750000D03*
X101500000Y-95750000D03*
D39*
X187000000Y-71810000D03*
D40*
X82500000Y-79500000D03*
D38*
X144750000Y-86250000D03*
X118750000Y-88750000D03*
X80250000Y-94750000D03*
X114000000Y-96500000D03*
X84750000Y-102750000D03*
X78000000Y-95750000D03*
X209500000Y-78000000D03*
D41*
X141000000Y-85250000D03*
D38*
X153750000Y-88250000D03*
X139000000Y-96250000D03*
X80250000Y-106750000D03*
X156050000Y-100900000D03*
X153750000Y-82250000D03*
X82500000Y-101750000D03*
X144750000Y-84250000D03*
X209500000Y-73000000D03*
X151500000Y-87250000D03*
X82500000Y-99750000D03*
D39*
X193500000Y-72000000D03*
D38*
X78000000Y-99750000D03*
X144750000Y-80250000D03*
X147000000Y-87250000D03*
X142000000Y-98500000D03*
X78000000Y-103750000D03*
X84750000Y-94750000D03*
X149250000Y-80250000D03*
X153750000Y-86250000D03*
X84750000Y-98750000D03*
X80250000Y-100750000D03*
X170600000Y-99500000D03*
X78000000Y-97750000D03*
X87000000Y-95750000D03*
X143000000Y-100750000D03*
X163000000Y-94287500D03*
X153750000Y-80250000D03*
X112250000Y-96500000D03*
D39*
X189166666Y-71810000D03*
D38*
X217000000Y-105620000D03*
X78000000Y-101750000D03*
X78000000Y-105750000D03*
X82500000Y-95750000D03*
X84750000Y-106750000D03*
X156050000Y-102900000D03*
X87000000Y-99750000D03*
X110500000Y-96500000D03*
X109500000Y-95500000D03*
X151500000Y-81250000D03*
X172600000Y-101000000D03*
X108500000Y-96500000D03*
X99750000Y-95750000D03*
X149250000Y-84250000D03*
X217000000Y-98000000D03*
D41*
X141000000Y-89000000D03*
D38*
X144750000Y-88250000D03*
X80250000Y-102750000D03*
X149250000Y-82250000D03*
X144750000Y-82250000D03*
X117000000Y-93040000D03*
X139000000Y-100750000D03*
X84750000Y-104750000D03*
X147000000Y-81250000D03*
X87000000Y-107750000D03*
X87000000Y-97750000D03*
X80250000Y-96750000D03*
X87000000Y-105750000D03*
X151500000Y-85250000D03*
X87000000Y-103750000D03*
X149250000Y-86250000D03*
X103250000Y-95750000D03*
X109500000Y-82500000D03*
X143000000Y-96250000D03*
X82500000Y-107750000D03*
X141000000Y-96250000D03*
X84750000Y-100750000D03*
X82500000Y-103750000D03*
X147000000Y-85250000D03*
X82500000Y-105750000D03*
X141000000Y-100750000D03*
X153750000Y-84250000D03*
X168000000Y-87787500D03*
X163250000Y-81037500D03*
X169600000Y-98000000D03*
X160250000Y-107000000D03*
X119250000Y-98540000D03*
X113895000Y-89000000D03*
D42*
X163500000Y-83462500D02*
X163500000Y-85500000D01*
X163925000Y-83037500D02*
X163500000Y-83462500D01*
X163000000Y-98450000D02*
X163000000Y-96500000D01*
X157725000Y-102900000D02*
X157750000Y-102875000D01*
D43*
X209500000Y-75500000D02*
X209500000Y-73000000D01*
D42*
X118000000Y-88000000D02*
X118750000Y-88750000D01*
X157750000Y-87500000D02*
X159462500Y-87500000D01*
D44*
X82500000Y-85900000D02*
X82500000Y-79500000D01*
D42*
X105925000Y-88040000D02*
X104000000Y-88040000D01*
D45*
X163500000Y-90275000D02*
X163512500Y-90287500D01*
D42*
X117000000Y-88000000D02*
X118000000Y-88000000D01*
D43*
X163000000Y-92787500D02*
X162037500Y-92787500D01*
D42*
X214000000Y-105620000D02*
X214120000Y-105500000D01*
D46*
X206000000Y-68000000D02*
X203000000Y-68000000D01*
D42*
X119500000Y-89500000D02*
X119500000Y-90540000D01*
X187000000Y-71810000D02*
X187000000Y-70540000D01*
X163000000Y-94287500D02*
X163000000Y-96500000D01*
D43*
X157750000Y-101950000D02*
X157750000Y-100950000D01*
D42*
X163000000Y-92787500D02*
X163000000Y-94287500D01*
X157700000Y-100900000D02*
X157750000Y-100950000D01*
X115075000Y-93040000D02*
X117000000Y-93040000D01*
D43*
X163925000Y-92787500D02*
X163000000Y-92787500D01*
D42*
X163500000Y-87700000D02*
X163500000Y-90275000D01*
D44*
X82500000Y-79500000D02*
X82500000Y-73000000D01*
D43*
X160250000Y-102875000D02*
X160250000Y-100950000D01*
D42*
X156050000Y-100900000D02*
X157700000Y-100900000D01*
X193500000Y-72000000D02*
X193500000Y-70540000D01*
D43*
X109500000Y-81250000D02*
X110750000Y-82500000D01*
D46*
X99000000Y-68000000D02*
X96625000Y-68000000D01*
D43*
X101925000Y-73500000D02*
X99000000Y-73500000D01*
D42*
X119500000Y-90540000D02*
X117000000Y-90540000D01*
D43*
X209500000Y-75500000D02*
X209500000Y-78000000D01*
D42*
X189166666Y-71810000D02*
X189166666Y-70540000D01*
X156050000Y-102900000D02*
X157725000Y-102900000D01*
X118750000Y-88750000D02*
X119500000Y-89500000D01*
X191333332Y-71810000D02*
X191333332Y-70540000D01*
X117000000Y-90540000D02*
X117000000Y-93040000D01*
X120500000Y-78575000D02*
X120500000Y-80000000D01*
D43*
X109500000Y-78575000D02*
X109500000Y-81250000D01*
X157750000Y-102875000D02*
X157750000Y-101950000D01*
D42*
X159462500Y-87500000D02*
X159500000Y-87537500D01*
D43*
X162000000Y-90287500D02*
X163925000Y-90287500D01*
D42*
X117000000Y-88000000D02*
X117000000Y-90540000D01*
X172600000Y-101000000D02*
X170600000Y-101000000D01*
D43*
X109500000Y-82500000D02*
X109500000Y-78575000D01*
D46*
X99000000Y-68000000D02*
X101000000Y-68000000D01*
D45*
X163512500Y-90287500D02*
X163925000Y-90287500D01*
D42*
X170600000Y-99500000D02*
X170600000Y-101000000D01*
D43*
X217000000Y-105620000D02*
X214000000Y-105620000D01*
X175000000Y-70500000D02*
X175000000Y-68000000D01*
X214000000Y-98000000D02*
X217000000Y-98000000D01*
X166000000Y-83037500D02*
X166000000Y-85537500D01*
D46*
X92500000Y-83500000D02*
X92950000Y-83950000D01*
D42*
X103025000Y-90635000D02*
X93305000Y-90635000D01*
D47*
X161600000Y-88150000D02*
X161600000Y-87700000D01*
D43*
X159925000Y-92750000D02*
X159925000Y-90287500D01*
D46*
X97000000Y-83500000D02*
X92500000Y-83500000D01*
D43*
X93000000Y-103000000D02*
X93000000Y-107577500D01*
X159962500Y-92787500D02*
X159962500Y-98587500D01*
D46*
X92950000Y-83950000D02*
X92950000Y-87990000D01*
D47*
X159925000Y-90287500D02*
X159925000Y-89825000D01*
D43*
X93000000Y-107577500D02*
X91287500Y-109290000D01*
D46*
X98050000Y-82450000D02*
X97000000Y-83500000D01*
D47*
X162900000Y-100500000D02*
X162500000Y-100500000D01*
D43*
X159962500Y-92787500D02*
X159925000Y-92750000D01*
D46*
X92950000Y-87990000D02*
X92950000Y-103040000D01*
D43*
X157750000Y-98875000D02*
X160250000Y-98875000D01*
D47*
X160250000Y-98875000D02*
X160875000Y-98875000D01*
D42*
X159962500Y-98587500D02*
X160250000Y-98875000D01*
D46*
X99600000Y-103040000D02*
X92950000Y-103040000D01*
X98050000Y-78750000D02*
X98050000Y-82450000D01*
D47*
X160750000Y-89000000D02*
G75*
G03*
X159925000Y-89825000I0J-825000D01*
G01*
X161750000Y-99750000D02*
G75*
G03*
X160875000Y-98875000I-875000J0D01*
G01*
X161750000Y-99750000D02*
G75*
G03*
X162500000Y-100500000I750000J0D01*
G01*
X160750000Y-89000000D02*
G75*
G03*
X161600000Y-88150000I0J850000D01*
G01*
D42*
X112000000Y-93040000D02*
X110750000Y-91790000D01*
X110635000Y-91905000D02*
X110750000Y-91790000D01*
X110750000Y-91790000D02*
X110750000Y-90540000D01*
X113000000Y-93040000D02*
X112000000Y-93040000D01*
X107975000Y-91905000D02*
X110635000Y-91905000D01*
D44*
X125500000Y-93000000D02*
X125500000Y-99540000D01*
D43*
X107000000Y-74500000D02*
X107000000Y-76500000D01*
X125500000Y-95750000D02*
X125500000Y-99540000D01*
D42*
X125540000Y-99500000D02*
X125500000Y-99540000D01*
D43*
X121500000Y-85000000D02*
X125500000Y-89000000D01*
X124790000Y-95040000D02*
X125500000Y-95750000D01*
D44*
X125570000Y-92930000D02*
X125500000Y-93000000D01*
D43*
X104000000Y-76500000D02*
X107000000Y-76500000D01*
D44*
X132000000Y-92930000D02*
X125570000Y-92930000D01*
D43*
X121500000Y-95040000D02*
X124790000Y-95040000D01*
D44*
X132000000Y-81500000D02*
X132000000Y-104360000D01*
D46*
X104000000Y-73500000D02*
X104000000Y-76500000D01*
D43*
X125500000Y-89000000D02*
X125500000Y-93000000D01*
X107250000Y-85000000D02*
X121500000Y-85000000D01*
X104000000Y-81750000D02*
X107250000Y-85000000D01*
D42*
X112500000Y-76500000D02*
X109500000Y-76500000D01*
D43*
X107000000Y-76500000D02*
X109500000Y-76500000D01*
X104000000Y-76500000D02*
X104000000Y-81750000D01*
X171000000Y-72540000D02*
X173500000Y-72540000D01*
X120500000Y-76500000D02*
X120500000Y-75500000D01*
X168040000Y-75500000D02*
X171000000Y-72540000D01*
D42*
X120500000Y-76500000D02*
X117450000Y-76500000D01*
D43*
X175000000Y-72575000D02*
X174965000Y-72540000D01*
X173500000Y-72540000D02*
X174965000Y-72540000D01*
X120500000Y-75500000D02*
X168040000Y-75500000D01*
X173000000Y-73040000D02*
X173500000Y-72540000D01*
X173000000Y-77000000D02*
X173000000Y-73040000D01*
X120500000Y-74500000D02*
X120500000Y-76500000D01*
X174925000Y-72500000D02*
X175000000Y-72575000D01*
D42*
X171035000Y-72575000D02*
X171000000Y-72540000D01*
X112825000Y-90540000D02*
X115000000Y-90540000D01*
D46*
X96000000Y-78750000D02*
X91500000Y-78750000D01*
D42*
X206000000Y-70075000D02*
X203425000Y-70075000D01*
D43*
X201000000Y-72500000D02*
X201000000Y-75500000D01*
D42*
X161500000Y-81450000D02*
X162837500Y-81450000D01*
X199500000Y-66500000D02*
X185750000Y-66500000D01*
X162837500Y-81450000D02*
X163250000Y-81037500D01*
X168000000Y-87787500D02*
X166075000Y-87787500D01*
X201000000Y-68000000D02*
X201000000Y-72500000D01*
X185000000Y-67250000D02*
X185000000Y-68000000D01*
X185750000Y-66500000D02*
X185000000Y-67250000D01*
X166075000Y-87787500D02*
X166000000Y-87862500D01*
D45*
X166837500Y-87862500D02*
X166000000Y-87862500D01*
D42*
X201000000Y-68000000D02*
X199500000Y-66500000D01*
D43*
X166000000Y-92787500D02*
X166000000Y-87862500D01*
D42*
X203425000Y-70075000D02*
X201000000Y-72500000D01*
X108000000Y-88040000D02*
X110750000Y-88040000D01*
X108000000Y-88040000D02*
X108000000Y-90610000D01*
X108000000Y-90610000D02*
X107975000Y-90635000D01*
D46*
X83000000Y-68000000D02*
X89000000Y-68000000D01*
X94425000Y-68000000D02*
X89000000Y-68000000D01*
D42*
X165100000Y-102400000D02*
X167025000Y-102400000D01*
X167025000Y-102400000D02*
X167500000Y-102875000D01*
D43*
X165162500Y-104950000D02*
X167500000Y-104950000D01*
D42*
X165625000Y-104487500D02*
X165162500Y-104950000D01*
X160250000Y-104950000D02*
X160250000Y-107000000D01*
D43*
X157750000Y-104950000D02*
X162837500Y-104950000D01*
D42*
X169600000Y-98000000D02*
X167600000Y-98000000D01*
X160250000Y-107000000D02*
X160500000Y-107000000D01*
D46*
X116150000Y-103040000D02*
X111400000Y-103040000D01*
D42*
X118850000Y-104540000D02*
X118500000Y-104890000D01*
X125500000Y-104540000D02*
X118850000Y-104540000D01*
D46*
X118500000Y-104890000D02*
X118000000Y-104890000D01*
X118000000Y-104890000D02*
X116150000Y-103040000D01*
D42*
X191333332Y-75620000D02*
X191333332Y-73340000D01*
X192333332Y-72340000D02*
X192333332Y-69333332D01*
X191333332Y-73340000D02*
X192333332Y-72340000D01*
X192333332Y-69333332D02*
X191000000Y-68000000D01*
X190250000Y-71500000D02*
X190250000Y-69250000D01*
X189166666Y-73340000D02*
X190250000Y-72256666D01*
X190250000Y-72256666D02*
X190250000Y-70250000D01*
X190250000Y-69250000D02*
X189000000Y-68000000D01*
X189166666Y-75620000D02*
X189166666Y-73340000D01*
X188000000Y-69000000D02*
X187000000Y-68000000D01*
X187000000Y-75620000D02*
X187000000Y-73340000D01*
X187000000Y-73340000D02*
X188000000Y-72340000D01*
X188000000Y-72340000D02*
X188000000Y-69000000D01*
X194750000Y-69750000D02*
X193000000Y-68000000D01*
X193500000Y-75620000D02*
X193500000Y-73340000D01*
X194750000Y-72090000D02*
X194750000Y-69750000D01*
X193500000Y-73340000D02*
X194750000Y-72090000D01*
X199380000Y-90000000D02*
X187000000Y-77620000D01*
X214000000Y-90000000D02*
X199380000Y-90000000D01*
X199006666Y-87460000D02*
X189166666Y-77620000D01*
X214000000Y-87460000D02*
X199006666Y-87460000D01*
X198633332Y-84920000D02*
X191333332Y-77620000D01*
X214000000Y-84920000D02*
X198633332Y-84920000D01*
X214000000Y-82380000D02*
X198260000Y-82380000D01*
X198260000Y-82380000D02*
X193500000Y-77620000D01*
X168700000Y-101450000D02*
X170250000Y-103000000D01*
X165100000Y-101450000D02*
X168700000Y-101450000D01*
X170680000Y-103080000D02*
X213750000Y-103080000D01*
X170600000Y-103000000D02*
X170680000Y-103080000D01*
X170250000Y-103000000D02*
X170600000Y-103000000D01*
D48*
X104618528Y-93175000D02*
X103025000Y-93175000D01*
X116214000Y-98390000D02*
X108390000Y-98390000D01*
X105500000Y-95500000D02*
X105500000Y-94056472D01*
X105500000Y-94056472D02*
G75*
G03*
X104618528Y-93175000I-881500J-28D01*
G01*
X105500000Y-95500000D02*
G75*
G03*
X108390000Y-98390000I2890000J0D01*
G01*
D42*
X119250000Y-98540000D02*
X120636000Y-98540000D01*
X115000000Y-88000000D02*
X114000000Y-88000000D01*
X114000000Y-88000000D02*
X112790000Y-88000000D01*
X113895000Y-88105000D02*
X114000000Y-88000000D01*
X113895000Y-89000000D02*
X113895000Y-88105000D01*
X120636000Y-98540000D02*
X120786000Y-98390000D01*
X112790000Y-88000000D02*
X112750000Y-88040000D01*
D43*
X118500000Y-74500000D02*
X116690000Y-74500000D01*
D42*
X119500000Y-92540000D02*
X119500000Y-95040000D01*
X112000000Y-95040000D02*
X110135000Y-93175000D01*
X119500000Y-95040000D02*
X112000000Y-95040000D01*
X110135000Y-93175000D02*
X107975000Y-93175000D01*
X114190000Y-80310000D02*
X112500000Y-80310000D01*
X112500000Y-80310000D02*
X112750000Y-80560000D01*
X112750000Y-80560000D02*
X112750000Y-82250000D01*
X112750000Y-82250000D02*
X112500000Y-82500000D01*
X114690000Y-74500000D02*
X114690000Y-79810000D01*
X114690000Y-79810000D02*
X114190000Y-80310000D01*
X161500000Y-83450000D02*
X161500000Y-85400000D01*
X159500000Y-85537500D02*
X161562500Y-85537500D01*
X161500000Y-85400000D02*
X161600000Y-85500000D01*
X199000000Y-72500000D02*
X199000000Y-71500000D01*
X197500000Y-70000000D02*
X197000000Y-70000000D01*
X199000000Y-71500000D02*
G75*
G03*
X197500000Y-70000000I-1500000J0D01*
G01*
X195000000Y-68000000D02*
G75*
G03*
X197000000Y-70000000I2000000J0D01*
G01*
D43*
X171000000Y-70540000D02*
X171000000Y-68000000D01*
X107000000Y-72500000D02*
X107000000Y-68000000D01*
D42*
X100135000Y-91905000D02*
X100000000Y-92040000D01*
X103025000Y-91905000D02*
X100135000Y-91905000D01*
X165100000Y-100500000D02*
X165100000Y-98550000D01*
X167600000Y-100000000D02*
X165600000Y-100000000D01*
X165600000Y-100000000D02*
X165000000Y-99400000D01*
X165100000Y-98550000D02*
X165000000Y-98450000D01*
X165000000Y-99400000D02*
X165000000Y-98450000D01*
G04 #@! TA.AperFunction,Conductor*
G36*
X160846288Y-100218954D02*
G01*
X160927070Y-100272930D01*
X160981046Y-100353712D01*
X161000000Y-100449000D01*
X161000000Y-101900000D01*
X161971890Y-101900000D01*
X162067178Y-101918954D01*
X162147956Y-101972927D01*
X162227235Y-102052206D01*
X162330009Y-102097585D01*
X162355135Y-102100500D01*
X163101001Y-102100499D01*
X163196288Y-102119453D01*
X163277069Y-102173429D01*
X163331046Y-102254211D01*
X163350000Y-102349499D01*
X163350000Y-103251000D01*
X163331046Y-103346288D01*
X163277070Y-103427070D01*
X163196288Y-103481046D01*
X163101000Y-103500000D01*
X157249000Y-103500000D01*
X157153712Y-103481046D01*
X157072930Y-103427070D01*
X157018954Y-103346288D01*
X157000000Y-103251000D01*
X157000000Y-100449000D01*
X157018954Y-100353712D01*
X157072930Y-100272930D01*
X157153712Y-100218954D01*
X157249000Y-100200000D01*
X160751000Y-100200000D01*
X160846288Y-100218954D01*
G37*
G04 #@! TD.AperFunction*
G04 #@! TA.AperFunction,Conductor*
G36*
X164195788Y-101118954D02*
G01*
X164276570Y-101172930D01*
X164330546Y-101253712D01*
X164349500Y-101349000D01*
X164349500Y-101824676D01*
X164359793Y-101876421D01*
X164359794Y-101973576D01*
X164359793Y-101973579D01*
X164349500Y-102025323D01*
X164349500Y-102774676D01*
X164364033Y-102847739D01*
X164381250Y-102873506D01*
X164381250Y-103000000D01*
X164572812Y-103000000D01*
X164575324Y-103000499D01*
X164575325Y-103000500D01*
X165509238Y-103000500D01*
X165557806Y-103005283D01*
X165576582Y-103009017D01*
X165666343Y-103046193D01*
X165735044Y-103114889D01*
X165772228Y-103204647D01*
X165772228Y-103204648D01*
X165776464Y-103225940D01*
X165781250Y-103274526D01*
X165781250Y-105825473D01*
X165776463Y-105874061D01*
X165772227Y-105895352D01*
X165735044Y-105985110D01*
X165666342Y-106053806D01*
X165576604Y-106090977D01*
X165555314Y-106095213D01*
X165506724Y-106100000D01*
X164305776Y-106100000D01*
X164257188Y-106095213D01*
X164235897Y-106090977D01*
X164146139Y-106053794D01*
X164077443Y-105985092D01*
X164040269Y-105895341D01*
X164036034Y-105874050D01*
X164031250Y-105825473D01*
X164031250Y-103725002D01*
X164031250Y-103725000D01*
X164031250Y-103500000D01*
X163831853Y-103500000D01*
X163765743Y-103472615D01*
X163697045Y-103403915D01*
X163659867Y-103314154D01*
X163655663Y-103257113D01*
X163655500Y-103257113D01*
X163655500Y-103254907D01*
X163655384Y-103253334D01*
X163655497Y-103251021D01*
X163655500Y-103251000D01*
X163655500Y-102349499D01*
X163651100Y-102304822D01*
X163650500Y-102292612D01*
X163650500Y-102025324D01*
X163650499Y-102025323D01*
X163635966Y-101952260D01*
X163581250Y-101870369D01*
X163581250Y-101800000D01*
X163427190Y-101800000D01*
X163424676Y-101799500D01*
X163424674Y-101799500D01*
X163152821Y-101799500D01*
X163140611Y-101798900D01*
X163101003Y-101794999D01*
X163101001Y-101794999D01*
X162634333Y-101794999D01*
X162539045Y-101776045D01*
X162458263Y-101722069D01*
X162404287Y-101641287D01*
X162390118Y-101594578D01*
X162386035Y-101574052D01*
X162381250Y-101525473D01*
X162381250Y-101374526D01*
X162386034Y-101325951D01*
X162390269Y-101304659D01*
X162427448Y-101214899D01*
X162496146Y-101146200D01*
X162585902Y-101109020D01*
X162598362Y-101106541D01*
X162604697Y-101105282D01*
X162653262Y-101100500D01*
X163425699Y-101100500D01*
X163435872Y-101100000D01*
X164100500Y-101100000D01*
X164195788Y-101118954D01*
G37*
G04 #@! TD.AperFunction*
G04 #@! TA.AperFunction,Conductor*
G36*
X175004031Y-72000530D02*
G01*
X175095879Y-72012622D01*
X175113223Y-72014906D01*
X175144491Y-72023284D01*
X175234918Y-72060740D01*
X175262952Y-72076925D01*
X175340602Y-72136509D01*
X175363491Y-72159398D01*
X175423074Y-72237048D01*
X175439259Y-72265081D01*
X175476715Y-72355508D01*
X175485093Y-72386775D01*
X175499469Y-72495964D01*
X175500000Y-72504065D01*
X175500000Y-78495934D01*
X175499469Y-78504035D01*
X175485093Y-78613224D01*
X175476715Y-78644491D01*
X175439259Y-78734918D01*
X175423074Y-78762951D01*
X175363491Y-78840601D01*
X175340601Y-78863491D01*
X175262951Y-78923074D01*
X175234918Y-78939259D01*
X175144491Y-78976715D01*
X175113224Y-78985093D01*
X175024783Y-78996737D01*
X175004031Y-78999469D01*
X174995934Y-79000000D01*
X158004066Y-79000000D01*
X157995968Y-78999469D01*
X157972457Y-78996374D01*
X157886775Y-78985093D01*
X157855508Y-78976715D01*
X157765081Y-78939259D01*
X157737048Y-78923074D01*
X157659398Y-78863491D01*
X157636508Y-78840601D01*
X157576925Y-78762951D01*
X157560740Y-78734918D01*
X157523284Y-78644491D01*
X157514906Y-78613223D01*
X157500531Y-78504035D01*
X157500000Y-78495933D01*
X157500000Y-77500006D01*
X157500000Y-77500000D01*
X157500000Y-77499999D01*
X157500000Y-77000000D01*
X157000000Y-77000000D01*
X156999993Y-77000000D01*
X120504066Y-77000000D01*
X120495968Y-76999469D01*
X120472457Y-76996374D01*
X120386775Y-76985093D01*
X120355508Y-76976715D01*
X120265081Y-76939259D01*
X120237048Y-76923074D01*
X120159398Y-76863491D01*
X120136508Y-76840601D01*
X120076925Y-76762951D01*
X120060740Y-76734918D01*
X120023284Y-76644491D01*
X120014906Y-76613223D01*
X120000531Y-76504035D01*
X120000000Y-76495933D01*
X120000000Y-72504066D01*
X120000531Y-72495964D01*
X120014906Y-72386776D01*
X120023284Y-72355508D01*
X120060740Y-72265081D01*
X120076923Y-72237050D01*
X120136513Y-72159392D01*
X120159392Y-72136513D01*
X120237050Y-72076923D01*
X120265079Y-72060740D01*
X120355509Y-72023283D01*
X120386775Y-72014906D01*
X120495967Y-72000530D01*
X120504067Y-72000000D01*
X174995933Y-72000000D01*
X175004031Y-72000530D01*
G37*
G04 #@! TD.AperFunction*
G04 #@! TA.AperFunction,Conductor*
G36*
X201634640Y-65001526D02*
G01*
X201721482Y-65015281D01*
X201758376Y-65027268D01*
X201827922Y-65062703D01*
X201859307Y-65085507D01*
X201914492Y-65140692D01*
X201937296Y-65172078D01*
X201972730Y-65241621D01*
X201984718Y-65278517D01*
X201998473Y-65365358D01*
X202000000Y-65384757D01*
X202000000Y-67000000D01*
X199839187Y-67000000D01*
X199839141Y-66999954D01*
X199652734Y-66869432D01*
X199652732Y-66869431D01*
X199446497Y-66773261D01*
X199446488Y-66773258D01*
X199226697Y-66714366D01*
X199226693Y-66714365D01*
X199226692Y-66714365D01*
X199226691Y-66714364D01*
X199226686Y-66714364D01*
X199000002Y-66694532D01*
X198999998Y-66694532D01*
X198773313Y-66714364D01*
X198773302Y-66714366D01*
X198553511Y-66773258D01*
X198553502Y-66773261D01*
X198347267Y-66869431D01*
X198347265Y-66869432D01*
X198192820Y-66977575D01*
X198126613Y-66999902D01*
X198121697Y-67000000D01*
X197878303Y-67000000D01*
X197811264Y-66980315D01*
X197807180Y-66977575D01*
X197652734Y-66869432D01*
X197652732Y-66869431D01*
X197446497Y-66773261D01*
X197446488Y-66773258D01*
X197226697Y-66714366D01*
X197226693Y-66714365D01*
X197226692Y-66714365D01*
X197226691Y-66714364D01*
X197226686Y-66714364D01*
X197000002Y-66694532D01*
X196999998Y-66694532D01*
X196773313Y-66714364D01*
X196773302Y-66714366D01*
X196553511Y-66773258D01*
X196553502Y-66773261D01*
X196347267Y-66869431D01*
X196347265Y-66869432D01*
X196192820Y-66977575D01*
X196126613Y-66999902D01*
X196121697Y-67000000D01*
X195878303Y-67000000D01*
X195811264Y-66980315D01*
X195807180Y-66977575D01*
X195652734Y-66869432D01*
X195652732Y-66869431D01*
X195446497Y-66773261D01*
X195446488Y-66773258D01*
X195226697Y-66714366D01*
X195226693Y-66714365D01*
X195226692Y-66714365D01*
X195226691Y-66714364D01*
X195226686Y-66714364D01*
X195000002Y-66694532D01*
X194999998Y-66694532D01*
X194773313Y-66714364D01*
X194773302Y-66714366D01*
X194553511Y-66773258D01*
X194553502Y-66773261D01*
X194347267Y-66869431D01*
X194347265Y-66869432D01*
X194192820Y-66977575D01*
X194126613Y-66999902D01*
X194121697Y-67000000D01*
X193878303Y-67000000D01*
X193811264Y-66980315D01*
X193807180Y-66977575D01*
X193652734Y-66869432D01*
X193652732Y-66869431D01*
X193446497Y-66773261D01*
X193446488Y-66773258D01*
X193226697Y-66714366D01*
X193226693Y-66714365D01*
X193226692Y-66714365D01*
X193226691Y-66714364D01*
X193226686Y-66714364D01*
X193000002Y-66694532D01*
X192999998Y-66694532D01*
X192773313Y-66714364D01*
X192773302Y-66714366D01*
X192553511Y-66773258D01*
X192553502Y-66773261D01*
X192347267Y-66869431D01*
X192347265Y-66869432D01*
X192192820Y-66977575D01*
X192126613Y-66999902D01*
X192121697Y-67000000D01*
X191878303Y-67000000D01*
X191811264Y-66980315D01*
X191807180Y-66977575D01*
X191652734Y-66869432D01*
X191652732Y-66869431D01*
X191446497Y-66773261D01*
X191446488Y-66773258D01*
X191226697Y-66714366D01*
X191226693Y-66714365D01*
X191226692Y-66714365D01*
X191226691Y-66714364D01*
X191226686Y-66714364D01*
X191000002Y-66694532D01*
X190999998Y-66694532D01*
X190773313Y-66714364D01*
X190773302Y-66714366D01*
X190553511Y-66773258D01*
X190553502Y-66773261D01*
X190347267Y-66869431D01*
X190347265Y-66869432D01*
X190192820Y-66977575D01*
X190126613Y-66999902D01*
X190121697Y-67000000D01*
X189878303Y-67000000D01*
X189811264Y-66980315D01*
X189807180Y-66977575D01*
X189652734Y-66869432D01*
X189652732Y-66869431D01*
X189446497Y-66773261D01*
X189446488Y-66773258D01*
X189226697Y-66714366D01*
X189226693Y-66714365D01*
X189226692Y-66714365D01*
X189226691Y-66714364D01*
X189226686Y-66714364D01*
X189000002Y-66694532D01*
X188999998Y-66694532D01*
X188773313Y-66714364D01*
X188773302Y-66714366D01*
X188553511Y-66773258D01*
X188553502Y-66773261D01*
X188347267Y-66869431D01*
X188347265Y-66869432D01*
X188192820Y-66977575D01*
X188126613Y-66999902D01*
X188121697Y-67000000D01*
X187878303Y-67000000D01*
X187811264Y-66980315D01*
X187807180Y-66977575D01*
X187652734Y-66869432D01*
X187652732Y-66869431D01*
X187446497Y-66773261D01*
X187446488Y-66773258D01*
X187226697Y-66714366D01*
X187226693Y-66714365D01*
X187226692Y-66714365D01*
X187226691Y-66714364D01*
X187226686Y-66714364D01*
X187000002Y-66694532D01*
X186999998Y-66694532D01*
X186773313Y-66714364D01*
X186773302Y-66714366D01*
X186553511Y-66773258D01*
X186553502Y-66773261D01*
X186347267Y-66869431D01*
X186347265Y-66869432D01*
X186164213Y-66997606D01*
X186159079Y-67000000D01*
X183839187Y-67000000D01*
X183839141Y-66999954D01*
X183652734Y-66869432D01*
X183652732Y-66869431D01*
X183446497Y-66773261D01*
X183446488Y-66773258D01*
X183226697Y-66714366D01*
X183226693Y-66714365D01*
X183226692Y-66714365D01*
X183226691Y-66714364D01*
X183226686Y-66714364D01*
X183000002Y-66694532D01*
X182999998Y-66694532D01*
X182773313Y-66714364D01*
X182773302Y-66714366D01*
X182553511Y-66773258D01*
X182553502Y-66773261D01*
X182347267Y-66869431D01*
X182347265Y-66869432D01*
X182192820Y-66977575D01*
X182126613Y-66999902D01*
X182121697Y-67000000D01*
X181878303Y-67000000D01*
X181811264Y-66980315D01*
X181807180Y-66977575D01*
X181652734Y-66869432D01*
X181652732Y-66869431D01*
X181446497Y-66773261D01*
X181446488Y-66773258D01*
X181226697Y-66714366D01*
X181226693Y-66714365D01*
X181226692Y-66714365D01*
X181226691Y-66714364D01*
X181226686Y-66714364D01*
X181000002Y-66694532D01*
X180999998Y-66694532D01*
X180773313Y-66714364D01*
X180773302Y-66714366D01*
X180553511Y-66773258D01*
X180553502Y-66773261D01*
X180347267Y-66869431D01*
X180347265Y-66869432D01*
X180192820Y-66977575D01*
X180126613Y-66999902D01*
X180121697Y-67000000D01*
X179878303Y-67000000D01*
X179811264Y-66980315D01*
X179807180Y-66977575D01*
X179652734Y-66869432D01*
X179652732Y-66869431D01*
X179446497Y-66773261D01*
X179446488Y-66773258D01*
X179226697Y-66714366D01*
X179226693Y-66714365D01*
X179226692Y-66714365D01*
X179226691Y-66714364D01*
X179226686Y-66714364D01*
X179000002Y-66694532D01*
X178999998Y-66694532D01*
X178773313Y-66714364D01*
X178773302Y-66714366D01*
X178553511Y-66773258D01*
X178553502Y-66773261D01*
X178347267Y-66869431D01*
X178347265Y-66869432D01*
X178192820Y-66977575D01*
X178126613Y-66999902D01*
X178121697Y-67000000D01*
X177878303Y-67000000D01*
X177811264Y-66980315D01*
X177807180Y-66977575D01*
X177652734Y-66869432D01*
X177652732Y-66869431D01*
X177446497Y-66773261D01*
X177446488Y-66773258D01*
X177226697Y-66714366D01*
X177226693Y-66714365D01*
X177226692Y-66714365D01*
X177226691Y-66714364D01*
X177226686Y-66714364D01*
X177000002Y-66694532D01*
X176999998Y-66694532D01*
X176773313Y-66714364D01*
X176773302Y-66714366D01*
X176553511Y-66773258D01*
X176553502Y-66773261D01*
X176347267Y-66869431D01*
X176347265Y-66869432D01*
X176192820Y-66977575D01*
X176126613Y-66999902D01*
X176121697Y-67000000D01*
X175878303Y-67000000D01*
X175811264Y-66980315D01*
X175807180Y-66977575D01*
X175652734Y-66869432D01*
X175652732Y-66869431D01*
X175446497Y-66773261D01*
X175446488Y-66773258D01*
X175226697Y-66714366D01*
X175226693Y-66714365D01*
X175226692Y-66714365D01*
X175226691Y-66714364D01*
X175226686Y-66714364D01*
X175000002Y-66694532D01*
X174999998Y-66694532D01*
X174773313Y-66714364D01*
X174773302Y-66714366D01*
X174553511Y-66773258D01*
X174553502Y-66773261D01*
X174347267Y-66869431D01*
X174347265Y-66869432D01*
X174192820Y-66977575D01*
X174126613Y-66999902D01*
X174121697Y-67000000D01*
X173878303Y-67000000D01*
X173811264Y-66980315D01*
X173807180Y-66977575D01*
X173652734Y-66869432D01*
X173652732Y-66869431D01*
X173446497Y-66773261D01*
X173446488Y-66773258D01*
X173226697Y-66714366D01*
X173226693Y-66714365D01*
X173226692Y-66714365D01*
X173226691Y-66714364D01*
X173226686Y-66714364D01*
X173000002Y-66694532D01*
X172999998Y-66694532D01*
X172773313Y-66714364D01*
X172773302Y-66714366D01*
X172553511Y-66773258D01*
X172553502Y-66773261D01*
X172347267Y-66869431D01*
X172347265Y-66869432D01*
X172192820Y-66977575D01*
X172126613Y-66999902D01*
X172121697Y-67000000D01*
X171878303Y-67000000D01*
X171811264Y-66980315D01*
X171807180Y-66977575D01*
X171652734Y-66869432D01*
X171652732Y-66869431D01*
X171446497Y-66773261D01*
X171446488Y-66773258D01*
X171226697Y-66714366D01*
X171226693Y-66714365D01*
X171226692Y-66714365D01*
X171226691Y-66714364D01*
X171226686Y-66714364D01*
X171000002Y-66694532D01*
X170999998Y-66694532D01*
X170773313Y-66714364D01*
X170773302Y-66714366D01*
X170553511Y-66773258D01*
X170553502Y-66773261D01*
X170347267Y-66869431D01*
X170347265Y-66869432D01*
X170192820Y-66977575D01*
X170126613Y-66999902D01*
X170121697Y-67000000D01*
X169878303Y-67000000D01*
X169811264Y-66980315D01*
X169807180Y-66977575D01*
X169652734Y-66869432D01*
X169652732Y-66869431D01*
X169446497Y-66773261D01*
X169446488Y-66773258D01*
X169226697Y-66714366D01*
X169226693Y-66714365D01*
X169226692Y-66714365D01*
X169226691Y-66714364D01*
X169226686Y-66714364D01*
X169000002Y-66694532D01*
X168999998Y-66694532D01*
X168773313Y-66714364D01*
X168773302Y-66714366D01*
X168553511Y-66773258D01*
X168553502Y-66773261D01*
X168347267Y-66869431D01*
X168347265Y-66869432D01*
X168160858Y-66999954D01*
X168160812Y-67000000D01*
X168000000Y-67000000D01*
X168000000Y-67160812D01*
X167999954Y-67160858D01*
X167869432Y-67347265D01*
X167869431Y-67347267D01*
X167773261Y-67553502D01*
X167773258Y-67553511D01*
X167714366Y-67773302D01*
X167714364Y-67773313D01*
X167694532Y-67999998D01*
X167694532Y-68000001D01*
X167714364Y-68226686D01*
X167714366Y-68226697D01*
X167773258Y-68446488D01*
X167773261Y-68446497D01*
X167869431Y-68652732D01*
X167869432Y-68652734D01*
X167977575Y-68807179D01*
X167999902Y-68873385D01*
X168000000Y-68878302D01*
X168000000Y-69745934D01*
X167999469Y-69754035D01*
X167985093Y-69863224D01*
X167976715Y-69894491D01*
X167939259Y-69984918D01*
X167923074Y-70012951D01*
X167863491Y-70090601D01*
X167840601Y-70113491D01*
X167762951Y-70173074D01*
X167734918Y-70189259D01*
X167644491Y-70226715D01*
X167613224Y-70235093D01*
X167524783Y-70246737D01*
X167504031Y-70249469D01*
X167495934Y-70250000D01*
X118500000Y-70250000D01*
X118500000Y-70750000D01*
X118500000Y-70750006D01*
X118500000Y-71745934D01*
X118499469Y-71754035D01*
X118485093Y-71863224D01*
X118476715Y-71894491D01*
X118439259Y-71984918D01*
X118423074Y-72012951D01*
X118363491Y-72090601D01*
X118340601Y-72113491D01*
X118262951Y-72173074D01*
X118234918Y-72189259D01*
X118144491Y-72226715D01*
X118113224Y-72235093D01*
X118024783Y-72246737D01*
X118004031Y-72249469D01*
X117995934Y-72250000D01*
X110004066Y-72250000D01*
X109995968Y-72249469D01*
X109972457Y-72246374D01*
X109886775Y-72235093D01*
X109855508Y-72226715D01*
X109765081Y-72189259D01*
X109737048Y-72173074D01*
X109659398Y-72113491D01*
X109636508Y-72090601D01*
X109576925Y-72012951D01*
X109560740Y-71984918D01*
X109523284Y-71894491D01*
X109514906Y-71863223D01*
X109500531Y-71754035D01*
X109500000Y-71745933D01*
X109500000Y-70000006D01*
X109500000Y-70000000D01*
X109499999Y-69999999D01*
X109500000Y-69500000D01*
X109000000Y-69500000D01*
X108999993Y-69500000D01*
X108754066Y-69500000D01*
X108745968Y-69499469D01*
X108722457Y-69496374D01*
X108636775Y-69485093D01*
X108605508Y-69476715D01*
X108515081Y-69439259D01*
X108487048Y-69423074D01*
X108409398Y-69363491D01*
X108386508Y-69340601D01*
X108359549Y-69305468D01*
X108326925Y-69262951D01*
X108310740Y-69234918D01*
X108273284Y-69144491D01*
X108264906Y-69113223D01*
X108250531Y-69004035D01*
X108250000Y-68995933D01*
X108250000Y-68376008D01*
X108254224Y-68343918D01*
X108285635Y-68226692D01*
X108305468Y-68000001D01*
X109694532Y-68000001D01*
X109714364Y-68226686D01*
X109714366Y-68226697D01*
X109773258Y-68446488D01*
X109773261Y-68446497D01*
X109869431Y-68652732D01*
X109869432Y-68652734D01*
X109999954Y-68839141D01*
X110160858Y-69000045D01*
X110207693Y-69032839D01*
X110347266Y-69130568D01*
X110553504Y-69226739D01*
X110553509Y-69226740D01*
X110553511Y-69226741D01*
X110606415Y-69240916D01*
X110773308Y-69285635D01*
X110916161Y-69298133D01*
X110999998Y-69305468D01*
X111000000Y-69305468D01*
X111000002Y-69305468D01*
X111056672Y-69300509D01*
X111226692Y-69285635D01*
X111446496Y-69226739D01*
X111652734Y-69130568D01*
X111839139Y-69000047D01*
X112000047Y-68839139D01*
X112130568Y-68652734D01*
X112226739Y-68446496D01*
X112285635Y-68226692D01*
X112305468Y-68000000D01*
X112285635Y-67773308D01*
X112226739Y-67553504D01*
X112130568Y-67347266D01*
X112000047Y-67160861D01*
X112000045Y-67160858D01*
X111839141Y-66999954D01*
X111652734Y-66869432D01*
X111652732Y-66869431D01*
X111446497Y-66773261D01*
X111446488Y-66773258D01*
X111226697Y-66714366D01*
X111226693Y-66714365D01*
X111226692Y-66714365D01*
X111226691Y-66714364D01*
X111226686Y-66714364D01*
X111000002Y-66694532D01*
X110999998Y-66694532D01*
X110773313Y-66714364D01*
X110773302Y-66714366D01*
X110553511Y-66773258D01*
X110553502Y-66773261D01*
X110347267Y-66869431D01*
X110347265Y-66869432D01*
X110160858Y-66999954D01*
X109999954Y-67160858D01*
X109869432Y-67347265D01*
X109869431Y-67347267D01*
X109773261Y-67553502D01*
X109773258Y-67553511D01*
X109714366Y-67773302D01*
X109714364Y-67773313D01*
X109694532Y-67999998D01*
X109694532Y-68000001D01*
X108305468Y-68000001D01*
X108305468Y-68000000D01*
X108285635Y-67773308D01*
X108254225Y-67656083D01*
X108250000Y-67623990D01*
X108250000Y-65504066D01*
X108250531Y-65495964D01*
X108264906Y-65386776D01*
X108273284Y-65355508D01*
X108310740Y-65265081D01*
X108326923Y-65237050D01*
X108386513Y-65159392D01*
X108409392Y-65136513D01*
X108487050Y-65076923D01*
X108515079Y-65060740D01*
X108605509Y-65023283D01*
X108636775Y-65014906D01*
X108745967Y-65000530D01*
X108754067Y-65000000D01*
X201615243Y-65000000D01*
X201634640Y-65001526D01*
G37*
G04 #@! TD.AperFunction*
G04 #@! TA.AperFunction,Conductor*
G36*
X166996288Y-84818954D02*
G01*
X167077070Y-84872930D01*
X167131046Y-84953712D01*
X167150000Y-85049000D01*
X167150000Y-86301000D01*
X167131046Y-86396288D01*
X167077070Y-86477070D01*
X166996288Y-86531046D01*
X166901000Y-86550000D01*
X164650000Y-86550000D01*
X164650000Y-86550001D01*
X164650000Y-86751000D01*
X164631046Y-86846288D01*
X164577070Y-86927070D01*
X164496288Y-86981046D01*
X164401000Y-87000000D01*
X164396107Y-87000000D01*
X164347531Y-86995216D01*
X164310595Y-86987869D01*
X164251003Y-86982000D01*
X164251000Y-86982000D01*
X164149806Y-86982000D01*
X164054518Y-86963046D01*
X164042256Y-86956401D01*
X164022766Y-86947795D01*
X164022765Y-86947794D01*
X163919991Y-86902415D01*
X163919990Y-86902414D01*
X163919989Y-86902414D01*
X163894866Y-86899500D01*
X163105144Y-86899500D01*
X163105130Y-86899501D01*
X163080006Y-86902415D01*
X162977237Y-86947792D01*
X162964634Y-86956426D01*
X162875309Y-86994639D01*
X162853038Y-86996962D01*
X162850001Y-87000000D01*
X162850000Y-87000000D01*
X162850000Y-87000001D01*
X162850000Y-87142889D01*
X162849792Y-87150075D01*
X162849500Y-87155129D01*
X162849500Y-87155134D01*
X162849500Y-87155135D01*
X162849500Y-87659075D01*
X162849501Y-87951000D01*
X162830547Y-88046288D01*
X162776571Y-88127069D01*
X162695789Y-88181046D01*
X162600501Y-88200000D01*
X162499499Y-88200000D01*
X162404211Y-88181046D01*
X162323429Y-88127070D01*
X162269453Y-88046288D01*
X162250499Y-87951000D01*
X162250499Y-87950999D01*
X162250500Y-87729373D01*
X162250500Y-87652433D01*
X162250499Y-87652411D01*
X162250499Y-87155134D01*
X162250207Y-87150078D01*
X162250000Y-87142898D01*
X162250000Y-86549499D01*
X162268954Y-86454211D01*
X162322930Y-86373429D01*
X162403712Y-86319453D01*
X162498997Y-86300499D01*
X162944864Y-86300499D01*
X162969991Y-86297585D01*
X162969991Y-86297584D01*
X162988599Y-86295427D01*
X162988940Y-86298370D01*
X163056521Y-86293672D01*
X163070856Y-86296523D01*
X163080008Y-86297584D01*
X163080009Y-86297585D01*
X163105135Y-86300500D01*
X163894864Y-86300499D01*
X163919991Y-86297585D01*
X164022765Y-86252206D01*
X164102206Y-86172765D01*
X164147585Y-86069991D01*
X164150500Y-86044865D01*
X164150499Y-85048999D01*
X164169453Y-84953712D01*
X164223429Y-84872931D01*
X164304211Y-84818954D01*
X164399499Y-84800000D01*
X166901000Y-84800000D01*
X166996288Y-84818954D01*
G37*
G04 #@! TD.AperFunction*
G04 #@! TA.AperFunction,Conductor*
G36*
X220506089Y-65000600D02*
G01*
X220575700Y-65007455D01*
X220670689Y-65016811D01*
X220718555Y-65026333D01*
X220859217Y-65069002D01*
X220904307Y-65087678D01*
X221031718Y-65155780D01*
X221033939Y-65156968D01*
X221074524Y-65184086D01*
X221188148Y-65277334D01*
X221222665Y-65311851D01*
X221315913Y-65425475D01*
X221343031Y-65466060D01*
X221412319Y-65595688D01*
X221430999Y-65640786D01*
X221473665Y-65781439D01*
X221483188Y-65829312D01*
X221499400Y-65993909D01*
X221500000Y-66006120D01*
X221500000Y-70750000D01*
X225243879Y-70750000D01*
X225256089Y-70750600D01*
X225325700Y-70757455D01*
X225420689Y-70766811D01*
X225468555Y-70776333D01*
X225609217Y-70819002D01*
X225654307Y-70837678D01*
X225694596Y-70859213D01*
X225783939Y-70906968D01*
X225824524Y-70934086D01*
X225938148Y-71027334D01*
X225972665Y-71061851D01*
X226065913Y-71175475D01*
X226093031Y-71216060D01*
X226162319Y-71345688D01*
X226180999Y-71390786D01*
X226223665Y-71531439D01*
X226233188Y-71579312D01*
X226249400Y-71743909D01*
X226250000Y-71756120D01*
X226250000Y-109243879D01*
X226249400Y-109256090D01*
X226233188Y-109420687D01*
X226223665Y-109468560D01*
X226180999Y-109609213D01*
X226162319Y-109654311D01*
X226093031Y-109783939D01*
X226065913Y-109824524D01*
X225972665Y-109938148D01*
X225938148Y-109972665D01*
X225824524Y-110065913D01*
X225783939Y-110093031D01*
X225654311Y-110162319D01*
X225609213Y-110180999D01*
X225468560Y-110223665D01*
X225420687Y-110233188D01*
X225256090Y-110249400D01*
X225243879Y-110250000D01*
X221500000Y-110250000D01*
X221500000Y-111249999D01*
X221500000Y-114993879D01*
X221499400Y-115006090D01*
X221483188Y-115170687D01*
X221473665Y-115218560D01*
X221430999Y-115359213D01*
X221412319Y-115404311D01*
X221343031Y-115533939D01*
X221315913Y-115574524D01*
X221222665Y-115688148D01*
X221188148Y-115722665D01*
X221074524Y-115815913D01*
X221033939Y-115843031D01*
X220904311Y-115912319D01*
X220859213Y-115930999D01*
X220718560Y-115973665D01*
X220670687Y-115983188D01*
X220506090Y-115999400D01*
X220493879Y-116000000D01*
X157497501Y-116000000D01*
X157485366Y-115999407D01*
X157412156Y-115992236D01*
X157321657Y-115983372D01*
X157274035Y-115973953D01*
X157134074Y-115931743D01*
X157089184Y-115913262D01*
X156960076Y-115844699D01*
X156919626Y-115817859D01*
X156806275Y-115725548D01*
X156771800Y-115691370D01*
X156769130Y-115688148D01*
X156678513Y-115578817D01*
X156651328Y-115538602D01*
X156581652Y-115410085D01*
X156562787Y-115365362D01*
X156519372Y-115225765D01*
X156509545Y-115178240D01*
X156501833Y-115105934D01*
X156492100Y-115014669D01*
X156491402Y-115002532D01*
X156455753Y-110867311D01*
X156408747Y-105414748D01*
X156409247Y-105402508D01*
X156424210Y-105236870D01*
X156433421Y-105188667D01*
X156475330Y-105046945D01*
X156493819Y-105001480D01*
X156512483Y-104966060D01*
X156562713Y-104870730D01*
X156589759Y-104829779D01*
X156682960Y-104715083D01*
X156717505Y-104680238D01*
X156831410Y-104586037D01*
X156872113Y-104558651D01*
X157002271Y-104488627D01*
X157047565Y-104469752D01*
X157188933Y-104426619D01*
X157237039Y-104416996D01*
X157402541Y-104400605D01*
X157414814Y-104400000D01*
X161899998Y-104400000D01*
X161900000Y-104400000D01*
X162100000Y-104400000D01*
X162100000Y-104200221D01*
X162137097Y-104110662D01*
X162205796Y-104041964D01*
X162295555Y-104004784D01*
X162344132Y-104000000D01*
X162793007Y-104000000D01*
X162806942Y-104000782D01*
X162927892Y-104014409D01*
X162982239Y-104026814D01*
X163077243Y-104060057D01*
X163127472Y-104084247D01*
X163212686Y-104137790D01*
X163256278Y-104172553D01*
X163327446Y-104243721D01*
X163362211Y-104287316D01*
X163415751Y-104372525D01*
X163439943Y-104422759D01*
X163473184Y-104517755D01*
X163485591Y-104572116D01*
X163499217Y-104693057D01*
X163499999Y-104706991D01*
X163500000Y-107000000D01*
X167999997Y-107000000D01*
X168000000Y-107000000D01*
X169000000Y-107000000D01*
X169000000Y-105506120D01*
X169000600Y-105493910D01*
X169016811Y-105329313D01*
X169016812Y-105329312D01*
X169016811Y-105329308D01*
X169026332Y-105281446D01*
X169069003Y-105140778D01*
X169087676Y-105095695D01*
X169156970Y-104966056D01*
X169184086Y-104925475D01*
X169229011Y-104870733D01*
X169277337Y-104811847D01*
X169311847Y-104777337D01*
X169425474Y-104684086D01*
X169466056Y-104656970D01*
X169595695Y-104587676D01*
X169640778Y-104569003D01*
X169781446Y-104526332D01*
X169829308Y-104516811D01*
X169933424Y-104506557D01*
X169993911Y-104500600D01*
X170006122Y-104500000D01*
X210993879Y-104500000D01*
X211006089Y-104500600D01*
X211075700Y-104507455D01*
X211170689Y-104516811D01*
X211218555Y-104526333D01*
X211359217Y-104569002D01*
X211404307Y-104587678D01*
X211531718Y-104655780D01*
X211533939Y-104656968D01*
X211574524Y-104684086D01*
X211688148Y-104777334D01*
X211722665Y-104811851D01*
X211815913Y-104925475D01*
X211843031Y-104966060D01*
X211912319Y-105095688D01*
X211930999Y-105140786D01*
X211973665Y-105281439D01*
X211983188Y-105329312D01*
X211999400Y-105493909D01*
X212000000Y-105506120D01*
X212000000Y-107000000D01*
X216999997Y-107000000D01*
X217000000Y-107000000D01*
X218000000Y-107000000D01*
X218000000Y-81000000D01*
X217000000Y-81000000D01*
X212506121Y-81000000D01*
X212493910Y-80999400D01*
X212329312Y-80983188D01*
X212281439Y-80973665D01*
X212140786Y-80930999D01*
X212095688Y-80912319D01*
X211966060Y-80843031D01*
X211925475Y-80815913D01*
X211811851Y-80722665D01*
X211777334Y-80688148D01*
X211684086Y-80574524D01*
X211656968Y-80533939D01*
X211587680Y-80404311D01*
X211569002Y-80359217D01*
X211526333Y-80218555D01*
X211516811Y-80170686D01*
X211500600Y-80006089D01*
X211500000Y-79993879D01*
X211500000Y-72500003D01*
X211500000Y-72500000D01*
X211499999Y-72500000D01*
X211500000Y-71500000D01*
X210500000Y-71500000D01*
X209506121Y-71500000D01*
X209493910Y-71499400D01*
X209329312Y-71483188D01*
X209281439Y-71473665D01*
X209140786Y-71430999D01*
X209095688Y-71412319D01*
X208966060Y-71343031D01*
X208925475Y-71315913D01*
X208811851Y-71222665D01*
X208777334Y-71188148D01*
X208684086Y-71074524D01*
X208656968Y-71033939D01*
X208603595Y-70934086D01*
X208587678Y-70904307D01*
X208569002Y-70859217D01*
X208526333Y-70718555D01*
X208516811Y-70670686D01*
X208500600Y-70506089D01*
X208500000Y-70493879D01*
X208500000Y-66006120D01*
X208500600Y-65993910D01*
X208516811Y-65829313D01*
X208516812Y-65829312D01*
X208516811Y-65829308D01*
X208526332Y-65781446D01*
X208569003Y-65640778D01*
X208587676Y-65595695D01*
X208656970Y-65466056D01*
X208684086Y-65425475D01*
X208692447Y-65415286D01*
X208777337Y-65311847D01*
X208811847Y-65277337D01*
X208925474Y-65184086D01*
X208966056Y-65156970D01*
X209095695Y-65087676D01*
X209140778Y-65069003D01*
X209281446Y-65026332D01*
X209329308Y-65016811D01*
X209433424Y-65006557D01*
X209493911Y-65000600D01*
X209506122Y-65000000D01*
X220493879Y-65000000D01*
X220506089Y-65000600D01*
G37*
G04 #@! TD.AperFunction*
G04 #@! TA.AperFunction,Conductor*
G36*
X101004031Y-93250530D02*
G01*
X101095879Y-93262622D01*
X101113223Y-93264906D01*
X101144491Y-93273284D01*
X101234918Y-93310740D01*
X101262952Y-93326925D01*
X101340602Y-93386509D01*
X101363491Y-93409398D01*
X101423074Y-93487048D01*
X101439259Y-93515081D01*
X101476715Y-93605508D01*
X101485093Y-93636775D01*
X101497840Y-93733593D01*
X101500000Y-93750000D01*
X101500000Y-94250000D01*
X103745933Y-94250000D01*
X103754031Y-94250530D01*
X103845879Y-94262622D01*
X103863223Y-94264906D01*
X103894491Y-94273284D01*
X103984918Y-94310740D01*
X104012952Y-94326925D01*
X104090602Y-94386509D01*
X104113491Y-94409398D01*
X104173074Y-94487048D01*
X104189259Y-94515081D01*
X104226715Y-94605508D01*
X104235093Y-94636775D01*
X104249469Y-94745964D01*
X104250000Y-94754065D01*
X104250000Y-96245934D01*
X104249469Y-96254035D01*
X104235093Y-96363224D01*
X104226715Y-96394491D01*
X104189259Y-96484918D01*
X104173074Y-96512951D01*
X104113491Y-96590601D01*
X104090601Y-96613491D01*
X104012951Y-96673074D01*
X103984918Y-96689259D01*
X103894491Y-96726715D01*
X103863224Y-96735093D01*
X103774783Y-96746737D01*
X103754031Y-96749469D01*
X103745934Y-96750000D01*
X99254066Y-96750000D01*
X99245968Y-96749469D01*
X99222457Y-96746374D01*
X99136775Y-96735093D01*
X99105508Y-96726715D01*
X99015081Y-96689259D01*
X98987048Y-96673074D01*
X98909398Y-96613491D01*
X98886508Y-96590601D01*
X98826925Y-96512951D01*
X98810740Y-96484918D01*
X98773284Y-96394491D01*
X98764906Y-96363223D01*
X98750531Y-96254035D01*
X98750000Y-96245933D01*
X98750000Y-93754066D01*
X98750531Y-93745964D01*
X98764906Y-93636776D01*
X98773284Y-93605508D01*
X98810740Y-93515081D01*
X98826923Y-93487050D01*
X98886513Y-93409392D01*
X98909392Y-93386513D01*
X98987050Y-93326923D01*
X99015079Y-93310740D01*
X99105509Y-93273283D01*
X99136775Y-93264906D01*
X99245967Y-93250530D01*
X99254067Y-93250000D01*
X100995933Y-93250000D01*
X101004031Y-93250530D01*
G37*
G04 #@! TD.AperFunction*
G04 #@! TA.AperFunction,Conductor*
G36*
X113504031Y-100000530D02*
G01*
X113595879Y-100012622D01*
X113613223Y-100014906D01*
X113644491Y-100023284D01*
X113734918Y-100060740D01*
X113762952Y-100076925D01*
X113840602Y-100136509D01*
X113863491Y-100159398D01*
X113923074Y-100237048D01*
X113939259Y-100265081D01*
X113976715Y-100355508D01*
X113985093Y-100386775D01*
X113999469Y-100495964D01*
X114000000Y-100504065D01*
X114000000Y-101500000D01*
X121245933Y-101500000D01*
X121254031Y-101500530D01*
X121345879Y-101512622D01*
X121363223Y-101514906D01*
X121394491Y-101523284D01*
X121484918Y-101560740D01*
X121512952Y-101576925D01*
X121590602Y-101636509D01*
X121613491Y-101659398D01*
X121673074Y-101737048D01*
X121689259Y-101765081D01*
X121726715Y-101855508D01*
X121735093Y-101886775D01*
X121749469Y-101995964D01*
X121750000Y-102004064D01*
X121750000Y-102750000D01*
X125995933Y-102750000D01*
X126004031Y-102750530D01*
X126095879Y-102762622D01*
X126113223Y-102764906D01*
X126144491Y-102773284D01*
X126234918Y-102810740D01*
X126262952Y-102826925D01*
X126340602Y-102886509D01*
X126363491Y-102909398D01*
X126423074Y-102987048D01*
X126439259Y-103015081D01*
X126476715Y-103105508D01*
X126485093Y-103136775D01*
X126499469Y-103245964D01*
X126500000Y-103254065D01*
X126500000Y-107995934D01*
X126499469Y-108004035D01*
X126485093Y-108113224D01*
X126476715Y-108144491D01*
X126439259Y-108234918D01*
X126423074Y-108262951D01*
X126363491Y-108340601D01*
X126340601Y-108363491D01*
X126262951Y-108423074D01*
X126234918Y-108439259D01*
X126144491Y-108476715D01*
X126113224Y-108485093D01*
X126024783Y-108496737D01*
X126004031Y-108499469D01*
X125995934Y-108500000D01*
X110711173Y-108500000D01*
X110703075Y-108499469D01*
X110679564Y-108496374D01*
X110593882Y-108485093D01*
X110562616Y-108476715D01*
X110472191Y-108439260D01*
X110444157Y-108423075D01*
X110356775Y-108356025D01*
X110350679Y-108350679D01*
X107649319Y-105649319D01*
X107643974Y-105643224D01*
X107576924Y-105555842D01*
X107560739Y-105527808D01*
X107523284Y-105437383D01*
X107514906Y-105406116D01*
X107500531Y-105296928D01*
X107500000Y-105288826D01*
X107500000Y-100504066D01*
X107500531Y-100495964D01*
X107514906Y-100386776D01*
X107523284Y-100355508D01*
X107560740Y-100265081D01*
X107576923Y-100237050D01*
X107636513Y-100159392D01*
X107659392Y-100136513D01*
X107737050Y-100076923D01*
X107765079Y-100060740D01*
X107855509Y-100023283D01*
X107886775Y-100014906D01*
X107995967Y-100000530D01*
X108004067Y-100000000D01*
X113495933Y-100000000D01*
X113504031Y-100000530D01*
G37*
G04 #@! TD.AperFunction*
G04 #@! TA.AperFunction,Conductor*
G36*
X185750000Y-67500006D02*
G01*
X185750000Y-67623990D01*
X185745775Y-67656083D01*
X185714366Y-67773302D01*
X185714364Y-67773313D01*
X185699460Y-67943670D01*
X185694532Y-68000000D01*
X185714365Y-68226692D01*
X185745775Y-68343918D01*
X185750000Y-68376008D01*
X185750000Y-79000000D01*
X185899958Y-79147017D01*
X185899960Y-79147020D01*
X185899963Y-79147023D01*
X185899964Y-79147024D01*
X186770009Y-80000009D01*
X187658001Y-80870590D01*
X187721673Y-80933013D01*
X198500000Y-91500000D01*
X215995933Y-91500000D01*
X216004031Y-91500530D01*
X216095879Y-91512622D01*
X216113223Y-91514906D01*
X216144491Y-91523284D01*
X216234918Y-91560740D01*
X216262952Y-91576925D01*
X216340602Y-91636509D01*
X216363491Y-91659398D01*
X216423074Y-91737048D01*
X216439259Y-91765081D01*
X216476715Y-91855508D01*
X216485093Y-91886775D01*
X216499469Y-91995964D01*
X216500000Y-92004065D01*
X216500000Y-95495934D01*
X216499469Y-95504035D01*
X216485093Y-95613224D01*
X216476715Y-95644491D01*
X216439259Y-95734918D01*
X216423074Y-95762951D01*
X216363491Y-95840601D01*
X216340601Y-95863491D01*
X216262951Y-95923074D01*
X216234918Y-95939259D01*
X216144491Y-95976715D01*
X216113224Y-95985093D01*
X216024783Y-95996737D01*
X216004031Y-95999469D01*
X215995934Y-96000000D01*
X212000000Y-96000000D01*
X212000000Y-99750000D01*
X215995933Y-99750000D01*
X216004031Y-99750530D01*
X216095879Y-99762622D01*
X216113223Y-99764906D01*
X216144491Y-99773284D01*
X216234918Y-99810740D01*
X216262952Y-99826925D01*
X216340602Y-99886509D01*
X216363491Y-99909398D01*
X216423074Y-99987048D01*
X216439259Y-100015081D01*
X216476715Y-100105508D01*
X216485093Y-100136775D01*
X216499469Y-100245964D01*
X216500000Y-100254065D01*
X216500000Y-100995934D01*
X216499469Y-101004035D01*
X216485093Y-101113224D01*
X216476715Y-101144491D01*
X216439259Y-101234918D01*
X216423074Y-101262951D01*
X216363491Y-101340601D01*
X216340601Y-101363491D01*
X216262951Y-101423074D01*
X216234918Y-101439259D01*
X216144491Y-101476715D01*
X216113224Y-101485093D01*
X216024783Y-101496737D01*
X216004031Y-101499469D01*
X215995934Y-101500000D01*
X174711173Y-101500000D01*
X174703075Y-101499469D01*
X174679564Y-101496374D01*
X174593882Y-101485093D01*
X174562616Y-101476715D01*
X174472191Y-101439260D01*
X174444157Y-101423075D01*
X174356775Y-101356025D01*
X174350679Y-101350679D01*
X173412646Y-100412646D01*
X173408568Y-100408146D01*
X173310883Y-100289116D01*
X173191852Y-100191430D01*
X173187351Y-100187351D01*
X170412646Y-97412646D01*
X170408568Y-97408146D01*
X170310883Y-97289116D01*
X170191852Y-97191430D01*
X170187351Y-97187351D01*
X169066984Y-96066984D01*
X168646452Y-95646451D01*
X168646445Y-95646445D01*
X168500000Y-95500000D01*
X168292893Y-95500000D01*
X168292886Y-95500000D01*
X165504066Y-95500000D01*
X165495968Y-95499469D01*
X165472457Y-95496374D01*
X165386775Y-95485093D01*
X165355508Y-95476715D01*
X165265081Y-95439259D01*
X165237048Y-95423074D01*
X165159398Y-95363491D01*
X165136508Y-95340601D01*
X165076925Y-95262951D01*
X165060740Y-95234918D01*
X165023284Y-95144491D01*
X165014906Y-95113223D01*
X165006031Y-95045812D01*
X165005500Y-95037710D01*
X165005500Y-93389083D01*
X165005821Y-93382778D01*
X165012999Y-93312516D01*
X165013000Y-93312509D01*
X165012999Y-92262492D01*
X165005820Y-92192221D01*
X165005500Y-92185920D01*
X165005500Y-90889083D01*
X165005821Y-90882778D01*
X165012999Y-90812516D01*
X165013000Y-90812509D01*
X165012999Y-89762492D01*
X165005820Y-89692221D01*
X165005500Y-89685920D01*
X165005500Y-87536504D01*
X165005500Y-87536500D01*
X165002487Y-87505909D01*
X165002950Y-87477585D01*
X165014906Y-87386773D01*
X165023284Y-87355508D01*
X165060740Y-87265081D01*
X165076923Y-87237050D01*
X165136513Y-87159392D01*
X165159392Y-87136513D01*
X165231577Y-87081123D01*
X165296745Y-87055930D01*
X165307062Y-87055500D01*
X166900998Y-87055500D01*
X166901000Y-87055500D01*
X166999618Y-87045787D01*
X167094906Y-87026833D01*
X167094913Y-87026831D01*
X167094919Y-87026830D01*
X167147327Y-87013453D01*
X167147326Y-87013453D01*
X167147335Y-87013451D01*
X167150068Y-87012143D01*
X167152389Y-87011616D01*
X167153055Y-87011375D01*
X167153085Y-87011458D01*
X167203585Y-87000000D01*
X167499993Y-87000000D01*
X167500000Y-87000000D01*
X168000000Y-87000000D01*
X168000000Y-81004065D01*
X168000531Y-80995964D01*
X168001963Y-80985093D01*
X168014906Y-80886775D01*
X168023284Y-80855508D01*
X168060740Y-80765081D01*
X168076923Y-80737050D01*
X168136513Y-80659392D01*
X168159392Y-80636513D01*
X168237050Y-80576923D01*
X168265079Y-80560740D01*
X168355509Y-80523283D01*
X168386775Y-80514906D01*
X168495967Y-80500530D01*
X168504067Y-80500000D01*
X176499993Y-80500000D01*
X176500000Y-80500000D01*
X177000000Y-80500000D01*
X177000000Y-70004066D01*
X177000531Y-69995964D01*
X177014906Y-69886776D01*
X177023284Y-69855508D01*
X177060740Y-69765081D01*
X177076923Y-69737050D01*
X177136513Y-69659392D01*
X177159392Y-69636513D01*
X177237050Y-69576923D01*
X177265079Y-69560740D01*
X177355509Y-69523283D01*
X177386775Y-69514906D01*
X177495967Y-69500530D01*
X177504067Y-69500000D01*
X183499993Y-69500000D01*
X183500000Y-69500000D01*
X184000000Y-69500000D01*
X184000000Y-68878302D01*
X184019685Y-68811263D01*
X184022425Y-68807179D01*
X184130568Y-68652734D01*
X184226739Y-68446496D01*
X184285635Y-68226692D01*
X184305468Y-68000000D01*
X184285635Y-67773308D01*
X184226739Y-67553504D01*
X184130568Y-67347266D01*
X184000047Y-67160861D01*
X184000000Y-67160814D01*
X184000000Y-67000000D01*
X185750000Y-67000000D01*
X185750000Y-67500006D01*
G37*
G04 #@! TD.AperFunction*
G04 #@! TA.AperFunction,Conductor*
G36*
X202000000Y-67121697D02*
G01*
X201980315Y-67188736D01*
X201977575Y-67192820D01*
X201869432Y-67347265D01*
X201869431Y-67347267D01*
X201773261Y-67553502D01*
X201773258Y-67553511D01*
X201714366Y-67773302D01*
X201714364Y-67773313D01*
X201694532Y-67999998D01*
X201694532Y-68000001D01*
X201714364Y-68226686D01*
X201714366Y-68226697D01*
X201773258Y-68446488D01*
X201773261Y-68446497D01*
X201869431Y-68652732D01*
X201869432Y-68652734D01*
X201976858Y-68806156D01*
X201977575Y-68807179D01*
X201999902Y-68873385D01*
X202000000Y-68878301D01*
X202000000Y-69500000D01*
X202500000Y-69500000D01*
X206995933Y-69500000D01*
X207004031Y-69500530D01*
X207095879Y-69512622D01*
X207113223Y-69514906D01*
X207144491Y-69523284D01*
X207234918Y-69560740D01*
X207262952Y-69576925D01*
X207340602Y-69636509D01*
X207363491Y-69659398D01*
X207423074Y-69737048D01*
X207439259Y-69765081D01*
X207476715Y-69855508D01*
X207485093Y-69886776D01*
X207499468Y-69995964D01*
X207499999Y-70004066D01*
X207499999Y-80495933D01*
X207499468Y-80504035D01*
X207485093Y-80613223D01*
X207476715Y-80644491D01*
X207439259Y-80734918D01*
X207423074Y-80762951D01*
X207363491Y-80840601D01*
X207340601Y-80863491D01*
X207262951Y-80923074D01*
X207234918Y-80939259D01*
X207144491Y-80976715D01*
X207113224Y-80985093D01*
X207024783Y-80996737D01*
X207004031Y-80999469D01*
X206995934Y-81000000D01*
X198961173Y-81000000D01*
X198953075Y-80999469D01*
X198926450Y-80995964D01*
X198843882Y-80985093D01*
X198812616Y-80976715D01*
X198722191Y-80939260D01*
X198694157Y-80923075D01*
X198606775Y-80856025D01*
X198600679Y-80850679D01*
X195649319Y-77899319D01*
X195643974Y-77893224D01*
X195576924Y-77805842D01*
X195560739Y-77777808D01*
X195523284Y-77687383D01*
X195514906Y-77656116D01*
X195500531Y-77546928D01*
X195500000Y-77538826D01*
X195500000Y-75004066D01*
X195500531Y-74995964D01*
X195514906Y-74886776D01*
X195523284Y-74855508D01*
X195560740Y-74765081D01*
X195576923Y-74737050D01*
X195636513Y-74659392D01*
X195659392Y-74636513D01*
X195737050Y-74576923D01*
X195765079Y-74560740D01*
X195855509Y-74523283D01*
X195886775Y-74514906D01*
X195995967Y-74500530D01*
X196004067Y-74500000D01*
X199499993Y-74500000D01*
X199500000Y-74500000D01*
X200000000Y-74500000D01*
X200000000Y-73360937D01*
X200018461Y-73295846D01*
X200034814Y-73269334D01*
X200089999Y-73102797D01*
X200100500Y-73000009D01*
X200100499Y-71999992D01*
X200098971Y-71985037D01*
X200089999Y-71897203D01*
X200089998Y-71897200D01*
X200078990Y-71863980D01*
X200034814Y-71730666D01*
X200024869Y-71714543D01*
X200018461Y-71704153D01*
X200000000Y-71639057D01*
X200000000Y-68878302D01*
X200019685Y-68811263D01*
X200022425Y-68807179D01*
X200130568Y-68652734D01*
X200226739Y-68446496D01*
X200285635Y-68226692D01*
X200305468Y-68000000D01*
X200285635Y-67773308D01*
X200226739Y-67553504D01*
X200130568Y-67347266D01*
X200000047Y-67160861D01*
X200000045Y-67160858D01*
X200000000Y-67160812D01*
X200000000Y-67000000D01*
X202000000Y-67000000D01*
X202000000Y-67121697D01*
G37*
G04 #@! TD.AperFunction*
G04 #@! TA.AperFunction,Conductor*
G36*
X101254031Y-77000530D02*
G01*
X101345879Y-77012622D01*
X101363223Y-77014906D01*
X101394491Y-77023284D01*
X101484918Y-77060740D01*
X101512952Y-77076925D01*
X101590602Y-77136509D01*
X101613491Y-77159398D01*
X101673074Y-77237048D01*
X101689259Y-77265081D01*
X101726715Y-77355508D01*
X101735093Y-77386775D01*
X101749469Y-77495964D01*
X101750000Y-77504064D01*
X101750000Y-89000000D01*
X103699684Y-89000000D01*
X103735679Y-89005339D01*
X103803868Y-89026024D01*
X103913136Y-89036785D01*
X103948428Y-89045625D01*
X103984922Y-89060741D01*
X104012949Y-89076923D01*
X104090602Y-89136509D01*
X104113491Y-89159398D01*
X104173074Y-89237048D01*
X104189259Y-89265081D01*
X104226715Y-89355508D01*
X104235093Y-89386775D01*
X104249469Y-89495964D01*
X104250000Y-89504065D01*
X104250000Y-90245934D01*
X104249469Y-90254035D01*
X104235093Y-90363224D01*
X104226715Y-90394491D01*
X104189259Y-90484918D01*
X104173074Y-90512951D01*
X104113491Y-90590601D01*
X104090601Y-90613491D01*
X104012951Y-90673074D01*
X103984918Y-90689259D01*
X103894491Y-90726715D01*
X103863224Y-90735093D01*
X103774783Y-90746737D01*
X103754031Y-90749469D01*
X103745934Y-90750000D01*
X97500000Y-90750000D01*
X97500000Y-98000000D01*
X103788826Y-98000000D01*
X103796924Y-98000530D01*
X103888772Y-98012622D01*
X103906116Y-98014906D01*
X103937383Y-98023284D01*
X104027808Y-98060739D01*
X104055842Y-98076924D01*
X104143224Y-98143974D01*
X104149319Y-98149319D01*
X105850679Y-99850679D01*
X105856025Y-99856775D01*
X105923075Y-99944157D01*
X105939260Y-99972191D01*
X105976715Y-100062616D01*
X105985093Y-100093882D01*
X105999469Y-100203071D01*
X106000000Y-100211172D01*
X106000000Y-106000000D01*
X106146445Y-106146445D01*
X106146451Y-106146452D01*
X109853547Y-109853548D01*
X109853552Y-109853552D01*
X110000000Y-110000000D01*
X145999993Y-110000000D01*
X146000000Y-110000000D01*
X146500000Y-110000000D01*
X146500000Y-91504065D01*
X146500531Y-91495964D01*
X146514906Y-91386776D01*
X146523284Y-91355508D01*
X146560740Y-91265081D01*
X146576923Y-91237050D01*
X146636513Y-91159392D01*
X146659392Y-91136513D01*
X146737050Y-91076923D01*
X146765079Y-91060740D01*
X146855509Y-91023283D01*
X146886775Y-91014906D01*
X146995967Y-91000530D01*
X147004067Y-91000000D01*
X155999993Y-91000000D01*
X156000000Y-91000000D01*
X156500000Y-91000000D01*
X156500000Y-90500000D01*
X156514906Y-90386775D01*
X156523284Y-90355508D01*
X156560740Y-90265081D01*
X156576923Y-90237050D01*
X156636513Y-90159392D01*
X156659392Y-90136513D01*
X156737050Y-90076923D01*
X156765079Y-90060740D01*
X156855509Y-90023283D01*
X156886775Y-90014906D01*
X156995967Y-90000530D01*
X157004067Y-90000000D01*
X159995933Y-90000000D01*
X160004031Y-90000530D01*
X160095879Y-90012622D01*
X160113223Y-90014906D01*
X160144491Y-90023284D01*
X160234918Y-90060740D01*
X160262952Y-90076925D01*
X160340602Y-90136509D01*
X160363491Y-90159398D01*
X160423074Y-90237048D01*
X160439259Y-90265081D01*
X160476715Y-90355508D01*
X160485093Y-90386775D01*
X160495050Y-90462401D01*
X160498014Y-90484918D01*
X160499469Y-90495964D01*
X160500000Y-90504065D01*
X160500000Y-98000000D01*
X160750000Y-98000000D01*
X160821480Y-98014218D01*
X160866175Y-98032730D01*
X160906272Y-98059522D01*
X160940477Y-98093727D01*
X160967267Y-98133822D01*
X160985781Y-98178517D01*
X160997617Y-98238022D01*
X161000000Y-98262210D01*
X161000000Y-98995934D01*
X160999469Y-99004035D01*
X160985093Y-99113224D01*
X160976715Y-99144491D01*
X160939259Y-99234918D01*
X160923074Y-99262951D01*
X160863491Y-99340601D01*
X160840601Y-99363491D01*
X160762951Y-99423074D01*
X160734918Y-99439259D01*
X160644491Y-99476715D01*
X160613224Y-99485093D01*
X160524783Y-99496737D01*
X160504031Y-99499469D01*
X160495934Y-99500000D01*
X155000000Y-99500000D01*
X155000000Y-99999999D01*
X155000000Y-100000006D01*
X155000000Y-115495934D01*
X154999469Y-115504035D01*
X154985093Y-115613224D01*
X154976715Y-115644491D01*
X154939259Y-115734918D01*
X154923074Y-115762951D01*
X154863491Y-115840601D01*
X154840601Y-115863491D01*
X154762951Y-115923074D01*
X154734918Y-115939259D01*
X154644491Y-115976715D01*
X154613224Y-115985093D01*
X154524783Y-115996737D01*
X154504031Y-115999469D01*
X154495934Y-116000000D01*
X91254066Y-116000000D01*
X91245968Y-115999469D01*
X91222457Y-115996374D01*
X91136775Y-115985093D01*
X91105508Y-115976715D01*
X91015081Y-115939259D01*
X90987048Y-115923074D01*
X90909398Y-115863491D01*
X90886508Y-115840601D01*
X90826925Y-115762951D01*
X90810740Y-115734918D01*
X90773284Y-115644491D01*
X90764906Y-115613223D01*
X90750531Y-115504035D01*
X90750000Y-115495933D01*
X90750000Y-82004066D01*
X90750531Y-81995964D01*
X90764906Y-81886776D01*
X90773284Y-81855508D01*
X90810740Y-81765081D01*
X90826923Y-81737050D01*
X90886513Y-81659392D01*
X90909392Y-81636513D01*
X90987050Y-81576923D01*
X91015079Y-81560740D01*
X91105509Y-81523283D01*
X91136775Y-81514906D01*
X91245967Y-81500530D01*
X91254067Y-81500000D01*
X96749993Y-81500000D01*
X96750000Y-81500000D01*
X97250000Y-81500000D01*
X97250000Y-78790580D01*
X97250061Y-78787826D01*
X97254290Y-78693670D01*
X97251559Y-78673508D01*
X97250562Y-78666143D01*
X97250000Y-78657813D01*
X97250000Y-77504066D01*
X97250531Y-77495964D01*
X97264906Y-77386776D01*
X97273284Y-77355508D01*
X97310740Y-77265081D01*
X97326923Y-77237050D01*
X97386513Y-77159392D01*
X97409392Y-77136513D01*
X97487050Y-77076923D01*
X97515079Y-77060740D01*
X97605509Y-77023283D01*
X97636775Y-77014906D01*
X97745967Y-77000530D01*
X97754067Y-77000000D01*
X101245933Y-77000000D01*
X101254031Y-77000530D01*
G37*
G04 #@! TD.AperFunction*
G04 #@! TA.AperFunction,Conductor*
G36*
X165446288Y-97718954D02*
G01*
X165527070Y-97772930D01*
X165581046Y-97853712D01*
X165600000Y-97948999D01*
X165600000Y-98200000D01*
X166416665Y-98899998D01*
X166999998Y-99399999D01*
X166999999Y-99399999D01*
X167000000Y-99400000D01*
X168051000Y-99400000D01*
X168146288Y-99418954D01*
X168227070Y-99472930D01*
X168281046Y-99553712D01*
X168300000Y-99649000D01*
X168300000Y-100551000D01*
X168281046Y-100646288D01*
X168227070Y-100727070D01*
X168146288Y-100781046D01*
X168051000Y-100800000D01*
X165588365Y-100800000D01*
X165542649Y-100830546D01*
X165447361Y-100849500D01*
X164649000Y-100849500D01*
X164553712Y-100830546D01*
X164472930Y-100776570D01*
X164418954Y-100695788D01*
X164400000Y-100600500D01*
X164400000Y-97949000D01*
X164418954Y-97853712D01*
X164472930Y-97772930D01*
X164553712Y-97718954D01*
X164649000Y-97700000D01*
X165351000Y-97700000D01*
X165446288Y-97718954D01*
G37*
G04 #@! TD.AperFunction*
G04 #@! TA.AperFunction,Conductor*
G36*
X155504031Y-78750530D02*
G01*
X155595879Y-78762622D01*
X155613223Y-78764906D01*
X155644491Y-78773284D01*
X155734918Y-78810740D01*
X155762952Y-78826925D01*
X155840602Y-78886509D01*
X155863491Y-78909398D01*
X155923074Y-78987048D01*
X155939259Y-79015081D01*
X155976715Y-79105508D01*
X155985093Y-79136775D01*
X155999469Y-79245964D01*
X156000000Y-79254064D01*
X156000000Y-80500000D01*
X159495933Y-80500000D01*
X159504031Y-80500530D01*
X159595879Y-80512622D01*
X159613223Y-80514906D01*
X159644491Y-80523284D01*
X159734918Y-80560740D01*
X159762952Y-80576925D01*
X159840602Y-80636509D01*
X159863491Y-80659398D01*
X159923074Y-80737048D01*
X159939259Y-80765081D01*
X159976715Y-80855508D01*
X159985093Y-80886775D01*
X159999469Y-80995964D01*
X160000000Y-81004065D01*
X160000000Y-83745934D01*
X159999469Y-83754035D01*
X159985093Y-83863224D01*
X159976715Y-83894491D01*
X159939259Y-83984918D01*
X159923074Y-84012951D01*
X159863491Y-84090601D01*
X159840601Y-84113491D01*
X159762951Y-84173074D01*
X159734918Y-84189259D01*
X159644491Y-84226715D01*
X159613224Y-84235093D01*
X159524783Y-84246737D01*
X159504031Y-84249469D01*
X159495934Y-84250000D01*
X158250000Y-84250000D01*
X158250000Y-86750000D01*
X159745933Y-86750000D01*
X159754031Y-86750530D01*
X159845879Y-86762622D01*
X159863223Y-86764906D01*
X159894491Y-86773284D01*
X159984918Y-86810740D01*
X160012952Y-86826925D01*
X160090602Y-86886509D01*
X160113491Y-86909398D01*
X160173074Y-86987048D01*
X160189259Y-87015081D01*
X160226715Y-87105508D01*
X160235093Y-87136775D01*
X160249469Y-87245964D01*
X160250000Y-87254065D01*
X160250000Y-87745934D01*
X160249469Y-87754035D01*
X160235093Y-87863224D01*
X160226715Y-87894491D01*
X160189259Y-87984918D01*
X160173074Y-88012951D01*
X160113491Y-88090601D01*
X160090601Y-88113491D01*
X160012951Y-88173074D01*
X159984918Y-88189259D01*
X159894491Y-88226715D01*
X159863224Y-88235093D01*
X159774783Y-88246737D01*
X159754031Y-88249469D01*
X159745934Y-88250000D01*
X156000000Y-88250000D01*
X156000000Y-88750000D01*
X156000000Y-88750006D01*
X156000000Y-89245934D01*
X155999469Y-89254035D01*
X155985093Y-89363224D01*
X155976715Y-89394491D01*
X155939259Y-89484918D01*
X155923074Y-89512951D01*
X155863491Y-89590601D01*
X155840601Y-89613491D01*
X155762951Y-89673074D01*
X155734918Y-89689259D01*
X155644491Y-89726715D01*
X155613224Y-89735093D01*
X155524783Y-89746737D01*
X155504031Y-89749469D01*
X155495934Y-89750000D01*
X145000000Y-89750000D01*
X145000000Y-90250000D01*
X145000000Y-90250006D01*
X145000000Y-107995934D01*
X144999469Y-108004035D01*
X144985093Y-108113224D01*
X144976715Y-108144491D01*
X144939259Y-108234918D01*
X144923074Y-108262951D01*
X144863491Y-108340601D01*
X144840601Y-108363491D01*
X144762951Y-108423074D01*
X144734918Y-108439259D01*
X144644491Y-108476715D01*
X144613224Y-108485093D01*
X144524783Y-108496737D01*
X144504031Y-108499469D01*
X144495934Y-108500000D01*
X137504066Y-108500000D01*
X137495968Y-108499469D01*
X137472457Y-108496374D01*
X137386775Y-108485093D01*
X137355508Y-108476715D01*
X137265081Y-108439259D01*
X137237048Y-108423074D01*
X137159398Y-108363491D01*
X137136508Y-108340601D01*
X137076925Y-108262951D01*
X137060740Y-108234918D01*
X137023284Y-108144491D01*
X137014906Y-108113223D01*
X137000531Y-108004035D01*
X137000000Y-107995933D01*
X137000000Y-79254066D01*
X137000531Y-79245964D01*
X137014906Y-79136776D01*
X137023284Y-79105508D01*
X137060740Y-79015081D01*
X137076923Y-78987050D01*
X137136513Y-78909392D01*
X137159392Y-78886513D01*
X137237050Y-78826923D01*
X137265079Y-78810740D01*
X137355509Y-78773283D01*
X137386775Y-78764906D01*
X137495967Y-78750530D01*
X137504067Y-78750000D01*
X155495933Y-78750000D01*
X155504031Y-78750530D01*
G37*
G04 #@! TD.AperFunction*
G04 #@! TA.AperFunction,Conductor*
G36*
X94504031Y-65000530D02*
G01*
X94595879Y-65012622D01*
X94613223Y-65014906D01*
X94644491Y-65023284D01*
X94734918Y-65060740D01*
X94762952Y-65076925D01*
X94840602Y-65136509D01*
X94863491Y-65159398D01*
X94923074Y-65237048D01*
X94939259Y-65265081D01*
X94976715Y-65355508D01*
X94985093Y-65386775D01*
X94999469Y-65495964D01*
X95000000Y-65504065D01*
X95000000Y-68495934D01*
X94999469Y-68504035D01*
X94985093Y-68613224D01*
X94976715Y-68644491D01*
X94939259Y-68734918D01*
X94923074Y-68762951D01*
X94863491Y-68840601D01*
X94840601Y-68863491D01*
X94762951Y-68923074D01*
X94734918Y-68939259D01*
X94644491Y-68976715D01*
X94613224Y-68985093D01*
X94524783Y-68996737D01*
X94504031Y-68999469D01*
X94495934Y-69000000D01*
X82004066Y-69000000D01*
X81995968Y-68999469D01*
X81972457Y-68996374D01*
X81886775Y-68985093D01*
X81855508Y-68976715D01*
X81765081Y-68939259D01*
X81737048Y-68923074D01*
X81659398Y-68863491D01*
X81636508Y-68840601D01*
X81576925Y-68762951D01*
X81560740Y-68734918D01*
X81523284Y-68644491D01*
X81514906Y-68613223D01*
X81500531Y-68504035D01*
X81500000Y-68495933D01*
X81500000Y-65504066D01*
X81500531Y-65495964D01*
X81514906Y-65386776D01*
X81523284Y-65355508D01*
X81560740Y-65265081D01*
X81576923Y-65237050D01*
X81636513Y-65159392D01*
X81659392Y-65136513D01*
X81737050Y-65076923D01*
X81765079Y-65060740D01*
X81855509Y-65023283D01*
X81886775Y-65014906D01*
X81995967Y-65000530D01*
X82004067Y-65000000D01*
X94495933Y-65000000D01*
X94504031Y-65000530D01*
G37*
G04 #@! TD.AperFunction*
G04 #@! TA.AperFunction,Conductor*
G36*
X104504031Y-72500530D02*
G01*
X104595879Y-72512622D01*
X104613223Y-72514906D01*
X104644491Y-72523284D01*
X104734918Y-72560740D01*
X104762952Y-72576925D01*
X104840602Y-72636509D01*
X104863491Y-72659398D01*
X104923074Y-72737048D01*
X104939259Y-72765081D01*
X104976715Y-72855508D01*
X104985093Y-72886775D01*
X104999469Y-72995964D01*
X105000000Y-73004064D01*
X105000000Y-74000000D01*
X111995933Y-74000000D01*
X112004031Y-74000530D01*
X112095879Y-74012622D01*
X112113223Y-74014906D01*
X112144491Y-74023284D01*
X112234918Y-74060740D01*
X112262952Y-74076925D01*
X112340602Y-74136509D01*
X112363491Y-74159398D01*
X112423074Y-74237048D01*
X112439259Y-74265081D01*
X112476715Y-74355508D01*
X112485093Y-74386775D01*
X112499469Y-74495964D01*
X112500000Y-74504064D01*
X112500000Y-76000000D01*
X113000000Y-76000000D01*
X113113223Y-76014906D01*
X113144491Y-76023284D01*
X113234918Y-76060740D01*
X113262952Y-76076925D01*
X113340602Y-76136509D01*
X113363491Y-76159398D01*
X113423074Y-76237048D01*
X113439259Y-76265081D01*
X113476715Y-76355508D01*
X113485093Y-76386775D01*
X113497869Y-76483814D01*
X113497869Y-76516185D01*
X113491879Y-76561685D01*
X113463613Y-76625581D01*
X113405289Y-76664053D01*
X113368940Y-76669500D01*
X111619862Y-76669500D01*
X111582826Y-76672792D01*
X111506451Y-76679582D01*
X111320594Y-76732762D01*
X111149250Y-76822265D01*
X110999431Y-76944427D01*
X110991330Y-76954362D01*
X110933709Y-76993878D01*
X110895229Y-77000000D01*
X107750000Y-77000000D01*
X107750000Y-84250000D01*
X114777319Y-84250000D01*
X115000000Y-84250000D01*
X117098129Y-81918745D01*
X117104359Y-81912727D01*
X117153404Y-81871556D01*
X117194308Y-81837220D01*
X117223578Y-81818924D01*
X117318906Y-81776469D01*
X117352084Y-81766953D01*
X117451962Y-81752912D01*
X117468385Y-81750604D01*
X117477026Y-81750000D01*
X121999993Y-81750000D01*
X122000000Y-81750000D01*
X122500000Y-81750000D01*
X122500000Y-79254065D01*
X122500531Y-79245964D01*
X122514906Y-79136776D01*
X122523284Y-79105508D01*
X122560740Y-79015081D01*
X122576923Y-78987050D01*
X122636513Y-78909392D01*
X122659392Y-78886513D01*
X122737050Y-78826923D01*
X122765079Y-78810740D01*
X122855509Y-78773283D01*
X122886775Y-78764906D01*
X122995967Y-78750530D01*
X123004067Y-78750000D01*
X134495933Y-78750000D01*
X134504031Y-78750530D01*
X134595879Y-78762622D01*
X134613223Y-78764906D01*
X134644491Y-78773284D01*
X134734918Y-78810740D01*
X134762952Y-78826925D01*
X134840602Y-78886509D01*
X134863491Y-78909398D01*
X134923074Y-78987048D01*
X134939259Y-79015081D01*
X134976715Y-79105508D01*
X134985093Y-79136775D01*
X134999469Y-79245964D01*
X135000000Y-79254065D01*
X135000000Y-107995934D01*
X134999469Y-108004035D01*
X134985093Y-108113224D01*
X134976715Y-108144491D01*
X134939259Y-108234918D01*
X134923074Y-108262951D01*
X134863491Y-108340601D01*
X134840601Y-108363491D01*
X134762951Y-108423074D01*
X134734918Y-108439259D01*
X134644491Y-108476715D01*
X134613224Y-108485093D01*
X134524783Y-108496737D01*
X134504031Y-108499469D01*
X134495934Y-108500000D01*
X129004066Y-108500000D01*
X128995968Y-108499469D01*
X128972457Y-108496374D01*
X128886775Y-108485093D01*
X128855508Y-108476715D01*
X128765081Y-108439259D01*
X128737048Y-108423074D01*
X128659398Y-108363491D01*
X128636508Y-108340601D01*
X128576925Y-108262951D01*
X128560740Y-108234918D01*
X128523284Y-108144491D01*
X128514906Y-108113223D01*
X128500531Y-108004035D01*
X128500000Y-107995933D01*
X128500000Y-101750006D01*
X128500000Y-101750000D01*
X128500000Y-101749999D01*
X128500000Y-101250000D01*
X128000000Y-101250000D01*
X127999993Y-101250000D01*
X123504066Y-101250000D01*
X123495968Y-101249469D01*
X123472457Y-101246374D01*
X123386775Y-101235093D01*
X123355508Y-101226715D01*
X123265081Y-101189259D01*
X123237048Y-101173074D01*
X123159398Y-101113491D01*
X123136508Y-101090601D01*
X123076925Y-101012951D01*
X123060740Y-100984918D01*
X123023284Y-100894491D01*
X123014906Y-100863223D01*
X123000531Y-100754035D01*
X123000000Y-100745933D01*
X123000000Y-96250006D01*
X123000000Y-96250000D01*
X123000000Y-95750000D01*
X122500000Y-95750000D01*
X122499993Y-95750000D01*
X121504066Y-95750000D01*
X121495968Y-95749469D01*
X121472457Y-95746374D01*
X121386775Y-95735093D01*
X121355508Y-95726715D01*
X121265081Y-95689259D01*
X121237048Y-95673074D01*
X121159398Y-95613491D01*
X121136508Y-95590601D01*
X121076925Y-95512951D01*
X121060740Y-95484918D01*
X121023284Y-95394491D01*
X121014906Y-95363223D01*
X121000531Y-95254035D01*
X121000000Y-95245933D01*
X121000000Y-92949731D01*
X121000299Y-92943651D01*
X121000500Y-92941608D01*
X121000500Y-92138397D01*
X121000298Y-92136345D01*
X121000000Y-92130268D01*
X121000000Y-90949731D01*
X121000299Y-90943651D01*
X121000500Y-90941608D01*
X121000500Y-90138397D01*
X121000298Y-90136345D01*
X121000000Y-90130268D01*
X121000000Y-87000006D01*
X121000000Y-87000000D01*
X121000000Y-86500000D01*
X120500000Y-86500000D01*
X120499993Y-86500000D01*
X117409732Y-86500000D01*
X117403662Y-86499702D01*
X117401608Y-86499500D01*
X116598392Y-86499500D01*
X116596337Y-86499702D01*
X116590268Y-86500000D01*
X115409732Y-86500000D01*
X115403662Y-86499702D01*
X115401608Y-86499500D01*
X114598392Y-86499500D01*
X114596337Y-86499702D01*
X114590268Y-86500000D01*
X103754066Y-86500000D01*
X103745968Y-86499469D01*
X103722457Y-86496374D01*
X103636775Y-86485093D01*
X103605508Y-86476715D01*
X103515081Y-86439259D01*
X103487048Y-86423074D01*
X103409398Y-86363491D01*
X103386508Y-86340601D01*
X103326925Y-86262951D01*
X103310740Y-86234918D01*
X103273284Y-86144491D01*
X103264906Y-86113223D01*
X103250531Y-86004035D01*
X103250000Y-85995933D01*
X103250000Y-74356905D01*
X103255339Y-74320910D01*
X103269793Y-74273261D01*
X103297800Y-74180934D01*
X103313000Y-74026608D01*
X103313000Y-72973392D01*
X103299034Y-72831599D01*
X103307876Y-72771994D01*
X103310742Y-72765074D01*
X103326922Y-72737051D01*
X103386513Y-72659392D01*
X103409392Y-72636513D01*
X103487050Y-72576923D01*
X103515079Y-72560740D01*
X103605509Y-72523283D01*
X103636775Y-72514906D01*
X103745967Y-72500530D01*
X103754067Y-72500000D01*
X104495933Y-72500000D01*
X104504031Y-72500530D01*
G37*
G04 #@! TD.AperFunction*
G04 #@! TA.AperFunction,Conductor*
G36*
X104504031Y-65000530D02*
G01*
X104595879Y-65012622D01*
X104613223Y-65014906D01*
X104644491Y-65023284D01*
X104734918Y-65060740D01*
X104762952Y-65076925D01*
X104840602Y-65136509D01*
X104863491Y-65159398D01*
X104923074Y-65237048D01*
X104939259Y-65265081D01*
X104976715Y-65355508D01*
X104985093Y-65386775D01*
X104999469Y-65495964D01*
X105000000Y-65504065D01*
X105000000Y-70495934D01*
X104999469Y-70504035D01*
X104985093Y-70613224D01*
X104976715Y-70644491D01*
X104939259Y-70734918D01*
X104923074Y-70762951D01*
X104863491Y-70840601D01*
X104840601Y-70863491D01*
X104762951Y-70923074D01*
X104734918Y-70939259D01*
X104644491Y-70976715D01*
X104613224Y-70985093D01*
X104524783Y-70996737D01*
X104504031Y-70999469D01*
X104495934Y-71000000D01*
X101750000Y-71000000D01*
X101750000Y-71499998D01*
X101749999Y-71500006D01*
X101750000Y-74995934D01*
X101749469Y-75004035D01*
X101735093Y-75113224D01*
X101726715Y-75144491D01*
X101689259Y-75234918D01*
X101673074Y-75262951D01*
X101613491Y-75340601D01*
X101590601Y-75363491D01*
X101512951Y-75423074D01*
X101484918Y-75439259D01*
X101394491Y-75476715D01*
X101363224Y-75485093D01*
X101274783Y-75496737D01*
X101254031Y-75499469D01*
X101245934Y-75500000D01*
X88250000Y-75500000D01*
X88250000Y-81000000D01*
X89245933Y-81000000D01*
X89254031Y-81000530D01*
X89345879Y-81012622D01*
X89363223Y-81014906D01*
X89394491Y-81023284D01*
X89484918Y-81060740D01*
X89512952Y-81076925D01*
X89590602Y-81136509D01*
X89613491Y-81159398D01*
X89673074Y-81237048D01*
X89689259Y-81265081D01*
X89726715Y-81355508D01*
X89735093Y-81386775D01*
X89749469Y-81495964D01*
X89750000Y-81504065D01*
X89750000Y-115495934D01*
X89749469Y-115504035D01*
X89735093Y-115613224D01*
X89726715Y-115644491D01*
X89689259Y-115734918D01*
X89673074Y-115762951D01*
X89613491Y-115840601D01*
X89590601Y-115863491D01*
X89512951Y-115923074D01*
X89484918Y-115939259D01*
X89394491Y-115976715D01*
X89363224Y-115985093D01*
X89274783Y-115996737D01*
X89254031Y-115999469D01*
X89245934Y-116000000D01*
X82004066Y-116000000D01*
X81995968Y-115999469D01*
X81972457Y-115996374D01*
X81886775Y-115985093D01*
X81855508Y-115976715D01*
X81765081Y-115939259D01*
X81737048Y-115923074D01*
X81659398Y-115863491D01*
X81636508Y-115840601D01*
X81576925Y-115762951D01*
X81560740Y-115734918D01*
X81523284Y-115644491D01*
X81514906Y-115613223D01*
X81500531Y-115504035D01*
X81500000Y-115495933D01*
X81500000Y-110500006D01*
X81500000Y-110500000D01*
X81500000Y-110499999D01*
X81500000Y-110000000D01*
X81000000Y-110000000D01*
X80999993Y-110000000D01*
X76004066Y-110000000D01*
X75995968Y-109999469D01*
X75972457Y-109996374D01*
X75886775Y-109985093D01*
X75855508Y-109976715D01*
X75765081Y-109939259D01*
X75737048Y-109923074D01*
X75659398Y-109863491D01*
X75636508Y-109840601D01*
X75576925Y-109762951D01*
X75560740Y-109734918D01*
X75523284Y-109644491D01*
X75514906Y-109613223D01*
X75500531Y-109504035D01*
X75500000Y-109495933D01*
X75500000Y-79506506D01*
X77441696Y-79506506D01*
X77441697Y-79506510D01*
X77472009Y-79730281D01*
X77472010Y-79730284D01*
X77541789Y-79945044D01*
X77648794Y-80143891D01*
X77648796Y-80143894D01*
X77789586Y-80320439D01*
X77959639Y-80469011D01*
X77959640Y-80469012D01*
X77959643Y-80469014D01*
X78153493Y-80584834D01*
X78364908Y-80664179D01*
X78364908Y-80664180D01*
X78587090Y-80704500D01*
X78587093Y-80704500D01*
X78756337Y-80704500D01*
X78756343Y-80704500D01*
X78914443Y-80690270D01*
X78924906Y-80689329D01*
X79142570Y-80629258D01*
X79142575Y-80629255D01*
X79142582Y-80629254D01*
X79346033Y-80531277D01*
X79528721Y-80398547D01*
X79684772Y-80235330D01*
X79809173Y-80046871D01*
X79897923Y-79839229D01*
X79948172Y-79619076D01*
X79958303Y-79393490D01*
X79927991Y-79169719D01*
X79858211Y-78954957D01*
X79751204Y-78756106D01*
X79610411Y-78579558D01*
X79521007Y-78501448D01*
X79440360Y-78430988D01*
X79440357Y-78430986D01*
X79246507Y-78315166D01*
X79128154Y-78270747D01*
X79035091Y-78235819D01*
X78812910Y-78195500D01*
X78812907Y-78195500D01*
X78643657Y-78195500D01*
X78612271Y-78198324D01*
X78475093Y-78210670D01*
X78257429Y-78270741D01*
X78257414Y-78270747D01*
X78053973Y-78368719D01*
X78053965Y-78368723D01*
X77871284Y-78501448D01*
X77871282Y-78501449D01*
X77715226Y-78664671D01*
X77590828Y-78853125D01*
X77547813Y-78953765D01*
X77525704Y-79005494D01*
X77502077Y-79060772D01*
X77502075Y-79060778D01*
X77451828Y-79280922D01*
X77451828Y-79280926D01*
X77441696Y-79506506D01*
X75500000Y-79506506D01*
X75500000Y-70254066D01*
X75500531Y-70245964D01*
X75514906Y-70136776D01*
X75523284Y-70105508D01*
X75560740Y-70015081D01*
X75576923Y-69987050D01*
X75636513Y-69909392D01*
X75659392Y-69886513D01*
X75737050Y-69826923D01*
X75765079Y-69810740D01*
X75855509Y-69773283D01*
X75886775Y-69764906D01*
X75995967Y-69750530D01*
X76004067Y-69750000D01*
X95499993Y-69750000D01*
X95500000Y-69750000D01*
X96000000Y-69750000D01*
X96000000Y-65504065D01*
X96000531Y-65495964D01*
X96014906Y-65386776D01*
X96023284Y-65355508D01*
X96060740Y-65265081D01*
X96076923Y-65237050D01*
X96136513Y-65159392D01*
X96159392Y-65136513D01*
X96237050Y-65076923D01*
X96265079Y-65060740D01*
X96355509Y-65023283D01*
X96386775Y-65014906D01*
X96495967Y-65000530D01*
X96504067Y-65000000D01*
X104495933Y-65000000D01*
X104504031Y-65000530D01*
G37*
G04 #@! TD.AperFunction*
G04 #@! TA.AperFunction,Conductor*
G36*
X164346288Y-87306454D02*
G01*
X164427070Y-87360430D01*
X164481046Y-87441212D01*
X164500000Y-87536500D01*
X164500000Y-96888500D01*
X164481046Y-96983788D01*
X164427070Y-97064570D01*
X164346288Y-97118546D01*
X164251000Y-97137500D01*
X161499000Y-97137500D01*
X161403712Y-97118546D01*
X161322930Y-97064570D01*
X161268954Y-96983788D01*
X161250000Y-96888500D01*
X161250000Y-89786500D01*
X161268954Y-89691212D01*
X161322930Y-89610430D01*
X161403712Y-89556454D01*
X161499000Y-89537500D01*
X163249999Y-89537500D01*
X163250000Y-89537500D01*
X163250000Y-87536499D01*
X163268954Y-87441212D01*
X163322930Y-87360430D01*
X163403712Y-87306454D01*
X163499000Y-87287500D01*
X164251000Y-87287500D01*
X164346288Y-87306454D01*
G37*
G04 #@! TD.AperFunction*
G04 #@! TA.AperFunction,Conductor*
G36*
X109546924Y-94250530D02*
G01*
X109638772Y-94262622D01*
X109656116Y-94264906D01*
X109687383Y-94273284D01*
X109777808Y-94310739D01*
X109805842Y-94326924D01*
X109893224Y-94393974D01*
X109899319Y-94399319D01*
X110245964Y-94745964D01*
X111103547Y-95603548D01*
X111103554Y-95603554D01*
X111250000Y-95750000D01*
X114245933Y-95750000D01*
X114254031Y-95750530D01*
X114345879Y-95762622D01*
X114363223Y-95764906D01*
X114394491Y-95773284D01*
X114484918Y-95810740D01*
X114512952Y-95826925D01*
X114590602Y-95886509D01*
X114613491Y-95909398D01*
X114673074Y-95987048D01*
X114689259Y-96015081D01*
X114726715Y-96105508D01*
X114735093Y-96136775D01*
X114749469Y-96245964D01*
X114750000Y-96254065D01*
X114750000Y-96745934D01*
X114749469Y-96754035D01*
X114735093Y-96863224D01*
X114726715Y-96894491D01*
X114689259Y-96984918D01*
X114673074Y-97012951D01*
X114613491Y-97090601D01*
X114590601Y-97113491D01*
X114512951Y-97173074D01*
X114484918Y-97189259D01*
X114394491Y-97226715D01*
X114363224Y-97235093D01*
X114274783Y-97246737D01*
X114254031Y-97249469D01*
X114245934Y-97250000D01*
X108461173Y-97250000D01*
X108453075Y-97249469D01*
X108429564Y-97246374D01*
X108343882Y-97235093D01*
X108312616Y-97226715D01*
X108222191Y-97189260D01*
X108194157Y-97173075D01*
X108106775Y-97106025D01*
X108100679Y-97100679D01*
X106899319Y-95899319D01*
X106893974Y-95893224D01*
X106826924Y-95805842D01*
X106810739Y-95777808D01*
X106773284Y-95687383D01*
X106764906Y-95656116D01*
X106750531Y-95546928D01*
X106750000Y-95538826D01*
X106750000Y-94754066D01*
X106750531Y-94745964D01*
X106764906Y-94636776D01*
X106773284Y-94605508D01*
X106810740Y-94515081D01*
X106826923Y-94487050D01*
X106886513Y-94409392D01*
X106909392Y-94386513D01*
X106987050Y-94326923D01*
X107015079Y-94310740D01*
X107105509Y-94273283D01*
X107136775Y-94264906D01*
X107245967Y-94250530D01*
X107254067Y-94250000D01*
X109538826Y-94250000D01*
X109546924Y-94250530D01*
G37*
G04 #@! TD.AperFunction*
M02*
