G04 #@! TF.GenerationSoftware,KiCad,Pcbnew,7.0.7*
G04 #@! TF.CreationDate,2024-06-14T09:16:29+02:00*
G04 #@! TF.ProjectId,vfd_display,7666645f-6469-4737-906c-61792e6b6963,rev?*
G04 #@! TF.SameCoordinates,Original*
G04 #@! TF.FileFunction,Copper,L2,Bot*
G04 #@! TF.FilePolarity,Positive*
%FSLAX46Y46*%
G04 Gerber Fmt 4.6, Leading zero omitted, Abs format (unit mm)*
G04 Created by KiCad (PCBNEW 7.0.7) date 2024-06-14 09:16:29*
%MOMM*%
%LPD*%
G01*
G04 APERTURE LIST*
G04 Aperture macros list*
%AMRoundRect*
0 Rectangle with rounded corners*
0 $1 Rounding radius*
0 $2 $3 $4 $5 $6 $7 $8 $9 X,Y pos of 4 corners*
0 Add a 4 corners polygon primitive as box body*
4,1,4,$2,$3,$4,$5,$6,$7,$8,$9,$2,$3,0*
0 Add four circle primitives for the rounded corners*
1,1,$1+$1,$2,$3*
1,1,$1+$1,$4,$5*
1,1,$1+$1,$6,$7*
1,1,$1+$1,$8,$9*
0 Add four rect primitives between the rounded corners*
20,1,$1+$1,$2,$3,$4,$5,0*
20,1,$1+$1,$4,$5,$6,$7,0*
20,1,$1+$1,$6,$7,$8,$9,0*
20,1,$1+$1,$8,$9,$2,$3,0*%
G04 Aperture macros list end*
G04 #@! TA.AperFunction,ComponentPad*
%ADD10C,1.600000*%
G04 #@! TD*
G04 #@! TA.AperFunction,SMDPad,CuDef*
%ADD11RoundRect,0.250000X0.300000X-0.300000X0.300000X0.300000X-0.300000X0.300000X-0.300000X-0.300000X0*%
G04 #@! TD*
G04 #@! TA.AperFunction,SMDPad,CuDef*
%ADD12RoundRect,0.250000X-0.450000X0.350000X-0.450000X-0.350000X0.450000X-0.350000X0.450000X0.350000X0*%
G04 #@! TD*
G04 #@! TA.AperFunction,SMDPad,CuDef*
%ADD13RoundRect,0.250000X-0.337500X-0.475000X0.337500X-0.475000X0.337500X0.475000X-0.337500X0.475000X0*%
G04 #@! TD*
G04 #@! TA.AperFunction,SMDPad,CuDef*
%ADD14RoundRect,0.250000X1.500000X0.550000X-1.500000X0.550000X-1.500000X-0.550000X1.500000X-0.550000X0*%
G04 #@! TD*
G04 #@! TA.AperFunction,SMDPad,CuDef*
%ADD15R,1.500000X2.900000*%
G04 #@! TD*
G04 #@! TA.AperFunction,SMDPad,CuDef*
%ADD16R,6.300000X6.500000*%
G04 #@! TD*
G04 #@! TA.AperFunction,SMDPad,CuDef*
%ADD17RoundRect,0.250000X0.450000X-0.350000X0.450000X0.350000X-0.450000X0.350000X-0.450000X-0.350000X0*%
G04 #@! TD*
G04 #@! TA.AperFunction,SMDPad,CuDef*
%ADD18RoundRect,0.250000X0.337500X0.475000X-0.337500X0.475000X-0.337500X-0.475000X0.337500X-0.475000X0*%
G04 #@! TD*
G04 #@! TA.AperFunction,SMDPad,CuDef*
%ADD19RoundRect,0.250000X0.350000X0.450000X-0.350000X0.450000X-0.350000X-0.450000X0.350000X-0.450000X0*%
G04 #@! TD*
G04 #@! TA.AperFunction,SMDPad,CuDef*
%ADD20RoundRect,0.225000X-0.375000X0.225000X-0.375000X-0.225000X0.375000X-0.225000X0.375000X0.225000X0*%
G04 #@! TD*
G04 #@! TA.AperFunction,SMDPad,CuDef*
%ADD21RoundRect,0.250000X-0.475000X0.337500X-0.475000X-0.337500X0.475000X-0.337500X0.475000X0.337500X0*%
G04 #@! TD*
G04 #@! TA.AperFunction,SMDPad,CuDef*
%ADD22C,2.000000*%
G04 #@! TD*
G04 #@! TA.AperFunction,SMDPad,CuDef*
%ADD23RoundRect,0.250000X-0.350000X-0.450000X0.350000X-0.450000X0.350000X0.450000X-0.350000X0.450000X0*%
G04 #@! TD*
G04 #@! TA.AperFunction,SMDPad,CuDef*
%ADD24RoundRect,0.250000X0.475000X-0.337500X0.475000X0.337500X-0.475000X0.337500X-0.475000X-0.337500X0*%
G04 #@! TD*
G04 #@! TA.AperFunction,SMDPad,CuDef*
%ADD25R,1.000000X0.700000*%
G04 #@! TD*
G04 #@! TA.AperFunction,SMDPad,CuDef*
%ADD26R,4.900000X5.400000*%
G04 #@! TD*
G04 #@! TA.AperFunction,SMDPad,CuDef*
%ADD27R,0.700000X1.000000*%
G04 #@! TD*
G04 #@! TA.AperFunction,SMDPad,CuDef*
%ADD28R,4.400000X3.300000*%
G04 #@! TD*
G04 #@! TA.AperFunction,SMDPad,CuDef*
%ADD29R,6.200000X3.900000*%
G04 #@! TD*
G04 #@! TA.AperFunction,SMDPad,CuDef*
%ADD30RoundRect,0.250000X-0.325000X-0.450000X0.325000X-0.450000X0.325000X0.450000X-0.325000X0.450000X0*%
G04 #@! TD*
G04 #@! TA.AperFunction,SMDPad,CuDef*
%ADD31RoundRect,0.250000X-1.950000X-1.000000X1.950000X-1.000000X1.950000X1.000000X-1.950000X1.000000X0*%
G04 #@! TD*
G04 #@! TA.AperFunction,SMDPad,CuDef*
%ADD32RoundRect,0.250001X0.462499X0.849999X-0.462499X0.849999X-0.462499X-0.849999X0.462499X-0.849999X0*%
G04 #@! TD*
G04 #@! TA.AperFunction,SMDPad,CuDef*
%ADD33RoundRect,0.150000X-0.825000X-0.150000X0.825000X-0.150000X0.825000X0.150000X-0.825000X0.150000X0*%
G04 #@! TD*
G04 #@! TA.AperFunction,SMDPad,CuDef*
%ADD34RoundRect,0.150000X0.825000X0.150000X-0.825000X0.150000X-0.825000X-0.150000X0.825000X-0.150000X0*%
G04 #@! TD*
G04 #@! TA.AperFunction,SMDPad,CuDef*
%ADD35R,2.750000X1.250000*%
G04 #@! TD*
G04 #@! TA.AperFunction,SMDPad,CuDef*
%ADD36RoundRect,0.250000X-0.650000X1.500000X-0.650000X-1.500000X0.650000X-1.500000X0.650000X1.500000X0*%
G04 #@! TD*
G04 #@! TA.AperFunction,SMDPad,CuDef*
%ADD37RoundRect,0.250001X-0.849999X0.462499X-0.849999X-0.462499X0.849999X-0.462499X0.849999X0.462499X0*%
G04 #@! TD*
G04 #@! TA.AperFunction,ViaPad*
%ADD38C,1.000000*%
G04 #@! TD*
G04 #@! TA.AperFunction,ViaPad*
%ADD39C,0.800000*%
G04 #@! TD*
G04 #@! TA.AperFunction,ViaPad*
%ADD40C,4.000000*%
G04 #@! TD*
G04 #@! TA.AperFunction,Conductor*
%ADD41C,0.500000*%
G04 #@! TD*
G04 #@! TA.AperFunction,Conductor*
%ADD42C,1.000000*%
G04 #@! TD*
G04 #@! TA.AperFunction,Conductor*
%ADD43C,2.000000*%
G04 #@! TD*
G04 #@! TA.AperFunction,Conductor*
%ADD44C,0.250000*%
G04 #@! TD*
G04 #@! TA.AperFunction,Conductor*
%ADD45C,1.500000*%
G04 #@! TD*
G04 #@! TA.AperFunction,Conductor*
%ADD46C,0.700000*%
G04 #@! TD*
G04 #@! TA.AperFunction,Conductor*
%ADD47C,0.750000*%
G04 #@! TD*
G04 APERTURE END LIST*
D10*
X219000000Y-68000000D03*
X217000000Y-68000000D03*
X215000000Y-68000000D03*
X213000000Y-68000000D03*
X203000000Y-68000000D03*
X201000000Y-68000000D03*
X199000000Y-68000000D03*
X197000000Y-68000000D03*
X195000000Y-68000000D03*
X193000000Y-68000000D03*
X191000000Y-68000000D03*
X189000000Y-68000000D03*
X187000000Y-68000000D03*
X185000000Y-68000000D03*
X183000000Y-68000000D03*
X181000000Y-68000000D03*
X179000000Y-68000000D03*
X177000000Y-68000000D03*
X175000000Y-68000000D03*
X173000000Y-68000000D03*
X171000000Y-68000000D03*
X169000000Y-68000000D03*
X111000000Y-68000000D03*
X109000000Y-68000000D03*
X107000000Y-68000000D03*
X101000000Y-68000000D03*
X99000000Y-68000000D03*
X89000000Y-68000000D03*
X87000000Y-68000000D03*
X85000000Y-68000000D03*
X83000000Y-68000000D03*
D11*
X189166666Y-73340000D03*
X189166666Y-70540000D03*
D12*
X171000000Y-70540000D03*
X171000000Y-72540000D03*
X107000000Y-72500000D03*
X107000000Y-74500000D03*
D13*
X159925000Y-90287500D03*
X162000000Y-90287500D03*
D14*
X93000000Y-103000000D03*
X87600000Y-103000000D03*
D15*
X116214000Y-98390000D03*
D16*
X118500000Y-104890000D03*
D15*
X120786000Y-98390000D03*
D17*
X167600000Y-100000000D03*
X167600000Y-98000000D03*
D18*
X104000000Y-73500000D03*
X101925000Y-73500000D03*
D19*
X201000000Y-72500000D03*
X199000000Y-72500000D03*
X120500000Y-74500000D03*
X118500000Y-74500000D03*
D17*
X189166666Y-77620000D03*
X189166666Y-75620000D03*
X187000000Y-77620000D03*
X187000000Y-75620000D03*
D20*
X92000000Y-68000000D03*
X92000000Y-71300000D03*
D18*
X108000000Y-88040000D03*
X105925000Y-88040000D03*
D21*
X109500000Y-76500000D03*
X109500000Y-78575000D03*
D13*
X113000000Y-93040000D03*
X115075000Y-93040000D03*
D17*
X159500000Y-87537500D03*
X159500000Y-85537500D03*
D19*
X112750000Y-82500000D03*
X110750000Y-82500000D03*
D22*
X173000000Y-77000000D03*
D21*
X157750000Y-98875000D03*
X157750000Y-100950000D03*
D23*
X163000000Y-98450000D03*
X165000000Y-98450000D03*
D13*
X163925000Y-83037500D03*
X166000000Y-83037500D03*
D17*
X191333332Y-77620000D03*
X191333332Y-75620000D03*
D12*
X100000000Y-92040000D03*
X100000000Y-94040000D03*
D13*
X94425000Y-68000000D03*
X96500000Y-68000000D03*
D23*
X115000000Y-90540000D03*
X117000000Y-90540000D03*
D22*
X92500000Y-83500000D03*
D24*
X175000000Y-72575000D03*
X175000000Y-70500000D03*
D13*
X159962500Y-92787500D03*
X162037500Y-92787500D03*
D25*
X162900000Y-102400000D03*
X162900000Y-101450000D03*
X162900000Y-100500000D03*
X165100000Y-100500000D03*
X165100000Y-101450000D03*
X165100000Y-102400000D03*
D22*
X99000000Y-73500000D03*
X209500000Y-75500000D03*
D12*
X170600000Y-101000000D03*
X170600000Y-103000000D03*
D26*
X99600000Y-103040000D03*
X111400000Y-103040000D03*
D23*
X110750000Y-88040000D03*
X112750000Y-88040000D03*
D18*
X166000000Y-90287500D03*
X163925000Y-90287500D03*
D17*
X193500000Y-77620000D03*
X193500000Y-75620000D03*
D11*
X191333332Y-73340000D03*
X191333332Y-70540000D03*
D19*
X121500000Y-95040000D03*
X119500000Y-95040000D03*
D21*
X167500000Y-102875000D03*
X167500000Y-104950000D03*
X206000000Y-68000000D03*
X206000000Y-70075000D03*
D13*
X110750000Y-90540000D03*
X112825000Y-90540000D03*
D27*
X163500000Y-87700000D03*
X162550000Y-87700000D03*
X161600000Y-87700000D03*
X161600000Y-85500000D03*
X162550000Y-85500000D03*
X163500000Y-85500000D03*
D28*
X91500000Y-78750000D03*
D29*
X82500000Y-85900000D03*
X82500000Y-73000000D03*
D11*
X193500000Y-73340000D03*
X193500000Y-70540000D03*
D30*
X96000000Y-78750000D03*
X98050000Y-78750000D03*
D22*
X201000000Y-75500000D03*
X104000000Y-76500000D03*
D23*
X115000000Y-88000000D03*
X117000000Y-88000000D03*
D11*
X187000000Y-73340000D03*
X187000000Y-70540000D03*
D18*
X91287500Y-109290000D03*
X89212500Y-109290000D03*
D31*
X132000000Y-104360000D03*
X140400000Y-104360000D03*
D17*
X119500000Y-92540000D03*
X119500000Y-90540000D03*
D24*
X157750000Y-104950000D03*
X157750000Y-102875000D03*
D32*
X165162500Y-104950000D03*
X162837500Y-104950000D03*
D21*
X160250000Y-98875000D03*
X160250000Y-100950000D03*
D18*
X166000000Y-92787500D03*
X163925000Y-92787500D03*
D17*
X161500000Y-83450000D03*
X161500000Y-81450000D03*
D33*
X112500000Y-80310000D03*
X112500000Y-79040000D03*
X112500000Y-77770000D03*
X112500000Y-76500000D03*
X117450000Y-76500000D03*
X117450000Y-77770000D03*
X117450000Y-79040000D03*
X117450000Y-80310000D03*
D24*
X160250000Y-104950000D03*
X160250000Y-102875000D03*
D34*
X107975000Y-90635000D03*
X107975000Y-91905000D03*
X107975000Y-93175000D03*
X107975000Y-94445000D03*
X103025000Y-94445000D03*
X103025000Y-93175000D03*
X103025000Y-91905000D03*
X103025000Y-90635000D03*
D19*
X116690000Y-74500000D03*
X114690000Y-74500000D03*
D35*
X214000000Y-82380000D03*
X214000000Y-84920000D03*
X214000000Y-87460000D03*
X214000000Y-90000000D03*
X214000000Y-98000000D03*
X214000000Y-100540000D03*
X214000000Y-103080000D03*
X214000000Y-105620000D03*
D31*
X132000000Y-92930000D03*
X140400000Y-92930000D03*
D36*
X125500000Y-99540000D03*
X125500000Y-104540000D03*
D21*
X120500000Y-76500000D03*
X120500000Y-78575000D03*
D22*
X210000000Y-68000000D03*
D31*
X132000000Y-81500000D03*
X140400000Y-81500000D03*
D37*
X166000000Y-85537500D03*
X166000000Y-87862500D03*
D38*
X141500000Y-85000000D03*
X141500000Y-87000000D03*
X141500000Y-89000000D03*
X139250000Y-87000000D03*
X139250000Y-89000000D03*
X139250000Y-85000000D03*
X140000000Y-98500000D03*
X120500000Y-80000000D03*
X147000000Y-83250000D03*
X151500000Y-83250000D03*
X80250000Y-104750000D03*
X163000000Y-96500000D03*
X157750000Y-87500000D03*
X87000000Y-101750000D03*
X149250000Y-88250000D03*
X80250000Y-98750000D03*
D39*
X191333332Y-71810000D03*
D38*
X84750000Y-96750000D03*
X104000000Y-88040000D03*
X82500000Y-97750000D03*
X78000000Y-107750000D03*
X101500000Y-95750000D03*
D39*
X187000000Y-71810000D03*
D40*
X82500000Y-79500000D03*
D38*
X144750000Y-86250000D03*
X118750000Y-88750000D03*
X80250000Y-94750000D03*
X114000000Y-96500000D03*
X84750000Y-102750000D03*
X78000000Y-95750000D03*
X209500000Y-78000000D03*
X153750000Y-88250000D03*
X139000000Y-96250000D03*
X80250000Y-106750000D03*
X156050000Y-100900000D03*
X153750000Y-82250000D03*
X82500000Y-101750000D03*
X144750000Y-84250000D03*
X209500000Y-73000000D03*
X151500000Y-87250000D03*
X82500000Y-99750000D03*
D39*
X193500000Y-72000000D03*
D38*
X78000000Y-99750000D03*
X144750000Y-80250000D03*
X147000000Y-87250000D03*
X142000000Y-98500000D03*
X78000000Y-103750000D03*
X84750000Y-94750000D03*
X149250000Y-80250000D03*
X153750000Y-86250000D03*
X84750000Y-98750000D03*
X80250000Y-100750000D03*
X170600000Y-99500000D03*
X78000000Y-97750000D03*
X87000000Y-95750000D03*
X143000000Y-100750000D03*
X163000000Y-94287500D03*
X153750000Y-80250000D03*
X112250000Y-96500000D03*
D39*
X189166666Y-71810000D03*
D38*
X217000000Y-105620000D03*
X78000000Y-101750000D03*
X78000000Y-105750000D03*
X82500000Y-95750000D03*
X84750000Y-106750000D03*
X156050000Y-102900000D03*
X87000000Y-99750000D03*
X110500000Y-96500000D03*
X109500000Y-95500000D03*
X151500000Y-81250000D03*
X172600000Y-101000000D03*
X108500000Y-96500000D03*
X99750000Y-95750000D03*
X149250000Y-84250000D03*
X217000000Y-98000000D03*
X144750000Y-88250000D03*
X80250000Y-102750000D03*
X149250000Y-82250000D03*
X144750000Y-82250000D03*
X117000000Y-93040000D03*
X139000000Y-100750000D03*
X84750000Y-104750000D03*
X147000000Y-81250000D03*
X87000000Y-107750000D03*
X87000000Y-97750000D03*
X80250000Y-96750000D03*
X87000000Y-105750000D03*
X151500000Y-85250000D03*
X87000000Y-103750000D03*
X149250000Y-86250000D03*
X103250000Y-95750000D03*
X109500000Y-82500000D03*
X143000000Y-96250000D03*
X82500000Y-107750000D03*
X141000000Y-96250000D03*
X84750000Y-100750000D03*
X82500000Y-103750000D03*
X147000000Y-85250000D03*
X82500000Y-105750000D03*
X141000000Y-100750000D03*
X153750000Y-84250000D03*
X168000000Y-87787500D03*
X163250000Y-81037500D03*
X169600000Y-98000000D03*
X160250000Y-107000000D03*
X119250000Y-98540000D03*
X113895000Y-89000000D03*
D41*
X163500000Y-83462500D02*
X163500000Y-85500000D01*
X163925000Y-83037500D02*
X163500000Y-83462500D01*
X163000000Y-98450000D02*
X163000000Y-96500000D01*
X157725000Y-102900000D02*
X157750000Y-102875000D01*
D42*
X209500000Y-75500000D02*
X209500000Y-73000000D01*
D41*
X118000000Y-88000000D02*
X118750000Y-88750000D01*
X157750000Y-87500000D02*
X159462500Y-87500000D01*
D43*
X82500000Y-85900000D02*
X82500000Y-79500000D01*
D41*
X105925000Y-88040000D02*
X104000000Y-88040000D01*
D44*
X163500000Y-90275000D02*
X163512500Y-90287500D01*
D41*
X117000000Y-88000000D02*
X118000000Y-88000000D01*
D42*
X163000000Y-92787500D02*
X162037500Y-92787500D01*
D41*
X214000000Y-105620000D02*
X214120000Y-105500000D01*
D45*
X206000000Y-68000000D02*
X203000000Y-68000000D01*
D41*
X119500000Y-89500000D02*
X119500000Y-90540000D01*
X187000000Y-71810000D02*
X187000000Y-70540000D01*
X163000000Y-94287500D02*
X163000000Y-96500000D01*
D42*
X157750000Y-101950000D02*
X157750000Y-100950000D01*
D41*
X163000000Y-92787500D02*
X163000000Y-94287500D01*
X157700000Y-100900000D02*
X157750000Y-100950000D01*
X115075000Y-93040000D02*
X117000000Y-93040000D01*
D42*
X163925000Y-92787500D02*
X163000000Y-92787500D01*
D41*
X163500000Y-87700000D02*
X163500000Y-90275000D01*
D43*
X82500000Y-79500000D02*
X82500000Y-73000000D01*
D42*
X160250000Y-102875000D02*
X160250000Y-100950000D01*
D41*
X156050000Y-100900000D02*
X157700000Y-100900000D01*
X193500000Y-72000000D02*
X193500000Y-70540000D01*
D42*
X109500000Y-81250000D02*
X110750000Y-82500000D01*
D45*
X99000000Y-68000000D02*
X96625000Y-68000000D01*
D42*
X101925000Y-73500000D02*
X99000000Y-73500000D01*
D41*
X119500000Y-90540000D02*
X117000000Y-90540000D01*
D42*
X209500000Y-75500000D02*
X209500000Y-78000000D01*
D41*
X189166666Y-71810000D02*
X189166666Y-70540000D01*
X156050000Y-102900000D02*
X157725000Y-102900000D01*
X118750000Y-88750000D02*
X119500000Y-89500000D01*
X191333332Y-71810000D02*
X191333332Y-70540000D01*
X117000000Y-90540000D02*
X117000000Y-93040000D01*
X120500000Y-78575000D02*
X120500000Y-80000000D01*
D42*
X109500000Y-78575000D02*
X109500000Y-81250000D01*
X157750000Y-102875000D02*
X157750000Y-101950000D01*
D41*
X159462500Y-87500000D02*
X159500000Y-87537500D01*
D42*
X162000000Y-90287500D02*
X163925000Y-90287500D01*
D41*
X117000000Y-88000000D02*
X117000000Y-90540000D01*
X172600000Y-101000000D02*
X170600000Y-101000000D01*
D42*
X109500000Y-82500000D02*
X109500000Y-78575000D01*
D45*
X99000000Y-68000000D02*
X101000000Y-68000000D01*
D44*
X163512500Y-90287500D02*
X163925000Y-90287500D01*
D41*
X170600000Y-99500000D02*
X170600000Y-101000000D01*
D42*
X217000000Y-105620000D02*
X214000000Y-105620000D01*
X175000000Y-70500000D02*
X175000000Y-68000000D01*
X214000000Y-98000000D02*
X217000000Y-98000000D01*
X166000000Y-83037500D02*
X166000000Y-85537500D01*
D45*
X92500000Y-83500000D02*
X92950000Y-83950000D01*
D41*
X103025000Y-90635000D02*
X93305000Y-90635000D01*
D46*
X161600000Y-88150000D02*
X161600000Y-87700000D01*
D42*
X159925000Y-92750000D02*
X159925000Y-90287500D01*
D45*
X97000000Y-83500000D02*
X92500000Y-83500000D01*
D42*
X93000000Y-103000000D02*
X93000000Y-107577500D01*
X159962500Y-92787500D02*
X159962500Y-98587500D01*
D45*
X92950000Y-83950000D02*
X92950000Y-87990000D01*
D46*
X159925000Y-90287500D02*
X159925000Y-89825000D01*
D42*
X93000000Y-107577500D02*
X91287500Y-109290000D01*
D45*
X98050000Y-82450000D02*
X97000000Y-83500000D01*
D46*
X162900000Y-100500000D02*
X162500000Y-100500000D01*
D42*
X159962500Y-92787500D02*
X159925000Y-92750000D01*
D45*
X92950000Y-87990000D02*
X92950000Y-103040000D01*
D42*
X157750000Y-98875000D02*
X160250000Y-98875000D01*
D46*
X160250000Y-98875000D02*
X160875000Y-98875000D01*
D41*
X159962500Y-98587500D02*
X160250000Y-98875000D01*
D45*
X99600000Y-103040000D02*
X92950000Y-103040000D01*
X98050000Y-78750000D02*
X98050000Y-82450000D01*
D46*
X160750000Y-89000000D02*
G75*
G03*
X159925000Y-89825000I0J-825000D01*
G01*
X161750000Y-99750000D02*
G75*
G03*
X160875000Y-98875000I-875000J0D01*
G01*
X161750000Y-99750000D02*
G75*
G03*
X162500000Y-100500000I750000J0D01*
G01*
X160750000Y-89000000D02*
G75*
G03*
X161600000Y-88150000I0J850000D01*
G01*
D41*
X112000000Y-93040000D02*
X110750000Y-91790000D01*
X110635000Y-91905000D02*
X110750000Y-91790000D01*
X110750000Y-91790000D02*
X110750000Y-90540000D01*
X113000000Y-93040000D02*
X112000000Y-93040000D01*
X107975000Y-91905000D02*
X110635000Y-91905000D01*
D43*
X125500000Y-93000000D02*
X125500000Y-99540000D01*
D42*
X107000000Y-74500000D02*
X107000000Y-76500000D01*
X125500000Y-95750000D02*
X125500000Y-99540000D01*
D41*
X125540000Y-99500000D02*
X125500000Y-99540000D01*
D42*
X121500000Y-85000000D02*
X125500000Y-89000000D01*
X124790000Y-95040000D02*
X125500000Y-95750000D01*
D43*
X125570000Y-92930000D02*
X125500000Y-93000000D01*
D42*
X104000000Y-76500000D02*
X107000000Y-76500000D01*
D43*
X132000000Y-92930000D02*
X125570000Y-92930000D01*
D42*
X121500000Y-95040000D02*
X124790000Y-95040000D01*
D43*
X132000000Y-81500000D02*
X132000000Y-104360000D01*
D45*
X104000000Y-73500000D02*
X104000000Y-76500000D01*
D42*
X125500000Y-89000000D02*
X125500000Y-93000000D01*
X107250000Y-85000000D02*
X121500000Y-85000000D01*
X104000000Y-81750000D02*
X107250000Y-85000000D01*
D41*
X112500000Y-76500000D02*
X109500000Y-76500000D01*
D42*
X107000000Y-76500000D02*
X109500000Y-76500000D01*
X104000000Y-76500000D02*
X104000000Y-81750000D01*
X171000000Y-72540000D02*
X173500000Y-72540000D01*
X120500000Y-76500000D02*
X120500000Y-75500000D01*
X168040000Y-75500000D02*
X171000000Y-72540000D01*
D41*
X120500000Y-76500000D02*
X117450000Y-76500000D01*
D42*
X175000000Y-72575000D02*
X174965000Y-72540000D01*
X173500000Y-72540000D02*
X174965000Y-72540000D01*
X120500000Y-75500000D02*
X168040000Y-75500000D01*
X173000000Y-73040000D02*
X173500000Y-72540000D01*
X173000000Y-77000000D02*
X173000000Y-73040000D01*
X120500000Y-74500000D02*
X120500000Y-76500000D01*
X174925000Y-72500000D02*
X175000000Y-72575000D01*
D41*
X171035000Y-72575000D02*
X171000000Y-72540000D01*
X112825000Y-90540000D02*
X115000000Y-90540000D01*
D45*
X96000000Y-78750000D02*
X91500000Y-78750000D01*
D41*
X206000000Y-70075000D02*
X203425000Y-70075000D01*
D42*
X201000000Y-72500000D02*
X201000000Y-75500000D01*
D41*
X161500000Y-81450000D02*
X162837500Y-81450000D01*
X199500000Y-66500000D02*
X185750000Y-66500000D01*
X162837500Y-81450000D02*
X163250000Y-81037500D01*
X168000000Y-87787500D02*
X166075000Y-87787500D01*
X201000000Y-68000000D02*
X201000000Y-72500000D01*
X185000000Y-67250000D02*
X185000000Y-68000000D01*
X185750000Y-66500000D02*
X185000000Y-67250000D01*
X166075000Y-87787500D02*
X166000000Y-87862500D01*
D44*
X166837500Y-87862500D02*
X166000000Y-87862500D01*
D41*
X201000000Y-68000000D02*
X199500000Y-66500000D01*
D42*
X166000000Y-92787500D02*
X166000000Y-87862500D01*
D41*
X203425000Y-70075000D02*
X201000000Y-72500000D01*
X108000000Y-88040000D02*
X110750000Y-88040000D01*
X108000000Y-88040000D02*
X108000000Y-90610000D01*
X108000000Y-90610000D02*
X107975000Y-90635000D01*
D45*
X83000000Y-68000000D02*
X89000000Y-68000000D01*
X94425000Y-68000000D02*
X89000000Y-68000000D01*
D41*
X165100000Y-102400000D02*
X167025000Y-102400000D01*
X167025000Y-102400000D02*
X167500000Y-102875000D01*
D42*
X165162500Y-104950000D02*
X167500000Y-104950000D01*
D41*
X165625000Y-104487500D02*
X165162500Y-104950000D01*
X160250000Y-104950000D02*
X160250000Y-107000000D01*
D42*
X157750000Y-104950000D02*
X162837500Y-104950000D01*
D41*
X169600000Y-98000000D02*
X167600000Y-98000000D01*
X160250000Y-107000000D02*
X160500000Y-107000000D01*
D45*
X116150000Y-103040000D02*
X111400000Y-103040000D01*
D41*
X118850000Y-104540000D02*
X118500000Y-104890000D01*
X125500000Y-104540000D02*
X118850000Y-104540000D01*
D45*
X118500000Y-104890000D02*
X118000000Y-104890000D01*
X118000000Y-104890000D02*
X116150000Y-103040000D01*
D41*
X191333332Y-75620000D02*
X191333332Y-73340000D01*
X192333332Y-72340000D02*
X192333332Y-69333332D01*
X191333332Y-73340000D02*
X192333332Y-72340000D01*
X192333332Y-69333332D02*
X191000000Y-68000000D01*
X190250000Y-71500000D02*
X190250000Y-69250000D01*
X189166666Y-73340000D02*
X190250000Y-72256666D01*
X190250000Y-72256666D02*
X190250000Y-70250000D01*
X190250000Y-69250000D02*
X189000000Y-68000000D01*
X189166666Y-75620000D02*
X189166666Y-73340000D01*
X188000000Y-69000000D02*
X187000000Y-68000000D01*
X187000000Y-75620000D02*
X187000000Y-73340000D01*
X187000000Y-73340000D02*
X188000000Y-72340000D01*
X188000000Y-72340000D02*
X188000000Y-69000000D01*
X194750000Y-69750000D02*
X193000000Y-68000000D01*
X193500000Y-75620000D02*
X193500000Y-73340000D01*
X194750000Y-72090000D02*
X194750000Y-69750000D01*
X193500000Y-73340000D02*
X194750000Y-72090000D01*
X199380000Y-90000000D02*
X187000000Y-77620000D01*
X214000000Y-90000000D02*
X199380000Y-90000000D01*
X199006666Y-87460000D02*
X189166666Y-77620000D01*
X214000000Y-87460000D02*
X199006666Y-87460000D01*
X198633332Y-84920000D02*
X191333332Y-77620000D01*
X214000000Y-84920000D02*
X198633332Y-84920000D01*
X214000000Y-82380000D02*
X198260000Y-82380000D01*
X198260000Y-82380000D02*
X193500000Y-77620000D01*
X168700000Y-101450000D02*
X170250000Y-103000000D01*
X165100000Y-101450000D02*
X168700000Y-101450000D01*
X170680000Y-103080000D02*
X213750000Y-103080000D01*
X170600000Y-103000000D02*
X170680000Y-103080000D01*
X170250000Y-103000000D02*
X170600000Y-103000000D01*
D47*
X104618528Y-93175000D02*
X103025000Y-93175000D01*
X116214000Y-98390000D02*
X108390000Y-98390000D01*
X105500000Y-95500000D02*
X105500000Y-94056472D01*
X105500000Y-94056472D02*
G75*
G03*
X104618528Y-93175000I-881500J-28D01*
G01*
X105500000Y-95500000D02*
G75*
G03*
X108390000Y-98390000I2890000J0D01*
G01*
D41*
X119250000Y-98540000D02*
X120636000Y-98540000D01*
X115000000Y-88000000D02*
X114000000Y-88000000D01*
X114000000Y-88000000D02*
X112790000Y-88000000D01*
X113895000Y-88105000D02*
X114000000Y-88000000D01*
X113895000Y-89000000D02*
X113895000Y-88105000D01*
X120636000Y-98540000D02*
X120786000Y-98390000D01*
X112790000Y-88000000D02*
X112750000Y-88040000D01*
D42*
X118500000Y-74500000D02*
X116690000Y-74500000D01*
D41*
X119500000Y-92540000D02*
X119500000Y-95040000D01*
X112000000Y-95040000D02*
X110135000Y-93175000D01*
X119500000Y-95040000D02*
X112000000Y-95040000D01*
X110135000Y-93175000D02*
X107975000Y-93175000D01*
X114190000Y-80310000D02*
X112500000Y-80310000D01*
X112500000Y-80310000D02*
X112750000Y-80560000D01*
X112750000Y-80560000D02*
X112750000Y-82250000D01*
X112750000Y-82250000D02*
X112500000Y-82500000D01*
X114690000Y-74500000D02*
X114690000Y-79810000D01*
X114690000Y-79810000D02*
X114190000Y-80310000D01*
X161500000Y-83450000D02*
X161500000Y-85400000D01*
X159500000Y-85537500D02*
X161562500Y-85537500D01*
X161500000Y-85400000D02*
X161600000Y-85500000D01*
X199000000Y-72500000D02*
X199000000Y-71500000D01*
X197500000Y-70000000D02*
X197000000Y-70000000D01*
X199000000Y-71500000D02*
G75*
G03*
X197500000Y-70000000I-1500000J0D01*
G01*
X195000000Y-68000000D02*
G75*
G03*
X197000000Y-70000000I2000000J0D01*
G01*
D42*
X171000000Y-70540000D02*
X171000000Y-68000000D01*
X107000000Y-72500000D02*
X107000000Y-68000000D01*
D41*
X100135000Y-91905000D02*
X100000000Y-92040000D01*
X103025000Y-91905000D02*
X100135000Y-91905000D01*
X165100000Y-100500000D02*
X165100000Y-98550000D01*
X167600000Y-100000000D02*
X165600000Y-100000000D01*
X165600000Y-100000000D02*
X165000000Y-99400000D01*
X165100000Y-98550000D02*
X165000000Y-98450000D01*
X165000000Y-99400000D02*
X165000000Y-98450000D01*
G04 #@! TA.AperFunction,Conductor*
G36*
X160846288Y-100218954D02*
G01*
X160927070Y-100272930D01*
X160981046Y-100353712D01*
X161000000Y-100449000D01*
X161000000Y-101900000D01*
X161971890Y-101900000D01*
X162067178Y-101918954D01*
X162147956Y-101972927D01*
X162227235Y-102052206D01*
X162330009Y-102097585D01*
X162355135Y-102100500D01*
X163101001Y-102100499D01*
X163196288Y-102119453D01*
X163277069Y-102173429D01*
X163331046Y-102254211D01*
X163350000Y-102349499D01*
X163350000Y-103251000D01*
X163331046Y-103346288D01*
X163277070Y-103427070D01*
X163196288Y-103481046D01*
X163101000Y-103500000D01*
X157249000Y-103500000D01*
X157153712Y-103481046D01*
X157072930Y-103427070D01*
X157018954Y-103346288D01*
X157000000Y-103251000D01*
X157000000Y-100449000D01*
X157018954Y-100353712D01*
X157072930Y-100272930D01*
X157153712Y-100218954D01*
X157249000Y-100200000D01*
X160751000Y-100200000D01*
X160846288Y-100218954D01*
G37*
G04 #@! TD.AperFunction*
G04 #@! TA.AperFunction,Conductor*
G36*
X164195788Y-101118954D02*
G01*
X164276570Y-101172930D01*
X164330546Y-101253712D01*
X164349500Y-101349000D01*
X164349500Y-101824676D01*
X164359793Y-101876421D01*
X164359794Y-101973576D01*
X164359793Y-101973579D01*
X164349500Y-102025323D01*
X164349500Y-102774676D01*
X164364033Y-102847739D01*
X164381250Y-102873506D01*
X164381250Y-103000000D01*
X164572812Y-103000000D01*
X164575324Y-103000499D01*
X164575325Y-103000500D01*
X164575326Y-103000500D01*
X165509238Y-103000500D01*
X165557806Y-103005283D01*
X165576582Y-103009017D01*
X165666343Y-103046193D01*
X165735044Y-103114889D01*
X165772228Y-103204647D01*
X165772228Y-103204648D01*
X165776464Y-103225940D01*
X165781250Y-103274526D01*
X165781250Y-105825473D01*
X165776463Y-105874061D01*
X165772227Y-105895352D01*
X165735044Y-105985110D01*
X165666342Y-106053806D01*
X165576604Y-106090977D01*
X165555314Y-106095213D01*
X165506724Y-106100000D01*
X164305776Y-106100000D01*
X164257188Y-106095213D01*
X164235897Y-106090977D01*
X164146139Y-106053794D01*
X164077443Y-105985092D01*
X164040269Y-105895341D01*
X164036034Y-105874050D01*
X164031250Y-105825473D01*
X164031250Y-103725002D01*
X164031250Y-103725000D01*
X164031250Y-103500000D01*
X163831853Y-103500000D01*
X163765743Y-103472615D01*
X163697045Y-103403915D01*
X163659867Y-103314154D01*
X163655663Y-103257113D01*
X163655500Y-103257113D01*
X163655500Y-103254907D01*
X163655384Y-103253334D01*
X163655497Y-103251021D01*
X163655500Y-103251000D01*
X163655500Y-102349499D01*
X163651100Y-102304822D01*
X163650500Y-102292612D01*
X163650500Y-102025324D01*
X163650499Y-102025323D01*
X163635966Y-101952260D01*
X163581250Y-101870369D01*
X163581250Y-101800000D01*
X163427190Y-101800000D01*
X163424676Y-101799500D01*
X163424674Y-101799500D01*
X163152821Y-101799500D01*
X163140611Y-101798900D01*
X163101003Y-101794999D01*
X163101001Y-101794999D01*
X162634333Y-101794999D01*
X162539045Y-101776045D01*
X162458263Y-101722069D01*
X162404287Y-101641287D01*
X162390118Y-101594578D01*
X162386035Y-101574052D01*
X162381250Y-101525473D01*
X162381250Y-101374526D01*
X162386034Y-101325951D01*
X162390269Y-101304659D01*
X162427448Y-101214899D01*
X162496146Y-101146200D01*
X162585902Y-101109020D01*
X162598362Y-101106541D01*
X162604697Y-101105282D01*
X162653262Y-101100500D01*
X163425699Y-101100500D01*
X163435872Y-101100000D01*
X164100500Y-101100000D01*
X164195788Y-101118954D01*
G37*
G04 #@! TD.AperFunction*
G04 #@! TA.AperFunction,Conductor*
G36*
X175004031Y-72000530D02*
G01*
X175095879Y-72012622D01*
X175113223Y-72014906D01*
X175144491Y-72023284D01*
X175234918Y-72060740D01*
X175262952Y-72076925D01*
X175340602Y-72136509D01*
X175363491Y-72159398D01*
X175423074Y-72237048D01*
X175439259Y-72265081D01*
X175476715Y-72355508D01*
X175485093Y-72386775D01*
X175499469Y-72495964D01*
X175500000Y-72504065D01*
X175500000Y-78495934D01*
X175499469Y-78504035D01*
X175485093Y-78613224D01*
X175476715Y-78644491D01*
X175439259Y-78734918D01*
X175423074Y-78762951D01*
X175363491Y-78840601D01*
X175340601Y-78863491D01*
X175262951Y-78923074D01*
X175234918Y-78939259D01*
X175144491Y-78976715D01*
X175113224Y-78985093D01*
X175024783Y-78996737D01*
X175004031Y-78999469D01*
X174995934Y-79000000D01*
X158004066Y-79000000D01*
X157995968Y-78999469D01*
X157972457Y-78996374D01*
X157886775Y-78985093D01*
X157855508Y-78976715D01*
X157765081Y-78939259D01*
X157737048Y-78923074D01*
X157659398Y-78863491D01*
X157636508Y-78840601D01*
X157576925Y-78762951D01*
X157560740Y-78734918D01*
X157523284Y-78644491D01*
X157514906Y-78613223D01*
X157500531Y-78504035D01*
X157500000Y-78495933D01*
X157500000Y-77500006D01*
X157500000Y-77500000D01*
X157500000Y-77499999D01*
X157500000Y-77000000D01*
X157000000Y-77000000D01*
X156999993Y-77000000D01*
X120504066Y-77000000D01*
X120495968Y-76999469D01*
X120472457Y-76996374D01*
X120386775Y-76985093D01*
X120355508Y-76976715D01*
X120265081Y-76939259D01*
X120237048Y-76923074D01*
X120159398Y-76863491D01*
X120136508Y-76840601D01*
X120076925Y-76762951D01*
X120060740Y-76734918D01*
X120023284Y-76644491D01*
X120014906Y-76613223D01*
X120000531Y-76504035D01*
X120000000Y-76495933D01*
X120000000Y-72504066D01*
X120000531Y-72495964D01*
X120014906Y-72386776D01*
X120023284Y-72355508D01*
X120060740Y-72265081D01*
X120076923Y-72237050D01*
X120136513Y-72159392D01*
X120159392Y-72136513D01*
X120237050Y-72076923D01*
X120265079Y-72060740D01*
X120355509Y-72023283D01*
X120386775Y-72014906D01*
X120495967Y-72000530D01*
X120504067Y-72000000D01*
X174995933Y-72000000D01*
X175004031Y-72000530D01*
G37*
G04 #@! TD.AperFunction*
G04 #@! TA.AperFunction,Conductor*
G36*
X201634640Y-65001526D02*
G01*
X201721482Y-65015281D01*
X201758376Y-65027268D01*
X201827922Y-65062703D01*
X201859307Y-65085507D01*
X201914492Y-65140692D01*
X201937296Y-65172078D01*
X201972730Y-65241621D01*
X201984718Y-65278517D01*
X201998473Y-65365358D01*
X202000000Y-65384757D01*
X202000000Y-67000000D01*
X199839187Y-67000000D01*
X199839141Y-66999954D01*
X199652734Y-66869432D01*
X199652732Y-66869431D01*
X199446497Y-66773261D01*
X199446488Y-66773258D01*
X199226697Y-66714366D01*
X199226693Y-66714365D01*
X199226692Y-66714365D01*
X199226691Y-66714364D01*
X199226686Y-66714364D01*
X199000002Y-66694532D01*
X198999998Y-66694532D01*
X198773313Y-66714364D01*
X198773302Y-66714366D01*
X198553511Y-66773258D01*
X198553502Y-66773261D01*
X198347267Y-66869431D01*
X198347265Y-66869432D01*
X198192820Y-66977575D01*
X198126613Y-66999902D01*
X198121697Y-67000000D01*
X197878303Y-67000000D01*
X197811264Y-66980315D01*
X197807180Y-66977575D01*
X197652734Y-66869432D01*
X197652732Y-66869431D01*
X197446497Y-66773261D01*
X197446488Y-66773258D01*
X197226697Y-66714366D01*
X197226693Y-66714365D01*
X197226692Y-66714365D01*
X197226691Y-66714364D01*
X197226686Y-66714364D01*
X197000002Y-66694532D01*
X196999998Y-66694532D01*
X196773313Y-66714364D01*
X196773302Y-66714366D01*
X196553511Y-66773258D01*
X196553502Y-66773261D01*
X196347267Y-66869431D01*
X196347265Y-66869432D01*
X196192820Y-66977575D01*
X196126613Y-66999902D01*
X196121697Y-67000000D01*
X195878303Y-67000000D01*
X195811264Y-66980315D01*
X195807180Y-66977575D01*
X195652734Y-66869432D01*
X195652732Y-66869431D01*
X195446497Y-66773261D01*
X195446488Y-66773258D01*
X195226697Y-66714366D01*
X195226693Y-66714365D01*
X195226692Y-66714365D01*
X195226691Y-66714364D01*
X195226686Y-66714364D01*
X195000002Y-66694532D01*
X194999998Y-66694532D01*
X194773313Y-66714364D01*
X194773302Y-66714366D01*
X194553511Y-66773258D01*
X194553502Y-66773261D01*
X194347267Y-66869431D01*
X194347265Y-66869432D01*
X194192820Y-66977575D01*
X194126613Y-66999902D01*
X194121697Y-67000000D01*
X193878303Y-67000000D01*
X193811264Y-66980315D01*
X193807180Y-66977575D01*
X193652734Y-66869432D01*
X193652732Y-66869431D01*
X193446497Y-66773261D01*
X193446488Y-66773258D01*
X193226697Y-66714366D01*
X193226693Y-66714365D01*
X193226692Y-66714365D01*
X193226691Y-66714364D01*
X193226686Y-66714364D01*
X193000002Y-66694532D01*
X192999998Y-66694532D01*
X192773313Y-66714364D01*
X192773302Y-66714366D01*
X192553511Y-66773258D01*
X192553502Y-66773261D01*
X192347267Y-66869431D01*
X192347265Y-66869432D01*
X192192820Y-66977575D01*
X192126613Y-66999902D01*
X192121697Y-67000000D01*
X191878303Y-67000000D01*
X191811264Y-66980315D01*
X191807180Y-66977575D01*
X191652734Y-66869432D01*
X191652732Y-66869431D01*
X191446497Y-66773261D01*
X191446488Y-66773258D01*
X191226697Y-66714366D01*
X191226693Y-66714365D01*
X191226692Y-66714365D01*
X191226691Y-66714364D01*
X191226686Y-66714364D01*
X191000002Y-66694532D01*
X190999998Y-66694532D01*
X190773313Y-66714364D01*
X190773302Y-66714366D01*
X190553511Y-66773258D01*
X190553502Y-66773261D01*
X190347267Y-66869431D01*
X190347265Y-66869432D01*
X190192820Y-66977575D01*
X190126613Y-66999902D01*
X190121697Y-67000000D01*
X189878303Y-67000000D01*
X189811264Y-66980315D01*
X189807180Y-66977575D01*
X189652734Y-66869432D01*
X189652732Y-66869431D01*
X189446497Y-66773261D01*
X189446488Y-66773258D01*
X189226697Y-66714366D01*
X189226693Y-66714365D01*
X189226692Y-66714365D01*
X189226691Y-66714364D01*
X189226686Y-66714364D01*
X189000002Y-66694532D01*
X188999998Y-66694532D01*
X188773313Y-66714364D01*
X188773302Y-66714366D01*
X188553511Y-66773258D01*
X188553502Y-66773261D01*
X188347267Y-66869431D01*
X188347265Y-66869432D01*
X188192820Y-66977575D01*
X188126613Y-66999902D01*
X188121697Y-67000000D01*
X187878303Y-67000000D01*
X187811264Y-66980315D01*
X187807180Y-66977575D01*
X187652734Y-66869432D01*
X187652732Y-66869431D01*
X187446497Y-66773261D01*
X187446488Y-66773258D01*
X187226697Y-66714366D01*
X187226693Y-66714365D01*
X187226692Y-66714365D01*
X187226691Y-66714364D01*
X187226686Y-66714364D01*
X187000002Y-66694532D01*
X186999998Y-66694532D01*
X186773313Y-66714364D01*
X186773302Y-66714366D01*
X186553511Y-66773258D01*
X186553502Y-66773261D01*
X186347267Y-66869431D01*
X186347265Y-66869432D01*
X186164213Y-66997606D01*
X186159079Y-67000000D01*
X183839187Y-67000000D01*
X183839141Y-66999954D01*
X183652734Y-66869432D01*
X183652732Y-66869431D01*
X183446497Y-66773261D01*
X183446488Y-66773258D01*
X183226697Y-66714366D01*
X183226693Y-66714365D01*
X183226692Y-66714365D01*
X183226691Y-66714364D01*
X183226686Y-66714364D01*
X183000002Y-66694532D01*
X182999998Y-66694532D01*
X182773313Y-66714364D01*
X182773302Y-66714366D01*
X182553511Y-66773258D01*
X182553502Y-66773261D01*
X182347267Y-66869431D01*
X182347265Y-66869432D01*
X182192820Y-66977575D01*
X182126613Y-66999902D01*
X182121697Y-67000000D01*
X181878303Y-67000000D01*
X181811264Y-66980315D01*
X181807180Y-66977575D01*
X181652734Y-66869432D01*
X181652732Y-66869431D01*
X181446497Y-66773261D01*
X181446488Y-66773258D01*
X181226697Y-66714366D01*
X181226693Y-66714365D01*
X181226692Y-66714365D01*
X181226691Y-66714364D01*
X181226686Y-66714364D01*
X181000002Y-66694532D01*
X180999998Y-66694532D01*
X180773313Y-66714364D01*
X180773302Y-66714366D01*
X180553511Y-66773258D01*
X180553502Y-66773261D01*
X180347267Y-66869431D01*
X180347265Y-66869432D01*
X180192820Y-66977575D01*
X180126613Y-66999902D01*
X180121697Y-67000000D01*
X179878303Y-67000000D01*
X179811264Y-66980315D01*
X179807180Y-66977575D01*
X179652734Y-66869432D01*
X179652732Y-66869431D01*
X179446497Y-66773261D01*
X179446488Y-66773258D01*
X179226697Y-66714366D01*
X179226693Y-66714365D01*
X179226692Y-66714365D01*
X179226691Y-66714364D01*
X179226686Y-66714364D01*
X179000002Y-66694532D01*
X178999998Y-66694532D01*
X178773313Y-66714364D01*
X178773302Y-66714366D01*
X178553511Y-66773258D01*
X178553502Y-66773261D01*
X178347267Y-66869431D01*
X178347265Y-66869432D01*
X178192820Y-66977575D01*
X178126613Y-66999902D01*
X178121697Y-67000000D01*
X177878303Y-67000000D01*
X177811264Y-66980315D01*
X177807180Y-66977575D01*
X177652734Y-66869432D01*
X177652732Y-66869431D01*
X177446497Y-66773261D01*
X177446488Y-66773258D01*
X177226697Y-66714366D01*
X177226693Y-66714365D01*
X177226692Y-66714365D01*
X177226691Y-66714364D01*
X177226686Y-66714364D01*
X177000002Y-66694532D01*
X176999998Y-66694532D01*
X176773313Y-66714364D01*
X176773302Y-66714366D01*
X176553511Y-66773258D01*
X176553502Y-66773261D01*
X176347267Y-66869431D01*
X176347265Y-66869432D01*
X176192820Y-66977575D01*
X176126613Y-66999902D01*
X176121697Y-67000000D01*
X175878303Y-67000000D01*
X175811264Y-66980315D01*
X175807180Y-66977575D01*
X175652734Y-66869432D01*
X175652732Y-66869431D01*
X175446497Y-66773261D01*
X175446488Y-66773258D01*
X175226697Y-66714366D01*
X175226693Y-66714365D01*
X175226692Y-66714365D01*
X175226691Y-66714364D01*
X175226686Y-66714364D01*
X175000002Y-66694532D01*
X174999998Y-66694532D01*
X174773313Y-66714364D01*
X174773302Y-66714366D01*
X174553511Y-66773258D01*
X174553502Y-66773261D01*
X174347267Y-66869431D01*
X174347265Y-66869432D01*
X174192820Y-66977575D01*
X174126613Y-66999902D01*
X174121697Y-67000000D01*
X173878303Y-67000000D01*
X173811264Y-66980315D01*
X173807180Y-66977575D01*
X173652734Y-66869432D01*
X173652732Y-66869431D01*
X173446497Y-66773261D01*
X173446488Y-66773258D01*
X173226697Y-66714366D01*
X173226693Y-66714365D01*
X173226692Y-66714365D01*
X173226691Y-66714364D01*
X173226686Y-66714364D01*
X173000002Y-66694532D01*
X172999998Y-66694532D01*
X172773313Y-66714364D01*
X172773302Y-66714366D01*
X172553511Y-66773258D01*
X172553502Y-66773261D01*
X172347267Y-66869431D01*
X172347265Y-66869432D01*
X172192820Y-66977575D01*
X172126613Y-66999902D01*
X172121697Y-67000000D01*
X171878303Y-67000000D01*
X171811264Y-66980315D01*
X171807180Y-66977575D01*
X171652734Y-66869432D01*
X171652732Y-66869431D01*
X171446497Y-66773261D01*
X171446488Y-66773258D01*
X171226697Y-66714366D01*
X171226693Y-66714365D01*
X171226692Y-66714365D01*
X171226691Y-66714364D01*
X171226686Y-66714364D01*
X171000002Y-66694532D01*
X170999998Y-66694532D01*
X170773313Y-66714364D01*
X170773302Y-66714366D01*
X170553511Y-66773258D01*
X170553502Y-66773261D01*
X170347267Y-66869431D01*
X170347265Y-66869432D01*
X170192820Y-66977575D01*
X170126613Y-66999902D01*
X170121697Y-67000000D01*
X169878303Y-67000000D01*
X169811264Y-66980315D01*
X169807180Y-66977575D01*
X169652734Y-66869432D01*
X169652732Y-66869431D01*
X169446497Y-66773261D01*
X169446488Y-66773258D01*
X169226697Y-66714366D01*
X169226693Y-66714365D01*
X169226692Y-66714365D01*
X169226691Y-66714364D01*
X169226686Y-66714364D01*
X169000002Y-66694532D01*
X168999998Y-66694532D01*
X168773313Y-66714364D01*
X168773302Y-66714366D01*
X168553511Y-66773258D01*
X168553502Y-66773261D01*
X168347267Y-66869431D01*
X168347265Y-66869432D01*
X168160858Y-66999954D01*
X168160812Y-67000000D01*
X168000000Y-67000000D01*
X168000000Y-67160812D01*
X167999954Y-67160858D01*
X167869432Y-67347265D01*
X167869431Y-67347267D01*
X167773261Y-67553502D01*
X167773258Y-67553511D01*
X167714366Y-67773302D01*
X167714364Y-67773313D01*
X167694532Y-67999998D01*
X167694532Y-68000001D01*
X167714364Y-68226686D01*
X167714366Y-68226697D01*
X167773258Y-68446488D01*
X167773261Y-68446497D01*
X167869431Y-68652732D01*
X167869432Y-68652734D01*
X167977575Y-68807179D01*
X167999902Y-68873385D01*
X168000000Y-68878302D01*
X168000000Y-69745934D01*
X167999469Y-69754035D01*
X167985093Y-69863224D01*
X167976715Y-69894491D01*
X167939259Y-69984918D01*
X167923074Y-70012951D01*
X167863491Y-70090601D01*
X167840601Y-70113491D01*
X167762951Y-70173074D01*
X167734918Y-70189259D01*
X167644491Y-70226715D01*
X167613224Y-70235093D01*
X167524783Y-70246737D01*
X167504031Y-70249469D01*
X167495934Y-70250000D01*
X118500000Y-70250000D01*
X118500000Y-70750000D01*
X118500000Y-70750006D01*
X118500000Y-71745934D01*
X118499469Y-71754035D01*
X118485093Y-71863224D01*
X118476715Y-71894491D01*
X118439259Y-71984918D01*
X118423074Y-72012951D01*
X118363491Y-72090601D01*
X118340601Y-72113491D01*
X118262951Y-72173074D01*
X118234918Y-72189259D01*
X118144491Y-72226715D01*
X118113224Y-72235093D01*
X118024783Y-72246737D01*
X118004031Y-72249469D01*
X117995934Y-72250000D01*
X110004066Y-72250000D01*
X109995968Y-72249469D01*
X109972457Y-72246374D01*
X109886775Y-72235093D01*
X109855508Y-72226715D01*
X109765081Y-72189259D01*
X109737048Y-72173074D01*
X109659398Y-72113491D01*
X109636508Y-72090601D01*
X109576925Y-72012951D01*
X109560740Y-71984918D01*
X109523284Y-71894491D01*
X109514906Y-71863223D01*
X109500531Y-71754035D01*
X109500000Y-71745933D01*
X109500000Y-70000006D01*
X109500000Y-70000000D01*
X109499999Y-69999999D01*
X109500000Y-69500000D01*
X109000000Y-69500000D01*
X108999993Y-69500000D01*
X108754066Y-69500000D01*
X108745968Y-69499469D01*
X108722457Y-69496374D01*
X108636775Y-69485093D01*
X108605508Y-69476715D01*
X108515081Y-69439259D01*
X108487048Y-69423074D01*
X108409398Y-69363491D01*
X108386508Y-69340601D01*
X108359549Y-69305468D01*
X108326925Y-69262951D01*
X108310740Y-69234918D01*
X108273284Y-69144491D01*
X108264906Y-69113223D01*
X108250531Y-69004035D01*
X108250000Y-68995933D01*
X108250000Y-68574456D01*
X108254171Y-68542567D01*
X108259991Y-68520696D01*
X108259991Y-68520697D01*
X108264905Y-68498129D01*
X108264905Y-68498128D01*
X108269134Y-68473310D01*
X108269135Y-68473307D01*
X108271965Y-68450454D01*
X108271965Y-68450446D01*
X108271967Y-68450435D01*
X108296438Y-68136048D01*
X108303750Y-68042116D01*
X108304166Y-68031496D01*
X108303889Y-68023212D01*
X108304091Y-68015733D01*
X108304180Y-68014706D01*
X108305468Y-68000001D01*
X109694532Y-68000001D01*
X109714364Y-68226686D01*
X109714366Y-68226697D01*
X109773258Y-68446488D01*
X109773261Y-68446497D01*
X109869431Y-68652732D01*
X109869432Y-68652734D01*
X109999954Y-68839141D01*
X110160858Y-69000045D01*
X110207693Y-69032839D01*
X110347266Y-69130568D01*
X110553504Y-69226739D01*
X110553509Y-69226740D01*
X110553511Y-69226741D01*
X110606415Y-69240916D01*
X110773308Y-69285635D01*
X110935230Y-69299801D01*
X110999998Y-69305468D01*
X111000000Y-69305468D01*
X111000002Y-69305468D01*
X111056672Y-69300509D01*
X111226692Y-69285635D01*
X111446496Y-69226739D01*
X111652734Y-69130568D01*
X111839139Y-69000047D01*
X112000047Y-68839139D01*
X112130568Y-68652734D01*
X112226739Y-68446496D01*
X112285635Y-68226692D01*
X112305468Y-68000000D01*
X112285635Y-67773308D01*
X112226739Y-67553504D01*
X112130568Y-67347266D01*
X112000047Y-67160861D01*
X112000045Y-67160858D01*
X111839141Y-66999954D01*
X111652734Y-66869432D01*
X111652732Y-66869431D01*
X111446497Y-66773261D01*
X111446488Y-66773258D01*
X111226697Y-66714366D01*
X111226693Y-66714365D01*
X111226692Y-66714365D01*
X111226691Y-66714364D01*
X111226686Y-66714364D01*
X111000002Y-66694532D01*
X110999998Y-66694532D01*
X110773313Y-66714364D01*
X110773302Y-66714366D01*
X110553511Y-66773258D01*
X110553502Y-66773261D01*
X110347267Y-66869431D01*
X110347265Y-66869432D01*
X110160858Y-66999954D01*
X109999954Y-67160858D01*
X109869432Y-67347265D01*
X109869431Y-67347267D01*
X109773261Y-67553502D01*
X109773258Y-67553511D01*
X109714366Y-67773302D01*
X109714364Y-67773313D01*
X109694532Y-67999998D01*
X109694532Y-68000001D01*
X108305468Y-68000001D01*
X108305468Y-68000000D01*
X108285635Y-67773308D01*
X108254225Y-67656083D01*
X108250000Y-67623990D01*
X108250000Y-65504066D01*
X108250531Y-65495964D01*
X108264906Y-65386776D01*
X108273284Y-65355508D01*
X108310740Y-65265081D01*
X108326923Y-65237050D01*
X108386513Y-65159392D01*
X108409392Y-65136513D01*
X108487050Y-65076923D01*
X108515079Y-65060740D01*
X108605509Y-65023283D01*
X108636775Y-65014906D01*
X108745967Y-65000530D01*
X108754067Y-65000000D01*
X201615243Y-65000000D01*
X201634640Y-65001526D01*
G37*
G04 #@! TD.AperFunction*
G04 #@! TA.AperFunction,Conductor*
G36*
X166996288Y-84818954D02*
G01*
X167077070Y-84872930D01*
X167131046Y-84953712D01*
X167150000Y-85049000D01*
X167150000Y-86301000D01*
X167131046Y-86396288D01*
X167077070Y-86477070D01*
X166996288Y-86531046D01*
X166901000Y-86550000D01*
X164650000Y-86550000D01*
X164650000Y-86550001D01*
X164650000Y-86751000D01*
X164631046Y-86846288D01*
X164577070Y-86927070D01*
X164496288Y-86981046D01*
X164401000Y-87000000D01*
X164396107Y-87000000D01*
X164347531Y-86995216D01*
X164310595Y-86987869D01*
X164251003Y-86982000D01*
X164251000Y-86982000D01*
X164149806Y-86982000D01*
X164054518Y-86963046D01*
X164042256Y-86956401D01*
X164022766Y-86947795D01*
X164022765Y-86947794D01*
X163919991Y-86902415D01*
X163919990Y-86902414D01*
X163919989Y-86902414D01*
X163894866Y-86899500D01*
X163105144Y-86899500D01*
X163105130Y-86899501D01*
X163080006Y-86902415D01*
X162977237Y-86947792D01*
X162964634Y-86956426D01*
X162875309Y-86994639D01*
X162853038Y-86996962D01*
X162850001Y-87000000D01*
X162850000Y-87000000D01*
X162850000Y-87000001D01*
X162850000Y-87142889D01*
X162849792Y-87150075D01*
X162849500Y-87155129D01*
X162849500Y-87155134D01*
X162849500Y-87155135D01*
X162849500Y-87659075D01*
X162849501Y-87951000D01*
X162830547Y-88046288D01*
X162776571Y-88127069D01*
X162695789Y-88181046D01*
X162600501Y-88200000D01*
X162499499Y-88200000D01*
X162404211Y-88181046D01*
X162323429Y-88127070D01*
X162269453Y-88046288D01*
X162250499Y-87951000D01*
X162250499Y-87950999D01*
X162250500Y-87719121D01*
X162250500Y-87652433D01*
X162250499Y-87652411D01*
X162250499Y-87155134D01*
X162250207Y-87150078D01*
X162250000Y-87142898D01*
X162250000Y-86549499D01*
X162268954Y-86454211D01*
X162322930Y-86373429D01*
X162403712Y-86319453D01*
X162498997Y-86300499D01*
X162944864Y-86300499D01*
X162969991Y-86297585D01*
X162969991Y-86297584D01*
X162988599Y-86295427D01*
X162988940Y-86298370D01*
X163056521Y-86293672D01*
X163070856Y-86296523D01*
X163080008Y-86297584D01*
X163080009Y-86297585D01*
X163105135Y-86300500D01*
X163894864Y-86300499D01*
X163919991Y-86297585D01*
X164022765Y-86252206D01*
X164102206Y-86172765D01*
X164147585Y-86069991D01*
X164150500Y-86044865D01*
X164150499Y-85053592D01*
X164153414Y-85015606D01*
X164154123Y-85011013D01*
X164187392Y-84919732D01*
X164253060Y-84848131D01*
X164341131Y-84807110D01*
X164400208Y-84800000D01*
X166901000Y-84800000D01*
X166996288Y-84818954D01*
G37*
G04 #@! TD.AperFunction*
G04 #@! TA.AperFunction,Conductor*
G36*
X220506089Y-65000600D02*
G01*
X220575700Y-65007455D01*
X220670689Y-65016811D01*
X220718555Y-65026333D01*
X220859217Y-65069002D01*
X220904307Y-65087678D01*
X221031718Y-65155780D01*
X221033939Y-65156968D01*
X221074524Y-65184086D01*
X221188148Y-65277334D01*
X221222665Y-65311851D01*
X221315913Y-65425475D01*
X221343031Y-65466060D01*
X221412319Y-65595688D01*
X221430999Y-65640786D01*
X221473665Y-65781439D01*
X221483188Y-65829312D01*
X221499400Y-65993909D01*
X221500000Y-66006120D01*
X221500000Y-70750000D01*
X225243879Y-70750000D01*
X225256089Y-70750600D01*
X225325700Y-70757455D01*
X225420689Y-70766811D01*
X225468555Y-70776333D01*
X225609217Y-70819002D01*
X225654307Y-70837678D01*
X225694596Y-70859213D01*
X225783939Y-70906968D01*
X225824524Y-70934086D01*
X225938148Y-71027334D01*
X225972665Y-71061851D01*
X226065913Y-71175475D01*
X226093031Y-71216060D01*
X226162319Y-71345688D01*
X226180999Y-71390786D01*
X226223665Y-71531439D01*
X226233188Y-71579312D01*
X226249400Y-71743909D01*
X226250000Y-71756120D01*
X226250000Y-109243879D01*
X226249400Y-109256090D01*
X226233188Y-109420687D01*
X226223665Y-109468560D01*
X226180999Y-109609213D01*
X226162319Y-109654311D01*
X226093031Y-109783939D01*
X226065913Y-109824524D01*
X225972665Y-109938148D01*
X225938148Y-109972665D01*
X225824524Y-110065913D01*
X225783939Y-110093031D01*
X225654311Y-110162319D01*
X225609213Y-110180999D01*
X225468560Y-110223665D01*
X225420687Y-110233188D01*
X225256090Y-110249400D01*
X225243879Y-110250000D01*
X221500000Y-110250000D01*
X221500000Y-111249999D01*
X221500000Y-114993879D01*
X221499400Y-115006090D01*
X221483188Y-115170687D01*
X221473665Y-115218560D01*
X221430999Y-115359213D01*
X221412319Y-115404311D01*
X221343031Y-115533939D01*
X221315913Y-115574524D01*
X221222665Y-115688148D01*
X221188148Y-115722665D01*
X221074524Y-115815913D01*
X221033939Y-115843031D01*
X220904311Y-115912319D01*
X220859213Y-115930999D01*
X220718560Y-115973665D01*
X220670687Y-115983188D01*
X220506090Y-115999400D01*
X220493879Y-116000000D01*
X157497501Y-116000000D01*
X157485366Y-115999407D01*
X157412156Y-115992236D01*
X157321657Y-115983372D01*
X157274035Y-115973953D01*
X157134074Y-115931743D01*
X157089184Y-115913262D01*
X156960076Y-115844699D01*
X156919626Y-115817859D01*
X156806275Y-115725548D01*
X156771800Y-115691370D01*
X156769130Y-115688148D01*
X156678513Y-115578817D01*
X156651328Y-115538602D01*
X156581652Y-115410085D01*
X156562787Y-115365362D01*
X156519372Y-115225765D01*
X156509545Y-115178240D01*
X156501833Y-115105934D01*
X156492100Y-115014669D01*
X156491402Y-115002532D01*
X156455753Y-110867311D01*
X156408747Y-105414748D01*
X156409247Y-105402508D01*
X156424210Y-105236870D01*
X156433421Y-105188667D01*
X156475330Y-105046945D01*
X156493819Y-105001480D01*
X156512483Y-104966060D01*
X156562713Y-104870730D01*
X156589759Y-104829779D01*
X156682960Y-104715083D01*
X156717505Y-104680238D01*
X156831410Y-104586037D01*
X156872113Y-104558651D01*
X157002271Y-104488627D01*
X157047565Y-104469752D01*
X157188933Y-104426619D01*
X157237039Y-104416996D01*
X157402541Y-104400605D01*
X157414814Y-104400000D01*
X161899998Y-104400000D01*
X161900000Y-104400000D01*
X162100000Y-104400000D01*
X162100000Y-104200221D01*
X162137097Y-104110662D01*
X162205796Y-104041964D01*
X162295555Y-104004784D01*
X162344132Y-104000000D01*
X162793007Y-104000000D01*
X162806942Y-104000782D01*
X162927892Y-104014409D01*
X162982239Y-104026814D01*
X163077243Y-104060057D01*
X163127472Y-104084247D01*
X163212686Y-104137790D01*
X163256278Y-104172553D01*
X163327446Y-104243721D01*
X163362211Y-104287316D01*
X163415751Y-104372525D01*
X163439943Y-104422759D01*
X163473184Y-104517755D01*
X163485591Y-104572116D01*
X163499217Y-104693057D01*
X163499999Y-104706991D01*
X163500000Y-107000000D01*
X167999997Y-107000000D01*
X168000000Y-107000000D01*
X169000000Y-107000000D01*
X169000000Y-105506120D01*
X169000600Y-105493910D01*
X169016811Y-105329313D01*
X169016812Y-105329312D01*
X169016811Y-105329308D01*
X169026332Y-105281446D01*
X169069003Y-105140778D01*
X169087676Y-105095695D01*
X169156970Y-104966056D01*
X169184086Y-104925475D01*
X169229011Y-104870733D01*
X169277337Y-104811847D01*
X169311847Y-104777337D01*
X169425474Y-104684086D01*
X169466056Y-104656970D01*
X169595695Y-104587676D01*
X169640778Y-104569003D01*
X169781446Y-104526332D01*
X169829308Y-104516811D01*
X169933424Y-104506557D01*
X169993911Y-104500600D01*
X170006122Y-104500000D01*
X210993879Y-104500000D01*
X211006089Y-104500600D01*
X211075700Y-104507455D01*
X211170689Y-104516811D01*
X211218555Y-104526333D01*
X211359217Y-104569002D01*
X211404307Y-104587678D01*
X211531718Y-104655780D01*
X211533939Y-104656968D01*
X211574524Y-104684086D01*
X211688148Y-104777334D01*
X211722665Y-104811851D01*
X211815913Y-104925475D01*
X211843031Y-104966060D01*
X211912319Y-105095688D01*
X211930999Y-105140786D01*
X211973665Y-105281439D01*
X211983188Y-105329312D01*
X211999400Y-105493909D01*
X212000000Y-105506120D01*
X212000000Y-107000000D01*
X216999997Y-107000000D01*
X217000000Y-107000000D01*
X218000000Y-107000000D01*
X218000000Y-81000000D01*
X217000000Y-81000000D01*
X212506121Y-81000000D01*
X212493910Y-80999400D01*
X212329312Y-80983188D01*
X212281439Y-80973665D01*
X212140786Y-80930999D01*
X212095688Y-80912319D01*
X211966060Y-80843031D01*
X211925475Y-80815913D01*
X211811851Y-80722665D01*
X211777334Y-80688148D01*
X211684086Y-80574524D01*
X211656968Y-80533939D01*
X211587680Y-80404311D01*
X211569002Y-80359217D01*
X211526333Y-80218555D01*
X211516811Y-80170686D01*
X211500600Y-80006089D01*
X211500000Y-79993879D01*
X211500000Y-72500003D01*
X211500000Y-72500000D01*
X211499999Y-72500000D01*
X211500000Y-71500000D01*
X210500000Y-71500000D01*
X209506121Y-71500000D01*
X209493910Y-71499400D01*
X209329312Y-71483188D01*
X209281439Y-71473665D01*
X209140786Y-71430999D01*
X209095688Y-71412319D01*
X208966060Y-71343031D01*
X208925475Y-71315913D01*
X208811851Y-71222665D01*
X208777334Y-71188148D01*
X208684086Y-71074524D01*
X208656968Y-71033939D01*
X208603595Y-70934086D01*
X208587678Y-70904307D01*
X208569002Y-70859217D01*
X208526333Y-70718555D01*
X208516811Y-70670686D01*
X208500600Y-70506089D01*
X208500000Y-70493879D01*
X208500000Y-66006120D01*
X208500600Y-65993910D01*
X208516811Y-65829313D01*
X208516812Y-65829312D01*
X208516811Y-65829308D01*
X208526332Y-65781446D01*
X208569003Y-65640778D01*
X208587676Y-65595695D01*
X208656970Y-65466056D01*
X208684086Y-65425475D01*
X208692447Y-65415286D01*
X208777337Y-65311847D01*
X208811847Y-65277337D01*
X208925474Y-65184086D01*
X208966056Y-65156970D01*
X209095695Y-65087676D01*
X209140778Y-65069003D01*
X209281446Y-65026332D01*
X209329308Y-65016811D01*
X209433424Y-65006557D01*
X209493911Y-65000600D01*
X209506122Y-65000000D01*
X220493879Y-65000000D01*
X220506089Y-65000600D01*
G37*
G04 #@! TD.AperFunction*
G04 #@! TA.AperFunction,Conductor*
G36*
X101004031Y-93250530D02*
G01*
X101095879Y-93262622D01*
X101113223Y-93264906D01*
X101144491Y-93273284D01*
X101234918Y-93310740D01*
X101262952Y-93326925D01*
X101340602Y-93386509D01*
X101363491Y-93409398D01*
X101423074Y-93487048D01*
X101439259Y-93515081D01*
X101476715Y-93605508D01*
X101485093Y-93636775D01*
X101497840Y-93733593D01*
X101500000Y-93750000D01*
X101500000Y-94250000D01*
X103745933Y-94250000D01*
X103754031Y-94250530D01*
X103845879Y-94262622D01*
X103863223Y-94264906D01*
X103894491Y-94273284D01*
X103984918Y-94310740D01*
X104012952Y-94326925D01*
X104090602Y-94386509D01*
X104113491Y-94409398D01*
X104173074Y-94487048D01*
X104189259Y-94515081D01*
X104226715Y-94605508D01*
X104235093Y-94636775D01*
X104249469Y-94745964D01*
X104250000Y-94754065D01*
X104250000Y-96245934D01*
X104249469Y-96254035D01*
X104235093Y-96363224D01*
X104226715Y-96394491D01*
X104189259Y-96484918D01*
X104173074Y-96512951D01*
X104113491Y-96590601D01*
X104090601Y-96613491D01*
X104012951Y-96673074D01*
X103984918Y-96689259D01*
X103894491Y-96726715D01*
X103863224Y-96735093D01*
X103774783Y-96746737D01*
X103754031Y-96749469D01*
X103745934Y-96750000D01*
X99254066Y-96750000D01*
X99245968Y-96749469D01*
X99222457Y-96746374D01*
X99136775Y-96735093D01*
X99105508Y-96726715D01*
X99015081Y-96689259D01*
X98987048Y-96673074D01*
X98909398Y-96613491D01*
X98886508Y-96590601D01*
X98826925Y-96512951D01*
X98810740Y-96484918D01*
X98773284Y-96394491D01*
X98764906Y-96363223D01*
X98750531Y-96254035D01*
X98750000Y-96245933D01*
X98750000Y-93754066D01*
X98750531Y-93745964D01*
X98764906Y-93636776D01*
X98773284Y-93605508D01*
X98810740Y-93515081D01*
X98826923Y-93487050D01*
X98886513Y-93409392D01*
X98909392Y-93386513D01*
X98987050Y-93326923D01*
X99015079Y-93310740D01*
X99105509Y-93273283D01*
X99136775Y-93264906D01*
X99245967Y-93250530D01*
X99254067Y-93250000D01*
X100995933Y-93250000D01*
X101004031Y-93250530D01*
G37*
G04 #@! TD.AperFunction*
G04 #@! TA.AperFunction,Conductor*
G36*
X113504031Y-100000530D02*
G01*
X113595879Y-100012622D01*
X113613223Y-100014906D01*
X113644491Y-100023284D01*
X113734918Y-100060740D01*
X113762952Y-100076925D01*
X113840602Y-100136509D01*
X113863491Y-100159398D01*
X113923074Y-100237048D01*
X113939259Y-100265081D01*
X113976715Y-100355508D01*
X113985093Y-100386775D01*
X113999469Y-100495964D01*
X114000000Y-100504065D01*
X114000000Y-101500000D01*
X121245933Y-101500000D01*
X121254031Y-101500530D01*
X121345879Y-101512622D01*
X121363223Y-101514906D01*
X121394491Y-101523284D01*
X121484918Y-101560740D01*
X121512952Y-101576925D01*
X121590602Y-101636509D01*
X121613491Y-101659398D01*
X121673074Y-101737048D01*
X121689259Y-101765081D01*
X121726715Y-101855508D01*
X121735093Y-101886775D01*
X121749469Y-101995964D01*
X121750000Y-102004064D01*
X121750000Y-102750000D01*
X125995933Y-102750000D01*
X126004031Y-102750530D01*
X126095879Y-102762622D01*
X126113223Y-102764906D01*
X126144491Y-102773284D01*
X126234918Y-102810740D01*
X126262952Y-102826925D01*
X126340602Y-102886509D01*
X126363491Y-102909398D01*
X126423074Y-102987048D01*
X126439259Y-103015081D01*
X126476715Y-103105508D01*
X126485093Y-103136775D01*
X126499469Y-103245964D01*
X126500000Y-103254065D01*
X126500000Y-107995934D01*
X126499469Y-108004035D01*
X126485093Y-108113224D01*
X126476715Y-108144491D01*
X126439259Y-108234918D01*
X126423074Y-108262951D01*
X126363491Y-108340601D01*
X126340601Y-108363491D01*
X126262951Y-108423074D01*
X126234918Y-108439259D01*
X126144491Y-108476715D01*
X126113224Y-108485093D01*
X126024783Y-108496737D01*
X126004031Y-108499469D01*
X125995934Y-108500000D01*
X110711173Y-108500000D01*
X110703075Y-108499469D01*
X110679564Y-108496374D01*
X110593882Y-108485093D01*
X110562616Y-108476715D01*
X110472191Y-108439260D01*
X110444157Y-108423075D01*
X110356775Y-108356025D01*
X110350679Y-108350679D01*
X107649319Y-105649319D01*
X107643974Y-105643224D01*
X107576924Y-105555842D01*
X107560739Y-105527808D01*
X107523284Y-105437383D01*
X107514906Y-105406116D01*
X107500531Y-105296928D01*
X107500000Y-105288826D01*
X107500000Y-100504066D01*
X107500531Y-100495964D01*
X107514906Y-100386776D01*
X107523284Y-100355508D01*
X107560740Y-100265081D01*
X107576923Y-100237050D01*
X107636513Y-100159392D01*
X107659392Y-100136513D01*
X107737050Y-100076923D01*
X107765079Y-100060740D01*
X107855509Y-100023283D01*
X107886775Y-100014906D01*
X107995967Y-100000530D01*
X108004067Y-100000000D01*
X113495933Y-100000000D01*
X113504031Y-100000530D01*
G37*
G04 #@! TD.AperFunction*
G04 #@! TA.AperFunction,Conductor*
G36*
X185750000Y-67500006D02*
G01*
X185750000Y-67623990D01*
X185745775Y-67656083D01*
X185714366Y-67773302D01*
X185714364Y-67773313D01*
X185699460Y-67943670D01*
X185694532Y-68000000D01*
X185714365Y-68226692D01*
X185745775Y-68343918D01*
X185750000Y-68376008D01*
X185750000Y-79000000D01*
X185899958Y-79147017D01*
X185899960Y-79147020D01*
X185899963Y-79147023D01*
X185899964Y-79147024D01*
X186770009Y-80000009D01*
X187658001Y-80870590D01*
X187721673Y-80933013D01*
X198500000Y-91500000D01*
X215995933Y-91500000D01*
X216004031Y-91500530D01*
X216095879Y-91512622D01*
X216113223Y-91514906D01*
X216144491Y-91523284D01*
X216234918Y-91560740D01*
X216262952Y-91576925D01*
X216340602Y-91636509D01*
X216363491Y-91659398D01*
X216423074Y-91737048D01*
X216439259Y-91765081D01*
X216476715Y-91855508D01*
X216485093Y-91886775D01*
X216499469Y-91995964D01*
X216500000Y-92004065D01*
X216500000Y-95495934D01*
X216499469Y-95504035D01*
X216485093Y-95613224D01*
X216476715Y-95644491D01*
X216439259Y-95734918D01*
X216423074Y-95762951D01*
X216363491Y-95840601D01*
X216340601Y-95863491D01*
X216262951Y-95923074D01*
X216234918Y-95939259D01*
X216144491Y-95976715D01*
X216113224Y-95985093D01*
X216024783Y-95996737D01*
X216004031Y-95999469D01*
X215995934Y-96000000D01*
X212000000Y-96000000D01*
X212000000Y-99750000D01*
X215995933Y-99750000D01*
X216004031Y-99750530D01*
X216095879Y-99762622D01*
X216113223Y-99764906D01*
X216144491Y-99773284D01*
X216234918Y-99810740D01*
X216262952Y-99826925D01*
X216340602Y-99886509D01*
X216363491Y-99909398D01*
X216423074Y-99987048D01*
X216439259Y-100015081D01*
X216476715Y-100105508D01*
X216485093Y-100136775D01*
X216499469Y-100245964D01*
X216500000Y-100254065D01*
X216500000Y-100995934D01*
X216499469Y-101004035D01*
X216485093Y-101113224D01*
X216476715Y-101144491D01*
X216439259Y-101234918D01*
X216423074Y-101262951D01*
X216363491Y-101340601D01*
X216340601Y-101363491D01*
X216262951Y-101423074D01*
X216234918Y-101439259D01*
X216144491Y-101476715D01*
X216113224Y-101485093D01*
X216024783Y-101496737D01*
X216004031Y-101499469D01*
X215995934Y-101500000D01*
X174711173Y-101500000D01*
X174703075Y-101499469D01*
X174679564Y-101496374D01*
X174593882Y-101485093D01*
X174562616Y-101476715D01*
X174472191Y-101439260D01*
X174444157Y-101423075D01*
X174356775Y-101356025D01*
X174350679Y-101350679D01*
X173412646Y-100412646D01*
X173408568Y-100408146D01*
X173310883Y-100289116D01*
X173191852Y-100191430D01*
X173187351Y-100187351D01*
X170412646Y-97412646D01*
X170408568Y-97408146D01*
X170310883Y-97289116D01*
X170191852Y-97191430D01*
X170187351Y-97187351D01*
X169066984Y-96066984D01*
X168646452Y-95646451D01*
X168646445Y-95646445D01*
X168500000Y-95500000D01*
X168292893Y-95500000D01*
X168292886Y-95500000D01*
X165504066Y-95500000D01*
X165495968Y-95499469D01*
X165472457Y-95496374D01*
X165386775Y-95485093D01*
X165355508Y-95476715D01*
X165265081Y-95439259D01*
X165237048Y-95423074D01*
X165159398Y-95363491D01*
X165136508Y-95340601D01*
X165076925Y-95262951D01*
X165060740Y-95234918D01*
X165023284Y-95144491D01*
X165014906Y-95113223D01*
X165006031Y-95045812D01*
X165005500Y-95037710D01*
X165005500Y-93389083D01*
X165005821Y-93382778D01*
X165012999Y-93312516D01*
X165013000Y-93312509D01*
X165012999Y-92262492D01*
X165005820Y-92192221D01*
X165005500Y-92185920D01*
X165005500Y-90889083D01*
X165005821Y-90882778D01*
X165012999Y-90812516D01*
X165013000Y-90812509D01*
X165012999Y-89762492D01*
X165005820Y-89692221D01*
X165005500Y-89685920D01*
X165005500Y-87536504D01*
X165005500Y-87536500D01*
X165002487Y-87505909D01*
X165002950Y-87477585D01*
X165014906Y-87386773D01*
X165023284Y-87355508D01*
X165060740Y-87265081D01*
X165076923Y-87237050D01*
X165136513Y-87159392D01*
X165159392Y-87136513D01*
X165231577Y-87081123D01*
X165296745Y-87055930D01*
X165307062Y-87055500D01*
X166900998Y-87055500D01*
X166901000Y-87055500D01*
X166999618Y-87045787D01*
X167094906Y-87026833D01*
X167094913Y-87026831D01*
X167094919Y-87026830D01*
X167147327Y-87013453D01*
X167147326Y-87013453D01*
X167147335Y-87013451D01*
X167150068Y-87012143D01*
X167152389Y-87011616D01*
X167153055Y-87011375D01*
X167153085Y-87011458D01*
X167203585Y-87000000D01*
X167499993Y-87000000D01*
X167500000Y-87000000D01*
X168000000Y-87000000D01*
X168000000Y-81004065D01*
X168000531Y-80995964D01*
X168001963Y-80985093D01*
X168014906Y-80886775D01*
X168023284Y-80855508D01*
X168060740Y-80765081D01*
X168076923Y-80737050D01*
X168136513Y-80659392D01*
X168159392Y-80636513D01*
X168237050Y-80576923D01*
X168265079Y-80560740D01*
X168355509Y-80523283D01*
X168386775Y-80514906D01*
X168495967Y-80500530D01*
X168504067Y-80500000D01*
X176499993Y-80500000D01*
X176500000Y-80500000D01*
X177000000Y-80500000D01*
X177000000Y-70004066D01*
X177000531Y-69995964D01*
X177014906Y-69886776D01*
X177023284Y-69855508D01*
X177060740Y-69765081D01*
X177076923Y-69737050D01*
X177136513Y-69659392D01*
X177159392Y-69636513D01*
X177237050Y-69576923D01*
X177265079Y-69560740D01*
X177355509Y-69523283D01*
X177386775Y-69514906D01*
X177495967Y-69500530D01*
X177504067Y-69500000D01*
X183499993Y-69500000D01*
X183500000Y-69500000D01*
X184000000Y-69500000D01*
X184000000Y-68878302D01*
X184019685Y-68811263D01*
X184022425Y-68807179D01*
X184130568Y-68652734D01*
X184226739Y-68446496D01*
X184285635Y-68226692D01*
X184305468Y-68000000D01*
X184285635Y-67773308D01*
X184226739Y-67553504D01*
X184130568Y-67347266D01*
X184000047Y-67160861D01*
X184000000Y-67160814D01*
X184000000Y-67000000D01*
X185750000Y-67000000D01*
X185750000Y-67500006D01*
G37*
G04 #@! TD.AperFunction*
G04 #@! TA.AperFunction,Conductor*
G36*
X202000000Y-67121697D02*
G01*
X201980315Y-67188736D01*
X201977575Y-67192820D01*
X201869432Y-67347265D01*
X201869431Y-67347267D01*
X201773261Y-67553502D01*
X201773258Y-67553511D01*
X201714366Y-67773302D01*
X201714364Y-67773313D01*
X201694532Y-67999998D01*
X201694532Y-68000001D01*
X201714364Y-68226686D01*
X201714366Y-68226697D01*
X201773258Y-68446488D01*
X201773261Y-68446497D01*
X201869431Y-68652732D01*
X201869432Y-68652734D01*
X201976858Y-68806156D01*
X201977575Y-68807179D01*
X201999902Y-68873385D01*
X202000000Y-68878301D01*
X202000000Y-69500000D01*
X202500000Y-69500000D01*
X206995933Y-69500000D01*
X207004031Y-69500530D01*
X207095879Y-69512622D01*
X207113223Y-69514906D01*
X207144491Y-69523284D01*
X207234918Y-69560740D01*
X207262952Y-69576925D01*
X207340602Y-69636509D01*
X207363491Y-69659398D01*
X207423074Y-69737048D01*
X207439259Y-69765081D01*
X207476715Y-69855508D01*
X207485093Y-69886776D01*
X207499468Y-69995964D01*
X207499999Y-70004066D01*
X207499999Y-80495933D01*
X207499468Y-80504035D01*
X207485093Y-80613223D01*
X207476715Y-80644491D01*
X207439259Y-80734918D01*
X207423074Y-80762951D01*
X207363491Y-80840601D01*
X207340601Y-80863491D01*
X207262951Y-80923074D01*
X207234918Y-80939259D01*
X207144491Y-80976715D01*
X207113224Y-80985093D01*
X207024783Y-80996737D01*
X207004031Y-80999469D01*
X206995934Y-81000000D01*
X198961173Y-81000000D01*
X198953075Y-80999469D01*
X198926450Y-80995964D01*
X198843882Y-80985093D01*
X198812616Y-80976715D01*
X198722191Y-80939260D01*
X198694157Y-80923075D01*
X198606775Y-80856025D01*
X198600679Y-80850679D01*
X195649319Y-77899319D01*
X195643974Y-77893224D01*
X195576924Y-77805842D01*
X195560739Y-77777808D01*
X195523284Y-77687383D01*
X195514906Y-77656116D01*
X195500531Y-77546928D01*
X195500000Y-77538826D01*
X195500000Y-75004066D01*
X195500531Y-74995964D01*
X195514906Y-74886776D01*
X195523284Y-74855508D01*
X195560740Y-74765081D01*
X195576923Y-74737050D01*
X195636513Y-74659392D01*
X195659392Y-74636513D01*
X195737050Y-74576923D01*
X195765079Y-74560740D01*
X195855509Y-74523283D01*
X195886775Y-74514906D01*
X195995967Y-74500530D01*
X196004067Y-74500000D01*
X199499993Y-74500000D01*
X199500000Y-74500000D01*
X200000000Y-74500000D01*
X200000000Y-73360937D01*
X200018461Y-73295846D01*
X200034814Y-73269334D01*
X200089999Y-73102797D01*
X200100500Y-73000009D01*
X200100499Y-71999992D01*
X200098971Y-71985037D01*
X200089999Y-71897203D01*
X200089998Y-71897200D01*
X200060240Y-71807395D01*
X200056312Y-71794850D01*
X200056311Y-71794847D01*
X200055719Y-71793260D01*
X200054248Y-71789314D01*
X200034814Y-71730666D01*
X200024869Y-71714543D01*
X200018461Y-71704153D01*
X200000000Y-71639057D01*
X200000000Y-68878302D01*
X200019685Y-68811263D01*
X200022425Y-68807179D01*
X200130568Y-68652734D01*
X200226739Y-68446496D01*
X200285635Y-68226692D01*
X200305468Y-68000000D01*
X200285635Y-67773308D01*
X200226739Y-67553504D01*
X200130568Y-67347266D01*
X200000047Y-67160861D01*
X200000045Y-67160858D01*
X200000000Y-67160812D01*
X200000000Y-67000000D01*
X202000000Y-67000000D01*
X202000000Y-67121697D01*
G37*
G04 #@! TD.AperFunction*
G04 #@! TA.AperFunction,Conductor*
G36*
X101254031Y-77000530D02*
G01*
X101345879Y-77012622D01*
X101363223Y-77014906D01*
X101394491Y-77023284D01*
X101484918Y-77060740D01*
X101512952Y-77076925D01*
X101590602Y-77136509D01*
X101613491Y-77159398D01*
X101673074Y-77237048D01*
X101689259Y-77265081D01*
X101726715Y-77355508D01*
X101735093Y-77386775D01*
X101749469Y-77495964D01*
X101750000Y-77504064D01*
X101750000Y-89000000D01*
X103699684Y-89000000D01*
X103735679Y-89005339D01*
X103803868Y-89026024D01*
X103913136Y-89036785D01*
X103948428Y-89045625D01*
X103984922Y-89060741D01*
X104012949Y-89076923D01*
X104090602Y-89136509D01*
X104113491Y-89159398D01*
X104173074Y-89237048D01*
X104189259Y-89265081D01*
X104226715Y-89355508D01*
X104235093Y-89386775D01*
X104249469Y-89495964D01*
X104250000Y-89504065D01*
X104250000Y-90245934D01*
X104249469Y-90254035D01*
X104235093Y-90363224D01*
X104226715Y-90394491D01*
X104189259Y-90484918D01*
X104173074Y-90512951D01*
X104113491Y-90590601D01*
X104090601Y-90613491D01*
X104012951Y-90673074D01*
X103984918Y-90689259D01*
X103894491Y-90726715D01*
X103863224Y-90735093D01*
X103774783Y-90746737D01*
X103754031Y-90749469D01*
X103745934Y-90750000D01*
X97500000Y-90750000D01*
X97500000Y-98000000D01*
X103788826Y-98000000D01*
X103796924Y-98000530D01*
X103888772Y-98012622D01*
X103906116Y-98014906D01*
X103937383Y-98023284D01*
X104027808Y-98060739D01*
X104055842Y-98076924D01*
X104143224Y-98143974D01*
X104149319Y-98149319D01*
X105850679Y-99850679D01*
X105856025Y-99856775D01*
X105923075Y-99944157D01*
X105939260Y-99972191D01*
X105976715Y-100062616D01*
X105985093Y-100093882D01*
X105999469Y-100203071D01*
X106000000Y-100211172D01*
X106000000Y-106000000D01*
X106146445Y-106146445D01*
X106146451Y-106146452D01*
X109853547Y-109853548D01*
X109853552Y-109853552D01*
X110000000Y-110000000D01*
X145999993Y-110000000D01*
X146000000Y-110000000D01*
X146500000Y-110000000D01*
X146500000Y-91504065D01*
X146500531Y-91495964D01*
X146514906Y-91386776D01*
X146523284Y-91355508D01*
X146560740Y-91265081D01*
X146576923Y-91237050D01*
X146636513Y-91159392D01*
X146659392Y-91136513D01*
X146737050Y-91076923D01*
X146765079Y-91060740D01*
X146855509Y-91023283D01*
X146886775Y-91014906D01*
X146995967Y-91000530D01*
X147004067Y-91000000D01*
X155999993Y-91000000D01*
X156000000Y-91000000D01*
X156500000Y-91000000D01*
X156500000Y-90500000D01*
X156514906Y-90386775D01*
X156523284Y-90355508D01*
X156560740Y-90265081D01*
X156576923Y-90237050D01*
X156636513Y-90159392D01*
X156659392Y-90136513D01*
X156737050Y-90076923D01*
X156765079Y-90060740D01*
X156855509Y-90023283D01*
X156886775Y-90014906D01*
X156995967Y-90000530D01*
X157004067Y-90000000D01*
X159995933Y-90000000D01*
X160004031Y-90000530D01*
X160095879Y-90012622D01*
X160113223Y-90014906D01*
X160144491Y-90023284D01*
X160234918Y-90060740D01*
X160262952Y-90076925D01*
X160340602Y-90136509D01*
X160363491Y-90159398D01*
X160423074Y-90237048D01*
X160439259Y-90265081D01*
X160476715Y-90355508D01*
X160485093Y-90386775D01*
X160495050Y-90462401D01*
X160498014Y-90484918D01*
X160499469Y-90495964D01*
X160500000Y-90504065D01*
X160500000Y-98000000D01*
X160750000Y-98000000D01*
X160821480Y-98014218D01*
X160866175Y-98032730D01*
X160906272Y-98059522D01*
X160940477Y-98093727D01*
X160967267Y-98133822D01*
X160985781Y-98178517D01*
X160997617Y-98238022D01*
X161000000Y-98262210D01*
X161000000Y-98995934D01*
X160999469Y-99004035D01*
X160985093Y-99113224D01*
X160976715Y-99144491D01*
X160939259Y-99234918D01*
X160923074Y-99262951D01*
X160863491Y-99340601D01*
X160840601Y-99363491D01*
X160762951Y-99423074D01*
X160734918Y-99439259D01*
X160644491Y-99476715D01*
X160613224Y-99485093D01*
X160524783Y-99496737D01*
X160504031Y-99499469D01*
X160495934Y-99500000D01*
X155000000Y-99500000D01*
X155000000Y-99999999D01*
X155000000Y-100000006D01*
X155000000Y-115495934D01*
X154999469Y-115504035D01*
X154985093Y-115613224D01*
X154976715Y-115644491D01*
X154939259Y-115734918D01*
X154923074Y-115762951D01*
X154863491Y-115840601D01*
X154840601Y-115863491D01*
X154762951Y-115923074D01*
X154734918Y-115939259D01*
X154644491Y-115976715D01*
X154613224Y-115985093D01*
X154524783Y-115996737D01*
X154504031Y-115999469D01*
X154495934Y-116000000D01*
X91254066Y-116000000D01*
X91245968Y-115999469D01*
X91222457Y-115996374D01*
X91136775Y-115985093D01*
X91105508Y-115976715D01*
X91015081Y-115939259D01*
X90987048Y-115923074D01*
X90909398Y-115863491D01*
X90886508Y-115840601D01*
X90826925Y-115762951D01*
X90810740Y-115734918D01*
X90773284Y-115644491D01*
X90764906Y-115613223D01*
X90750531Y-115504035D01*
X90750000Y-115495933D01*
X90750000Y-82004066D01*
X90750531Y-81995964D01*
X90764906Y-81886776D01*
X90773284Y-81855508D01*
X90810740Y-81765081D01*
X90826923Y-81737050D01*
X90886513Y-81659392D01*
X90909392Y-81636513D01*
X90987050Y-81576923D01*
X91015079Y-81560740D01*
X91105509Y-81523283D01*
X91136775Y-81514906D01*
X91245967Y-81500530D01*
X91254067Y-81500000D01*
X96749993Y-81500000D01*
X96750000Y-81500000D01*
X97250000Y-81500000D01*
X97250000Y-78790580D01*
X97250061Y-78787826D01*
X97254290Y-78693670D01*
X97251559Y-78673508D01*
X97250562Y-78666143D01*
X97250000Y-78657813D01*
X97250000Y-77504066D01*
X97250531Y-77495964D01*
X97264906Y-77386776D01*
X97273284Y-77355508D01*
X97310740Y-77265081D01*
X97326923Y-77237050D01*
X97386513Y-77159392D01*
X97409392Y-77136513D01*
X97487050Y-77076923D01*
X97515079Y-77060740D01*
X97605509Y-77023283D01*
X97636775Y-77014906D01*
X97745967Y-77000530D01*
X97754067Y-77000000D01*
X101245933Y-77000000D01*
X101254031Y-77000530D01*
G37*
G04 #@! TD.AperFunction*
G04 #@! TA.AperFunction,Conductor*
G36*
X165446288Y-97718954D02*
G01*
X165527070Y-97772930D01*
X165581046Y-97853712D01*
X165600000Y-97948999D01*
X165600000Y-98200000D01*
X166416665Y-98899998D01*
X166999998Y-99399999D01*
X166999999Y-99399999D01*
X167000000Y-99400000D01*
X168051000Y-99400000D01*
X168146288Y-99418954D01*
X168227070Y-99472930D01*
X168281046Y-99553712D01*
X168300000Y-99649000D01*
X168300000Y-100551000D01*
X168281046Y-100646288D01*
X168227070Y-100727070D01*
X168146288Y-100781046D01*
X168051000Y-100800000D01*
X165588365Y-100800000D01*
X165542649Y-100830546D01*
X165447361Y-100849500D01*
X164649000Y-100849500D01*
X164553712Y-100830546D01*
X164472930Y-100776570D01*
X164418954Y-100695788D01*
X164400000Y-100600500D01*
X164400000Y-97949000D01*
X164418954Y-97853712D01*
X164472930Y-97772930D01*
X164553712Y-97718954D01*
X164649000Y-97700000D01*
X165351000Y-97700000D01*
X165446288Y-97718954D01*
G37*
G04 #@! TD.AperFunction*
G04 #@! TA.AperFunction,Conductor*
G36*
X155504031Y-78750530D02*
G01*
X155595879Y-78762622D01*
X155613223Y-78764906D01*
X155644491Y-78773284D01*
X155734918Y-78810740D01*
X155762952Y-78826925D01*
X155840602Y-78886509D01*
X155863491Y-78909398D01*
X155923074Y-78987048D01*
X155939259Y-79015081D01*
X155976715Y-79105508D01*
X155985093Y-79136775D01*
X155999469Y-79245964D01*
X156000000Y-79254064D01*
X156000000Y-80500000D01*
X159495933Y-80500000D01*
X159504031Y-80500530D01*
X159595879Y-80512622D01*
X159613223Y-80514906D01*
X159644491Y-80523284D01*
X159734918Y-80560740D01*
X159762952Y-80576925D01*
X159840602Y-80636509D01*
X159863491Y-80659398D01*
X159923074Y-80737048D01*
X159939259Y-80765081D01*
X159976715Y-80855508D01*
X159985093Y-80886775D01*
X159999469Y-80995964D01*
X160000000Y-81004065D01*
X160000000Y-83745934D01*
X159999469Y-83754035D01*
X159985093Y-83863224D01*
X159976715Y-83894491D01*
X159939259Y-83984918D01*
X159923074Y-84012951D01*
X159863491Y-84090601D01*
X159840601Y-84113491D01*
X159762951Y-84173074D01*
X159734918Y-84189259D01*
X159644491Y-84226715D01*
X159613224Y-84235093D01*
X159524783Y-84246737D01*
X159504031Y-84249469D01*
X159495934Y-84250000D01*
X158250000Y-84250000D01*
X158250000Y-86750000D01*
X159745933Y-86750000D01*
X159754031Y-86750530D01*
X159845879Y-86762622D01*
X159863223Y-86764906D01*
X159894491Y-86773284D01*
X159984918Y-86810740D01*
X160012952Y-86826925D01*
X160090602Y-86886509D01*
X160113491Y-86909398D01*
X160173074Y-86987048D01*
X160189259Y-87015081D01*
X160226715Y-87105508D01*
X160235093Y-87136775D01*
X160249469Y-87245964D01*
X160250000Y-87254065D01*
X160250000Y-87745934D01*
X160249469Y-87754035D01*
X160235093Y-87863224D01*
X160226715Y-87894491D01*
X160189259Y-87984918D01*
X160173074Y-88012951D01*
X160113491Y-88090601D01*
X160090601Y-88113491D01*
X160012951Y-88173074D01*
X159984918Y-88189259D01*
X159894491Y-88226715D01*
X159863224Y-88235093D01*
X159774783Y-88246737D01*
X159754031Y-88249469D01*
X159745934Y-88250000D01*
X156000000Y-88250000D01*
X156000000Y-88750000D01*
X156000000Y-88750006D01*
X156000000Y-89245934D01*
X155999469Y-89254035D01*
X155985093Y-89363224D01*
X155976715Y-89394491D01*
X155939259Y-89484918D01*
X155923074Y-89512951D01*
X155863491Y-89590601D01*
X155840601Y-89613491D01*
X155762951Y-89673074D01*
X155734918Y-89689259D01*
X155644491Y-89726715D01*
X155613224Y-89735093D01*
X155524783Y-89746737D01*
X155504031Y-89749469D01*
X155495934Y-89750000D01*
X145000000Y-89750000D01*
X145000000Y-90250000D01*
X145000000Y-90250006D01*
X145000000Y-107995934D01*
X144999469Y-108004035D01*
X144985093Y-108113224D01*
X144976715Y-108144491D01*
X144939259Y-108234918D01*
X144923074Y-108262951D01*
X144863491Y-108340601D01*
X144840601Y-108363491D01*
X144762951Y-108423074D01*
X144734918Y-108439259D01*
X144644491Y-108476715D01*
X144613224Y-108485093D01*
X144524783Y-108496737D01*
X144504031Y-108499469D01*
X144495934Y-108500000D01*
X137504066Y-108500000D01*
X137495968Y-108499469D01*
X137472457Y-108496374D01*
X137386775Y-108485093D01*
X137355508Y-108476715D01*
X137265081Y-108439259D01*
X137237048Y-108423074D01*
X137159398Y-108363491D01*
X137136508Y-108340601D01*
X137076925Y-108262951D01*
X137060740Y-108234918D01*
X137023284Y-108144491D01*
X137014906Y-108113223D01*
X137000531Y-108004035D01*
X137000000Y-107995933D01*
X137000000Y-79254066D01*
X137000531Y-79245964D01*
X137014906Y-79136776D01*
X137023284Y-79105508D01*
X137060740Y-79015081D01*
X137076923Y-78987050D01*
X137136513Y-78909392D01*
X137159392Y-78886513D01*
X137237050Y-78826923D01*
X137265079Y-78810740D01*
X137355509Y-78773283D01*
X137386775Y-78764906D01*
X137495967Y-78750530D01*
X137504067Y-78750000D01*
X155495933Y-78750000D01*
X155504031Y-78750530D01*
G37*
G04 #@! TD.AperFunction*
G04 #@! TA.AperFunction,Conductor*
G36*
X94504031Y-65000530D02*
G01*
X94595879Y-65012622D01*
X94613223Y-65014906D01*
X94644491Y-65023284D01*
X94734918Y-65060740D01*
X94762952Y-65076925D01*
X94840602Y-65136509D01*
X94863491Y-65159398D01*
X94923074Y-65237048D01*
X94939259Y-65265081D01*
X94976715Y-65355508D01*
X94985093Y-65386775D01*
X94999469Y-65495964D01*
X95000000Y-65504065D01*
X95000000Y-68495934D01*
X94999469Y-68504035D01*
X94985093Y-68613224D01*
X94976715Y-68644491D01*
X94939259Y-68734918D01*
X94923074Y-68762951D01*
X94863491Y-68840601D01*
X94840601Y-68863491D01*
X94762951Y-68923074D01*
X94734918Y-68939259D01*
X94644491Y-68976715D01*
X94613224Y-68985093D01*
X94524783Y-68996737D01*
X94504031Y-68999469D01*
X94495934Y-69000000D01*
X82004066Y-69000000D01*
X81995968Y-68999469D01*
X81972457Y-68996374D01*
X81886775Y-68985093D01*
X81855508Y-68976715D01*
X81765081Y-68939259D01*
X81737048Y-68923074D01*
X81659398Y-68863491D01*
X81636508Y-68840601D01*
X81576925Y-68762951D01*
X81560740Y-68734918D01*
X81523284Y-68644491D01*
X81514906Y-68613223D01*
X81500531Y-68504035D01*
X81500000Y-68495933D01*
X81500000Y-65504066D01*
X81500531Y-65495964D01*
X81514906Y-65386776D01*
X81523284Y-65355508D01*
X81560740Y-65265081D01*
X81576923Y-65237050D01*
X81636513Y-65159392D01*
X81659392Y-65136513D01*
X81737050Y-65076923D01*
X81765079Y-65060740D01*
X81855509Y-65023283D01*
X81886775Y-65014906D01*
X81995967Y-65000530D01*
X82004067Y-65000000D01*
X94495933Y-65000000D01*
X94504031Y-65000530D01*
G37*
G04 #@! TD.AperFunction*
G04 #@! TA.AperFunction,Conductor*
G36*
X104504031Y-72500530D02*
G01*
X104595879Y-72512622D01*
X104613223Y-72514906D01*
X104644491Y-72523284D01*
X104734918Y-72560740D01*
X104762952Y-72576925D01*
X104840602Y-72636509D01*
X104863491Y-72659398D01*
X104923074Y-72737048D01*
X104939259Y-72765081D01*
X104976715Y-72855508D01*
X104985093Y-72886775D01*
X104999469Y-72995964D01*
X105000000Y-73004064D01*
X105000000Y-74000000D01*
X111995933Y-74000000D01*
X112004031Y-74000530D01*
X112095879Y-74012622D01*
X112113223Y-74014906D01*
X112144491Y-74023284D01*
X112234918Y-74060740D01*
X112262952Y-74076925D01*
X112340602Y-74136509D01*
X112363491Y-74159398D01*
X112423074Y-74237048D01*
X112439259Y-74265081D01*
X112476715Y-74355508D01*
X112485093Y-74386775D01*
X112499469Y-74495964D01*
X112500000Y-74504064D01*
X112500000Y-76000000D01*
X113000000Y-76000000D01*
X113113223Y-76014906D01*
X113144491Y-76023284D01*
X113234918Y-76060740D01*
X113262952Y-76076925D01*
X113340602Y-76136509D01*
X113363491Y-76159398D01*
X113423074Y-76237048D01*
X113439259Y-76265081D01*
X113476715Y-76355508D01*
X113485093Y-76386775D01*
X113497869Y-76483814D01*
X113497869Y-76516185D01*
X113491879Y-76561685D01*
X113463613Y-76625581D01*
X113405289Y-76664053D01*
X113368940Y-76669500D01*
X111619862Y-76669500D01*
X111582826Y-76672792D01*
X111506451Y-76679582D01*
X111320594Y-76732762D01*
X111149250Y-76822265D01*
X110999431Y-76944427D01*
X110991330Y-76954362D01*
X110933709Y-76993878D01*
X110895229Y-77000000D01*
X107750000Y-77000000D01*
X107750000Y-84250000D01*
X114777319Y-84250000D01*
X115000000Y-84250000D01*
X117098129Y-81918745D01*
X117104359Y-81912727D01*
X117153404Y-81871556D01*
X117194308Y-81837220D01*
X117223578Y-81818924D01*
X117318906Y-81776469D01*
X117352084Y-81766953D01*
X117451962Y-81752912D01*
X117468385Y-81750604D01*
X117477026Y-81750000D01*
X121999993Y-81750000D01*
X122000000Y-81750000D01*
X122500000Y-81750000D01*
X122500000Y-79254065D01*
X122500531Y-79245964D01*
X122514906Y-79136776D01*
X122523284Y-79105508D01*
X122560740Y-79015081D01*
X122576923Y-78987050D01*
X122636513Y-78909392D01*
X122659392Y-78886513D01*
X122737050Y-78826923D01*
X122765079Y-78810740D01*
X122855509Y-78773283D01*
X122886775Y-78764906D01*
X122995967Y-78750530D01*
X123004067Y-78750000D01*
X134495933Y-78750000D01*
X134504031Y-78750530D01*
X134595879Y-78762622D01*
X134613223Y-78764906D01*
X134644491Y-78773284D01*
X134734918Y-78810740D01*
X134762952Y-78826925D01*
X134840602Y-78886509D01*
X134863491Y-78909398D01*
X134923074Y-78987048D01*
X134939259Y-79015081D01*
X134976715Y-79105508D01*
X134985093Y-79136775D01*
X134999469Y-79245964D01*
X135000000Y-79254065D01*
X135000000Y-107995934D01*
X134999469Y-108004035D01*
X134985093Y-108113224D01*
X134976715Y-108144491D01*
X134939259Y-108234918D01*
X134923074Y-108262951D01*
X134863491Y-108340601D01*
X134840601Y-108363491D01*
X134762951Y-108423074D01*
X134734918Y-108439259D01*
X134644491Y-108476715D01*
X134613224Y-108485093D01*
X134524783Y-108496737D01*
X134504031Y-108499469D01*
X134495934Y-108500000D01*
X129004066Y-108500000D01*
X128995968Y-108499469D01*
X128972457Y-108496374D01*
X128886775Y-108485093D01*
X128855508Y-108476715D01*
X128765081Y-108439259D01*
X128737048Y-108423074D01*
X128659398Y-108363491D01*
X128636508Y-108340601D01*
X128576925Y-108262951D01*
X128560740Y-108234918D01*
X128523284Y-108144491D01*
X128514906Y-108113223D01*
X128500531Y-108004035D01*
X128500000Y-107995933D01*
X128500000Y-101750006D01*
X128500000Y-101750000D01*
X128500000Y-101749999D01*
X128500000Y-101250000D01*
X128000000Y-101250000D01*
X127999993Y-101250000D01*
X123504066Y-101250000D01*
X123495968Y-101249469D01*
X123472457Y-101246374D01*
X123386775Y-101235093D01*
X123355508Y-101226715D01*
X123265081Y-101189259D01*
X123237048Y-101173074D01*
X123159398Y-101113491D01*
X123136508Y-101090601D01*
X123076925Y-101012951D01*
X123060740Y-100984918D01*
X123023284Y-100894491D01*
X123014906Y-100863223D01*
X123000531Y-100754035D01*
X123000000Y-100745933D01*
X123000000Y-96250006D01*
X123000000Y-96250000D01*
X123000000Y-95750000D01*
X122500000Y-95750000D01*
X122499993Y-95750000D01*
X121504066Y-95750000D01*
X121495968Y-95749469D01*
X121472457Y-95746374D01*
X121386775Y-95735093D01*
X121355508Y-95726715D01*
X121265081Y-95689259D01*
X121237048Y-95673074D01*
X121159398Y-95613491D01*
X121136508Y-95590601D01*
X121076925Y-95512951D01*
X121060740Y-95484918D01*
X121023284Y-95394491D01*
X121014906Y-95363223D01*
X121000531Y-95254035D01*
X121000000Y-95245933D01*
X121000000Y-92949731D01*
X121000299Y-92943651D01*
X121000500Y-92941608D01*
X121000500Y-92138397D01*
X121000298Y-92136345D01*
X121000000Y-92130268D01*
X121000000Y-91035702D01*
X121000300Y-91029613D01*
X121003553Y-90996622D01*
X121003554Y-90996615D01*
X121005500Y-90957063D01*
X121005500Y-89495983D01*
X121003558Y-89456472D01*
X121001418Y-89434746D01*
X121000299Y-89423384D01*
X121000000Y-89417302D01*
X121000000Y-87000006D01*
X121000000Y-87000000D01*
X121000000Y-86500000D01*
X120500000Y-86500000D01*
X120499993Y-86500000D01*
X118453150Y-86500000D01*
X118386111Y-86480315D01*
X118384261Y-86479103D01*
X118360140Y-86462987D01*
X118360139Y-86462986D01*
X118360134Y-86462983D01*
X118220877Y-86388548D01*
X118191983Y-86376579D01*
X118176179Y-86370033D01*
X118079153Y-86340601D01*
X118025070Y-86324195D01*
X118025065Y-86324194D01*
X118025062Y-86324193D01*
X117971029Y-86313445D01*
X117946181Y-86308503D01*
X117946177Y-86308502D01*
X117946170Y-86308501D01*
X117946169Y-86308501D01*
X117930670Y-86306202D01*
X117907068Y-86302701D01*
X117907061Y-86302700D01*
X117907059Y-86302700D01*
X117907058Y-86302700D01*
X117843520Y-86296441D01*
X117804013Y-86294500D01*
X116647203Y-86294500D01*
X116607220Y-86296488D01*
X116542904Y-86302901D01*
X116542892Y-86302902D01*
X116542890Y-86302903D01*
X116503323Y-86308845D01*
X116503322Y-86308845D01*
X116503319Y-86308846D01*
X116476514Y-86314244D01*
X116423520Y-86324916D01*
X116270737Y-86371864D01*
X116270734Y-86371865D01*
X116225606Y-86390812D01*
X116225601Y-86390814D01*
X116225595Y-86390817D01*
X116104031Y-86456734D01*
X116085089Y-86467006D01*
X116067999Y-86478604D01*
X116001474Y-86499961D01*
X115998369Y-86500000D01*
X115409732Y-86500000D01*
X115403662Y-86499702D01*
X115401608Y-86499500D01*
X114598392Y-86499500D01*
X114596337Y-86499702D01*
X114590268Y-86500000D01*
X103754066Y-86500000D01*
X103745968Y-86499469D01*
X103722457Y-86496374D01*
X103636775Y-86485093D01*
X103605508Y-86476715D01*
X103515081Y-86439259D01*
X103487048Y-86423074D01*
X103409398Y-86363491D01*
X103386508Y-86340601D01*
X103374472Y-86324916D01*
X103326925Y-86262951D01*
X103310740Y-86234918D01*
X103273284Y-86144491D01*
X103264906Y-86113223D01*
X103250531Y-86004035D01*
X103250000Y-85995933D01*
X103250000Y-74356905D01*
X103255339Y-74320910D01*
X103269793Y-74273261D01*
X103297800Y-74180934D01*
X103313000Y-74026608D01*
X103313000Y-72973392D01*
X103299034Y-72831599D01*
X103307876Y-72771994D01*
X103310742Y-72765074D01*
X103326922Y-72737051D01*
X103386513Y-72659392D01*
X103409392Y-72636513D01*
X103487050Y-72576923D01*
X103515079Y-72560740D01*
X103605509Y-72523283D01*
X103636775Y-72514906D01*
X103745967Y-72500530D01*
X103754067Y-72500000D01*
X104495933Y-72500000D01*
X104504031Y-72500530D01*
G37*
G04 #@! TD.AperFunction*
G04 #@! TA.AperFunction,Conductor*
G36*
X104504031Y-65000530D02*
G01*
X104595879Y-65012622D01*
X104613223Y-65014906D01*
X104644491Y-65023284D01*
X104734918Y-65060740D01*
X104762952Y-65076925D01*
X104840602Y-65136509D01*
X104863491Y-65159398D01*
X104923074Y-65237048D01*
X104939259Y-65265081D01*
X104976715Y-65355508D01*
X104985093Y-65386775D01*
X104999469Y-65495964D01*
X105000000Y-65504065D01*
X105000000Y-70495934D01*
X104999469Y-70504035D01*
X104985093Y-70613224D01*
X104976715Y-70644491D01*
X104939259Y-70734918D01*
X104923074Y-70762951D01*
X104863491Y-70840601D01*
X104840601Y-70863491D01*
X104762951Y-70923074D01*
X104734918Y-70939259D01*
X104644491Y-70976715D01*
X104613224Y-70985093D01*
X104524783Y-70996737D01*
X104504031Y-70999469D01*
X104495934Y-71000000D01*
X101750000Y-71000000D01*
X101750000Y-71499998D01*
X101749999Y-71500006D01*
X101750000Y-74995934D01*
X101749469Y-75004035D01*
X101735093Y-75113224D01*
X101726715Y-75144491D01*
X101689259Y-75234918D01*
X101673074Y-75262951D01*
X101613491Y-75340601D01*
X101590601Y-75363491D01*
X101512951Y-75423074D01*
X101484918Y-75439259D01*
X101394491Y-75476715D01*
X101363224Y-75485093D01*
X101274783Y-75496737D01*
X101254031Y-75499469D01*
X101245934Y-75500000D01*
X88250000Y-75500000D01*
X88250000Y-81000000D01*
X89245933Y-81000000D01*
X89254031Y-81000530D01*
X89345879Y-81012622D01*
X89363223Y-81014906D01*
X89394491Y-81023284D01*
X89484918Y-81060740D01*
X89512952Y-81076925D01*
X89590602Y-81136509D01*
X89613491Y-81159398D01*
X89673074Y-81237048D01*
X89689259Y-81265081D01*
X89726715Y-81355508D01*
X89735093Y-81386775D01*
X89749469Y-81495964D01*
X89750000Y-81504065D01*
X89750000Y-115495934D01*
X89749469Y-115504035D01*
X89735093Y-115613224D01*
X89726715Y-115644491D01*
X89689259Y-115734918D01*
X89673074Y-115762951D01*
X89613491Y-115840601D01*
X89590601Y-115863491D01*
X89512951Y-115923074D01*
X89484918Y-115939259D01*
X89394491Y-115976715D01*
X89363224Y-115985093D01*
X89274783Y-115996737D01*
X89254031Y-115999469D01*
X89245934Y-116000000D01*
X82004066Y-116000000D01*
X81995968Y-115999469D01*
X81972457Y-115996374D01*
X81886775Y-115985093D01*
X81855508Y-115976715D01*
X81765081Y-115939259D01*
X81737048Y-115923074D01*
X81659398Y-115863491D01*
X81636508Y-115840601D01*
X81576925Y-115762951D01*
X81560740Y-115734918D01*
X81523284Y-115644491D01*
X81514906Y-115613223D01*
X81500531Y-115504035D01*
X81500000Y-115495933D01*
X81500000Y-110500006D01*
X81500000Y-110500000D01*
X81500000Y-110499999D01*
X81500000Y-110000000D01*
X81000000Y-110000000D01*
X80999993Y-110000000D01*
X76004066Y-110000000D01*
X75995968Y-109999469D01*
X75972457Y-109996374D01*
X75886775Y-109985093D01*
X75855508Y-109976715D01*
X75765081Y-109939259D01*
X75737048Y-109923074D01*
X75659398Y-109863491D01*
X75636508Y-109840601D01*
X75576925Y-109762951D01*
X75560740Y-109734918D01*
X75523284Y-109644491D01*
X75514906Y-109613223D01*
X75500531Y-109504035D01*
X75500000Y-109495933D01*
X75500000Y-79506506D01*
X77441696Y-79506506D01*
X77441697Y-79506510D01*
X77472009Y-79730281D01*
X77472010Y-79730284D01*
X77541789Y-79945044D01*
X77648794Y-80143891D01*
X77648796Y-80143894D01*
X77789586Y-80320439D01*
X77959639Y-80469011D01*
X77959640Y-80469012D01*
X77959643Y-80469014D01*
X78153493Y-80584834D01*
X78364908Y-80664179D01*
X78364908Y-80664180D01*
X78587090Y-80704500D01*
X78587093Y-80704500D01*
X78756337Y-80704500D01*
X78756343Y-80704500D01*
X78914443Y-80690270D01*
X78924906Y-80689329D01*
X79142570Y-80629258D01*
X79142575Y-80629255D01*
X79142582Y-80629254D01*
X79346033Y-80531277D01*
X79528721Y-80398547D01*
X79684772Y-80235330D01*
X79809173Y-80046871D01*
X79897923Y-79839229D01*
X79948172Y-79619076D01*
X79958303Y-79393490D01*
X79927991Y-79169719D01*
X79858211Y-78954957D01*
X79751204Y-78756106D01*
X79610411Y-78579558D01*
X79521007Y-78501448D01*
X79440360Y-78430988D01*
X79336146Y-78368723D01*
X79246507Y-78315166D01*
X79128154Y-78270747D01*
X79035091Y-78235819D01*
X78812910Y-78195500D01*
X78812907Y-78195500D01*
X78643657Y-78195500D01*
X78612271Y-78198324D01*
X78475093Y-78210670D01*
X78257429Y-78270741D01*
X78257414Y-78270747D01*
X78053973Y-78368719D01*
X78053965Y-78368723D01*
X77871284Y-78501448D01*
X77871282Y-78501449D01*
X77715226Y-78664671D01*
X77590828Y-78853125D01*
X77502077Y-79060772D01*
X77502075Y-79060778D01*
X77451828Y-79280922D01*
X77451828Y-79280926D01*
X77441696Y-79506506D01*
X75500000Y-79506506D01*
X75500000Y-70254066D01*
X75500531Y-70245964D01*
X75514906Y-70136776D01*
X75523284Y-70105508D01*
X75560740Y-70015081D01*
X75576923Y-69987050D01*
X75636513Y-69909392D01*
X75659392Y-69886513D01*
X75737050Y-69826923D01*
X75765079Y-69810740D01*
X75855509Y-69773283D01*
X75886775Y-69764906D01*
X75995967Y-69750530D01*
X76004067Y-69750000D01*
X95499993Y-69750000D01*
X95500000Y-69750000D01*
X96000000Y-69750000D01*
X96000000Y-65504065D01*
X96000531Y-65495964D01*
X96014906Y-65386776D01*
X96023284Y-65355508D01*
X96060740Y-65265081D01*
X96076923Y-65237050D01*
X96136513Y-65159392D01*
X96159392Y-65136513D01*
X96237050Y-65076923D01*
X96265079Y-65060740D01*
X96355509Y-65023283D01*
X96386775Y-65014906D01*
X96495967Y-65000530D01*
X96504067Y-65000000D01*
X104495933Y-65000000D01*
X104504031Y-65000530D01*
G37*
G04 #@! TD.AperFunction*
G04 #@! TA.AperFunction,Conductor*
G36*
X164346288Y-87306454D02*
G01*
X164427070Y-87360430D01*
X164481046Y-87441212D01*
X164500000Y-87536500D01*
X164500000Y-96888500D01*
X164481046Y-96983788D01*
X164427070Y-97064570D01*
X164346288Y-97118546D01*
X164251000Y-97137500D01*
X161499000Y-97137500D01*
X161403712Y-97118546D01*
X161322930Y-97064570D01*
X161268954Y-96983788D01*
X161250000Y-96888500D01*
X161250000Y-89786500D01*
X161268954Y-89691212D01*
X161322930Y-89610430D01*
X161403712Y-89556454D01*
X161499000Y-89537500D01*
X163249999Y-89537500D01*
X163250000Y-89537500D01*
X163250000Y-87536499D01*
X163268954Y-87441212D01*
X163322930Y-87360430D01*
X163403712Y-87306454D01*
X163499000Y-87287500D01*
X164251000Y-87287500D01*
X164346288Y-87306454D01*
G37*
G04 #@! TD.AperFunction*
G04 #@! TA.AperFunction,Conductor*
G36*
X109546924Y-94250530D02*
G01*
X109638772Y-94262622D01*
X109656116Y-94264906D01*
X109687383Y-94273284D01*
X109777808Y-94310739D01*
X109805842Y-94326924D01*
X109893224Y-94393974D01*
X109899319Y-94399319D01*
X110245964Y-94745964D01*
X111103547Y-95603548D01*
X111103554Y-95603554D01*
X111250000Y-95750000D01*
X114245933Y-95750000D01*
X114254031Y-95750530D01*
X114345879Y-95762622D01*
X114363223Y-95764906D01*
X114394491Y-95773284D01*
X114484918Y-95810740D01*
X114512952Y-95826925D01*
X114590602Y-95886509D01*
X114613491Y-95909398D01*
X114673074Y-95987048D01*
X114689259Y-96015081D01*
X114726715Y-96105508D01*
X114735093Y-96136775D01*
X114749469Y-96245964D01*
X114750000Y-96254065D01*
X114750000Y-96745934D01*
X114749469Y-96754035D01*
X114735093Y-96863224D01*
X114726715Y-96894491D01*
X114689259Y-96984918D01*
X114673074Y-97012951D01*
X114613491Y-97090601D01*
X114590601Y-97113491D01*
X114512951Y-97173074D01*
X114484918Y-97189259D01*
X114394491Y-97226715D01*
X114363224Y-97235093D01*
X114274783Y-97246737D01*
X114254031Y-97249469D01*
X114245934Y-97250000D01*
X108461173Y-97250000D01*
X108453075Y-97249469D01*
X108429564Y-97246374D01*
X108343882Y-97235093D01*
X108312616Y-97226715D01*
X108222191Y-97189260D01*
X108194157Y-97173075D01*
X108106775Y-97106025D01*
X108100679Y-97100679D01*
X106899319Y-95899319D01*
X106893974Y-95893224D01*
X106826924Y-95805842D01*
X106810739Y-95777808D01*
X106773284Y-95687383D01*
X106764906Y-95656116D01*
X106750531Y-95546928D01*
X106750000Y-95538826D01*
X106750000Y-94754066D01*
X106750531Y-94745964D01*
X106764906Y-94636776D01*
X106773284Y-94605508D01*
X106810740Y-94515081D01*
X106826923Y-94487050D01*
X106886513Y-94409392D01*
X106909392Y-94386513D01*
X106987050Y-94326923D01*
X107015079Y-94310740D01*
X107105509Y-94273283D01*
X107136775Y-94264906D01*
X107245967Y-94250530D01*
X107254067Y-94250000D01*
X109538826Y-94250000D01*
X109546924Y-94250530D01*
G37*
G04 #@! TD.AperFunction*
G04 #@! TA.AperFunction,Conductor*
G36*
X117808427Y-87102383D02*
G01*
X117867926Y-87114218D01*
X117912625Y-87132733D01*
X117963067Y-87166437D01*
X117981858Y-87181858D01*
X120118141Y-89318141D01*
X120133562Y-89336932D01*
X120167266Y-89387374D01*
X120185781Y-89432071D01*
X120197617Y-89491575D01*
X120200000Y-89515763D01*
X120200000Y-90937263D01*
X120197611Y-90961487D01*
X120185745Y-91021058D01*
X120167184Y-91065803D01*
X120140334Y-91105921D01*
X120106044Y-91140142D01*
X120065871Y-91166911D01*
X120021086Y-91185381D01*
X119961491Y-91197125D01*
X119937264Y-91199465D01*
X119204602Y-91197974D01*
X118531637Y-91196605D01*
X117514776Y-91194536D01*
X117513363Y-91443621D01*
X117513362Y-91443626D01*
X117501479Y-93539248D01*
X117498977Y-93563340D01*
X117486888Y-93622575D01*
X117468250Y-93667035D01*
X117441411Y-93706895D01*
X117407227Y-93740885D01*
X117367217Y-93767496D01*
X117322653Y-93785881D01*
X117263351Y-93797634D01*
X117239248Y-93800000D01*
X114762211Y-93800000D01*
X114738020Y-93797617D01*
X114723189Y-93794667D01*
X114678518Y-93785781D01*
X114633822Y-93767267D01*
X114593727Y-93740477D01*
X114559522Y-93706272D01*
X114532730Y-93666175D01*
X114514218Y-93621480D01*
X114502383Y-93561980D01*
X114500000Y-93537789D01*
X114500000Y-92562210D01*
X114502383Y-92538019D01*
X114514218Y-92478519D01*
X114532729Y-92433826D01*
X114559524Y-92393724D01*
X114593724Y-92359524D01*
X114633826Y-92332729D01*
X114678514Y-92314219D01*
X114738028Y-92302381D01*
X114762211Y-92300000D01*
X116245142Y-92300000D01*
X116245146Y-92300000D01*
X116500000Y-92300000D01*
X116405137Y-87367159D01*
X116407106Y-87342648D01*
X116418069Y-87282240D01*
X116436150Y-87236742D01*
X116462763Y-87195858D01*
X116497046Y-87160909D01*
X116537412Y-87133515D01*
X116582555Y-87114562D01*
X116615494Y-87107927D01*
X116642737Y-87102441D01*
X116667219Y-87100000D01*
X117784236Y-87100000D01*
X117808427Y-87102383D01*
G37*
G04 #@! TD.AperFunction*
G04 #@! TA.AperFunction,Conductor*
G36*
X163350305Y-82944680D02*
G01*
X163919266Y-83035583D01*
X163926894Y-83040272D01*
X163927737Y-83041621D01*
X164303222Y-83744100D01*
X164304100Y-83753011D01*
X164299449Y-83759313D01*
X164196558Y-83828746D01*
X164196550Y-83828752D01*
X164084927Y-83924325D01*
X164084906Y-83924345D01*
X163973287Y-84040161D01*
X163973283Y-84040165D01*
X163973279Y-84040170D01*
X163928215Y-84095102D01*
X163861634Y-84176263D01*
X163861635Y-84176262D01*
X163753500Y-84327694D01*
X163745903Y-84332436D01*
X163743978Y-84332595D01*
X163262594Y-84332595D01*
X163254321Y-84329168D01*
X163250894Y-84320895D01*
X163250926Y-84320035D01*
X163267500Y-84095102D01*
X163285000Y-83837360D01*
X163302499Y-83559368D01*
X163319999Y-83261126D01*
X163336788Y-82955589D01*
X163340662Y-82947519D01*
X163349111Y-82944552D01*
X163350305Y-82944680D01*
G37*
G04 #@! TD.AperFunction*
G04 #@! TA.AperFunction,Conductor*
G36*
X163749083Y-84653427D02*
G01*
X163752177Y-84658928D01*
X163769999Y-84732000D01*
X163789999Y-84808000D01*
X163810000Y-84877999D01*
X163830000Y-84941999D01*
X163848058Y-84994368D01*
X163847515Y-85003306D01*
X163846588Y-85004883D01*
X163509591Y-85487271D01*
X163502044Y-85492090D01*
X163493299Y-85490161D01*
X163490409Y-85487271D01*
X163153411Y-85004883D01*
X163151482Y-84996138D01*
X163151938Y-84994378D01*
X163169999Y-84941999D01*
X163189999Y-84877999D01*
X163210000Y-84808000D01*
X163230000Y-84732000D01*
X163247822Y-84658927D01*
X163253112Y-84651702D01*
X163259189Y-84650000D01*
X163740810Y-84650000D01*
X163749083Y-84653427D01*
G37*
G04 #@! TD.AperFunction*
G04 #@! TA.AperFunction,Conductor*
G36*
X163249919Y-97153427D02*
G01*
X163252712Y-97157902D01*
X163316193Y-97342865D01*
X163382387Y-97514731D01*
X163448582Y-97665597D01*
X163514776Y-97795463D01*
X163514780Y-97795469D01*
X163576043Y-97896226D01*
X163577413Y-97905076D01*
X163574064Y-97910826D01*
X163008018Y-98443455D01*
X162999644Y-98446629D01*
X162991982Y-98443455D01*
X162425935Y-97910826D01*
X162422258Y-97902661D01*
X162423955Y-97896228D01*
X162485223Y-97795463D01*
X162551417Y-97665597D01*
X162617612Y-97514731D01*
X162683806Y-97342865D01*
X162747287Y-97157902D01*
X162753215Y-97151189D01*
X162758354Y-97150000D01*
X163241646Y-97150000D01*
X163249919Y-97153427D01*
G37*
G04 #@! TD.AperFunction*
G04 #@! TA.AperFunction,Conductor*
G36*
X209996944Y-73503427D02*
G01*
X210000365Y-73511323D01*
X210013370Y-73915062D01*
X210013372Y-73915077D01*
X210057070Y-74207998D01*
X210057070Y-74208000D01*
X210136470Y-74455125D01*
X210136476Y-74455142D01*
X210256950Y-74732791D01*
X210419146Y-75106412D01*
X210419297Y-75115365D01*
X210413073Y-75121803D01*
X210412901Y-75121876D01*
X209504487Y-75499136D01*
X209495533Y-75499145D01*
X209495513Y-75499136D01*
X208587098Y-75121876D01*
X208580771Y-75115538D01*
X208580780Y-75106584D01*
X208580807Y-75106519D01*
X208743049Y-74732791D01*
X208863527Y-74455131D01*
X208942928Y-74208001D01*
X208986627Y-73915069D01*
X208999635Y-73511322D01*
X209003327Y-73503165D01*
X209011329Y-73500000D01*
X209988671Y-73500000D01*
X209996944Y-73503427D01*
G37*
G04 #@! TD.AperFunction*
G04 #@! TA.AperFunction,Conductor*
G36*
X104202074Y-87582720D02*
G01*
X104202204Y-87582775D01*
X104383604Y-87661524D01*
X104522434Y-87721763D01*
X104645998Y-87761464D01*
X104792465Y-87783314D01*
X104988677Y-87789635D01*
X104996835Y-87793327D01*
X105000000Y-87801329D01*
X105000000Y-88278670D01*
X104996573Y-88286943D01*
X104988677Y-88290364D01*
X104792471Y-88296684D01*
X104792456Y-88296686D01*
X104646000Y-88318534D01*
X104645998Y-88318534D01*
X104522439Y-88358233D01*
X104522422Y-88358239D01*
X104383604Y-88418474D01*
X104202236Y-88497210D01*
X104193283Y-88497361D01*
X104186845Y-88491137D01*
X104186776Y-88490975D01*
X104000871Y-88044495D01*
X104000855Y-88035544D01*
X104186777Y-87589022D01*
X104193120Y-87582703D01*
X104202074Y-87582720D01*
G37*
G04 #@! TD.AperFunction*
G04 #@! TA.AperFunction,Conductor*
G36*
X105375505Y-87460635D02*
G01*
X105553770Y-87648249D01*
X105918342Y-88031941D01*
X105921556Y-88040299D01*
X105918342Y-88048059D01*
X105375506Y-88619363D01*
X105367323Y-88623000D01*
X105359324Y-88620113D01*
X105244223Y-88519502D01*
X105120665Y-88431750D01*
X105120658Y-88431746D01*
X104997113Y-88364251D01*
X104997110Y-88364250D01*
X104955924Y-88348500D01*
X104873557Y-88317000D01*
X104759202Y-88292010D01*
X104751851Y-88286896D01*
X104750000Y-88280580D01*
X104750000Y-87799419D01*
X104753427Y-87791146D01*
X104759201Y-87787989D01*
X104873555Y-87763000D01*
X104997110Y-87715750D01*
X105120665Y-87648250D01*
X105244220Y-87560500D01*
X105359325Y-87459885D01*
X105367808Y-87457021D01*
X105375505Y-87460635D01*
G37*
G04 #@! TD.AperFunction*
G04 #@! TA.AperFunction,Conductor*
G36*
X187247448Y-71013427D02*
G01*
X187250840Y-71020792D01*
X187265600Y-71210407D01*
X187265601Y-71210409D01*
X187302803Y-71350213D01*
X187302803Y-71350214D01*
X187347099Y-71469523D01*
X187347268Y-71470055D01*
X187384125Y-71608559D01*
X187384483Y-71610660D01*
X187399021Y-71797423D01*
X187396246Y-71805937D01*
X187388264Y-71809996D01*
X187387385Y-71810031D01*
X187000000Y-71811000D01*
X186612614Y-71810031D01*
X186604349Y-71806583D01*
X186600943Y-71798302D01*
X186600976Y-71797449D01*
X186615517Y-71610650D01*
X186615872Y-71608568D01*
X186652731Y-71470055D01*
X186652892Y-71469546D01*
X186697200Y-71350203D01*
X186734400Y-71210407D01*
X186749159Y-71020792D01*
X186753219Y-71012810D01*
X186760825Y-71010000D01*
X187239175Y-71010000D01*
X187247448Y-71013427D01*
G37*
G04 #@! TD.AperFunction*
G04 #@! TA.AperFunction,Conductor*
G36*
X187006999Y-70544228D02*
G01*
X187522904Y-70929645D01*
X187527481Y-70937342D01*
X187526215Y-70944544D01*
X187474779Y-71040527D01*
X187418580Y-71163405D01*
X187418579Y-71163406D01*
X187362388Y-71304268D01*
X187306194Y-71463134D01*
X187252592Y-71631843D01*
X187246821Y-71638690D01*
X187241441Y-71640000D01*
X186758559Y-71640000D01*
X186750286Y-71636573D01*
X186747408Y-71631843D01*
X186693805Y-71463134D01*
X186637611Y-71304268D01*
X186581420Y-71163406D01*
X186581419Y-71163405D01*
X186525220Y-71040527D01*
X186498713Y-70991063D01*
X186473783Y-70944542D01*
X186472897Y-70935634D01*
X186477093Y-70929646D01*
X186992999Y-70544229D01*
X187001676Y-70542024D01*
X187006999Y-70544228D01*
G37*
G04 #@! TD.AperFunction*
G04 #@! TA.AperFunction,Conductor*
G36*
X156252074Y-100442720D02*
G01*
X156252204Y-100442775D01*
X156433604Y-100521524D01*
X156572434Y-100581763D01*
X156695998Y-100621464D01*
X156842465Y-100643314D01*
X157050000Y-100650000D01*
X157050000Y-101150000D01*
X157000000Y-101151610D01*
X157000000Y-101151609D01*
X156842471Y-101156684D01*
X156842456Y-101156686D01*
X156696000Y-101178534D01*
X156695998Y-101178534D01*
X156572439Y-101218233D01*
X156572422Y-101218239D01*
X156433604Y-101278474D01*
X156252236Y-101357210D01*
X156243283Y-101357361D01*
X156236845Y-101351137D01*
X156236776Y-101350975D01*
X156206588Y-101278474D01*
X156050871Y-100904495D01*
X156050855Y-100895544D01*
X156236777Y-100449022D01*
X156243120Y-100442703D01*
X156252074Y-100442720D01*
G37*
G04 #@! TD.AperFunction*
G04 #@! TA.AperFunction,Conductor*
G36*
X193747448Y-71203427D02*
G01*
X193750840Y-71210792D01*
X193765600Y-71400407D01*
X193765601Y-71400409D01*
X193802803Y-71540213D01*
X193802803Y-71540214D01*
X193847099Y-71659523D01*
X193847268Y-71660055D01*
X193884125Y-71798559D01*
X193884483Y-71800660D01*
X193899021Y-71987423D01*
X193896246Y-71995937D01*
X193888264Y-71999996D01*
X193887385Y-72000031D01*
X193500000Y-72001000D01*
X193112614Y-72000031D01*
X193104349Y-71996583D01*
X193100943Y-71988302D01*
X193100976Y-71987449D01*
X193115517Y-71800650D01*
X193115872Y-71798568D01*
X193152731Y-71660055D01*
X193152892Y-71659546D01*
X193197200Y-71540203D01*
X193234400Y-71400407D01*
X193249159Y-71210792D01*
X193253219Y-71202810D01*
X193260825Y-71200000D01*
X193739175Y-71200000D01*
X193747448Y-71203427D01*
G37*
G04 #@! TD.AperFunction*
G04 #@! TA.AperFunction,Conductor*
G36*
X193506999Y-70544228D02*
G01*
X194022904Y-70929645D01*
X194027481Y-70937342D01*
X194026215Y-70944544D01*
X193974779Y-71040527D01*
X193918580Y-71163405D01*
X193918579Y-71163406D01*
X193862388Y-71304268D01*
X193806194Y-71463134D01*
X193752592Y-71631843D01*
X193746821Y-71638690D01*
X193741441Y-71640000D01*
X193258559Y-71640000D01*
X193250286Y-71636573D01*
X193247408Y-71631843D01*
X193193805Y-71463134D01*
X193137611Y-71304268D01*
X193081420Y-71163406D01*
X193081419Y-71163405D01*
X193025220Y-71040527D01*
X192998713Y-70991063D01*
X192973783Y-70944542D01*
X192972897Y-70935634D01*
X192977093Y-70929646D01*
X193492999Y-70544229D01*
X193501676Y-70542024D01*
X193506999Y-70544228D01*
G37*
G04 #@! TD.AperFunction*
G04 #@! TA.AperFunction,Conductor*
G36*
X110120706Y-81162745D02*
G01*
X110269671Y-81296280D01*
X110269672Y-81296281D01*
X110426886Y-81431211D01*
X110584100Y-81560140D01*
X110741314Y-81683070D01*
X110892515Y-81795528D01*
X110897109Y-81803215D01*
X110896981Y-81807331D01*
X110751982Y-82494661D01*
X110746921Y-82502049D01*
X110744996Y-82503062D01*
X110158181Y-82745152D01*
X110149226Y-82745139D01*
X110144525Y-82741572D01*
X110001070Y-82559314D01*
X109852140Y-82376100D01*
X109703211Y-82198886D01*
X109554281Y-82027672D01*
X109412790Y-81870710D01*
X109409796Y-81862270D01*
X109413206Y-81854604D01*
X110104626Y-81163184D01*
X110112898Y-81159758D01*
X110120706Y-81162745D01*
G37*
G04 #@! TD.AperFunction*
G04 #@! TA.AperFunction,Conductor*
G36*
X101750000Y-73314770D02*
G01*
X101918342Y-73491940D01*
X101921556Y-73500298D01*
X101918342Y-73508058D01*
X101749999Y-73685229D01*
X101749999Y-73685230D01*
X101367775Y-74087500D01*
X101244220Y-74059499D01*
X101120665Y-74036749D01*
X100997110Y-74019250D01*
X100873555Y-74007000D01*
X100750000Y-74000000D01*
X100750000Y-73000000D01*
X100873555Y-72992999D01*
X100997110Y-72980749D01*
X101120665Y-72963250D01*
X101244220Y-72940500D01*
X101367775Y-72912500D01*
X101750000Y-73314770D01*
G37*
G04 #@! TD.AperFunction*
G04 #@! TA.AperFunction,Conductor*
G36*
X210412901Y-75878123D02*
G01*
X210419228Y-75884461D01*
X210419219Y-75893415D01*
X210419146Y-75893587D01*
X210256950Y-76267207D01*
X210136476Y-76544856D01*
X210136470Y-76544873D01*
X210057070Y-76791997D01*
X210057070Y-76791999D01*
X210013372Y-77084921D01*
X210013370Y-77084936D01*
X210000365Y-77488677D01*
X209996673Y-77496835D01*
X209988671Y-77500000D01*
X209011329Y-77500000D01*
X209003056Y-77496573D01*
X208999635Y-77488677D01*
X208986627Y-77084936D01*
X208986627Y-77084930D01*
X208942928Y-76791997D01*
X208863527Y-76544868D01*
X208743049Y-76267207D01*
X208580852Y-75893585D01*
X208580702Y-75884634D01*
X208586926Y-75878196D01*
X208587000Y-75878164D01*
X209495514Y-75500862D01*
X209504464Y-75500854D01*
X210412901Y-75878123D01*
G37*
G04 #@! TD.AperFunction*
G04 #@! TA.AperFunction,Conductor*
G36*
X189414114Y-71013427D02*
G01*
X189417506Y-71020792D01*
X189432266Y-71210407D01*
X189432267Y-71210409D01*
X189469468Y-71350215D01*
X189469470Y-71350219D01*
X189513765Y-71469522D01*
X189513934Y-71470055D01*
X189550791Y-71608559D01*
X189551149Y-71610660D01*
X189565687Y-71797423D01*
X189562912Y-71805937D01*
X189554930Y-71809996D01*
X189554051Y-71810031D01*
X189166666Y-71811000D01*
X188779280Y-71810031D01*
X188771015Y-71806583D01*
X188767609Y-71798302D01*
X188767642Y-71797449D01*
X188782183Y-71610650D01*
X188782538Y-71608568D01*
X188819396Y-71470055D01*
X188819557Y-71469547D01*
X188863866Y-71350203D01*
X188901066Y-71210407D01*
X188915825Y-71020792D01*
X188919885Y-71012810D01*
X188927491Y-71010000D01*
X189405841Y-71010000D01*
X189414114Y-71013427D01*
G37*
G04 #@! TD.AperFunction*
G04 #@! TA.AperFunction,Conductor*
G36*
X189173665Y-70544228D02*
G01*
X189689570Y-70929645D01*
X189694147Y-70937342D01*
X189692881Y-70944544D01*
X189641445Y-71040527D01*
X189585246Y-71163405D01*
X189585245Y-71163406D01*
X189529054Y-71304268D01*
X189472860Y-71463134D01*
X189419258Y-71631843D01*
X189413487Y-71638690D01*
X189408107Y-71640000D01*
X188925225Y-71640000D01*
X188916952Y-71636573D01*
X188914074Y-71631843D01*
X188860471Y-71463134D01*
X188804277Y-71304268D01*
X188748086Y-71163406D01*
X188748085Y-71163405D01*
X188691886Y-71040527D01*
X188665379Y-70991063D01*
X188640449Y-70944542D01*
X188639563Y-70935634D01*
X188643759Y-70929646D01*
X189159665Y-70544229D01*
X189168342Y-70542024D01*
X189173665Y-70544228D01*
G37*
G04 #@! TD.AperFunction*
G04 #@! TA.AperFunction,Conductor*
G36*
X156252074Y-102442720D02*
G01*
X156252204Y-102442775D01*
X156433604Y-102521524D01*
X156572434Y-102581763D01*
X156695998Y-102621464D01*
X156842465Y-102643314D01*
X157050000Y-102650000D01*
X157050000Y-103150000D01*
X157000000Y-103151610D01*
X157000000Y-103151609D01*
X156842471Y-103156684D01*
X156842456Y-103156686D01*
X156696000Y-103178534D01*
X156695998Y-103178534D01*
X156572439Y-103218233D01*
X156572422Y-103218239D01*
X156433604Y-103278474D01*
X156252236Y-103357210D01*
X156243283Y-103357361D01*
X156236845Y-103351137D01*
X156236776Y-103350975D01*
X156050871Y-102904495D01*
X156050855Y-102895544D01*
X156236777Y-102449022D01*
X156243120Y-102442703D01*
X156252074Y-102442720D01*
G37*
G04 #@! TD.AperFunction*
G04 #@! TA.AperFunction,Conductor*
G36*
X191580780Y-71013427D02*
G01*
X191584172Y-71020792D01*
X191598932Y-71210407D01*
X191598933Y-71210409D01*
X191636135Y-71350213D01*
X191636135Y-71350214D01*
X191680431Y-71469523D01*
X191680600Y-71470055D01*
X191717457Y-71608559D01*
X191717815Y-71610660D01*
X191732353Y-71797423D01*
X191729578Y-71805937D01*
X191721596Y-71809996D01*
X191720717Y-71810031D01*
X191333332Y-71811000D01*
X190945946Y-71810031D01*
X190937681Y-71806583D01*
X190934275Y-71798302D01*
X190934308Y-71797449D01*
X190948849Y-71610650D01*
X190949204Y-71608568D01*
X190986063Y-71470055D01*
X190986224Y-71469546D01*
X191030532Y-71350203D01*
X191067732Y-71210407D01*
X191082491Y-71020792D01*
X191086551Y-71012810D01*
X191094157Y-71010000D01*
X191572507Y-71010000D01*
X191580780Y-71013427D01*
G37*
G04 #@! TD.AperFunction*
G04 #@! TA.AperFunction,Conductor*
G36*
X191340331Y-70544228D02*
G01*
X191856236Y-70929645D01*
X191860813Y-70937342D01*
X191859547Y-70944544D01*
X191808111Y-71040527D01*
X191751912Y-71163405D01*
X191751911Y-71163406D01*
X191695720Y-71304268D01*
X191639526Y-71463134D01*
X191585924Y-71631843D01*
X191580153Y-71638690D01*
X191574773Y-71640000D01*
X191091891Y-71640000D01*
X191083618Y-71636573D01*
X191080740Y-71631843D01*
X191027137Y-71463134D01*
X190970943Y-71304268D01*
X190914752Y-71163406D01*
X190914751Y-71163405D01*
X190858552Y-71040527D01*
X190832045Y-70991063D01*
X190807115Y-70944542D01*
X190806229Y-70935634D01*
X190810425Y-70929646D01*
X191326331Y-70544229D01*
X191335008Y-70542024D01*
X191340331Y-70544228D01*
G37*
G04 #@! TD.AperFunction*
G04 #@! TA.AperFunction,Conductor*
G36*
X120746944Y-79003427D02*
G01*
X120750365Y-79011323D01*
X120756684Y-79207527D01*
X120756686Y-79207542D01*
X120778534Y-79353997D01*
X120778534Y-79353999D01*
X120818233Y-79477559D01*
X120818239Y-79477576D01*
X120878474Y-79616395D01*
X120957210Y-79797763D01*
X120957361Y-79806716D01*
X120951137Y-79813154D01*
X120950975Y-79813223D01*
X120504497Y-79999127D01*
X120495543Y-79999144D01*
X120495503Y-79999127D01*
X120049024Y-79813223D01*
X120042703Y-79806879D01*
X120042720Y-79797925D01*
X120042754Y-79797844D01*
X120121524Y-79616395D01*
X120181763Y-79477565D01*
X120221464Y-79354000D01*
X120243314Y-79207534D01*
X120249635Y-79011322D01*
X120253327Y-79003165D01*
X120261329Y-79000000D01*
X120738671Y-79000000D01*
X120746944Y-79003427D01*
G37*
G04 #@! TD.AperFunction*
G04 #@! TA.AperFunction,Conductor*
G36*
X120508059Y-78581657D02*
G01*
X121079650Y-79124766D01*
X121083287Y-79132949D01*
X121080671Y-79140627D01*
X121020000Y-79215279D01*
X120952502Y-79318581D01*
X120952501Y-79318582D01*
X120952500Y-79318585D01*
X120885000Y-79442140D01*
X120884999Y-79442143D01*
X120817503Y-79585938D01*
X120752982Y-79742752D01*
X120746665Y-79749099D01*
X120742162Y-79750000D01*
X120257838Y-79750000D01*
X120249565Y-79746573D01*
X120247018Y-79742752D01*
X120182497Y-79585938D01*
X120115001Y-79442143D01*
X120115000Y-79442140D01*
X120047500Y-79318585D01*
X120047498Y-79318582D01*
X120047497Y-79318580D01*
X120047498Y-79318581D01*
X119979999Y-79215279D01*
X119919328Y-79140627D01*
X119916770Y-79132046D01*
X119920347Y-79124768D01*
X120491941Y-78581656D01*
X120500299Y-78578443D01*
X120508059Y-78581657D01*
G37*
G04 #@! TD.AperFunction*
G04 #@! TA.AperFunction,Conductor*
G36*
X109508059Y-78581657D02*
G01*
X110083059Y-79128006D01*
X110086696Y-79136189D01*
X110086562Y-79138278D01*
X110069999Y-79245280D01*
X110052499Y-79363585D01*
X110035000Y-79487140D01*
X110017500Y-79615945D01*
X110001330Y-79739814D01*
X109996861Y-79747574D01*
X109989728Y-79750000D01*
X109010272Y-79750000D01*
X109001999Y-79746573D01*
X108998670Y-79739815D01*
X108982499Y-79615945D01*
X108964999Y-79487140D01*
X108947500Y-79363585D01*
X108930000Y-79245280D01*
X108913436Y-79138275D01*
X108915557Y-79129578D01*
X108916932Y-79128013D01*
X109491941Y-78581656D01*
X109500299Y-78578443D01*
X109508059Y-78581657D01*
G37*
G04 #@! TD.AperFunction*
G04 #@! TA.AperFunction,Conductor*
G36*
X172413154Y-100548862D02*
G01*
X172413223Y-100549024D01*
X172599127Y-100995503D01*
X172599144Y-101004457D01*
X172599127Y-101004497D01*
X172413223Y-101450975D01*
X172406879Y-101457296D01*
X172397925Y-101457279D01*
X172397763Y-101457210D01*
X172216395Y-101378474D01*
X172077576Y-101318239D01*
X172077559Y-101318233D01*
X171953998Y-101278534D01*
X171807542Y-101256686D01*
X171807527Y-101256684D01*
X171611323Y-101250364D01*
X171603165Y-101246672D01*
X171600000Y-101238670D01*
X171600000Y-100761329D01*
X171603427Y-100753056D01*
X171611322Y-100749635D01*
X171807534Y-100743314D01*
X171954000Y-100721464D01*
X172077565Y-100681763D01*
X172216395Y-100621524D01*
X172397764Y-100542788D01*
X172406716Y-100542638D01*
X172413154Y-100548862D01*
G37*
G04 #@! TD.AperFunction*
G04 #@! TA.AperFunction,Conductor*
G36*
X171153992Y-100424998D02*
G01*
X171156070Y-100426488D01*
X171296536Y-100527223D01*
X171447402Y-100614417D01*
X171598268Y-100680612D01*
X171698845Y-100710741D01*
X171749133Y-100725806D01*
X171771265Y-100729355D01*
X171890154Y-100748421D01*
X171897779Y-100753113D01*
X171900000Y-100759972D01*
X171900000Y-101240027D01*
X171896573Y-101248300D01*
X171890153Y-101251579D01*
X171749133Y-101274192D01*
X171598270Y-101319386D01*
X171598264Y-101319388D01*
X171447404Y-101385581D01*
X171296531Y-101472779D01*
X171153992Y-101575001D01*
X171145272Y-101577037D01*
X171138653Y-101573511D01*
X170824856Y-101240027D01*
X170606543Y-101008016D01*
X170603370Y-100999644D01*
X170606543Y-100991983D01*
X171138653Y-100426487D01*
X171146818Y-100422811D01*
X171153992Y-100424998D01*
G37*
G04 #@! TD.AperFunction*
G04 #@! TA.AperFunction,Conductor*
G36*
X109508059Y-78581657D02*
G01*
X110083059Y-79128006D01*
X110086696Y-79136189D01*
X110086562Y-79138278D01*
X110069999Y-79245280D01*
X110052499Y-79363585D01*
X110035000Y-79487140D01*
X110017500Y-79615945D01*
X110001330Y-79739814D01*
X109996861Y-79747574D01*
X109989728Y-79750000D01*
X109010272Y-79750000D01*
X109001999Y-79746573D01*
X108998670Y-79739815D01*
X108982499Y-79615945D01*
X108964999Y-79487140D01*
X108947500Y-79363585D01*
X108930000Y-79245280D01*
X108913436Y-79138275D01*
X108915557Y-79129578D01*
X108916932Y-79128013D01*
X109491941Y-78581656D01*
X109500299Y-78578443D01*
X109508059Y-78581657D01*
G37*
G04 #@! TD.AperFunction*
G04 #@! TA.AperFunction,Conductor*
G36*
X171050975Y-99686776D02*
G01*
X171057296Y-99693120D01*
X171057279Y-99702074D01*
X171057210Y-99702236D01*
X170978474Y-99883604D01*
X170918239Y-100022422D01*
X170918233Y-100022439D01*
X170878534Y-100145998D01*
X170878534Y-100146000D01*
X170856686Y-100292456D01*
X170856684Y-100292471D01*
X170850365Y-100488677D01*
X170846674Y-100496835D01*
X170838671Y-100500000D01*
X170361329Y-100500000D01*
X170353056Y-100496573D01*
X170349635Y-100488677D01*
X170343314Y-100292471D01*
X170343314Y-100292465D01*
X170321464Y-100145998D01*
X170281763Y-100022434D01*
X170221524Y-99883604D01*
X170142788Y-99702235D01*
X170142638Y-99693283D01*
X170148862Y-99686845D01*
X170148937Y-99686812D01*
X170595504Y-99500871D01*
X170604455Y-99500855D01*
X171050975Y-99686776D01*
G37*
G04 #@! TD.AperFunction*
G04 #@! TA.AperFunction,Conductor*
G36*
X170850385Y-99803427D02*
G01*
X170852958Y-99807313D01*
X170919999Y-99973064D01*
X170989999Y-100125131D01*
X170990000Y-100125131D01*
X170990000Y-100125132D01*
X171030117Y-100200248D01*
X171059996Y-100256194D01*
X171130001Y-100366267D01*
X171193272Y-100446770D01*
X171195690Y-100455392D01*
X171191945Y-100462656D01*
X170607872Y-100993840D01*
X170599446Y-100996871D01*
X170592128Y-100993840D01*
X170008054Y-100462656D01*
X170004239Y-100454554D01*
X170006726Y-100446772D01*
X170070000Y-100366264D01*
X170140000Y-100256198D01*
X170140002Y-100256195D01*
X170140003Y-100256194D01*
X170169881Y-100200248D01*
X170209999Y-100125132D01*
X170209999Y-100125131D01*
X170210000Y-100125131D01*
X170280000Y-99973064D01*
X170347042Y-99807313D01*
X170353321Y-99800928D01*
X170357888Y-99800000D01*
X170842112Y-99800000D01*
X170850385Y-99803427D01*
G37*
G04 #@! TD.AperFunction*
G04 #@! TA.AperFunction,Conductor*
G36*
X215423590Y-105010548D02*
G01*
X215499997Y-105035000D01*
X215579269Y-105055610D01*
X215624999Y-105067500D01*
X215625003Y-105067500D01*
X215625004Y-105067501D01*
X215749999Y-105092499D01*
X215749999Y-105092498D01*
X215750000Y-105092499D01*
X215875000Y-105109999D01*
X215989234Y-105119138D01*
X215997207Y-105123214D01*
X216000000Y-105130801D01*
X216000000Y-106109198D01*
X215996573Y-106117471D01*
X215989233Y-106120861D01*
X215920694Y-106126344D01*
X215875000Y-106130000D01*
X215750000Y-106147500D01*
X215749999Y-106147500D01*
X215625004Y-106172498D01*
X215624999Y-106172499D01*
X215579269Y-106184388D01*
X215499997Y-106204999D01*
X215379298Y-106243624D01*
X215370893Y-106243134D01*
X214497471Y-105846413D01*
X214022452Y-105630652D01*
X214016338Y-105624111D01*
X214016639Y-105615161D01*
X214022452Y-105609347D01*
X215370894Y-104996864D01*
X215379297Y-104996375D01*
X215423590Y-105010548D01*
G37*
G04 #@! TD.AperFunction*
G04 #@! TA.AperFunction,Conductor*
G36*
X175787369Y-67999984D02*
G01*
X175795637Y-68003421D01*
X175799054Y-68011699D01*
X175799019Y-68012592D01*
X175768883Y-68399746D01*
X175768525Y-68401847D01*
X175694468Y-68680146D01*
X175694299Y-68680678D01*
X175605603Y-68919580D01*
X175605603Y-68919581D01*
X175531201Y-69199181D01*
X175531200Y-69199183D01*
X175500840Y-69589208D01*
X175496781Y-69597190D01*
X175489175Y-69600000D01*
X174510825Y-69600000D01*
X174502552Y-69596573D01*
X174499160Y-69589208D01*
X174497239Y-69564535D01*
X174468800Y-69199184D01*
X174394400Y-68919592D01*
X174305694Y-68680660D01*
X174305531Y-68680146D01*
X174274201Y-68562412D01*
X174231472Y-68401840D01*
X174231117Y-68399754D01*
X174200980Y-68012591D01*
X174203755Y-68004078D01*
X174211737Y-68000019D01*
X174212624Y-67999984D01*
X175000000Y-67999000D01*
X175787369Y-67999984D01*
G37*
G04 #@! TD.AperFunction*
G04 #@! TA.AperFunction,Conductor*
G36*
X175498001Y-69328427D02*
G01*
X175501330Y-69335186D01*
X175517500Y-69459054D01*
X175535000Y-69587859D01*
X175552499Y-69711414D01*
X175569999Y-69829719D01*
X175586562Y-69936720D01*
X175584441Y-69945420D01*
X175583059Y-69946992D01*
X175008059Y-70493342D01*
X174999701Y-70496556D01*
X174991941Y-70493342D01*
X174416939Y-69946992D01*
X174413302Y-69938809D01*
X174413435Y-69936732D01*
X174430000Y-69829719D01*
X174447500Y-69711414D01*
X174464999Y-69587859D01*
X174482499Y-69459054D01*
X174498670Y-69335184D01*
X174503139Y-69327425D01*
X174510272Y-69325000D01*
X175489728Y-69325000D01*
X175498001Y-69328427D01*
G37*
G04 #@! TD.AperFunction*
G04 #@! TA.AperFunction,Conductor*
G36*
X215423590Y-97390548D02*
G01*
X215499997Y-97415000D01*
X215579269Y-97435610D01*
X215624999Y-97447500D01*
X215625003Y-97447500D01*
X215625004Y-97447501D01*
X215749999Y-97472499D01*
X215749999Y-97472498D01*
X215750000Y-97472499D01*
X215875000Y-97489999D01*
X215989234Y-97499138D01*
X215997207Y-97503214D01*
X216000000Y-97510801D01*
X216000000Y-98489198D01*
X215996573Y-98497471D01*
X215989233Y-98500861D01*
X215920694Y-98506344D01*
X215875000Y-98510000D01*
X215750000Y-98527500D01*
X215749999Y-98527500D01*
X215625004Y-98552498D01*
X215624999Y-98552499D01*
X215579269Y-98564388D01*
X215499997Y-98584999D01*
X215379298Y-98623624D01*
X215370893Y-98623134D01*
X214497471Y-98226413D01*
X214022452Y-98010652D01*
X214016338Y-98004111D01*
X214016639Y-97995161D01*
X214022452Y-97989347D01*
X215370894Y-97376864D01*
X215379297Y-97376375D01*
X215423590Y-97390548D01*
G37*
G04 #@! TD.AperFunction*
G04 #@! TA.AperFunction,Conductor*
G36*
X166007364Y-83042466D02*
G01*
X166582528Y-83508472D01*
X166586799Y-83516342D01*
X166586791Y-83518858D01*
X166569999Y-83669500D01*
X166552499Y-83831750D01*
X166535000Y-83999249D01*
X166517500Y-84171999D01*
X166501038Y-84339445D01*
X166496818Y-84347343D01*
X166489394Y-84350000D01*
X165510606Y-84350000D01*
X165502333Y-84346573D01*
X165498962Y-84339445D01*
X165482499Y-84171999D01*
X165464999Y-83999249D01*
X165447500Y-83831750D01*
X165430000Y-83669500D01*
X165430000Y-83669499D01*
X165413208Y-83518856D01*
X165415697Y-83510256D01*
X165417463Y-83508478D01*
X165992635Y-83042466D01*
X166001220Y-83039922D01*
X166007364Y-83042466D01*
G37*
G04 #@! TD.AperFunction*
G04 #@! TA.AperFunction,Conductor*
G36*
X110757550Y-90547582D02*
G01*
X110757592Y-90547624D01*
X111310286Y-91102455D01*
X111313697Y-91110735D01*
X111310328Y-91118927D01*
X111248966Y-91181154D01*
X111248964Y-91181156D01*
X111179473Y-91271059D01*
X111179465Y-91271071D01*
X111109970Y-91380412D01*
X111109969Y-91380414D01*
X111040471Y-91509196D01*
X111040470Y-91509197D01*
X111040470Y-91509196D01*
X110971840Y-91655561D01*
X110969520Y-91658867D01*
X110630020Y-91998367D01*
X110621747Y-92001794D01*
X110613474Y-91998367D01*
X110610867Y-91994397D01*
X110530240Y-91790410D01*
X110443062Y-91590100D01*
X110355885Y-91410040D01*
X110268707Y-91250230D01*
X110186442Y-91118535D01*
X110184966Y-91109704D01*
X110188065Y-91104094D01*
X110741005Y-90547633D01*
X110749266Y-90544181D01*
X110757550Y-90547582D01*
G37*
G04 #@! TD.AperFunction*
G04 #@! TA.AperFunction,Conductor*
G36*
X112490281Y-92401827D02*
G01*
X112491908Y-92403494D01*
X112993872Y-93032147D01*
X112996356Y-93040750D01*
X112992615Y-93048090D01*
X112431000Y-93560568D01*
X112422579Y-93563613D01*
X112415118Y-93560466D01*
X112386584Y-93533754D01*
X112278306Y-93432392D01*
X112133599Y-93317177D01*
X112133593Y-93317173D01*
X112133584Y-93317166D01*
X111988900Y-93222216D01*
X111988898Y-93222215D01*
X111988895Y-93222213D01*
X111988893Y-93222212D01*
X111844186Y-93147497D01*
X111844185Y-93147496D01*
X111844182Y-93147495D01*
X111844183Y-93147495D01*
X111716463Y-93099424D01*
X111709927Y-93093303D01*
X111709634Y-93084353D01*
X111712309Y-93080203D01*
X112051417Y-92741095D01*
X112055136Y-92738592D01*
X112139023Y-92703204D01*
X112225013Y-92650350D01*
X112311004Y-92580918D01*
X112396994Y-92494907D01*
X112473799Y-92403277D01*
X112481739Y-92399139D01*
X112490281Y-92401827D01*
G37*
G04 #@! TD.AperFunction*
G04 #@! TA.AperFunction,Conductor*
G36*
X108890000Y-91621000D02*
G01*
X108980000Y-91634000D01*
X109070000Y-91643999D01*
X109160000Y-91650999D01*
X109238820Y-91654503D01*
X109246932Y-91658293D01*
X109250000Y-91666191D01*
X109250000Y-92143808D01*
X109246573Y-92152081D01*
X109238820Y-92155496D01*
X109160000Y-92159000D01*
X109070000Y-92166000D01*
X108980000Y-92175999D01*
X108890000Y-92188999D01*
X108803091Y-92204450D01*
X108797049Y-92203928D01*
X108004278Y-91915997D01*
X107997672Y-91909952D01*
X107997275Y-91901006D01*
X108003320Y-91894400D01*
X108004278Y-91894003D01*
X108797051Y-91606070D01*
X108803089Y-91605549D01*
X108890000Y-91621000D01*
G37*
G04 #@! TD.AperFunction*
G04 #@! TA.AperFunction,Conductor*
G36*
X118365000Y-76216000D02*
G01*
X118455000Y-76229000D01*
X118545000Y-76238999D01*
X118635000Y-76245999D01*
X118713820Y-76249503D01*
X118721932Y-76253293D01*
X118725000Y-76261191D01*
X118725000Y-76738808D01*
X118721573Y-76747081D01*
X118713820Y-76750496D01*
X118635000Y-76754000D01*
X118545000Y-76761000D01*
X118455000Y-76770999D01*
X118365000Y-76783999D01*
X118278091Y-76799450D01*
X118272049Y-76798928D01*
X117479278Y-76510997D01*
X117472672Y-76504952D01*
X117472275Y-76496006D01*
X117478320Y-76489400D01*
X117479278Y-76489003D01*
X118272051Y-76201070D01*
X118278089Y-76200549D01*
X118365000Y-76216000D01*
G37*
G04 #@! TD.AperFunction*
G04 #@! TA.AperFunction,Conductor*
G36*
X114462963Y-89948392D02*
G01*
X114993840Y-90532128D01*
X114996871Y-90540554D01*
X114993840Y-90547872D01*
X114462963Y-91131607D01*
X114454861Y-91135422D01*
X114446706Y-91132630D01*
X114445509Y-91131607D01*
X114324264Y-91027999D01*
X114193198Y-90936999D01*
X114193199Y-90936999D01*
X114193194Y-90936996D01*
X114062139Y-90867004D01*
X114062132Y-90867000D01*
X114062125Y-90866997D01*
X114062120Y-90866995D01*
X113931064Y-90817999D01*
X113931065Y-90817999D01*
X113809256Y-90791977D01*
X113801881Y-90786897D01*
X113800000Y-90780535D01*
X113800000Y-90299464D01*
X113803427Y-90291191D01*
X113809254Y-90288022D01*
X113931066Y-90261999D01*
X114062132Y-90212999D01*
X114193198Y-90143000D01*
X114324264Y-90052000D01*
X114446708Y-89947368D01*
X114455222Y-89944600D01*
X114462963Y-89948392D01*
G37*
G04 #@! TD.AperFunction*
G04 #@! TA.AperFunction,Conductor*
G36*
X113390675Y-89959886D02*
G01*
X113505776Y-90060497D01*
X113505779Y-90060499D01*
X113505780Y-90060500D01*
X113629334Y-90148250D01*
X113752890Y-90215750D01*
X113876445Y-90263000D01*
X113990798Y-90287989D01*
X113998149Y-90293103D01*
X114000000Y-90299419D01*
X114000000Y-90780580D01*
X113996573Y-90788853D01*
X113990798Y-90792010D01*
X113876442Y-90817000D01*
X113752890Y-90864250D01*
X113752886Y-90864251D01*
X113629341Y-90931746D01*
X113629334Y-90931750D01*
X113505776Y-91019502D01*
X113390675Y-91120113D01*
X113382191Y-91122978D01*
X113374493Y-91119363D01*
X113279608Y-91019502D01*
X112831656Y-90548058D01*
X112828443Y-90539701D01*
X112831657Y-90531941D01*
X113374495Y-89960634D01*
X113382676Y-89956999D01*
X113390675Y-89959886D01*
G37*
G04 #@! TD.AperFunction*
G04 #@! TA.AperFunction,Conductor*
G36*
X93704637Y-77751855D02*
G01*
X93900002Y-77830000D01*
X94099999Y-77894999D01*
X94099999Y-77895000D01*
X94300000Y-77945000D01*
X94299999Y-77945000D01*
X94500005Y-77980001D01*
X94605260Y-77990526D01*
X94689464Y-77998946D01*
X94697355Y-78003179D01*
X94700000Y-78010588D01*
X94700000Y-79489411D01*
X94696573Y-79497684D01*
X94689464Y-79501053D01*
X94500005Y-79519998D01*
X94299999Y-79554999D01*
X94300000Y-79554999D01*
X94099999Y-79604999D01*
X94099999Y-79605000D01*
X93900002Y-79669999D01*
X93704637Y-79748144D01*
X93695683Y-79748035D01*
X93695452Y-79747933D01*
X91522445Y-78760652D01*
X91516331Y-78754110D01*
X91516633Y-78745160D01*
X91522445Y-78739348D01*
X93695452Y-77752065D01*
X93704402Y-77751764D01*
X93704637Y-77751855D01*
G37*
G04 #@! TD.AperFunction*
G04 #@! TA.AperFunction,Conductor*
G36*
X162053992Y-80874998D02*
G01*
X162056070Y-80876488D01*
X162196536Y-80977223D01*
X162347402Y-81064417D01*
X162498268Y-81130612D01*
X162598845Y-81160741D01*
X162649133Y-81175806D01*
X162671265Y-81179355D01*
X162790154Y-81198421D01*
X162797779Y-81203113D01*
X162800000Y-81209972D01*
X162800000Y-81690027D01*
X162796573Y-81698300D01*
X162790153Y-81701579D01*
X162649133Y-81724192D01*
X162498270Y-81769386D01*
X162498264Y-81769388D01*
X162347404Y-81835581D01*
X162196531Y-81922779D01*
X162053992Y-82025001D01*
X162045272Y-82027037D01*
X162038653Y-82023511D01*
X161724856Y-81690027D01*
X161506543Y-81458016D01*
X161503370Y-81449644D01*
X161506543Y-81441983D01*
X162038653Y-80876487D01*
X162046818Y-80872811D01*
X162053992Y-80874998D01*
G37*
G04 #@! TD.AperFunction*
G04 #@! TA.AperFunction,Conductor*
G36*
X162904746Y-80692391D02*
G01*
X162906012Y-80693485D01*
X163247551Y-81034061D01*
X163250990Y-81042328D01*
X163250990Y-81042368D01*
X163250021Y-81526733D01*
X163246578Y-81535000D01*
X163239269Y-81538372D01*
X163180442Y-81543154D01*
X163042102Y-81554400D01*
X163022463Y-81559865D01*
X162897317Y-81594697D01*
X162897299Y-81594703D01*
X162773830Y-81642691D01*
X162773279Y-81642875D01*
X162629836Y-81682800D01*
X162627647Y-81683190D01*
X162433511Y-81698971D01*
X162424987Y-81696225D01*
X162420901Y-81688257D01*
X162420863Y-81687309D01*
X162420863Y-81209722D01*
X162424290Y-81201449D01*
X162430419Y-81198221D01*
X162581245Y-81170149D01*
X162668394Y-81089806D01*
X162722911Y-80972783D01*
X162784867Y-80834070D01*
X162786165Y-80831857D01*
X162888372Y-80694776D01*
X162896065Y-80690193D01*
X162904746Y-80692391D01*
G37*
G04 #@! TD.AperFunction*
G04 #@! TA.AperFunction,Conductor*
G36*
X108565675Y-87459886D02*
G01*
X108680776Y-87560497D01*
X108680779Y-87560499D01*
X108680780Y-87560500D01*
X108804334Y-87648250D01*
X108927890Y-87715750D01*
X109051445Y-87763000D01*
X109165798Y-87787989D01*
X109173149Y-87793103D01*
X109175000Y-87799419D01*
X109175000Y-88280580D01*
X109171573Y-88288853D01*
X109165798Y-88292010D01*
X109051442Y-88317000D01*
X108927890Y-88364250D01*
X108927886Y-88364251D01*
X108804341Y-88431746D01*
X108804334Y-88431750D01*
X108680776Y-88519502D01*
X108565675Y-88620113D01*
X108557191Y-88622978D01*
X108549493Y-88619363D01*
X108454608Y-88519502D01*
X108006656Y-88048058D01*
X108003443Y-88039701D01*
X108006657Y-88031941D01*
X108549495Y-87460634D01*
X108557676Y-87456999D01*
X108565675Y-87459886D01*
G37*
G04 #@! TD.AperFunction*
G04 #@! TA.AperFunction,Conductor*
G36*
X110212963Y-87448392D02*
G01*
X110743840Y-88032128D01*
X110746871Y-88040554D01*
X110743840Y-88047872D01*
X110212963Y-88631607D01*
X110204861Y-88635422D01*
X110196706Y-88632630D01*
X110195509Y-88631607D01*
X110074264Y-88527999D01*
X109943198Y-88436999D01*
X109943199Y-88436999D01*
X109943194Y-88436996D01*
X109812139Y-88367004D01*
X109812132Y-88367000D01*
X109812125Y-88366997D01*
X109812120Y-88366995D01*
X109681064Y-88317999D01*
X109681065Y-88317999D01*
X109559256Y-88291977D01*
X109551881Y-88286897D01*
X109550000Y-88280535D01*
X109550000Y-87799464D01*
X109553427Y-87791191D01*
X109559254Y-87788022D01*
X109681066Y-87761999D01*
X109812132Y-87712999D01*
X109943198Y-87643000D01*
X110074264Y-87552000D01*
X110196708Y-87447368D01*
X110205222Y-87444600D01*
X110212963Y-87448392D01*
G37*
G04 #@! TD.AperFunction*
G04 #@! TA.AperFunction,Conductor*
G36*
X108008249Y-88047296D02*
G01*
X108008295Y-88047342D01*
X108562093Y-88604258D01*
X108565497Y-88612541D01*
X108563872Y-88618457D01*
X108504777Y-88718531D01*
X108504777Y-88718532D01*
X108441074Y-88846667D01*
X108377388Y-88995018D01*
X108313694Y-89163634D01*
X108252685Y-89344539D01*
X108246794Y-89351283D01*
X108241598Y-89352500D01*
X107758402Y-89352500D01*
X107750129Y-89349073D01*
X107747316Y-89344539D01*
X107686305Y-89163634D01*
X107622611Y-88995018D01*
X107558925Y-88846667D01*
X107495222Y-88718532D01*
X107495222Y-88718531D01*
X107459257Y-88657627D01*
X107436126Y-88618455D01*
X107434872Y-88609591D01*
X107437904Y-88604260D01*
X107991705Y-88047340D01*
X107999966Y-88043892D01*
X108008249Y-88047296D01*
G37*
G04 #@! TD.AperFunction*
G04 #@! TA.AperFunction,Conductor*
G36*
X108247836Y-90038427D02*
G01*
X108251187Y-90045370D01*
X108257555Y-90101000D01*
X108265111Y-90164000D01*
X108272668Y-90224000D01*
X108280224Y-90281000D01*
X108286952Y-90329088D01*
X108284705Y-90337756D01*
X108283478Y-90339139D01*
X107983458Y-90627859D01*
X107975120Y-90631127D01*
X107966915Y-90627542D01*
X107966888Y-90627514D01*
X107913919Y-90572104D01*
X107691630Y-90339570D01*
X107688391Y-90331224D01*
X107688691Y-90328843D01*
X107699808Y-90281000D01*
X107712356Y-90224000D01*
X107724904Y-90164000D01*
X107737452Y-90101000D01*
X107748190Y-90044515D01*
X107753103Y-90037027D01*
X107759685Y-90035000D01*
X108239563Y-90035000D01*
X108247836Y-90038427D01*
G37*
G04 #@! TD.AperFunction*
G04 #@! TA.AperFunction,Conductor*
G36*
X165606080Y-102052779D02*
G01*
X165670000Y-102081999D01*
X165714718Y-102098608D01*
X165739999Y-102107999D01*
X165775003Y-102118000D01*
X165809999Y-102128000D01*
X165879999Y-102142000D01*
X165880000Y-102142000D01*
X165880000Y-102142001D01*
X165914491Y-102145941D01*
X165939629Y-102148814D01*
X165947459Y-102153158D01*
X165950000Y-102160438D01*
X165950000Y-102639561D01*
X165946573Y-102647834D01*
X165939628Y-102651185D01*
X165880000Y-102657998D01*
X165879999Y-102657999D01*
X165809999Y-102671999D01*
X165775003Y-102681998D01*
X165739999Y-102692000D01*
X165714718Y-102701390D01*
X165670000Y-102718000D01*
X165669992Y-102718003D01*
X165669991Y-102718004D01*
X165606082Y-102747219D01*
X165597133Y-102747542D01*
X165594518Y-102746169D01*
X165112729Y-102409591D01*
X165107909Y-102402044D01*
X165109838Y-102393300D01*
X165112726Y-102390410D01*
X165594517Y-102053829D01*
X165603262Y-102051901D01*
X165606080Y-102052779D01*
G37*
G04 #@! TD.AperFunction*
G04 #@! TA.AperFunction,Conductor*
G36*
X167026998Y-104365640D02*
G01*
X167029293Y-104367799D01*
X167495032Y-104942635D01*
X167497577Y-104951220D01*
X167495032Y-104957365D01*
X167029293Y-105532200D01*
X167021422Y-105536471D01*
X167018273Y-105536375D01*
X166857499Y-105509499D01*
X166689999Y-105486749D01*
X166522500Y-105469250D01*
X166355000Y-105457000D01*
X166198711Y-105450468D01*
X166190589Y-105446698D01*
X166187500Y-105438778D01*
X166187500Y-104461221D01*
X166190927Y-104452948D01*
X166198709Y-104449531D01*
X166355000Y-104442999D01*
X166522500Y-104430749D01*
X166689999Y-104413250D01*
X166857499Y-104390500D01*
X167018274Y-104363624D01*
X167026998Y-104365640D01*
G37*
G04 #@! TD.AperFunction*
G04 #@! TA.AperFunction,Conductor*
G36*
X169413154Y-97548862D02*
G01*
X169413223Y-97549024D01*
X169599127Y-97995502D01*
X169599144Y-98004456D01*
X169599127Y-98004496D01*
X169413223Y-98450975D01*
X169406879Y-98457296D01*
X169397925Y-98457279D01*
X169397763Y-98457210D01*
X169216395Y-98378474D01*
X169077576Y-98318239D01*
X169077559Y-98318233D01*
X168953998Y-98278534D01*
X168807542Y-98256686D01*
X168807527Y-98256684D01*
X168611323Y-98250364D01*
X168603165Y-98246672D01*
X168600000Y-98238670D01*
X168600000Y-97761329D01*
X168603427Y-97753056D01*
X168611322Y-97749635D01*
X168807534Y-97743314D01*
X168954000Y-97721464D01*
X169077565Y-97681763D01*
X169216395Y-97621524D01*
X169397764Y-97542788D01*
X169406716Y-97542638D01*
X169413154Y-97548862D01*
G37*
G04 #@! TD.AperFunction*
G04 #@! TA.AperFunction,Conductor*
G36*
X168153992Y-97424998D02*
G01*
X168156070Y-97426488D01*
X168296536Y-97527223D01*
X168447402Y-97614417D01*
X168598268Y-97680612D01*
X168698845Y-97710741D01*
X168749133Y-97725806D01*
X168771265Y-97729355D01*
X168890154Y-97748421D01*
X168897779Y-97753113D01*
X168900000Y-97759972D01*
X168900000Y-98240027D01*
X168896573Y-98248300D01*
X168890153Y-98251579D01*
X168749133Y-98274192D01*
X168598270Y-98319386D01*
X168598264Y-98319388D01*
X168447404Y-98385581D01*
X168296531Y-98472779D01*
X168153992Y-98575001D01*
X168145272Y-98577037D01*
X168138653Y-98573511D01*
X167824856Y-98240027D01*
X167606543Y-98008016D01*
X167603370Y-97999644D01*
X167606543Y-97991983D01*
X168138653Y-97426487D01*
X168146818Y-97422811D01*
X168153992Y-97424998D01*
G37*
G04 #@! TD.AperFunction*
G04 #@! TA.AperFunction,Conductor*
G36*
X191583717Y-74423427D02*
G01*
X191586290Y-74427313D01*
X191653331Y-74593064D01*
X191723331Y-74745131D01*
X191723332Y-74745131D01*
X191723332Y-74745132D01*
X191763449Y-74820248D01*
X191793328Y-74876194D01*
X191863333Y-74986267D01*
X191926604Y-75066770D01*
X191929022Y-75075392D01*
X191925277Y-75082656D01*
X191341203Y-75613840D01*
X191332777Y-75616871D01*
X191325459Y-75613840D01*
X190741386Y-75082656D01*
X190737571Y-75074554D01*
X190740058Y-75066772D01*
X190803332Y-74986264D01*
X190873332Y-74876198D01*
X190873334Y-74876195D01*
X190873335Y-74876194D01*
X190903213Y-74820248D01*
X190943331Y-74745132D01*
X190943331Y-74745131D01*
X190943332Y-74745131D01*
X191013332Y-74593064D01*
X191080374Y-74427313D01*
X191086653Y-74420928D01*
X191091220Y-74420000D01*
X191575444Y-74420000D01*
X191583717Y-74423427D01*
G37*
G04 #@! TD.AperFunction*
G04 #@! TA.AperFunction,Conductor*
G36*
X191340331Y-73344228D02*
G01*
X191856236Y-73729645D01*
X191860813Y-73737342D01*
X191859547Y-73744544D01*
X191808111Y-73840527D01*
X191751912Y-73963405D01*
X191751911Y-73963406D01*
X191695720Y-74104268D01*
X191639526Y-74263134D01*
X191585924Y-74431843D01*
X191580153Y-74438690D01*
X191574773Y-74440000D01*
X191091891Y-74440000D01*
X191083618Y-74436573D01*
X191080740Y-74431843D01*
X191027137Y-74263134D01*
X190970943Y-74104268D01*
X190914752Y-73963406D01*
X190914751Y-73963405D01*
X190858552Y-73840527D01*
X190832045Y-73791063D01*
X190807115Y-73744542D01*
X190806229Y-73735634D01*
X190810425Y-73729646D01*
X191326331Y-73344229D01*
X191335008Y-73342024D01*
X191340331Y-73344228D01*
G37*
G04 #@! TD.AperFunction*
G04 #@! TA.AperFunction,Conductor*
G36*
X192029339Y-72304636D02*
G01*
X192369003Y-72644300D01*
X192372430Y-72652573D01*
X192370457Y-72659075D01*
X192277309Y-72798423D01*
X192277303Y-72798432D01*
X192277301Y-72798436D01*
X192178809Y-72963781D01*
X192080316Y-73147127D01*
X191981824Y-73348472D01*
X191887978Y-73557469D01*
X191881463Y-73563612D01*
X191872844Y-73563492D01*
X191337124Y-73342562D01*
X191330783Y-73336240D01*
X191330769Y-73336207D01*
X191110264Y-72801516D01*
X191110278Y-72792561D01*
X191116619Y-72786239D01*
X191117293Y-72785985D01*
X191182238Y-72763848D01*
X191288856Y-72727509D01*
X191288855Y-72727509D01*
X191444735Y-72659075D01*
X191472205Y-72647015D01*
X191472207Y-72647014D01*
X191472207Y-72647015D01*
X191594434Y-72581352D01*
X191655550Y-72548522D01*
X191838895Y-72432030D01*
X191838894Y-72432030D01*
X191838903Y-72432025D01*
X191919365Y-72373001D01*
X192014148Y-72303474D01*
X192022843Y-72301345D01*
X192029339Y-72304636D01*
G37*
G04 #@! TD.AperFunction*
G04 #@! TA.AperFunction,Conductor*
G36*
X191736588Y-67698599D02*
G01*
X191742913Y-67704938D01*
X191743156Y-67705582D01*
X191822990Y-67936624D01*
X191844644Y-67999293D01*
X191852875Y-68023112D01*
X191853033Y-68023652D01*
X191912899Y-68272820D01*
X191972802Y-68483568D01*
X192086583Y-68697025D01*
X192301069Y-68946365D01*
X192303866Y-68954871D01*
X192300472Y-68962267D01*
X191962267Y-69300472D01*
X191953994Y-69303899D01*
X191946365Y-69301069D01*
X191697025Y-69086583D01*
X191483568Y-68972802D01*
X191483567Y-68972801D01*
X191483566Y-68972801D01*
X191272820Y-68912899D01*
X191272820Y-68912898D01*
X191023652Y-68853033D01*
X191023117Y-68852876D01*
X190936624Y-68822990D01*
X190705582Y-68743156D01*
X190698882Y-68737216D01*
X190698345Y-68728277D01*
X190698577Y-68727659D01*
X190997438Y-68003785D01*
X191003762Y-67997448D01*
X191003764Y-67997446D01*
X191727635Y-67698588D01*
X191736588Y-67698599D01*
G37*
G04 #@! TD.AperFunction*
G04 #@! TA.AperFunction,Conductor*
G36*
X189862673Y-72304636D02*
G01*
X190202337Y-72644300D01*
X190205764Y-72652573D01*
X190203791Y-72659075D01*
X190110643Y-72798423D01*
X190110637Y-72798432D01*
X190110635Y-72798436D01*
X190012143Y-72963780D01*
X190012143Y-72963781D01*
X189913650Y-73147127D01*
X189815158Y-73348472D01*
X189721312Y-73557469D01*
X189714797Y-73563612D01*
X189706178Y-73563492D01*
X189170458Y-73342562D01*
X189164117Y-73336240D01*
X189164103Y-73336207D01*
X188943598Y-72801516D01*
X188943612Y-72792561D01*
X188949953Y-72786239D01*
X188950627Y-72785985D01*
X189015572Y-72763848D01*
X189122190Y-72727509D01*
X189122189Y-72727509D01*
X189278069Y-72659075D01*
X189305539Y-72647015D01*
X189305541Y-72647014D01*
X189305541Y-72647015D01*
X189427768Y-72581352D01*
X189488884Y-72548522D01*
X189672229Y-72432030D01*
X189672228Y-72432030D01*
X189672237Y-72432025D01*
X189752699Y-72373001D01*
X189847482Y-72303474D01*
X189856177Y-72301345D01*
X189862673Y-72304636D01*
G37*
G04 #@! TD.AperFunction*
G04 #@! TA.AperFunction,Conductor*
G36*
X189736588Y-67698599D02*
G01*
X189742913Y-67704938D01*
X189743156Y-67705582D01*
X189822990Y-67936624D01*
X189844644Y-67999293D01*
X189852875Y-68023112D01*
X189853033Y-68023652D01*
X189912899Y-68272820D01*
X189972802Y-68483568D01*
X190086583Y-68697025D01*
X190301069Y-68946365D01*
X190303866Y-68954871D01*
X190300472Y-68962267D01*
X189962267Y-69300472D01*
X189953994Y-69303899D01*
X189946365Y-69301069D01*
X189697025Y-69086583D01*
X189483568Y-68972802D01*
X189483567Y-68972801D01*
X189483566Y-68972801D01*
X189272820Y-68912899D01*
X189272820Y-68912898D01*
X189023652Y-68853033D01*
X189023117Y-68852876D01*
X188936624Y-68822990D01*
X188705582Y-68743156D01*
X188698882Y-68737216D01*
X188698345Y-68728277D01*
X188698577Y-68727659D01*
X188997438Y-68003785D01*
X189003762Y-67997448D01*
X189003764Y-67997446D01*
X189727635Y-67698588D01*
X189736588Y-67698599D01*
G37*
G04 #@! TD.AperFunction*
G04 #@! TA.AperFunction,Conductor*
G36*
X189173665Y-73344228D02*
G01*
X189689570Y-73729645D01*
X189694147Y-73737342D01*
X189692881Y-73744544D01*
X189641445Y-73840527D01*
X189585246Y-73963405D01*
X189585245Y-73963406D01*
X189529054Y-74104268D01*
X189472860Y-74263134D01*
X189419258Y-74431843D01*
X189413487Y-74438690D01*
X189408107Y-74440000D01*
X188925225Y-74440000D01*
X188916952Y-74436573D01*
X188914074Y-74431843D01*
X188860471Y-74263134D01*
X188804277Y-74104268D01*
X188748086Y-73963406D01*
X188748085Y-73963405D01*
X188691886Y-73840527D01*
X188665379Y-73791063D01*
X188640449Y-73744542D01*
X188639563Y-73735634D01*
X188643759Y-73729646D01*
X189159665Y-73344229D01*
X189168342Y-73342024D01*
X189173665Y-73344228D01*
G37*
G04 #@! TD.AperFunction*
G04 #@! TA.AperFunction,Conductor*
G36*
X189417051Y-74423427D02*
G01*
X189419624Y-74427313D01*
X189486665Y-74593064D01*
X189556665Y-74745131D01*
X189556666Y-74745131D01*
X189556666Y-74745132D01*
X189596783Y-74820248D01*
X189626662Y-74876194D01*
X189696667Y-74986267D01*
X189759938Y-75066770D01*
X189762356Y-75075392D01*
X189758611Y-75082656D01*
X189174538Y-75613840D01*
X189166112Y-75616871D01*
X189158794Y-75613840D01*
X188574720Y-75082656D01*
X188570905Y-75074554D01*
X188573392Y-75066772D01*
X188636666Y-74986264D01*
X188706666Y-74876198D01*
X188706668Y-74876195D01*
X188706669Y-74876194D01*
X188736547Y-74820248D01*
X188776665Y-74745132D01*
X188776665Y-74745131D01*
X188776666Y-74745131D01*
X188846666Y-74593064D01*
X188913708Y-74427313D01*
X188919987Y-74420928D01*
X188924554Y-74420000D01*
X189408778Y-74420000D01*
X189417051Y-74423427D01*
G37*
G04 #@! TD.AperFunction*
G04 #@! TA.AperFunction,Conductor*
G36*
X187737753Y-67698118D02*
G01*
X187743850Y-67703941D01*
X187908106Y-68053051D01*
X187977582Y-68177834D01*
X188044732Y-68298439D01*
X188045706Y-68300734D01*
X188071185Y-68384724D01*
X188071186Y-68384727D01*
X188082702Y-68406271D01*
X188164101Y-68558560D01*
X188165115Y-68561167D01*
X188225559Y-68796705D01*
X188225903Y-68798886D01*
X188249226Y-69173359D01*
X188246320Y-69181829D01*
X188238276Y-69185763D01*
X188237549Y-69185786D01*
X187759222Y-69185786D01*
X187750949Y-69182359D01*
X187747846Y-69176819D01*
X187747015Y-69173359D01*
X187691013Y-68940224D01*
X187691012Y-68940223D01*
X187530794Y-68844053D01*
X187294454Y-68825995D01*
X187008264Y-68814816D01*
X187005974Y-68814498D01*
X186707144Y-68742314D01*
X186699907Y-68737040D01*
X186698518Y-68728194D01*
X186699077Y-68726474D01*
X186998143Y-68003488D01*
X187004472Y-67997154D01*
X187004481Y-67997149D01*
X187728800Y-67698107D01*
X187737753Y-67698118D01*
G37*
G04 #@! TD.AperFunction*
G04 #@! TA.AperFunction,Conductor*
G36*
X187250385Y-74423427D02*
G01*
X187252958Y-74427313D01*
X187319999Y-74593064D01*
X187389999Y-74745131D01*
X187390000Y-74745131D01*
X187390000Y-74745132D01*
X187430117Y-74820248D01*
X187459996Y-74876194D01*
X187530001Y-74986267D01*
X187593272Y-75066770D01*
X187595690Y-75075392D01*
X187591945Y-75082656D01*
X187007872Y-75613840D01*
X186999446Y-75616871D01*
X186992128Y-75613840D01*
X186408054Y-75082656D01*
X186404239Y-75074554D01*
X186406726Y-75066772D01*
X186470000Y-74986264D01*
X186540000Y-74876198D01*
X186540002Y-74876195D01*
X186540003Y-74876194D01*
X186569881Y-74820248D01*
X186609999Y-74745132D01*
X186609999Y-74745131D01*
X186610000Y-74745131D01*
X186680000Y-74593064D01*
X186747042Y-74427313D01*
X186753321Y-74420928D01*
X186757888Y-74420000D01*
X187242112Y-74420000D01*
X187250385Y-74423427D01*
G37*
G04 #@! TD.AperFunction*
G04 #@! TA.AperFunction,Conductor*
G36*
X187006999Y-73344228D02*
G01*
X187522904Y-73729645D01*
X187527481Y-73737342D01*
X187526215Y-73744544D01*
X187474779Y-73840527D01*
X187418580Y-73963405D01*
X187418579Y-73963406D01*
X187362388Y-74104268D01*
X187306194Y-74263134D01*
X187252592Y-74431843D01*
X187246821Y-74438690D01*
X187241441Y-74440000D01*
X186758559Y-74440000D01*
X186750286Y-74436573D01*
X186747408Y-74431843D01*
X186693805Y-74263134D01*
X186637611Y-74104268D01*
X186581420Y-73963406D01*
X186581419Y-73963405D01*
X186525220Y-73840527D01*
X186498713Y-73791063D01*
X186473783Y-73744542D01*
X186472897Y-73735634D01*
X186477093Y-73729646D01*
X186992999Y-73344229D01*
X187001676Y-73342024D01*
X187006999Y-73344228D01*
G37*
G04 #@! TD.AperFunction*
G04 #@! TA.AperFunction,Conductor*
G36*
X187696007Y-72304636D02*
G01*
X188035671Y-72644300D01*
X188039098Y-72652573D01*
X188037125Y-72659075D01*
X187943977Y-72798423D01*
X187943971Y-72798432D01*
X187943969Y-72798436D01*
X187845477Y-72963780D01*
X187845477Y-72963781D01*
X187746984Y-73147127D01*
X187648492Y-73348472D01*
X187554646Y-73557469D01*
X187548131Y-73563612D01*
X187539512Y-73563492D01*
X187003792Y-73342562D01*
X186997451Y-73336240D01*
X186997437Y-73336207D01*
X186776932Y-72801516D01*
X186776946Y-72792561D01*
X186783287Y-72786239D01*
X186783961Y-72785985D01*
X186848906Y-72763848D01*
X186955524Y-72727509D01*
X186955523Y-72727509D01*
X187111403Y-72659075D01*
X187138873Y-72647015D01*
X187138875Y-72647014D01*
X187138875Y-72647015D01*
X187261103Y-72581352D01*
X187322218Y-72548522D01*
X187505563Y-72432030D01*
X187505562Y-72432030D01*
X187505571Y-72432025D01*
X187586033Y-72373001D01*
X187680816Y-72303474D01*
X187689511Y-72301345D01*
X187696007Y-72304636D01*
G37*
G04 #@! TD.AperFunction*
G04 #@! TA.AperFunction,Conductor*
G36*
X193736588Y-67698599D02*
G01*
X193742913Y-67704938D01*
X193743156Y-67705582D01*
X193822990Y-67936624D01*
X193844644Y-67999293D01*
X193852875Y-68023112D01*
X193853033Y-68023652D01*
X193912899Y-68272820D01*
X193972802Y-68483568D01*
X194086583Y-68697025D01*
X194301069Y-68946365D01*
X194303866Y-68954871D01*
X194300472Y-68962267D01*
X193962267Y-69300472D01*
X193953994Y-69303899D01*
X193946365Y-69301069D01*
X193697025Y-69086583D01*
X193483568Y-68972802D01*
X193483567Y-68972801D01*
X193483566Y-68972801D01*
X193272820Y-68912899D01*
X193272820Y-68912898D01*
X193023652Y-68853033D01*
X193023117Y-68852876D01*
X192936624Y-68822990D01*
X192705582Y-68743156D01*
X192698882Y-68737216D01*
X192698345Y-68728277D01*
X192698577Y-68727659D01*
X192997438Y-68003785D01*
X193003762Y-67997448D01*
X193003764Y-67997446D01*
X193727635Y-67698588D01*
X193736588Y-67698599D01*
G37*
G04 #@! TD.AperFunction*
G04 #@! TA.AperFunction,Conductor*
G36*
X193750385Y-74423427D02*
G01*
X193752958Y-74427313D01*
X193819999Y-74593064D01*
X193889999Y-74745131D01*
X193890000Y-74745131D01*
X193890000Y-74745132D01*
X193930117Y-74820248D01*
X193959996Y-74876194D01*
X194030001Y-74986267D01*
X194093272Y-75066770D01*
X194095690Y-75075392D01*
X194091945Y-75082656D01*
X193507872Y-75613840D01*
X193499446Y-75616871D01*
X193492128Y-75613840D01*
X192908054Y-75082656D01*
X192904239Y-75074554D01*
X192906726Y-75066772D01*
X192970000Y-74986264D01*
X193040000Y-74876198D01*
X193040002Y-74876195D01*
X193040003Y-74876194D01*
X193069881Y-74820248D01*
X193109999Y-74745132D01*
X193109999Y-74745131D01*
X193110000Y-74745131D01*
X193180000Y-74593064D01*
X193247042Y-74427313D01*
X193253321Y-74420928D01*
X193257888Y-74420000D01*
X193742112Y-74420000D01*
X193750385Y-74423427D01*
G37*
G04 #@! TD.AperFunction*
G04 #@! TA.AperFunction,Conductor*
G36*
X193506999Y-73344228D02*
G01*
X194022904Y-73729645D01*
X194027481Y-73737342D01*
X194026215Y-73744544D01*
X193974779Y-73840527D01*
X193918580Y-73963405D01*
X193918579Y-73963406D01*
X193862388Y-74104268D01*
X193806194Y-74263134D01*
X193752592Y-74431843D01*
X193746821Y-74438690D01*
X193741441Y-74440000D01*
X193258559Y-74440000D01*
X193250286Y-74436573D01*
X193247408Y-74431843D01*
X193193805Y-74263134D01*
X193137611Y-74104268D01*
X193081420Y-73963406D01*
X193081419Y-73963405D01*
X193025220Y-73840527D01*
X192998713Y-73791063D01*
X192973783Y-73744542D01*
X192972897Y-73735634D01*
X192977093Y-73729646D01*
X193492999Y-73344229D01*
X193501676Y-73342024D01*
X193506999Y-73344228D01*
G37*
G04 #@! TD.AperFunction*
G04 #@! TA.AperFunction,Conductor*
G36*
X194196007Y-72304636D02*
G01*
X194535671Y-72644300D01*
X194539098Y-72652573D01*
X194537125Y-72659075D01*
X194443977Y-72798423D01*
X194443971Y-72798432D01*
X194443969Y-72798436D01*
X194345477Y-72963780D01*
X194345477Y-72963781D01*
X194246984Y-73147127D01*
X194148492Y-73348472D01*
X194054646Y-73557469D01*
X194048131Y-73563612D01*
X194039512Y-73563492D01*
X193503792Y-73342562D01*
X193497451Y-73336240D01*
X193497437Y-73336207D01*
X193276932Y-72801516D01*
X193276946Y-72792561D01*
X193283287Y-72786239D01*
X193283961Y-72785985D01*
X193348906Y-72763848D01*
X193455524Y-72727509D01*
X193455523Y-72727509D01*
X193611403Y-72659075D01*
X193638873Y-72647015D01*
X193638875Y-72647014D01*
X193638875Y-72647015D01*
X193761103Y-72581352D01*
X193822218Y-72548522D01*
X194005563Y-72432030D01*
X194005562Y-72432030D01*
X194005571Y-72432025D01*
X194086033Y-72373001D01*
X194180816Y-72303474D01*
X194189511Y-72301345D01*
X194196007Y-72304636D01*
G37*
G04 #@! TD.AperFunction*
G04 #@! TA.AperFunction,Conductor*
G36*
X187699168Y-77475148D02*
G01*
X187703648Y-77480616D01*
X187793574Y-77706040D01*
X187887148Y-77919609D01*
X187980722Y-78112179D01*
X188033223Y-78208440D01*
X188074298Y-78283752D01*
X188162970Y-78426433D01*
X188164427Y-78435269D01*
X188161306Y-78440882D01*
X187821408Y-78780780D01*
X187813135Y-78784207D01*
X187806225Y-78781948D01*
X187601749Y-78632297D01*
X187601748Y-78632296D01*
X187389179Y-78497722D01*
X187389180Y-78497722D01*
X187389176Y-78497720D01*
X187389177Y-78497720D01*
X187176617Y-78384152D01*
X187176618Y-78384152D01*
X187176615Y-78384150D01*
X187176610Y-78384148D01*
X186964041Y-78291574D01*
X186763322Y-78223990D01*
X186756575Y-78218103D01*
X186755968Y-78209168D01*
X186756229Y-78208467D01*
X186996937Y-77625002D01*
X187003260Y-77618662D01*
X187005330Y-77618019D01*
X187690367Y-77473503D01*
X187699168Y-77475148D01*
G37*
G04 #@! TD.AperFunction*
G04 #@! TA.AperFunction,Conductor*
G36*
X212632175Y-89378259D02*
G01*
X213754156Y-89887880D01*
X213977546Y-89989347D01*
X213983661Y-89995889D01*
X213983360Y-90004839D01*
X213977546Y-90010653D01*
X212632179Y-90621739D01*
X212623229Y-90622040D01*
X212619282Y-90619569D01*
X212499999Y-90506267D01*
X212375000Y-90409402D01*
X212249997Y-90334401D01*
X212124995Y-90281266D01*
X212008861Y-90252216D01*
X212001666Y-90246884D01*
X212000000Y-90240866D01*
X212000000Y-89759133D01*
X212003427Y-89750860D01*
X212008859Y-89747783D01*
X212124999Y-89718731D01*
X212249999Y-89665597D01*
X212375000Y-89590597D01*
X212500000Y-89493731D01*
X212619284Y-89380429D01*
X212627641Y-89377217D01*
X212632175Y-89378259D01*
G37*
G04 #@! TD.AperFunction*
G04 #@! TA.AperFunction,Conductor*
G36*
X189865834Y-77475148D02*
G01*
X189870314Y-77480616D01*
X189960240Y-77706040D01*
X190053814Y-77919609D01*
X190147388Y-78112179D01*
X190199889Y-78208440D01*
X190240964Y-78283752D01*
X190329636Y-78426433D01*
X190331093Y-78435269D01*
X190327972Y-78440882D01*
X189988074Y-78780780D01*
X189979801Y-78784207D01*
X189972891Y-78781948D01*
X189768415Y-78632297D01*
X189768414Y-78632296D01*
X189555845Y-78497722D01*
X189555846Y-78497722D01*
X189555842Y-78497720D01*
X189555843Y-78497720D01*
X189343283Y-78384152D01*
X189343284Y-78384152D01*
X189343281Y-78384150D01*
X189343276Y-78384148D01*
X189130707Y-78291574D01*
X188929988Y-78223990D01*
X188923241Y-78218103D01*
X188922634Y-78209168D01*
X188922895Y-78208467D01*
X189163603Y-77625002D01*
X189169926Y-77618662D01*
X189171996Y-77618019D01*
X189857033Y-77473503D01*
X189865834Y-77475148D01*
G37*
G04 #@! TD.AperFunction*
G04 #@! TA.AperFunction,Conductor*
G36*
X212632175Y-86838259D02*
G01*
X213754156Y-87347880D01*
X213977546Y-87449347D01*
X213983661Y-87455889D01*
X213983360Y-87464839D01*
X213977546Y-87470653D01*
X212632179Y-88081739D01*
X212623229Y-88082040D01*
X212619282Y-88079569D01*
X212499999Y-87966267D01*
X212375000Y-87869402D01*
X212249997Y-87794401D01*
X212124995Y-87741266D01*
X212008861Y-87712216D01*
X212001666Y-87706884D01*
X212000000Y-87700866D01*
X212000000Y-87219133D01*
X212003427Y-87210860D01*
X212008859Y-87207783D01*
X212124999Y-87178731D01*
X212249999Y-87125597D01*
X212375000Y-87050597D01*
X212500000Y-86953731D01*
X212619284Y-86840429D01*
X212627641Y-86837217D01*
X212632175Y-86838259D01*
G37*
G04 #@! TD.AperFunction*
G04 #@! TA.AperFunction,Conductor*
G36*
X192032500Y-77475149D02*
G01*
X192036980Y-77480617D01*
X192126906Y-77706041D01*
X192220480Y-77919610D01*
X192314054Y-78112179D01*
X192366555Y-78208440D01*
X192407630Y-78283752D01*
X192496302Y-78426433D01*
X192497759Y-78435269D01*
X192494638Y-78440882D01*
X192154740Y-78780780D01*
X192146467Y-78784207D01*
X192139557Y-78781948D01*
X191935081Y-78632297D01*
X191935080Y-78632296D01*
X191722511Y-78497722D01*
X191722512Y-78497722D01*
X191722508Y-78497720D01*
X191722509Y-78497720D01*
X191509949Y-78384152D01*
X191509950Y-78384152D01*
X191509947Y-78384150D01*
X191509942Y-78384148D01*
X191297373Y-78291574D01*
X191096654Y-78223990D01*
X191089907Y-78218103D01*
X191089300Y-78209168D01*
X191089561Y-78208467D01*
X191330269Y-77625002D01*
X191336592Y-77618662D01*
X191338662Y-77618019D01*
X192023698Y-77473504D01*
X192032500Y-77475149D01*
G37*
G04 #@! TD.AperFunction*
G04 #@! TA.AperFunction,Conductor*
G36*
X212632175Y-84298259D02*
G01*
X213754156Y-84807880D01*
X213977546Y-84909347D01*
X213983661Y-84915889D01*
X213983360Y-84924839D01*
X213977546Y-84930653D01*
X212632179Y-85541739D01*
X212623229Y-85542040D01*
X212619282Y-85539569D01*
X212499999Y-85426267D01*
X212375000Y-85329402D01*
X212249997Y-85254401D01*
X212124995Y-85201266D01*
X212008861Y-85172216D01*
X212001666Y-85166884D01*
X212000000Y-85160866D01*
X212000000Y-84679133D01*
X212003427Y-84670860D01*
X212008859Y-84667783D01*
X212124999Y-84638731D01*
X212249999Y-84585597D01*
X212375000Y-84510597D01*
X212500000Y-84413731D01*
X212619284Y-84300429D01*
X212627641Y-84297217D01*
X212632175Y-84298259D01*
G37*
G04 #@! TD.AperFunction*
G04 #@! TA.AperFunction,Conductor*
G36*
X212632175Y-81758259D02*
G01*
X213754156Y-82267880D01*
X213977546Y-82369347D01*
X213983661Y-82375889D01*
X213983360Y-82384839D01*
X213977546Y-82390653D01*
X212632179Y-83001739D01*
X212623229Y-83002040D01*
X212619282Y-82999569D01*
X212499999Y-82886267D01*
X212375000Y-82789402D01*
X212249997Y-82714401D01*
X212124995Y-82661266D01*
X212008861Y-82632216D01*
X212001666Y-82626884D01*
X212000000Y-82620866D01*
X212000000Y-82139133D01*
X212003427Y-82130860D01*
X212008859Y-82127783D01*
X212124999Y-82098731D01*
X212249999Y-82045597D01*
X212375000Y-81970597D01*
X212500000Y-81873731D01*
X212619284Y-81760429D01*
X212627641Y-81757217D01*
X212632175Y-81758259D01*
G37*
G04 #@! TD.AperFunction*
G04 #@! TA.AperFunction,Conductor*
G36*
X194199168Y-77475149D02*
G01*
X194203648Y-77480617D01*
X194293574Y-77706041D01*
X194387148Y-77919610D01*
X194480722Y-78112179D01*
X194533223Y-78208440D01*
X194574298Y-78283752D01*
X194662970Y-78426433D01*
X194664427Y-78435269D01*
X194661306Y-78440882D01*
X194321408Y-78780780D01*
X194313135Y-78784207D01*
X194306225Y-78781948D01*
X194101749Y-78632297D01*
X194101748Y-78632296D01*
X193889179Y-78497722D01*
X193889180Y-78497722D01*
X193889176Y-78497720D01*
X193889177Y-78497720D01*
X193676617Y-78384152D01*
X193676618Y-78384152D01*
X193676615Y-78384150D01*
X193676610Y-78384148D01*
X193464041Y-78291574D01*
X193263322Y-78223990D01*
X193256575Y-78218103D01*
X193255968Y-78209168D01*
X193256229Y-78208467D01*
X193496937Y-77625002D01*
X193503260Y-77618662D01*
X193505330Y-77618019D01*
X194190366Y-77473504D01*
X194199168Y-77475149D01*
G37*
G04 #@! TD.AperFunction*
G04 #@! TA.AperFunction,Conductor*
G36*
X169660036Y-102052682D02*
G01*
X169879278Y-102161167D01*
X169879284Y-102161169D01*
X169879284Y-102161170D01*
X170106034Y-102252371D01*
X170106044Y-102252375D01*
X170332811Y-102322584D01*
X170559577Y-102371792D01*
X170772486Y-102398276D01*
X170780273Y-102402698D01*
X170782653Y-102411331D01*
X170782220Y-102413341D01*
X170602448Y-102995073D01*
X170596732Y-103001966D01*
X170595144Y-103002659D01*
X169909205Y-103243360D01*
X169900264Y-103242866D01*
X169895167Y-103238115D01*
X169779796Y-103035783D01*
X169659586Y-102845962D01*
X169659586Y-102845963D01*
X169539377Y-102677145D01*
X169539376Y-102677144D01*
X169419168Y-102529328D01*
X169419166Y-102529325D01*
X169419165Y-102529325D01*
X169309224Y-102413341D01*
X169306795Y-102410779D01*
X169303591Y-102402418D01*
X169307013Y-102394459D01*
X169646577Y-102054895D01*
X169654849Y-102051469D01*
X169660036Y-102052682D01*
G37*
G04 #@! TD.AperFunction*
G04 #@! TA.AperFunction,Conductor*
G36*
X165606080Y-101102779D02*
G01*
X165670000Y-101131999D01*
X165714718Y-101148608D01*
X165739999Y-101157999D01*
X165775003Y-101168000D01*
X165809999Y-101178000D01*
X165879999Y-101192000D01*
X165880000Y-101192000D01*
X165880000Y-101192001D01*
X165914491Y-101195941D01*
X165939629Y-101198814D01*
X165947459Y-101203158D01*
X165950000Y-101210438D01*
X165950000Y-101689561D01*
X165946573Y-101697834D01*
X165939628Y-101701185D01*
X165880000Y-101707998D01*
X165879999Y-101707999D01*
X165809999Y-101721999D01*
X165775003Y-101731998D01*
X165739999Y-101742000D01*
X165714718Y-101751390D01*
X165670000Y-101768000D01*
X165669992Y-101768003D01*
X165669991Y-101768004D01*
X165606082Y-101797219D01*
X165597133Y-101797542D01*
X165594517Y-101796169D01*
X165112728Y-101459590D01*
X165107909Y-101452043D01*
X165109838Y-101443298D01*
X165112726Y-101440410D01*
X165554196Y-101131999D01*
X165594518Y-101103830D01*
X165603262Y-101101901D01*
X165606080Y-101102779D01*
G37*
G04 #@! TD.AperFunction*
G04 #@! TA.AperFunction,Conductor*
G36*
X171176026Y-102440619D02*
G01*
X171176896Y-102441339D01*
X171314264Y-102555068D01*
X171314269Y-102555072D01*
X171314275Y-102555076D01*
X171460706Y-102655307D01*
X171510903Y-102682467D01*
X171607130Y-102734534D01*
X171607134Y-102734535D01*
X171607137Y-102734537D01*
X171753568Y-102792768D01*
X171753576Y-102792770D01*
X171753579Y-102792771D01*
X171827002Y-102811439D01*
X171891183Y-102827758D01*
X171898357Y-102833118D01*
X171900000Y-102839097D01*
X171900000Y-103318917D01*
X171896573Y-103327190D01*
X171888935Y-103330600D01*
X171749132Y-103338194D01*
X171598270Y-103367387D01*
X171447395Y-103417583D01*
X171296537Y-103488774D01*
X171296533Y-103488776D01*
X171153780Y-103576014D01*
X171144934Y-103577404D01*
X171139159Y-103574049D01*
X170606796Y-103008285D01*
X170603622Y-102999911D01*
X170607062Y-102991975D01*
X171160315Y-102441338D01*
X171168595Y-102437932D01*
X171176026Y-102440619D01*
G37*
G04 #@! TD.AperFunction*
G04 #@! TA.AperFunction,Conductor*
G36*
X212632175Y-102458259D02*
G01*
X213754156Y-102967880D01*
X213977546Y-103069347D01*
X213983661Y-103075889D01*
X213983360Y-103084839D01*
X213977546Y-103090653D01*
X212632179Y-103701739D01*
X212623229Y-103702040D01*
X212619282Y-103699569D01*
X212499999Y-103586267D01*
X212375000Y-103489402D01*
X212249997Y-103414401D01*
X212124995Y-103361266D01*
X212008861Y-103332216D01*
X212001666Y-103326884D01*
X212000000Y-103320866D01*
X212000000Y-102839133D01*
X212003427Y-102830860D01*
X212008859Y-102827783D01*
X212124999Y-102798731D01*
X212249999Y-102745597D01*
X212375000Y-102670597D01*
X212500000Y-102573731D01*
X212619284Y-102460429D01*
X212627641Y-102457217D01*
X212632175Y-102458259D01*
G37*
G04 #@! TD.AperFunction*
G04 #@! TA.AperFunction,Conductor*
G36*
X115471404Y-97647394D02*
G01*
X116206709Y-98381721D01*
X116210141Y-98389992D01*
X116206720Y-98398268D01*
X116206709Y-98398279D01*
X115471404Y-99132605D01*
X115463128Y-99136026D01*
X115455827Y-99133462D01*
X115314000Y-99020000D01*
X115313994Y-99019996D01*
X115164010Y-98922506D01*
X115164003Y-98922502D01*
X115164000Y-98922500D01*
X115014000Y-98847500D01*
X115013999Y-98847500D01*
X114864002Y-98795000D01*
X114723405Y-98766881D01*
X114715965Y-98761898D01*
X114714000Y-98755408D01*
X114714000Y-98024591D01*
X114717427Y-98016318D01*
X114723403Y-98013119D01*
X114864000Y-97985000D01*
X115014000Y-97932500D01*
X115164000Y-97857500D01*
X115314000Y-97760000D01*
X115455829Y-97646536D01*
X115464428Y-97644045D01*
X115471404Y-97647394D01*
G37*
G04 #@! TD.AperFunction*
G04 #@! TA.AperFunction,Conductor*
G36*
X119452074Y-98082720D02*
G01*
X119452204Y-98082775D01*
X119633604Y-98161524D01*
X119772434Y-98221763D01*
X119895998Y-98261464D01*
X120042465Y-98283314D01*
X120238677Y-98289635D01*
X120246835Y-98293327D01*
X120250000Y-98301329D01*
X120250000Y-98778670D01*
X120246573Y-98786943D01*
X120238677Y-98790364D01*
X120042471Y-98796684D01*
X120042456Y-98796686D01*
X119896000Y-98818534D01*
X119895998Y-98818534D01*
X119772439Y-98858233D01*
X119772422Y-98858239D01*
X119633604Y-98918474D01*
X119452236Y-98997210D01*
X119443283Y-98997361D01*
X119436845Y-98991137D01*
X119436776Y-98990975D01*
X119250871Y-98544495D01*
X119250855Y-98535544D01*
X119436777Y-98089022D01*
X119443120Y-98082703D01*
X119452074Y-98082720D01*
G37*
G04 #@! TD.AperFunction*
G04 #@! TA.AperFunction,Conductor*
G36*
X120044679Y-97719161D02*
G01*
X120044849Y-97719311D01*
X120778307Y-98382144D01*
X120782147Y-98390234D01*
X120779143Y-98398670D01*
X120779132Y-98398681D01*
X120043904Y-99210061D01*
X120035809Y-99213891D01*
X120027378Y-99210875D01*
X120027325Y-99210827D01*
X119964831Y-99153503D01*
X119886000Y-99081193D01*
X119736000Y-98969518D01*
X119586000Y-98883761D01*
X119585998Y-98883760D01*
X119585996Y-98883759D01*
X119585997Y-98883759D01*
X119436007Y-98823924D01*
X119436002Y-98823922D01*
X119436000Y-98823922D01*
X119345408Y-98803435D01*
X119295119Y-98792062D01*
X119287806Y-98786894D01*
X119286000Y-98780650D01*
X119286000Y-98297974D01*
X119289427Y-98289701D01*
X119293416Y-98287087D01*
X119436000Y-98231100D01*
X119586000Y-98143782D01*
X119736000Y-98028044D01*
X119886000Y-97883888D01*
X120028175Y-97720315D01*
X120036187Y-97716321D01*
X120044679Y-97719161D01*
G37*
G04 #@! TD.AperFunction*
G04 #@! TA.AperFunction,Conductor*
G36*
X114462963Y-87408392D02*
G01*
X114993840Y-87992128D01*
X114996871Y-88000554D01*
X114993840Y-88007872D01*
X114462963Y-88591607D01*
X114454861Y-88595422D01*
X114446706Y-88592630D01*
X114445509Y-88591607D01*
X114324264Y-88487999D01*
X114193198Y-88396999D01*
X114193199Y-88396999D01*
X114193194Y-88396996D01*
X114062139Y-88327004D01*
X114062132Y-88327000D01*
X114062125Y-88326997D01*
X114062120Y-88326995D01*
X113931064Y-88277999D01*
X113931065Y-88277999D01*
X113809256Y-88251977D01*
X113801881Y-88246897D01*
X113800000Y-88240535D01*
X113800000Y-87759464D01*
X113803427Y-87751191D01*
X113809254Y-87748022D01*
X113931066Y-87721999D01*
X114062132Y-87672999D01*
X114193198Y-87603000D01*
X114324264Y-87512000D01*
X114446708Y-87407368D01*
X114455222Y-87404600D01*
X114462963Y-87408392D01*
G37*
G04 #@! TD.AperFunction*
G04 #@! TA.AperFunction,Conductor*
G36*
X113291377Y-87428995D02*
G01*
X113416057Y-87529516D01*
X113549543Y-87616137D01*
X113683028Y-87681758D01*
X113683035Y-87681760D01*
X113683041Y-87681763D01*
X113772145Y-87711547D01*
X113816514Y-87726379D01*
X113940339Y-87748290D01*
X113947888Y-87753106D01*
X113950000Y-87759811D01*
X113950000Y-88240877D01*
X113946573Y-88249150D01*
X113941154Y-88252224D01*
X113821367Y-88282351D01*
X113821362Y-88282353D01*
X113692756Y-88335693D01*
X113692752Y-88335695D01*
X113564113Y-88410053D01*
X113564111Y-88410054D01*
X113435491Y-88505398D01*
X113315289Y-88614128D01*
X113306854Y-88617136D01*
X113298995Y-88613549D01*
X113032556Y-88335700D01*
X112756367Y-88047683D01*
X112753116Y-88039341D01*
X112755955Y-88031942D01*
X113275180Y-87430458D01*
X113283180Y-87426435D01*
X113291377Y-87428995D01*
G37*
G04 #@! TD.AperFunction*
G04 #@! TA.AperFunction,Conductor*
G36*
X113800748Y-87862339D02*
G01*
X113801623Y-87863131D01*
X114139408Y-88200916D01*
X114142835Y-88209189D01*
X114141028Y-88215436D01*
X114069765Y-88328284D01*
X114087858Y-88431675D01*
X114165173Y-88534803D01*
X114236281Y-88618922D01*
X114265929Y-88653995D01*
X114267081Y-88655621D01*
X114350139Y-88797076D01*
X114351373Y-88805945D01*
X114345974Y-88813089D01*
X114344536Y-88813806D01*
X113898785Y-88998842D01*
X113889830Y-88998848D01*
X113442948Y-88812775D01*
X113436627Y-88806431D01*
X113436290Y-88798448D01*
X113510766Y-88563045D01*
X113540023Y-88372911D01*
X113566143Y-88211495D01*
X113566910Y-88208825D01*
X113634683Y-88048067D01*
X113636394Y-88045221D01*
X113784286Y-87864004D01*
X113792171Y-87859764D01*
X113800748Y-87862339D01*
G37*
G04 #@! TD.AperFunction*
G04 #@! TA.AperFunction,Conductor*
G36*
X117957427Y-73903015D02*
G01*
X117960005Y-73905139D01*
X118056286Y-74011007D01*
X118493840Y-74492128D01*
X118496871Y-74500554D01*
X118493840Y-74507872D01*
X117960008Y-75094857D01*
X117951906Y-75098672D01*
X117948577Y-75098351D01*
X117824264Y-75068000D01*
X117693198Y-75042000D01*
X117562129Y-75021998D01*
X117431071Y-75007999D01*
X117310987Y-75000670D01*
X117302938Y-74996746D01*
X117300000Y-74988992D01*
X117300000Y-74011007D01*
X117303427Y-74002734D01*
X117310986Y-73999329D01*
X117383796Y-73994885D01*
X117431070Y-73992000D01*
X117431069Y-73992000D01*
X117562129Y-73978001D01*
X117693198Y-73957999D01*
X117824264Y-73931999D01*
X117824263Y-73931999D01*
X117948579Y-73901648D01*
X117957427Y-73903015D01*
G37*
G04 #@! TD.AperFunction*
G04 #@! TA.AperFunction,Conductor*
G36*
X117241417Y-73901647D02*
G01*
X117365735Y-73931998D01*
X117365735Y-73931999D01*
X117496801Y-73957999D01*
X117627870Y-73978001D01*
X117758930Y-73992000D01*
X117758929Y-73992000D01*
X117805815Y-73994861D01*
X117879013Y-73999329D01*
X117887062Y-74003253D01*
X117890000Y-74011007D01*
X117890000Y-74988992D01*
X117886573Y-74997265D01*
X117879013Y-75000670D01*
X117758928Y-75007999D01*
X117627870Y-75021998D01*
X117496801Y-75042000D01*
X117365735Y-75068000D01*
X117241422Y-75098351D01*
X117232572Y-75096984D01*
X117229993Y-75094859D01*
X116696158Y-74507871D01*
X116693128Y-74499446D01*
X116696159Y-74492128D01*
X117229993Y-73905140D01*
X117238093Y-73901327D01*
X117241417Y-73901647D01*
G37*
G04 #@! TD.AperFunction*
G04 #@! TA.AperFunction,Conductor*
G36*
X119749919Y-93743427D02*
G01*
X119752712Y-93747902D01*
X119816193Y-93932865D01*
X119882387Y-94104731D01*
X119948582Y-94255597D01*
X120014776Y-94385463D01*
X120014780Y-94385469D01*
X120076043Y-94486226D01*
X120077413Y-94495076D01*
X120074064Y-94500826D01*
X119508018Y-95033455D01*
X119499644Y-95036629D01*
X119491982Y-95033455D01*
X118925935Y-94500826D01*
X118922258Y-94492661D01*
X118923955Y-94486228D01*
X118985223Y-94385463D01*
X119051417Y-94255597D01*
X119117612Y-94104731D01*
X119183806Y-93932865D01*
X119247287Y-93747902D01*
X119253215Y-93741189D01*
X119258354Y-93740000D01*
X119741646Y-93740000D01*
X119749919Y-93743427D01*
G37*
G04 #@! TD.AperFunction*
G04 #@! TA.AperFunction,Conductor*
G36*
X119507872Y-92546159D02*
G01*
X120091944Y-93077342D01*
X120095759Y-93085444D01*
X120093271Y-93093228D01*
X120030001Y-93173730D01*
X119959996Y-93283804D01*
X119959997Y-93283803D01*
X119930116Y-93339751D01*
X119890000Y-93414867D01*
X119890000Y-93414868D01*
X119889999Y-93414868D01*
X119819999Y-93566935D01*
X119752958Y-93732687D01*
X119746680Y-93739072D01*
X119742112Y-93740000D01*
X119257888Y-93740000D01*
X119249615Y-93736573D01*
X119247042Y-93732687D01*
X119180000Y-93566935D01*
X119110000Y-93414868D01*
X119109999Y-93414868D01*
X119109999Y-93414867D01*
X119069882Y-93339751D01*
X119040002Y-93283803D01*
X119040003Y-93283804D01*
X118969997Y-93173730D01*
X118957690Y-93158072D01*
X118906726Y-93093226D01*
X118904309Y-93084606D01*
X118908052Y-93077344D01*
X119492128Y-92546158D01*
X119500554Y-92543128D01*
X119507872Y-92546159D01*
G37*
G04 #@! TD.AperFunction*
G04 #@! TA.AperFunction,Conductor*
G36*
X118962963Y-94448392D02*
G01*
X119493840Y-95032128D01*
X119496871Y-95040554D01*
X119493840Y-95047872D01*
X118962963Y-95631607D01*
X118954861Y-95635422D01*
X118946706Y-95632630D01*
X118945509Y-95631607D01*
X118824264Y-95527999D01*
X118693198Y-95436999D01*
X118693199Y-95436999D01*
X118693194Y-95436996D01*
X118562139Y-95367004D01*
X118562132Y-95367000D01*
X118562125Y-95366997D01*
X118562120Y-95366995D01*
X118431064Y-95317999D01*
X118431065Y-95317999D01*
X118309256Y-95291977D01*
X118301881Y-95286897D01*
X118300000Y-95280535D01*
X118300000Y-94799464D01*
X118303427Y-94791191D01*
X118309254Y-94788022D01*
X118431066Y-94761999D01*
X118562132Y-94712999D01*
X118693198Y-94643000D01*
X118824264Y-94552000D01*
X118946708Y-94447368D01*
X118955222Y-94444600D01*
X118962963Y-94448392D01*
G37*
G04 #@! TD.AperFunction*
G04 #@! TA.AperFunction,Conductor*
G36*
X108890000Y-92891000D02*
G01*
X108980000Y-92904000D01*
X109070000Y-92913999D01*
X109160000Y-92920999D01*
X109238820Y-92924503D01*
X109246932Y-92928293D01*
X109250000Y-92936191D01*
X109250000Y-93413808D01*
X109246573Y-93422081D01*
X109238820Y-93425496D01*
X109160000Y-93429000D01*
X109070000Y-93436000D01*
X108980000Y-93445999D01*
X108890000Y-93458999D01*
X108803091Y-93474450D01*
X108797049Y-93473928D01*
X108004278Y-93185997D01*
X107997672Y-93179952D01*
X107997275Y-93171006D01*
X108003320Y-93164400D01*
X108004278Y-93164003D01*
X108797051Y-92876070D01*
X108803089Y-92875549D01*
X108890000Y-92891000D01*
G37*
G04 #@! TD.AperFunction*
G04 #@! TA.AperFunction,Conductor*
G36*
X113415000Y-80026000D02*
G01*
X113505000Y-80039000D01*
X113595000Y-80048999D01*
X113685000Y-80055999D01*
X113763820Y-80059503D01*
X113771932Y-80063293D01*
X113775000Y-80071191D01*
X113774999Y-80548808D01*
X113771572Y-80557081D01*
X113763819Y-80560496D01*
X113685000Y-80564000D01*
X113595000Y-80571000D01*
X113505000Y-80580999D01*
X113415000Y-80593999D01*
X113328091Y-80609450D01*
X113322049Y-80608928D01*
X112529278Y-80320997D01*
X112522672Y-80314952D01*
X112522275Y-80306006D01*
X112528320Y-80299400D01*
X112529278Y-80299003D01*
X113322051Y-80011070D01*
X113328089Y-80010549D01*
X113415000Y-80026000D01*
G37*
G04 #@! TD.AperFunction*
G04 #@! TA.AperFunction,Conductor*
G36*
X112999919Y-81203427D02*
G01*
X113002712Y-81207902D01*
X113066193Y-81392865D01*
X113132387Y-81564731D01*
X113198582Y-81715597D01*
X113264776Y-81845463D01*
X113264780Y-81845469D01*
X113326043Y-81946226D01*
X113327413Y-81955076D01*
X113324064Y-81960826D01*
X112758018Y-82493455D01*
X112749644Y-82496629D01*
X112741982Y-82493455D01*
X112175935Y-81960826D01*
X112172258Y-81952661D01*
X112173955Y-81946228D01*
X112235223Y-81845463D01*
X112301417Y-81715597D01*
X112367612Y-81564731D01*
X112433806Y-81392865D01*
X112497287Y-81207902D01*
X112503215Y-81201189D01*
X112508354Y-81200000D01*
X112991646Y-81200000D01*
X112999919Y-81203427D01*
G37*
G04 #@! TD.AperFunction*
G04 #@! TA.AperFunction,Conductor*
G36*
X112509726Y-80315504D02*
G01*
X112640456Y-80402923D01*
X112945834Y-80607129D01*
X112950806Y-80614577D01*
X112950899Y-80615107D01*
X112960101Y-80676000D01*
X112970076Y-80739000D01*
X112980051Y-80799000D01*
X112990025Y-80856000D01*
X112997446Y-80896175D01*
X112995579Y-80904933D01*
X112988066Y-80909805D01*
X112985941Y-80910000D01*
X112506595Y-80910000D01*
X112498322Y-80906573D01*
X112496585Y-80904358D01*
X112460057Y-80844000D01*
X112420115Y-80781000D01*
X112380172Y-80721000D01*
X112340230Y-80664000D01*
X112305165Y-80616593D01*
X112303000Y-80607903D01*
X112304822Y-80603166D01*
X112493508Y-80318784D01*
X112500937Y-80313785D01*
X112509726Y-80315504D01*
G37*
G04 #@! TD.AperFunction*
G04 #@! TA.AperFunction,Conductor*
G36*
X114698016Y-74506543D02*
G01*
X115088258Y-74873746D01*
X115264064Y-75039173D01*
X115267741Y-75047338D01*
X115266043Y-75053773D01*
X115225659Y-75120189D01*
X115204776Y-75154536D01*
X115138582Y-75284402D01*
X115138582Y-75284403D01*
X115072388Y-75435266D01*
X115006193Y-75607134D01*
X114942712Y-75792098D01*
X114936785Y-75798811D01*
X114931646Y-75800000D01*
X114448354Y-75800000D01*
X114440081Y-75796573D01*
X114437288Y-75792098D01*
X114373806Y-75607134D01*
X114307611Y-75435266D01*
X114241417Y-75284403D01*
X114241417Y-75284402D01*
X114175223Y-75154536D01*
X114113955Y-75053772D01*
X114112586Y-75044923D01*
X114115934Y-75039174D01*
X114681983Y-74506543D01*
X114690356Y-74503370D01*
X114698016Y-74506543D01*
G37*
G04 #@! TD.AperFunction*
G04 #@! TA.AperFunction,Conductor*
G36*
X161749973Y-84653427D02*
G01*
X161752743Y-84657834D01*
X161778707Y-84732000D01*
X161807414Y-84808000D01*
X161836121Y-84877999D01*
X161864828Y-84941999D01*
X161890735Y-84994342D01*
X161891333Y-85003277D01*
X161890344Y-85005447D01*
X161603163Y-85495600D01*
X161596024Y-85501005D01*
X161593752Y-85501365D01*
X161262384Y-85520765D01*
X161253925Y-85517828D01*
X161250020Y-85509769D01*
X161250000Y-85509085D01*
X161250000Y-84661700D01*
X161253427Y-84653427D01*
X161261700Y-84650000D01*
X161741700Y-84650000D01*
X161749973Y-84653427D01*
G37*
G04 #@! TD.AperFunction*
G04 #@! TA.AperFunction,Conductor*
G36*
X161507872Y-83456159D02*
G01*
X162091944Y-83987342D01*
X162095759Y-83995444D01*
X162093271Y-84003228D01*
X162030001Y-84083730D01*
X161959996Y-84193804D01*
X161959997Y-84193803D01*
X161930116Y-84249751D01*
X161890000Y-84324867D01*
X161890000Y-84324868D01*
X161889999Y-84324868D01*
X161819999Y-84476935D01*
X161752958Y-84642687D01*
X161746680Y-84649072D01*
X161742112Y-84650000D01*
X161257888Y-84650000D01*
X161249615Y-84646573D01*
X161247042Y-84642687D01*
X161180000Y-84476935D01*
X161110000Y-84324868D01*
X161109999Y-84324868D01*
X161109999Y-84324867D01*
X161069882Y-84249751D01*
X161040002Y-84193803D01*
X161040003Y-84193804D01*
X160969997Y-84083730D01*
X160957690Y-84068072D01*
X160906726Y-84003226D01*
X160904309Y-83994606D01*
X160908052Y-83987344D01*
X161492128Y-83456158D01*
X161500554Y-83453128D01*
X161507872Y-83456159D01*
G37*
G04 #@! TD.AperFunction*
G04 #@! TA.AperFunction,Conductor*
G36*
X160053992Y-84962498D02*
G01*
X160056070Y-84963988D01*
X160196536Y-85064723D01*
X160347402Y-85151917D01*
X160498268Y-85218112D01*
X160598845Y-85248241D01*
X160649133Y-85263306D01*
X160671265Y-85266855D01*
X160790154Y-85285921D01*
X160797779Y-85290613D01*
X160800000Y-85297472D01*
X160800000Y-85777527D01*
X160796573Y-85785800D01*
X160790153Y-85789079D01*
X160649133Y-85811692D01*
X160498270Y-85856886D01*
X160498264Y-85856888D01*
X160347404Y-85923081D01*
X160196531Y-86010279D01*
X160053992Y-86112501D01*
X160045272Y-86114537D01*
X160038653Y-86111011D01*
X159724856Y-85777527D01*
X159506543Y-85545516D01*
X159503370Y-85537144D01*
X159506543Y-85529483D01*
X160038653Y-84963987D01*
X160046818Y-84960311D01*
X160053992Y-84962498D01*
G37*
G04 #@! TD.AperFunction*
G04 #@! TA.AperFunction,Conductor*
G36*
X161256008Y-85173954D02*
G01*
X161386612Y-85297386D01*
X161592472Y-85491940D01*
X161596131Y-85500113D01*
X161592939Y-85508479D01*
X161592916Y-85508504D01*
X161255488Y-85863501D01*
X161247305Y-85867136D01*
X161242615Y-85866284D01*
X161199251Y-85848718D01*
X161179999Y-85840920D01*
X161109999Y-85818565D01*
X161040000Y-85802210D01*
X160970000Y-85791855D01*
X160957246Y-85791061D01*
X160910973Y-85788182D01*
X160902929Y-85784248D01*
X160900000Y-85776505D01*
X160900000Y-85297386D01*
X160903427Y-85289113D01*
X160909746Y-85285850D01*
X160970000Y-85275655D01*
X160970004Y-85275654D01*
X160970004Y-85275655D01*
X161039993Y-85257812D01*
X161039995Y-85257811D01*
X161040000Y-85257810D01*
X161060404Y-85250859D01*
X161109990Y-85233969D01*
X161180003Y-85204119D01*
X161180002Y-85204119D01*
X161207464Y-85190056D01*
X161242641Y-85172043D01*
X161251566Y-85171323D01*
X161256008Y-85173954D01*
G37*
G04 #@! TD.AperFunction*
G04 #@! TA.AperFunction,Conductor*
G36*
X199244553Y-71346530D02*
G01*
X199248504Y-71351562D01*
X199276617Y-71420228D01*
X199312188Y-71507107D01*
X199312187Y-71507107D01*
X199379381Y-71650300D01*
X199379382Y-71650300D01*
X199379385Y-71650307D01*
X199446579Y-71772575D01*
X199513774Y-71873916D01*
X199513776Y-71873918D01*
X199573897Y-71945865D01*
X199576572Y-71954410D01*
X199572938Y-71961887D01*
X199008172Y-72493441D01*
X198999799Y-72496616D01*
X198992136Y-72493443D01*
X198427654Y-71962441D01*
X198423976Y-71954276D01*
X198427148Y-71945902D01*
X198485454Y-71885390D01*
X198551878Y-71797609D01*
X198618302Y-71690985D01*
X198684726Y-71565517D01*
X198748534Y-71426891D01*
X198755106Y-71420810D01*
X198757332Y-71420228D01*
X199235848Y-71344439D01*
X199244553Y-71346530D01*
G37*
G04 #@! TD.AperFunction*
G04 #@! TA.AperFunction,Conductor*
G36*
X195786251Y-67999987D02*
G01*
X195794519Y-68003421D01*
X195797939Y-68011697D01*
X195797786Y-68013570D01*
X195749980Y-68306663D01*
X195749156Y-68309461D01*
X195645269Y-68547414D01*
X195556026Y-68749973D01*
X195556025Y-68749976D01*
X195556026Y-68749976D01*
X195551460Y-68947890D01*
X195646965Y-69091797D01*
X195695724Y-69165268D01*
X195697443Y-69174057D01*
X195694248Y-69180011D01*
X195355827Y-69518432D01*
X195347554Y-69521859D01*
X195339281Y-69518432D01*
X195339193Y-69518343D01*
X195117506Y-69291848D01*
X194958540Y-69120988D01*
X194823238Y-68971490D01*
X194664272Y-68800630D01*
X194442401Y-68573946D01*
X194439063Y-68565636D01*
X194442477Y-68557501D01*
X194995861Y-68002733D01*
X195004127Y-67999297D01*
X195786251Y-67999987D01*
G37*
G04 #@! TD.AperFunction*
G04 #@! TA.AperFunction,Conductor*
G36*
X171787369Y-67999984D02*
G01*
X171795637Y-68003421D01*
X171799054Y-68011699D01*
X171799019Y-68012592D01*
X171768883Y-68399746D01*
X171768525Y-68401847D01*
X171694468Y-68680146D01*
X171694299Y-68680678D01*
X171605603Y-68919580D01*
X171605603Y-68919581D01*
X171531201Y-69199181D01*
X171531200Y-69199183D01*
X171500840Y-69589208D01*
X171496781Y-69597190D01*
X171489175Y-69600000D01*
X170510825Y-69600000D01*
X170502552Y-69596573D01*
X170499160Y-69589208D01*
X170497239Y-69564535D01*
X170468800Y-69199184D01*
X170394400Y-68919592D01*
X170305694Y-68680660D01*
X170305531Y-68680146D01*
X170274201Y-68562412D01*
X170231472Y-68401840D01*
X170231117Y-68399754D01*
X170200980Y-68012591D01*
X170203755Y-68004078D01*
X170211737Y-68000019D01*
X170212624Y-67999984D01*
X171000000Y-67999000D01*
X171787369Y-67999984D01*
G37*
G04 #@! TD.AperFunction*
G04 #@! TA.AperFunction,Conductor*
G36*
X171498095Y-69343427D02*
G01*
X171501409Y-69350080D01*
X171519999Y-69483066D01*
X171539999Y-69620132D01*
X171560000Y-69751198D01*
X171580000Y-69876264D01*
X171598942Y-69989033D01*
X171596933Y-69997759D01*
X171595276Y-69999627D01*
X171007872Y-70533840D01*
X170999446Y-70536871D01*
X170992128Y-70533840D01*
X170669569Y-70240490D01*
X170404722Y-69999625D01*
X170400908Y-69991525D01*
X170401056Y-69989040D01*
X170419999Y-69876264D01*
X170439999Y-69751198D01*
X170460000Y-69620132D01*
X170480000Y-69483066D01*
X170498590Y-69350080D01*
X170503130Y-69342361D01*
X170510178Y-69340000D01*
X171489822Y-69340000D01*
X171498095Y-69343427D01*
G37*
G04 #@! TD.AperFunction*
G04 #@! TA.AperFunction,Conductor*
G36*
X107787369Y-67999984D02*
G01*
X107795637Y-68003421D01*
X107799054Y-68011699D01*
X107799019Y-68012592D01*
X107768883Y-68399746D01*
X107768525Y-68401847D01*
X107694468Y-68680146D01*
X107694299Y-68680678D01*
X107605603Y-68919580D01*
X107605603Y-68919581D01*
X107531201Y-69199181D01*
X107531200Y-69199183D01*
X107500840Y-69589208D01*
X107496781Y-69597190D01*
X107489175Y-69600000D01*
X106510825Y-69600000D01*
X106502552Y-69596573D01*
X106499160Y-69589208D01*
X106497239Y-69564535D01*
X106468800Y-69199184D01*
X106394400Y-68919592D01*
X106305694Y-68680660D01*
X106305531Y-68680146D01*
X106274201Y-68562412D01*
X106231472Y-68401840D01*
X106231117Y-68399754D01*
X106200980Y-68012591D01*
X106203755Y-68004078D01*
X106211737Y-68000019D01*
X106212624Y-67999984D01*
X107000000Y-67999000D01*
X107787369Y-67999984D01*
G37*
G04 #@! TD.AperFunction*
G04 #@! TA.AperFunction,Conductor*
G36*
X107498095Y-71303427D02*
G01*
X107501409Y-71310080D01*
X107519999Y-71443066D01*
X107539999Y-71580132D01*
X107560000Y-71711198D01*
X107580000Y-71836264D01*
X107598942Y-71949033D01*
X107596933Y-71957759D01*
X107595276Y-71959627D01*
X107007872Y-72493840D01*
X106999446Y-72496871D01*
X106992128Y-72493840D01*
X106669569Y-72200490D01*
X106404722Y-71959625D01*
X106400908Y-71951525D01*
X106401056Y-71949040D01*
X106419999Y-71836264D01*
X106439999Y-71711198D01*
X106460000Y-71580132D01*
X106480000Y-71443066D01*
X106498590Y-71310080D01*
X106503130Y-71302361D01*
X106510178Y-71300000D01*
X107489822Y-71300000D01*
X107498095Y-71303427D01*
G37*
G04 #@! TD.AperFunction*
G04 #@! TA.AperFunction,Conductor*
G36*
X100553580Y-91463286D02*
G01*
X100696536Y-91540223D01*
X100847402Y-91600417D01*
X100998268Y-91639612D01*
X101149134Y-91657806D01*
X101149140Y-91657805D01*
X101149141Y-91657806D01*
X101171852Y-91657383D01*
X101288083Y-91655221D01*
X101296418Y-91658493D01*
X101299998Y-91666701D01*
X101300000Y-91666919D01*
X101300000Y-92146380D01*
X101296573Y-92154653D01*
X101291768Y-92157554D01*
X101161352Y-92198030D01*
X101161340Y-92198034D01*
X101022711Y-92262056D01*
X101022704Y-92262059D01*
X100884049Y-92347093D01*
X100745407Y-92453118D01*
X100745403Y-92453121D01*
X100745399Y-92453125D01*
X100698718Y-92495893D01*
X100614534Y-92573024D01*
X100606119Y-92576086D01*
X100598857Y-92573142D01*
X100007997Y-92047996D01*
X100004090Y-92039939D01*
X100007025Y-92031478D01*
X100007249Y-92031233D01*
X100361063Y-91655221D01*
X100539515Y-91465571D01*
X100547680Y-91461895D01*
X100553580Y-91463286D01*
G37*
G04 #@! TD.AperFunction*
G04 #@! TA.AperFunction,Conductor*
G36*
X102202948Y-91606070D02*
G01*
X102730470Y-91797664D01*
X102995721Y-91894003D01*
X103002327Y-91900048D01*
X103002724Y-91908994D01*
X102996679Y-91915600D01*
X102995721Y-91915997D01*
X102202950Y-92203928D01*
X102196908Y-92204450D01*
X102110000Y-92188999D01*
X102020000Y-92175999D01*
X101930000Y-92166000D01*
X101840000Y-92159000D01*
X101761180Y-92155496D01*
X101753068Y-92151706D01*
X101750000Y-92143808D01*
X101750000Y-91666191D01*
X101753427Y-91657918D01*
X101761180Y-91654503D01*
X101840000Y-91650999D01*
X101930000Y-91643999D01*
X102020000Y-91634000D01*
X102110000Y-91621000D01*
X102196910Y-91605549D01*
X102202948Y-91606070D01*
G37*
G04 #@! TD.AperFunction*
G04 #@! TA.AperFunction,Conductor*
G36*
X163461940Y-92978842D02*
G01*
X163378474Y-93171104D01*
X163318235Y-93309934D01*
X163278535Y-93433498D01*
X163256685Y-93579965D01*
X163250000Y-93787500D01*
X162750000Y-93787500D01*
X162743314Y-93579965D01*
X162721464Y-93433498D01*
X162681763Y-93309934D01*
X162621524Y-93171104D01*
X162538060Y-92978842D01*
X163000000Y-92786500D01*
X163461940Y-92978842D01*
G37*
G04 #@! TD.AperFunction*
G04 #@! TA.AperFunction,Conductor*
G36*
X163461940Y-92978842D02*
G01*
X163378474Y-93171104D01*
X163318235Y-93309934D01*
X163278535Y-93433498D01*
X163256685Y-93579965D01*
X163250000Y-93787500D01*
X162750000Y-93787500D01*
X162743314Y-93579965D01*
X162721464Y-93433498D01*
X162681763Y-93309934D01*
X162621524Y-93171104D01*
X162538060Y-92978842D01*
X163000000Y-92786500D01*
X163461940Y-92978842D01*
G37*
G04 #@! TD.AperFunction*
G04 #@! TA.AperFunction,Conductor*
G36*
X160190532Y-98458524D02*
G01*
X160230958Y-98487891D01*
X160270222Y-98507449D01*
X160317993Y-98525824D01*
X160383939Y-98551642D01*
X160250707Y-98875707D01*
X159926642Y-99008939D01*
X159900824Y-98942993D01*
X159882449Y-98895222D01*
X159862891Y-98855958D01*
X159833524Y-98815532D01*
X159785724Y-98764277D01*
X160139277Y-98410724D01*
X160190532Y-98458524D01*
G37*
G04 #@! TD.AperFunction*
G04 #@! TA.AperFunction,Conductor*
G36*
X160544389Y-98457609D02*
G01*
X160618872Y-98489483D01*
X160685196Y-98510277D01*
X160763769Y-98521585D01*
X160875000Y-98525000D01*
X160875000Y-99225000D01*
X160763769Y-99228414D01*
X160685196Y-99239722D01*
X160618872Y-99260516D01*
X160544389Y-99292390D01*
X160441342Y-99336940D01*
X160249000Y-98875000D01*
X160441342Y-98413060D01*
X160544389Y-98457609D01*
G37*
G04 #@! TD.AperFunction*
G04 #@! TA.AperFunction,Conductor*
G36*
X109883604Y-76121524D02*
G01*
X110022434Y-76181763D01*
X110145998Y-76221464D01*
X110292465Y-76243314D01*
X110500000Y-76250000D01*
X110500000Y-76750000D01*
X110292465Y-76756685D01*
X110145998Y-76778535D01*
X110022434Y-76818235D01*
X109883604Y-76878474D01*
X109691342Y-76961940D01*
X109499000Y-76500000D01*
X109691342Y-76038060D01*
X109883604Y-76121524D01*
G37*
G04 #@! TD.AperFunction*
G04 #@! TA.AperFunction,Conductor*
G36*
X126013371Y-97955069D02*
G01*
X126057071Y-98248001D01*
X126136472Y-98495131D01*
X126256950Y-98772791D01*
X126423880Y-99157317D01*
X125500000Y-99541000D01*
X124576120Y-99157317D01*
X124743049Y-98772791D01*
X124863527Y-98495131D01*
X124942928Y-98248001D01*
X124986627Y-97955069D01*
X125000000Y-97540000D01*
X126000000Y-97540000D01*
X126013371Y-97955069D01*
G37*
G04 #@! TD.AperFunction*
G04 #@! TA.AperFunction,Conductor*
G36*
X126013371Y-91415069D02*
G01*
X126057071Y-91708001D01*
X126136472Y-91955131D01*
X126256950Y-92232791D01*
X126423880Y-92617317D01*
X125500000Y-93001000D01*
X124576120Y-92617317D01*
X124743049Y-92232791D01*
X124863527Y-91955131D01*
X124942928Y-91708001D01*
X124986627Y-91415069D01*
X125000000Y-91000000D01*
X126000000Y-91000000D01*
X126013371Y-91415069D01*
G37*
G04 #@! TD.AperFunction*
G04 #@! TA.AperFunction,Conductor*
G36*
X126013371Y-91415069D02*
G01*
X126057071Y-91708001D01*
X126136472Y-91955131D01*
X126256950Y-92232791D01*
X126423880Y-92617317D01*
X125500000Y-93001000D01*
X124576120Y-92617317D01*
X124743049Y-92232791D01*
X124863527Y-91955131D01*
X124942928Y-91708001D01*
X124986627Y-91415069D01*
X125000000Y-91000000D01*
X126000000Y-91000000D01*
X126013371Y-91415069D01*
G37*
G04 #@! TD.AperFunction*
G04 #@! TA.AperFunction,Conductor*
G36*
X120501000Y-76500000D02*
G01*
X120308658Y-76961940D01*
X120116395Y-76878474D01*
X120000000Y-76827969D01*
X119999999Y-76827968D01*
X119977577Y-76818239D01*
X119977559Y-76818233D01*
X119853998Y-76778534D01*
X119707542Y-76756686D01*
X119707527Y-76756684D01*
X119511323Y-76750364D01*
X119503165Y-76746672D01*
X119500000Y-76738670D01*
X119500000Y-76261329D01*
X119503427Y-76253056D01*
X119511322Y-76249635D01*
X119707534Y-76243314D01*
X119854000Y-76221464D01*
X119977565Y-76181763D01*
X119977564Y-76181763D01*
X120116395Y-76121524D01*
X120308658Y-76038060D01*
X120501000Y-76500000D01*
G37*
G04 #@! TD.AperFunction*
G04 #@! TA.AperFunction,Conductor*
G36*
X120501000Y-76500000D02*
G01*
X120308658Y-76961940D01*
X120116395Y-76878474D01*
X120000000Y-76827969D01*
X119999999Y-76827968D01*
X119977577Y-76818239D01*
X119977559Y-76818233D01*
X119853998Y-76778534D01*
X119707542Y-76756686D01*
X119707527Y-76756684D01*
X119511323Y-76750364D01*
X119503165Y-76746672D01*
X119500000Y-76738670D01*
X119500000Y-76261329D01*
X119503427Y-76253056D01*
X119511322Y-76249635D01*
X119707534Y-76243314D01*
X119854000Y-76221464D01*
X119977565Y-76181763D01*
X119977564Y-76181763D01*
X120116395Y-76121524D01*
X120308658Y-76038060D01*
X120501000Y-76500000D01*
G37*
G04 #@! TD.AperFunction*
G04 #@! TA.AperFunction,Conductor*
G36*
X166191801Y-87673262D02*
G01*
X166261216Y-87703381D01*
X166322999Y-87723232D01*
X166396232Y-87734157D01*
X166500000Y-87737500D01*
X166500000Y-87987500D01*
X166396232Y-87990842D01*
X166322999Y-88001767D01*
X166261216Y-88021617D01*
X166191801Y-88051737D01*
X166095671Y-88093470D01*
X165999000Y-87862500D01*
X166095671Y-87631530D01*
X166191801Y-87673262D01*
G37*
G04 #@! TD.AperFunction*
G04 #@! TA.AperFunction,Conductor*
G36*
X166352828Y-87489145D02*
G01*
X166459276Y-87579399D01*
X166549595Y-87659054D01*
X166662699Y-87715844D01*
X166837500Y-87737500D01*
X166837500Y-87987500D01*
X166662699Y-88009155D01*
X166549595Y-88065945D01*
X166459276Y-88145600D01*
X166352828Y-88235854D01*
X166191342Y-88324440D01*
X165999000Y-87862500D01*
X166191342Y-87400560D01*
X166352828Y-87489145D01*
G37*
G04 #@! TD.AperFunction*
G04 #@! TA.AperFunction,Conductor*
G36*
X201256685Y-71707534D02*
G01*
X201278535Y-71854000D01*
X201318235Y-71977565D01*
X201378474Y-72116395D01*
X201461940Y-72308658D01*
X201000000Y-72501000D01*
X200538060Y-72308658D01*
X200621524Y-72116395D01*
X200681763Y-71977565D01*
X200721464Y-71854000D01*
X200743314Y-71707534D01*
X200750000Y-71500000D01*
X201250000Y-71500000D01*
X201256685Y-71707534D01*
G37*
G04 #@! TD.AperFunction*
G04 #@! TA.AperFunction,Conductor*
G36*
X201883883Y-71969671D02*
G01*
X201741861Y-72121147D01*
X201653744Y-72240164D01*
X201594443Y-72355610D01*
X201538871Y-72496373D01*
X201461940Y-72691342D01*
X200999293Y-72500707D01*
X200808658Y-72038060D01*
X201003626Y-71961128D01*
X201144389Y-71905556D01*
X201259834Y-71846255D01*
X201378852Y-71758137D01*
X201530329Y-71616117D01*
X201883883Y-71969671D01*
G37*
G04 #@! TD.AperFunction*
G04 #@! TA.AperFunction,Conductor*
G36*
X165781250Y-104643750D02*
G01*
X165781250Y-104643751D01*
X165794310Y-104656810D01*
X165797737Y-104665083D01*
X165795114Y-104672465D01*
X165781249Y-104689512D01*
X165781249Y-104689513D01*
X165781249Y-104689514D01*
X165723583Y-104760418D01*
X165689664Y-104842227D01*
X165677108Y-104923671D01*
X165663004Y-105018719D01*
X165624440Y-105141342D01*
X165161793Y-104950707D01*
X164971158Y-104488060D01*
X165093779Y-104449495D01*
X165188827Y-104435390D01*
X165270271Y-104422834D01*
X165352080Y-104388916D01*
X165448224Y-104310724D01*
X165781250Y-104643750D01*
G37*
G04 #@! TD.AperFunction*
M02*
