G04 #@! TF.GenerationSoftware,KiCad,Pcbnew,7.0.7*
G04 #@! TF.CreationDate,2024-06-10T21:29:32+02:00*
G04 #@! TF.ProjectId,vfd_display,7666645f-6469-4737-906c-61792e6b6963,rev?*
G04 #@! TF.SameCoordinates,Original*
G04 #@! TF.FileFunction,Copper,L1,Top*
G04 #@! TF.FilePolarity,Positive*
%FSLAX46Y46*%
G04 Gerber Fmt 4.6, Leading zero omitted, Abs format (unit mm)*
G04 Created by KiCad (PCBNEW 7.0.7) date 2024-06-10 21:29:32*
%MOMM*%
%LPD*%
G01*
G04 APERTURE LIST*
G04 #@! TA.AperFunction,ComponentPad*
%ADD10C,1.600000*%
G04 #@! TD*
G04 #@! TA.AperFunction,ViaPad*
%ADD11C,1.000000*%
G04 #@! TD*
G04 #@! TA.AperFunction,ViaPad*
%ADD12C,0.800000*%
G04 #@! TD*
G04 #@! TA.AperFunction,ViaPad*
%ADD13C,4.000000*%
G04 #@! TD*
G04 #@! TA.AperFunction,ViaPad*
%ADD14C,2.000000*%
G04 #@! TD*
G04 #@! TA.AperFunction,Conductor*
%ADD15C,0.500000*%
G04 #@! TD*
G04 APERTURE END LIST*
D10*
X83000000Y-68000000D03*
X85000000Y-68000000D03*
X87000000Y-68000000D03*
X89000000Y-68000000D03*
X99000000Y-68000000D03*
X101000000Y-68000000D03*
X107000000Y-68000000D03*
X109000000Y-68000000D03*
X111000000Y-68000000D03*
X169000000Y-68000000D03*
X171000000Y-68000000D03*
X173000000Y-68000000D03*
X175000000Y-68000000D03*
X177000000Y-68000000D03*
X179000000Y-68000000D03*
X181000000Y-68000000D03*
X183000000Y-68000000D03*
X185000000Y-68000000D03*
X187000000Y-68000000D03*
X189000000Y-68000000D03*
X191000000Y-68000000D03*
X193000000Y-68000000D03*
X195000000Y-68000000D03*
X197000000Y-68000000D03*
X199000000Y-68000000D03*
X201000000Y-68000000D03*
X203000000Y-68000000D03*
X213000000Y-68000000D03*
X215000000Y-68000000D03*
X217000000Y-68000000D03*
X219000000Y-68000000D03*
D11*
X140000000Y-98500000D03*
X120500000Y-80000000D03*
X147000000Y-83250000D03*
X151500000Y-83250000D03*
X80250000Y-104750000D03*
X163000000Y-96500000D03*
X157750000Y-87500000D03*
X87000000Y-101750000D03*
X149250000Y-88250000D03*
X80250000Y-98750000D03*
D12*
X191333332Y-71810000D03*
D11*
X84750000Y-96750000D03*
X104000000Y-88040000D03*
X82500000Y-97750000D03*
X78000000Y-107750000D03*
X101500000Y-95750000D03*
D12*
X187000000Y-71810000D03*
D13*
X82500000Y-79500000D03*
D11*
X144750000Y-86250000D03*
X118750000Y-88750000D03*
X80250000Y-94750000D03*
X114000000Y-96500000D03*
X84750000Y-102750000D03*
X78000000Y-95750000D03*
X209500000Y-78000000D03*
D14*
X141000000Y-85250000D03*
D11*
X153750000Y-88250000D03*
X139000000Y-96250000D03*
X80250000Y-106750000D03*
X156050000Y-100900000D03*
X153750000Y-82250000D03*
X82500000Y-101750000D03*
X144750000Y-84250000D03*
X209500000Y-73000000D03*
X151500000Y-87250000D03*
X82500000Y-99750000D03*
D12*
X193500000Y-72000000D03*
D11*
X78000000Y-99750000D03*
X144750000Y-80250000D03*
X147000000Y-87250000D03*
X142000000Y-98500000D03*
X78000000Y-103750000D03*
X84750000Y-94750000D03*
X149250000Y-80250000D03*
X153750000Y-86250000D03*
X84750000Y-98750000D03*
X80250000Y-100750000D03*
X170600000Y-99500000D03*
X78000000Y-97750000D03*
X87000000Y-95750000D03*
X143000000Y-100750000D03*
X163000000Y-94287500D03*
X153750000Y-80250000D03*
X112250000Y-96500000D03*
D12*
X189166666Y-71810000D03*
D11*
X217000000Y-105620000D03*
X78000000Y-101750000D03*
X78000000Y-105750000D03*
X82500000Y-95750000D03*
X84750000Y-106750000D03*
X156050000Y-102900000D03*
X87000000Y-99750000D03*
X110500000Y-96500000D03*
X109500000Y-95500000D03*
X151500000Y-81250000D03*
X172600000Y-101000000D03*
X108500000Y-96500000D03*
X99750000Y-95750000D03*
X149250000Y-84250000D03*
X217000000Y-98000000D03*
D14*
X141000000Y-89000000D03*
D11*
X144750000Y-88250000D03*
X80250000Y-102750000D03*
X149250000Y-82250000D03*
X144750000Y-82250000D03*
X117000000Y-93040000D03*
X139000000Y-100750000D03*
X84750000Y-104750000D03*
X147000000Y-81250000D03*
X87000000Y-107750000D03*
X87000000Y-97750000D03*
X80250000Y-96750000D03*
X87000000Y-105750000D03*
X151500000Y-85250000D03*
X87000000Y-103750000D03*
X149250000Y-86250000D03*
X103250000Y-95750000D03*
X109500000Y-82500000D03*
X143000000Y-96250000D03*
X82500000Y-107750000D03*
X141000000Y-96250000D03*
X84750000Y-100750000D03*
X82500000Y-103750000D03*
X147000000Y-85250000D03*
X82500000Y-105750000D03*
X141000000Y-100750000D03*
X153750000Y-84250000D03*
X168000000Y-87787500D03*
X163250000Y-81037500D03*
X169600000Y-98000000D03*
X160250000Y-107000000D03*
X119250000Y-98540000D03*
X113895000Y-89000000D03*
D15*
X163250000Y-81037500D02*
X163250000Y-83037500D01*
X163250000Y-83037500D02*
X168000000Y-87787500D01*
X169850000Y-98000000D02*
X169250000Y-98000000D01*
X169250000Y-98000000D02*
X160250000Y-107000000D01*
X113895000Y-89000000D02*
X113895000Y-92225000D01*
X119250000Y-97580000D02*
X119250000Y-98540000D01*
X113895000Y-92225000D02*
X119250000Y-97580000D01*
G04 #@! TA.AperFunction,Conductor*
G36*
X219003032Y-65000299D02*
G01*
X219064066Y-65006310D01*
X219182941Y-65018018D01*
X219206769Y-65022757D01*
X219371001Y-65072576D01*
X219393453Y-65081877D01*
X219544798Y-65162772D01*
X219565010Y-65176277D01*
X219697666Y-65285145D01*
X219714854Y-65302333D01*
X219823722Y-65434989D01*
X219837227Y-65455201D01*
X219918121Y-65606543D01*
X219927424Y-65629001D01*
X219977240Y-65793224D01*
X219981982Y-65817065D01*
X219999701Y-65996967D01*
X220000000Y-66003048D01*
X220000000Y-66874387D01*
X219980315Y-66941426D01*
X219927511Y-66987181D01*
X219858353Y-66997125D01*
X219804877Y-66975962D01*
X219652734Y-66869432D01*
X219652732Y-66869431D01*
X219446497Y-66773261D01*
X219446488Y-66773258D01*
X219226697Y-66714366D01*
X219226693Y-66714365D01*
X219226692Y-66714365D01*
X219226691Y-66714364D01*
X219226686Y-66714364D01*
X219000002Y-66694532D01*
X218999998Y-66694532D01*
X218773313Y-66714364D01*
X218773302Y-66714366D01*
X218553511Y-66773258D01*
X218553502Y-66773261D01*
X218347267Y-66869431D01*
X218347265Y-66869432D01*
X218160862Y-66999951D01*
X218087681Y-67073132D01*
X218026357Y-67106616D01*
X217956666Y-67101631D01*
X217912319Y-67073132D01*
X217839137Y-66999951D01*
X217652734Y-66869432D01*
X217652732Y-66869431D01*
X217446497Y-66773261D01*
X217446488Y-66773258D01*
X217226697Y-66714366D01*
X217226693Y-66714365D01*
X217226692Y-66714365D01*
X217226691Y-66714364D01*
X217226686Y-66714364D01*
X217000002Y-66694532D01*
X216999998Y-66694532D01*
X216773313Y-66714364D01*
X216773302Y-66714366D01*
X216553511Y-66773258D01*
X216553502Y-66773261D01*
X216347267Y-66869431D01*
X216347265Y-66869432D01*
X216160862Y-66999951D01*
X216087681Y-67073132D01*
X216026357Y-67106616D01*
X215956666Y-67101631D01*
X215912319Y-67073132D01*
X215839137Y-66999951D01*
X215652734Y-66869432D01*
X215652732Y-66869431D01*
X215446497Y-66773261D01*
X215446488Y-66773258D01*
X215226697Y-66714366D01*
X215226693Y-66714365D01*
X215226692Y-66714365D01*
X215226691Y-66714364D01*
X215226686Y-66714364D01*
X215000002Y-66694532D01*
X214999998Y-66694532D01*
X214773313Y-66714364D01*
X214773302Y-66714366D01*
X214553511Y-66773258D01*
X214553502Y-66773261D01*
X214347267Y-66869431D01*
X214347265Y-66869432D01*
X214160862Y-66999951D01*
X214087681Y-67073132D01*
X214026357Y-67106616D01*
X213956666Y-67101631D01*
X213912319Y-67073132D01*
X213839137Y-66999951D01*
X213652734Y-66869432D01*
X213652732Y-66869431D01*
X213446497Y-66773261D01*
X213446488Y-66773258D01*
X213226697Y-66714366D01*
X213226693Y-66714365D01*
X213226692Y-66714365D01*
X213226691Y-66714364D01*
X213226686Y-66714364D01*
X213000002Y-66694532D01*
X212999998Y-66694532D01*
X212773313Y-66714364D01*
X212773302Y-66714366D01*
X212553511Y-66773258D01*
X212553502Y-66773261D01*
X212347267Y-66869431D01*
X212347265Y-66869432D01*
X212160858Y-66999954D01*
X211999954Y-67160858D01*
X211869432Y-67347265D01*
X211869431Y-67347267D01*
X211773261Y-67553502D01*
X211773258Y-67553511D01*
X211714366Y-67773302D01*
X211714364Y-67773313D01*
X211694532Y-67999998D01*
X211694532Y-68000001D01*
X211714364Y-68226686D01*
X211714366Y-68226697D01*
X211773258Y-68446488D01*
X211773261Y-68446497D01*
X211869431Y-68652732D01*
X211869432Y-68652734D01*
X211999954Y-68839141D01*
X212160858Y-69000045D01*
X212160861Y-69000047D01*
X212347266Y-69130568D01*
X212553504Y-69226739D01*
X212773308Y-69285635D01*
X212935230Y-69299801D01*
X212999998Y-69305468D01*
X213000000Y-69305468D01*
X213000002Y-69305468D01*
X213056672Y-69300509D01*
X213226692Y-69285635D01*
X213446496Y-69226739D01*
X213652734Y-69130568D01*
X213839139Y-69000047D01*
X213912319Y-68926866D01*
X213973639Y-68893382D01*
X214043331Y-68898366D01*
X214087680Y-68926867D01*
X214160858Y-69000045D01*
X214160861Y-69000047D01*
X214347266Y-69130568D01*
X214553504Y-69226739D01*
X214773308Y-69285635D01*
X214935230Y-69299801D01*
X214999998Y-69305468D01*
X215000000Y-69305468D01*
X215000002Y-69305468D01*
X215056672Y-69300509D01*
X215226692Y-69285635D01*
X215446496Y-69226739D01*
X215652734Y-69130568D01*
X215839139Y-69000047D01*
X215912320Y-68926865D01*
X215973641Y-68893382D01*
X216043333Y-68898366D01*
X216087679Y-68926865D01*
X216160859Y-69000045D01*
X216160862Y-69000048D01*
X216244446Y-69058573D01*
X216347266Y-69130568D01*
X216553504Y-69226739D01*
X216773308Y-69285635D01*
X216935230Y-69299801D01*
X216999998Y-69305468D01*
X217000000Y-69305468D01*
X217000002Y-69305468D01*
X217056672Y-69300509D01*
X217226692Y-69285635D01*
X217446496Y-69226739D01*
X217652734Y-69130568D01*
X217839139Y-69000047D01*
X217912320Y-68926865D01*
X217973641Y-68893382D01*
X218043333Y-68898366D01*
X218087679Y-68926865D01*
X218160859Y-69000045D01*
X218160862Y-69000048D01*
X218244446Y-69058573D01*
X218347266Y-69130568D01*
X218553504Y-69226739D01*
X218773308Y-69285635D01*
X218935230Y-69299801D01*
X218999998Y-69305468D01*
X219000000Y-69305468D01*
X219000002Y-69305468D01*
X219056672Y-69300509D01*
X219226692Y-69285635D01*
X219446496Y-69226739D01*
X219652734Y-69130568D01*
X219804877Y-69024036D01*
X219871083Y-69001710D01*
X219938850Y-69018720D01*
X219986663Y-69069669D01*
X220000000Y-69125612D01*
X220000000Y-71500000D01*
X225496951Y-71500000D01*
X225503032Y-71500299D01*
X225564067Y-71506310D01*
X225682941Y-71518018D01*
X225706769Y-71522757D01*
X225871001Y-71572576D01*
X225893453Y-71581877D01*
X226044798Y-71662772D01*
X226065010Y-71676277D01*
X226197666Y-71785145D01*
X226214854Y-71802333D01*
X226323722Y-71934989D01*
X226337227Y-71955201D01*
X226418121Y-72106543D01*
X226427424Y-72129001D01*
X226477240Y-72293224D01*
X226481982Y-72317065D01*
X226499701Y-72496967D01*
X226500000Y-72503048D01*
X226500000Y-108496951D01*
X226499701Y-108503032D01*
X226481982Y-108682934D01*
X226477240Y-108706775D01*
X226427424Y-108870998D01*
X226418121Y-108893456D01*
X226337227Y-109044798D01*
X226323722Y-109065010D01*
X226214854Y-109197666D01*
X226197666Y-109214854D01*
X226065010Y-109323722D01*
X226044798Y-109337227D01*
X225893456Y-109418121D01*
X225870998Y-109427424D01*
X225706775Y-109477240D01*
X225682934Y-109481982D01*
X225503032Y-109499701D01*
X225496951Y-109500000D01*
X220000000Y-109500000D01*
X220000000Y-110499992D01*
X219999999Y-110500003D01*
X220000000Y-114996951D01*
X219999701Y-115003032D01*
X219981982Y-115182934D01*
X219977240Y-115206775D01*
X219927424Y-115370998D01*
X219918121Y-115393456D01*
X219837227Y-115544798D01*
X219823722Y-115565010D01*
X219714854Y-115697666D01*
X219697666Y-115714854D01*
X219565010Y-115823722D01*
X219544798Y-115837227D01*
X219393456Y-115918121D01*
X219370998Y-115927424D01*
X219206775Y-115977240D01*
X219182934Y-115981982D01*
X219003032Y-115999701D01*
X218996951Y-116000000D01*
X83003049Y-116000000D01*
X82996968Y-115999701D01*
X82817065Y-115981982D01*
X82793224Y-115977240D01*
X82629001Y-115927424D01*
X82606543Y-115918121D01*
X82455201Y-115837227D01*
X82434989Y-115823722D01*
X82302333Y-115714854D01*
X82285145Y-115697666D01*
X82176277Y-115565010D01*
X82162772Y-115544798D01*
X82081878Y-115393456D01*
X82072575Y-115370998D01*
X82022757Y-115206769D01*
X82018018Y-115182941D01*
X82000299Y-115003032D01*
X82000000Y-114996951D01*
X82000000Y-110500003D01*
X82000000Y-110499999D01*
X82000000Y-109500000D01*
X81000000Y-109500000D01*
X80999997Y-109500000D01*
X76503049Y-109500000D01*
X76496968Y-109499701D01*
X76317065Y-109481982D01*
X76293224Y-109477240D01*
X76129001Y-109427424D01*
X76106543Y-109418121D01*
X75955201Y-109337227D01*
X75934989Y-109323722D01*
X75802333Y-109214854D01*
X75785145Y-109197666D01*
X75676277Y-109065010D01*
X75662772Y-109044798D01*
X75581878Y-108893456D01*
X75572575Y-108870998D01*
X75522757Y-108706769D01*
X75518018Y-108682941D01*
X75500299Y-108503032D01*
X75500000Y-108496951D01*
X75500000Y-107000000D01*
X159244659Y-107000000D01*
X159263975Y-107196129D01*
X159321188Y-107384733D01*
X159414086Y-107558532D01*
X159414090Y-107558539D01*
X159539116Y-107710883D01*
X159691460Y-107835909D01*
X159691467Y-107835913D01*
X159865266Y-107928811D01*
X159865269Y-107928811D01*
X159865273Y-107928814D01*
X160053868Y-107986024D01*
X160250000Y-108005341D01*
X160446132Y-107986024D01*
X160634727Y-107928814D01*
X160808538Y-107835910D01*
X160960883Y-107710883D01*
X161085910Y-107558538D01*
X161178814Y-107384727D01*
X161236024Y-107196132D01*
X161244871Y-107106299D01*
X161271031Y-107041513D01*
X161280584Y-107030782D01*
X169291506Y-99019860D01*
X169352827Y-98986377D01*
X169397750Y-98985978D01*
X169397805Y-98985427D01*
X169402942Y-98985932D01*
X169403391Y-98985929D01*
X169403866Y-98986023D01*
X169403868Y-98986024D01*
X169600000Y-99005341D01*
X169796132Y-98986024D01*
X169984727Y-98928814D01*
X169992374Y-98924727D01*
X170158532Y-98835913D01*
X170158538Y-98835910D01*
X170310883Y-98710883D01*
X170435910Y-98558538D01*
X170528814Y-98384727D01*
X170586024Y-98196132D01*
X170590403Y-98151662D01*
X170593027Y-98138353D01*
X170592875Y-98138327D01*
X170594127Y-98131216D01*
X170594130Y-98131210D01*
X170596607Y-98088676D01*
X170605341Y-98000000D01*
X170604049Y-97986893D01*
X170603663Y-97967528D01*
X170604331Y-97956065D01*
X170597227Y-97915780D01*
X170596583Y-97911088D01*
X170593993Y-97884792D01*
X170586024Y-97803868D01*
X170528814Y-97615273D01*
X170528811Y-97615269D01*
X170528811Y-97615266D01*
X170435913Y-97441467D01*
X170435909Y-97441460D01*
X170310883Y-97289116D01*
X170158539Y-97164090D01*
X170158532Y-97164086D01*
X169984733Y-97071188D01*
X169984727Y-97071186D01*
X169796132Y-97013976D01*
X169796129Y-97013975D01*
X169600000Y-96994659D01*
X169403870Y-97013975D01*
X169215266Y-97071188D01*
X169041467Y-97164086D01*
X169041460Y-97164090D01*
X168889118Y-97289114D01*
X168816332Y-97377804D01*
X168785581Y-97404674D01*
X168781343Y-97407288D01*
X168775681Y-97411765D01*
X168775645Y-97411720D01*
X168769798Y-97416484D01*
X168769835Y-97416528D01*
X168764310Y-97421164D01*
X168764304Y-97421169D01*
X168764304Y-97421170D01*
X168711613Y-97477016D01*
X168711614Y-97477017D01*
X160219225Y-105969405D01*
X160157902Y-106002890D01*
X160143700Y-106005127D01*
X160053870Y-106013975D01*
X159865266Y-106071188D01*
X159691467Y-106164086D01*
X159691460Y-106164090D01*
X159539116Y-106289116D01*
X159414090Y-106441460D01*
X159414086Y-106441467D01*
X159321188Y-106615266D01*
X159263975Y-106803870D01*
X159244659Y-107000000D01*
X75500000Y-107000000D01*
X75500000Y-89000000D01*
X112889659Y-89000000D01*
X112908975Y-89196129D01*
X112966188Y-89384733D01*
X113059084Y-89558529D01*
X113059087Y-89558533D01*
X113059090Y-89558538D01*
X113116354Y-89628314D01*
X113143666Y-89692620D01*
X113144500Y-89706976D01*
X113144500Y-92161294D01*
X113143191Y-92179263D01*
X113139710Y-92203025D01*
X113144264Y-92255064D01*
X113144500Y-92260470D01*
X113144500Y-92268709D01*
X113148306Y-92301274D01*
X113155000Y-92377791D01*
X113156461Y-92384867D01*
X113156403Y-92384878D01*
X113158034Y-92392237D01*
X113158092Y-92392224D01*
X113159757Y-92399250D01*
X113186025Y-92471424D01*
X113210185Y-92544331D01*
X113213236Y-92550874D01*
X113213182Y-92550898D01*
X113216470Y-92557688D01*
X113216521Y-92557663D01*
X113219761Y-92564113D01*
X113219762Y-92564114D01*
X113219763Y-92564117D01*
X113261965Y-92628283D01*
X113302287Y-92693655D01*
X113306766Y-92699319D01*
X113306719Y-92699356D01*
X113311482Y-92705202D01*
X113311528Y-92705164D01*
X113316173Y-92710700D01*
X113372018Y-92763386D01*
X118413955Y-97805322D01*
X118447440Y-97866645D01*
X118442456Y-97936337D01*
X118422128Y-97971667D01*
X118414090Y-97981460D01*
X118414086Y-97981467D01*
X118321188Y-98155266D01*
X118263975Y-98343870D01*
X118244659Y-98540000D01*
X118263975Y-98736129D01*
X118321188Y-98924733D01*
X118414086Y-99098532D01*
X118414090Y-99098539D01*
X118539116Y-99250883D01*
X118691460Y-99375909D01*
X118691467Y-99375913D01*
X118865266Y-99468811D01*
X118865269Y-99468811D01*
X118865273Y-99468814D01*
X119053868Y-99526024D01*
X119250000Y-99545341D01*
X119446132Y-99526024D01*
X119634727Y-99468814D01*
X119808538Y-99375910D01*
X119960883Y-99250883D01*
X120085910Y-99098538D01*
X120155819Y-98967747D01*
X120178811Y-98924733D01*
X120178811Y-98924732D01*
X120178814Y-98924727D01*
X120236024Y-98736132D01*
X120255341Y-98540000D01*
X120236024Y-98343868D01*
X120178814Y-98155273D01*
X120178811Y-98155269D01*
X120178811Y-98155266D01*
X120085913Y-97981467D01*
X120085911Y-97981465D01*
X120085910Y-97981462D01*
X120048877Y-97936337D01*
X120028647Y-97911686D01*
X120001334Y-97847376D01*
X120000500Y-97833021D01*
X120000500Y-97643705D01*
X120001809Y-97625735D01*
X120003342Y-97615266D01*
X120005289Y-97601977D01*
X120000735Y-97549931D01*
X120000500Y-97544528D01*
X120000500Y-97536297D01*
X120000500Y-97536291D01*
X119996693Y-97503724D01*
X119991247Y-97441467D01*
X119989999Y-97427201D01*
X119988539Y-97420129D01*
X119988597Y-97420116D01*
X119986965Y-97412757D01*
X119986906Y-97412772D01*
X119985242Y-97405753D01*
X119985241Y-97405745D01*
X119958974Y-97333576D01*
X119934814Y-97260666D01*
X119934809Y-97260659D01*
X119931760Y-97254118D01*
X119931815Y-97254091D01*
X119928533Y-97247313D01*
X119928480Y-97247340D01*
X119925235Y-97240880D01*
X119883028Y-97176708D01*
X119842710Y-97111342D01*
X119838234Y-97105682D01*
X119838281Y-97105644D01*
X119833519Y-97099799D01*
X119833474Y-97099838D01*
X119828834Y-97094308D01*
X119772964Y-97041596D01*
X114681819Y-91950451D01*
X114648334Y-91889128D01*
X114645500Y-91862770D01*
X114645500Y-89706976D01*
X114665185Y-89639937D01*
X114673632Y-89628329D01*
X114730910Y-89558538D01*
X114823814Y-89384727D01*
X114881024Y-89196132D01*
X114900341Y-89000000D01*
X114881024Y-88803868D01*
X114823814Y-88615273D01*
X114823811Y-88615269D01*
X114823811Y-88615266D01*
X114730913Y-88441467D01*
X114730909Y-88441460D01*
X114605883Y-88289116D01*
X114453539Y-88164090D01*
X114453532Y-88164086D01*
X114279733Y-88071188D01*
X114279727Y-88071186D01*
X114091132Y-88013976D01*
X114091129Y-88013975D01*
X113895000Y-87994659D01*
X113698870Y-88013975D01*
X113510266Y-88071188D01*
X113336467Y-88164086D01*
X113336460Y-88164090D01*
X113184116Y-88289116D01*
X113059090Y-88441460D01*
X113059086Y-88441467D01*
X112966188Y-88615266D01*
X112908975Y-88803870D01*
X112889659Y-89000000D01*
X75500000Y-89000000D01*
X75500000Y-81037500D01*
X162244659Y-81037500D01*
X162263975Y-81233629D01*
X162321188Y-81422233D01*
X162414084Y-81596029D01*
X162414087Y-81596033D01*
X162414090Y-81596038D01*
X162471354Y-81665814D01*
X162498666Y-81730120D01*
X162499500Y-81744476D01*
X162499500Y-82973794D01*
X162498191Y-82991763D01*
X162494710Y-83015525D01*
X162499264Y-83067564D01*
X162499500Y-83072970D01*
X162499500Y-83081209D01*
X162503306Y-83113774D01*
X162510000Y-83190291D01*
X162511461Y-83197367D01*
X162511403Y-83197378D01*
X162513034Y-83204737D01*
X162513092Y-83204724D01*
X162514757Y-83211750D01*
X162541025Y-83283924D01*
X162565185Y-83356831D01*
X162568236Y-83363374D01*
X162568182Y-83363398D01*
X162571470Y-83370188D01*
X162571521Y-83370163D01*
X162574761Y-83376613D01*
X162574762Y-83376614D01*
X162574763Y-83376617D01*
X162616965Y-83440782D01*
X162616965Y-83440783D01*
X162657287Y-83506155D01*
X162661766Y-83511819D01*
X162661719Y-83511856D01*
X162666482Y-83517702D01*
X162666528Y-83517664D01*
X162671173Y-83523200D01*
X162727018Y-83575886D01*
X166969405Y-87818272D01*
X167002890Y-87879595D01*
X167005127Y-87893798D01*
X167013975Y-87983628D01*
X167013975Y-87983630D01*
X167013976Y-87983632D01*
X167068718Y-88164090D01*
X167071188Y-88172233D01*
X167164086Y-88346032D01*
X167164090Y-88346039D01*
X167289116Y-88498383D01*
X167441460Y-88623409D01*
X167441467Y-88623413D01*
X167615266Y-88716311D01*
X167615269Y-88716311D01*
X167615273Y-88716314D01*
X167803868Y-88773524D01*
X168000000Y-88792841D01*
X168196132Y-88773524D01*
X168384727Y-88716314D01*
X168558538Y-88623410D01*
X168710883Y-88498383D01*
X168835910Y-88346038D01*
X168928814Y-88172227D01*
X168986024Y-87983632D01*
X169005341Y-87787500D01*
X168986024Y-87591368D01*
X168928814Y-87402773D01*
X168928811Y-87402769D01*
X168928811Y-87402766D01*
X168835913Y-87228967D01*
X168835909Y-87228960D01*
X168710883Y-87076616D01*
X168558539Y-86951590D01*
X168558532Y-86951586D01*
X168384733Y-86858688D01*
X168384727Y-86858686D01*
X168196132Y-86801476D01*
X168196130Y-86801475D01*
X168196128Y-86801475D01*
X168106298Y-86792627D01*
X168041511Y-86766465D01*
X168030772Y-86756905D01*
X164036819Y-82762951D01*
X164003334Y-82701628D01*
X164000500Y-82675270D01*
X164000500Y-81744476D01*
X164020185Y-81677437D01*
X164028632Y-81665829D01*
X164085910Y-81596038D01*
X164178814Y-81422227D01*
X164236024Y-81233632D01*
X164255341Y-81037500D01*
X164236024Y-80841368D01*
X164178814Y-80652773D01*
X164178811Y-80652769D01*
X164178811Y-80652766D01*
X164085913Y-80478967D01*
X164085909Y-80478960D01*
X163960883Y-80326616D01*
X163808539Y-80201590D01*
X163808532Y-80201586D01*
X163634733Y-80108688D01*
X163634727Y-80108686D01*
X163446132Y-80051476D01*
X163446129Y-80051475D01*
X163250000Y-80032159D01*
X163053870Y-80051475D01*
X162865266Y-80108688D01*
X162691467Y-80201586D01*
X162691460Y-80201590D01*
X162539116Y-80326616D01*
X162414090Y-80478960D01*
X162414086Y-80478967D01*
X162321188Y-80652766D01*
X162263975Y-80841370D01*
X162244659Y-81037500D01*
X75500000Y-81037500D01*
X75500000Y-79506506D01*
X77441696Y-79506506D01*
X77441697Y-79506510D01*
X77472009Y-79730281D01*
X77472010Y-79730284D01*
X77541789Y-79945044D01*
X77648794Y-80143891D01*
X77648796Y-80143894D01*
X77789586Y-80320439D01*
X77959639Y-80469011D01*
X77959640Y-80469012D01*
X77959643Y-80469014D01*
X78153493Y-80584834D01*
X78364908Y-80664179D01*
X78364908Y-80664180D01*
X78587090Y-80704500D01*
X78587093Y-80704500D01*
X78756337Y-80704500D01*
X78756343Y-80704500D01*
X78914443Y-80690270D01*
X78924906Y-80689329D01*
X79142570Y-80629258D01*
X79142575Y-80629255D01*
X79142582Y-80629254D01*
X79346033Y-80531277D01*
X79528721Y-80398547D01*
X79684772Y-80235330D01*
X79809173Y-80046871D01*
X79897923Y-79839229D01*
X79948172Y-79619076D01*
X79958303Y-79393490D01*
X79927991Y-79169719D01*
X79858211Y-78954957D01*
X79751204Y-78756106D01*
X79610411Y-78579558D01*
X79521007Y-78501448D01*
X79440360Y-78430988D01*
X79336146Y-78368723D01*
X79246507Y-78315166D01*
X79128154Y-78270747D01*
X79035091Y-78235819D01*
X78812910Y-78195500D01*
X78812907Y-78195500D01*
X78643657Y-78195500D01*
X78612271Y-78198324D01*
X78475093Y-78210670D01*
X78257429Y-78270741D01*
X78257414Y-78270747D01*
X78053973Y-78368719D01*
X78053965Y-78368723D01*
X77871284Y-78501448D01*
X77871282Y-78501449D01*
X77715226Y-78664671D01*
X77590828Y-78853125D01*
X77502077Y-79060772D01*
X77502075Y-79060778D01*
X77451828Y-79280922D01*
X77451828Y-79280926D01*
X77441696Y-79506506D01*
X75500000Y-79506506D01*
X75500000Y-72503048D01*
X75500299Y-72496967D01*
X75504706Y-72452213D01*
X75518018Y-72317056D01*
X75522757Y-72293232D01*
X75572577Y-72128994D01*
X75581875Y-72106549D01*
X75662775Y-71955195D01*
X75676272Y-71934995D01*
X75785149Y-71802328D01*
X75802328Y-71785149D01*
X75934995Y-71676272D01*
X75955195Y-71662775D01*
X76106549Y-71581875D01*
X76128994Y-71572577D01*
X76293232Y-71522757D01*
X76317056Y-71518018D01*
X76431501Y-71506746D01*
X76496969Y-71500299D01*
X76503049Y-71500000D01*
X80999997Y-71500000D01*
X81000000Y-71500000D01*
X82000000Y-71500000D01*
X82000000Y-69125611D01*
X82019685Y-69058573D01*
X82072489Y-69012818D01*
X82141647Y-69002874D01*
X82195122Y-69024036D01*
X82347266Y-69130568D01*
X82553504Y-69226739D01*
X82773308Y-69285635D01*
X82935230Y-69299801D01*
X82999998Y-69305468D01*
X83000000Y-69305468D01*
X83000002Y-69305468D01*
X83056672Y-69300509D01*
X83226692Y-69285635D01*
X83446496Y-69226739D01*
X83652734Y-69130568D01*
X83839139Y-69000047D01*
X83912320Y-68926865D01*
X83973641Y-68893382D01*
X84043333Y-68898366D01*
X84087679Y-68926865D01*
X84160859Y-69000045D01*
X84160862Y-69000048D01*
X84244446Y-69058573D01*
X84347266Y-69130568D01*
X84553504Y-69226739D01*
X84773308Y-69285635D01*
X84935230Y-69299801D01*
X84999998Y-69305468D01*
X85000000Y-69305468D01*
X85000002Y-69305468D01*
X85056672Y-69300509D01*
X85226692Y-69285635D01*
X85446496Y-69226739D01*
X85652734Y-69130568D01*
X85839139Y-69000047D01*
X85912320Y-68926865D01*
X85973641Y-68893382D01*
X86043333Y-68898366D01*
X86087679Y-68926865D01*
X86160859Y-69000045D01*
X86160862Y-69000048D01*
X86244446Y-69058573D01*
X86347266Y-69130568D01*
X86553504Y-69226739D01*
X86773308Y-69285635D01*
X86935230Y-69299801D01*
X86999998Y-69305468D01*
X87000000Y-69305468D01*
X87000002Y-69305468D01*
X87056672Y-69300509D01*
X87226692Y-69285635D01*
X87446496Y-69226739D01*
X87652734Y-69130568D01*
X87839139Y-69000047D01*
X87912320Y-68926865D01*
X87973641Y-68893382D01*
X88043333Y-68898366D01*
X88087679Y-68926865D01*
X88160859Y-69000045D01*
X88160862Y-69000048D01*
X88244446Y-69058573D01*
X88347266Y-69130568D01*
X88553504Y-69226739D01*
X88773308Y-69285635D01*
X88935230Y-69299801D01*
X88999998Y-69305468D01*
X89000000Y-69305468D01*
X89000002Y-69305468D01*
X89056672Y-69300509D01*
X89226692Y-69285635D01*
X89446496Y-69226739D01*
X89652734Y-69130568D01*
X89839139Y-69000047D01*
X90000047Y-68839139D01*
X90130568Y-68652734D01*
X90226739Y-68446496D01*
X90285635Y-68226692D01*
X90305468Y-68000001D01*
X105694532Y-68000001D01*
X105714364Y-68226686D01*
X105714366Y-68226697D01*
X105773258Y-68446488D01*
X105773261Y-68446497D01*
X105869431Y-68652732D01*
X105869432Y-68652734D01*
X105999954Y-68839141D01*
X106160858Y-69000045D01*
X106160861Y-69000047D01*
X106347266Y-69130568D01*
X106553504Y-69226739D01*
X106773308Y-69285635D01*
X106935230Y-69299801D01*
X106999998Y-69305468D01*
X107000000Y-69305468D01*
X107000002Y-69305468D01*
X107056672Y-69300509D01*
X107226692Y-69285635D01*
X107446496Y-69226739D01*
X107652734Y-69130568D01*
X107839139Y-69000047D01*
X107912320Y-68926865D01*
X107973641Y-68893382D01*
X108043333Y-68898366D01*
X108087679Y-68926865D01*
X108160859Y-69000045D01*
X108160862Y-69000048D01*
X108244446Y-69058573D01*
X108347266Y-69130568D01*
X108553504Y-69226739D01*
X108773308Y-69285635D01*
X108935230Y-69299801D01*
X108999998Y-69305468D01*
X109000000Y-69305468D01*
X109000002Y-69305468D01*
X109056672Y-69300509D01*
X109226692Y-69285635D01*
X109446496Y-69226739D01*
X109652734Y-69130568D01*
X109839139Y-69000047D01*
X109912319Y-68926866D01*
X109973639Y-68893382D01*
X110043331Y-68898366D01*
X110087680Y-68926867D01*
X110160858Y-69000045D01*
X110160861Y-69000047D01*
X110347266Y-69130568D01*
X110553504Y-69226739D01*
X110773308Y-69285635D01*
X110935230Y-69299801D01*
X110999998Y-69305468D01*
X111000000Y-69305468D01*
X111000002Y-69305468D01*
X111056672Y-69300509D01*
X111226692Y-69285635D01*
X111446496Y-69226739D01*
X111652734Y-69130568D01*
X111839139Y-69000047D01*
X112000047Y-68839139D01*
X112130568Y-68652734D01*
X112226739Y-68446496D01*
X112285635Y-68226692D01*
X112305468Y-68000001D01*
X167694532Y-68000001D01*
X167714364Y-68226686D01*
X167714366Y-68226697D01*
X167773258Y-68446488D01*
X167773261Y-68446497D01*
X167869431Y-68652732D01*
X167869432Y-68652734D01*
X167999954Y-68839141D01*
X168160858Y-69000045D01*
X168160861Y-69000047D01*
X168347266Y-69130568D01*
X168553504Y-69226739D01*
X168773308Y-69285635D01*
X168935230Y-69299801D01*
X168999998Y-69305468D01*
X169000000Y-69305468D01*
X169000002Y-69305468D01*
X169056672Y-69300509D01*
X169226692Y-69285635D01*
X169446496Y-69226739D01*
X169652734Y-69130568D01*
X169839139Y-69000047D01*
X169912320Y-68926865D01*
X169973641Y-68893382D01*
X170043333Y-68898366D01*
X170087679Y-68926865D01*
X170160859Y-69000045D01*
X170160862Y-69000048D01*
X170244446Y-69058573D01*
X170347266Y-69130568D01*
X170553504Y-69226739D01*
X170773308Y-69285635D01*
X170935230Y-69299801D01*
X170999998Y-69305468D01*
X171000000Y-69305468D01*
X171000002Y-69305468D01*
X171056672Y-69300509D01*
X171226692Y-69285635D01*
X171446496Y-69226739D01*
X171652734Y-69130568D01*
X171839139Y-69000047D01*
X171912320Y-68926865D01*
X171973641Y-68893382D01*
X172043333Y-68898366D01*
X172087679Y-68926865D01*
X172160859Y-69000045D01*
X172160862Y-69000048D01*
X172244446Y-69058573D01*
X172347266Y-69130568D01*
X172553504Y-69226739D01*
X172773308Y-69285635D01*
X172935230Y-69299801D01*
X172999998Y-69305468D01*
X173000000Y-69305468D01*
X173000002Y-69305468D01*
X173056672Y-69300509D01*
X173226692Y-69285635D01*
X173446496Y-69226739D01*
X173652734Y-69130568D01*
X173839139Y-69000047D01*
X174000047Y-68839139D01*
X174130568Y-68652734D01*
X174226739Y-68446496D01*
X174285635Y-68226692D01*
X174305468Y-68000001D01*
X175694532Y-68000001D01*
X175714364Y-68226686D01*
X175714366Y-68226697D01*
X175773258Y-68446488D01*
X175773261Y-68446497D01*
X175869431Y-68652732D01*
X175869432Y-68652734D01*
X175999954Y-68839141D01*
X176160858Y-69000045D01*
X176160861Y-69000047D01*
X176347266Y-69130568D01*
X176553504Y-69226739D01*
X176773308Y-69285635D01*
X176935230Y-69299801D01*
X176999998Y-69305468D01*
X177000000Y-69305468D01*
X177000002Y-69305468D01*
X177056672Y-69300509D01*
X177226692Y-69285635D01*
X177446496Y-69226739D01*
X177652734Y-69130568D01*
X177839139Y-69000047D01*
X178000047Y-68839139D01*
X178130568Y-68652734D01*
X178226739Y-68446496D01*
X178285635Y-68226692D01*
X178305468Y-68000001D01*
X179694532Y-68000001D01*
X179714364Y-68226686D01*
X179714366Y-68226697D01*
X179773258Y-68446488D01*
X179773261Y-68446497D01*
X179869431Y-68652732D01*
X179869432Y-68652734D01*
X179999954Y-68839141D01*
X180160858Y-69000045D01*
X180160861Y-69000047D01*
X180347266Y-69130568D01*
X180553504Y-69226739D01*
X180773308Y-69285635D01*
X180935230Y-69299801D01*
X180999998Y-69305468D01*
X181000000Y-69305468D01*
X181000002Y-69305468D01*
X181056672Y-69300509D01*
X181226692Y-69285635D01*
X181446496Y-69226739D01*
X181652734Y-69130568D01*
X181839139Y-69000047D01*
X181912319Y-68926866D01*
X181973639Y-68893382D01*
X182043331Y-68898366D01*
X182087680Y-68926867D01*
X182160858Y-69000045D01*
X182160861Y-69000047D01*
X182347266Y-69130568D01*
X182553504Y-69226739D01*
X182773308Y-69285635D01*
X182935230Y-69299801D01*
X182999998Y-69305468D01*
X183000000Y-69305468D01*
X183000002Y-69305468D01*
X183056672Y-69300509D01*
X183226692Y-69285635D01*
X183446496Y-69226739D01*
X183652734Y-69130568D01*
X183839139Y-69000047D01*
X183912320Y-68926865D01*
X183973641Y-68893382D01*
X184043333Y-68898366D01*
X184087679Y-68926865D01*
X184160859Y-69000045D01*
X184160862Y-69000048D01*
X184244446Y-69058573D01*
X184347266Y-69130568D01*
X184553504Y-69226739D01*
X184773308Y-69285635D01*
X184935230Y-69299801D01*
X184999998Y-69305468D01*
X185000000Y-69305468D01*
X185000002Y-69305468D01*
X185056672Y-69300509D01*
X185226692Y-69285635D01*
X185446496Y-69226739D01*
X185652734Y-69130568D01*
X185839139Y-69000047D01*
X185912320Y-68926865D01*
X185973641Y-68893382D01*
X186043333Y-68898366D01*
X186087679Y-68926865D01*
X186160859Y-69000045D01*
X186160862Y-69000048D01*
X186244446Y-69058573D01*
X186347266Y-69130568D01*
X186553504Y-69226739D01*
X186773308Y-69285635D01*
X186935230Y-69299801D01*
X186999998Y-69305468D01*
X187000000Y-69305468D01*
X187000002Y-69305468D01*
X187056672Y-69300509D01*
X187226692Y-69285635D01*
X187446496Y-69226739D01*
X187652734Y-69130568D01*
X187839139Y-69000047D01*
X187912320Y-68926865D01*
X187973641Y-68893382D01*
X188043333Y-68898366D01*
X188087679Y-68926865D01*
X188160859Y-69000045D01*
X188160862Y-69000048D01*
X188244446Y-69058573D01*
X188347266Y-69130568D01*
X188553504Y-69226739D01*
X188773308Y-69285635D01*
X188935230Y-69299801D01*
X188999998Y-69305468D01*
X189000000Y-69305468D01*
X189000002Y-69305468D01*
X189056672Y-69300509D01*
X189226692Y-69285635D01*
X189446496Y-69226739D01*
X189652734Y-69130568D01*
X189839139Y-69000047D01*
X189912320Y-68926865D01*
X189973641Y-68893382D01*
X190043333Y-68898366D01*
X190087679Y-68926865D01*
X190160859Y-69000045D01*
X190160862Y-69000048D01*
X190244446Y-69058573D01*
X190347266Y-69130568D01*
X190553504Y-69226739D01*
X190773308Y-69285635D01*
X190935230Y-69299801D01*
X190999998Y-69305468D01*
X191000000Y-69305468D01*
X191000002Y-69305468D01*
X191056672Y-69300509D01*
X191226692Y-69285635D01*
X191446496Y-69226739D01*
X191652734Y-69130568D01*
X191839139Y-69000047D01*
X191912320Y-68926865D01*
X191973641Y-68893382D01*
X192043333Y-68898366D01*
X192087679Y-68926865D01*
X192160859Y-69000045D01*
X192160862Y-69000048D01*
X192244446Y-69058573D01*
X192347266Y-69130568D01*
X192553504Y-69226739D01*
X192773308Y-69285635D01*
X192935230Y-69299801D01*
X192999998Y-69305468D01*
X193000000Y-69305468D01*
X193000002Y-69305468D01*
X193056672Y-69300509D01*
X193226692Y-69285635D01*
X193446496Y-69226739D01*
X193652734Y-69130568D01*
X193839139Y-69000047D01*
X193912320Y-68926865D01*
X193973641Y-68893382D01*
X194043333Y-68898366D01*
X194087679Y-68926865D01*
X194160859Y-69000045D01*
X194160862Y-69000048D01*
X194244446Y-69058573D01*
X194347266Y-69130568D01*
X194553504Y-69226739D01*
X194773308Y-69285635D01*
X194935230Y-69299801D01*
X194999998Y-69305468D01*
X195000000Y-69305468D01*
X195000002Y-69305468D01*
X195056672Y-69300509D01*
X195226692Y-69285635D01*
X195446496Y-69226739D01*
X195652734Y-69130568D01*
X195839139Y-69000047D01*
X195912319Y-68926866D01*
X195973639Y-68893382D01*
X196043331Y-68898366D01*
X196087680Y-68926867D01*
X196160858Y-69000045D01*
X196160861Y-69000047D01*
X196347266Y-69130568D01*
X196553504Y-69226739D01*
X196773308Y-69285635D01*
X196935230Y-69299801D01*
X196999998Y-69305468D01*
X197000000Y-69305468D01*
X197000002Y-69305468D01*
X197056672Y-69300509D01*
X197226692Y-69285635D01*
X197446496Y-69226739D01*
X197652734Y-69130568D01*
X197839139Y-69000047D01*
X197912319Y-68926866D01*
X197973639Y-68893382D01*
X198043331Y-68898366D01*
X198087680Y-68926867D01*
X198160858Y-69000045D01*
X198160861Y-69000047D01*
X198347266Y-69130568D01*
X198553504Y-69226739D01*
X198773308Y-69285635D01*
X198935230Y-69299801D01*
X198999998Y-69305468D01*
X199000000Y-69305468D01*
X199000002Y-69305468D01*
X199056672Y-69300509D01*
X199226692Y-69285635D01*
X199446496Y-69226739D01*
X199652734Y-69130568D01*
X199839139Y-69000047D01*
X199912320Y-68926865D01*
X199973641Y-68893382D01*
X200043333Y-68898366D01*
X200087679Y-68926865D01*
X200160859Y-69000045D01*
X200160862Y-69000048D01*
X200244446Y-69058573D01*
X200347266Y-69130568D01*
X200553504Y-69226739D01*
X200773308Y-69285635D01*
X200935230Y-69299801D01*
X200999998Y-69305468D01*
X201000000Y-69305468D01*
X201000002Y-69305468D01*
X201056672Y-69300509D01*
X201226692Y-69285635D01*
X201446496Y-69226739D01*
X201652734Y-69130568D01*
X201839139Y-69000047D01*
X202000047Y-68839139D01*
X202130568Y-68652734D01*
X202226739Y-68446496D01*
X202285635Y-68226692D01*
X202305468Y-68000000D01*
X202285635Y-67773308D01*
X202226739Y-67553504D01*
X202130568Y-67347266D01*
X202000047Y-67160861D01*
X202000045Y-67160858D01*
X201839141Y-66999954D01*
X201652734Y-66869432D01*
X201652732Y-66869431D01*
X201446497Y-66773261D01*
X201446488Y-66773258D01*
X201226697Y-66714366D01*
X201226693Y-66714365D01*
X201226692Y-66714365D01*
X201226691Y-66714364D01*
X201226686Y-66714364D01*
X201000002Y-66694532D01*
X200999998Y-66694532D01*
X200773313Y-66714364D01*
X200773302Y-66714366D01*
X200553511Y-66773258D01*
X200553502Y-66773261D01*
X200347267Y-66869431D01*
X200347265Y-66869432D01*
X200160862Y-66999951D01*
X200087681Y-67073132D01*
X200026357Y-67106616D01*
X199956666Y-67101631D01*
X199912319Y-67073132D01*
X199839137Y-66999951D01*
X199652734Y-66869432D01*
X199652732Y-66869431D01*
X199446497Y-66773261D01*
X199446488Y-66773258D01*
X199226697Y-66714366D01*
X199226693Y-66714365D01*
X199226692Y-66714365D01*
X199226691Y-66714364D01*
X199226686Y-66714364D01*
X199000002Y-66694532D01*
X198999998Y-66694532D01*
X198773313Y-66714364D01*
X198773302Y-66714366D01*
X198553511Y-66773258D01*
X198553502Y-66773261D01*
X198347267Y-66869431D01*
X198347265Y-66869432D01*
X198160862Y-66999951D01*
X198087681Y-67073132D01*
X198026357Y-67106616D01*
X197956666Y-67101631D01*
X197912319Y-67073132D01*
X197839137Y-66999951D01*
X197652734Y-66869432D01*
X197652732Y-66869431D01*
X197446497Y-66773261D01*
X197446488Y-66773258D01*
X197226697Y-66714366D01*
X197226693Y-66714365D01*
X197226692Y-66714365D01*
X197226691Y-66714364D01*
X197226686Y-66714364D01*
X197000002Y-66694532D01*
X196999998Y-66694532D01*
X196773313Y-66714364D01*
X196773302Y-66714366D01*
X196553511Y-66773258D01*
X196553502Y-66773261D01*
X196347267Y-66869431D01*
X196347265Y-66869432D01*
X196160862Y-66999951D01*
X196087681Y-67073132D01*
X196026357Y-67106616D01*
X195956666Y-67101631D01*
X195912319Y-67073132D01*
X195839137Y-66999951D01*
X195652734Y-66869432D01*
X195652732Y-66869431D01*
X195446497Y-66773261D01*
X195446488Y-66773258D01*
X195226697Y-66714366D01*
X195226693Y-66714365D01*
X195226692Y-66714365D01*
X195226691Y-66714364D01*
X195226686Y-66714364D01*
X195000002Y-66694532D01*
X194999998Y-66694532D01*
X194773313Y-66714364D01*
X194773302Y-66714366D01*
X194553511Y-66773258D01*
X194553502Y-66773261D01*
X194347267Y-66869431D01*
X194347265Y-66869432D01*
X194160862Y-66999951D01*
X194087681Y-67073132D01*
X194026357Y-67106616D01*
X193956666Y-67101631D01*
X193912319Y-67073132D01*
X193839137Y-66999951D01*
X193652734Y-66869432D01*
X193652732Y-66869431D01*
X193446497Y-66773261D01*
X193446488Y-66773258D01*
X193226697Y-66714366D01*
X193226693Y-66714365D01*
X193226692Y-66714365D01*
X193226691Y-66714364D01*
X193226686Y-66714364D01*
X193000002Y-66694532D01*
X192999998Y-66694532D01*
X192773313Y-66714364D01*
X192773302Y-66714366D01*
X192553511Y-66773258D01*
X192553502Y-66773261D01*
X192347267Y-66869431D01*
X192347265Y-66869432D01*
X192160862Y-66999951D01*
X192087681Y-67073132D01*
X192026357Y-67106616D01*
X191956666Y-67101631D01*
X191912319Y-67073132D01*
X191839137Y-66999951D01*
X191652734Y-66869432D01*
X191652732Y-66869431D01*
X191446497Y-66773261D01*
X191446488Y-66773258D01*
X191226697Y-66714366D01*
X191226693Y-66714365D01*
X191226692Y-66714365D01*
X191226691Y-66714364D01*
X191226686Y-66714364D01*
X191000002Y-66694532D01*
X190999998Y-66694532D01*
X190773313Y-66714364D01*
X190773302Y-66714366D01*
X190553511Y-66773258D01*
X190553502Y-66773261D01*
X190347267Y-66869431D01*
X190347265Y-66869432D01*
X190160862Y-66999951D01*
X190087681Y-67073132D01*
X190026357Y-67106616D01*
X189956666Y-67101631D01*
X189912319Y-67073132D01*
X189839137Y-66999951D01*
X189652734Y-66869432D01*
X189652732Y-66869431D01*
X189446497Y-66773261D01*
X189446488Y-66773258D01*
X189226697Y-66714366D01*
X189226693Y-66714365D01*
X189226692Y-66714365D01*
X189226691Y-66714364D01*
X189226686Y-66714364D01*
X189000002Y-66694532D01*
X188999998Y-66694532D01*
X188773313Y-66714364D01*
X188773302Y-66714366D01*
X188553511Y-66773258D01*
X188553502Y-66773261D01*
X188347267Y-66869431D01*
X188347265Y-66869432D01*
X188160862Y-66999951D01*
X188087681Y-67073132D01*
X188026357Y-67106616D01*
X187956666Y-67101631D01*
X187912319Y-67073132D01*
X187839137Y-66999951D01*
X187652734Y-66869432D01*
X187652732Y-66869431D01*
X187446497Y-66773261D01*
X187446488Y-66773258D01*
X187226697Y-66714366D01*
X187226693Y-66714365D01*
X187226692Y-66714365D01*
X187226691Y-66714364D01*
X187226686Y-66714364D01*
X187000002Y-66694532D01*
X186999998Y-66694532D01*
X186773313Y-66714364D01*
X186773302Y-66714366D01*
X186553511Y-66773258D01*
X186553502Y-66773261D01*
X186347267Y-66869431D01*
X186347265Y-66869432D01*
X186160862Y-66999951D01*
X186087681Y-67073132D01*
X186026357Y-67106616D01*
X185956666Y-67101631D01*
X185912319Y-67073132D01*
X185839137Y-66999951D01*
X185652734Y-66869432D01*
X185652732Y-66869431D01*
X185446497Y-66773261D01*
X185446488Y-66773258D01*
X185226697Y-66714366D01*
X185226693Y-66714365D01*
X185226692Y-66714365D01*
X185226691Y-66714364D01*
X185226686Y-66714364D01*
X185000002Y-66694532D01*
X184999998Y-66694532D01*
X184773313Y-66714364D01*
X184773302Y-66714366D01*
X184553511Y-66773258D01*
X184553502Y-66773261D01*
X184347267Y-66869431D01*
X184347265Y-66869432D01*
X184160862Y-66999951D01*
X184087681Y-67073132D01*
X184026357Y-67106616D01*
X183956666Y-67101631D01*
X183912319Y-67073132D01*
X183839137Y-66999951D01*
X183652734Y-66869432D01*
X183652732Y-66869431D01*
X183446497Y-66773261D01*
X183446488Y-66773258D01*
X183226697Y-66714366D01*
X183226693Y-66714365D01*
X183226692Y-66714365D01*
X183226691Y-66714364D01*
X183226686Y-66714364D01*
X183000002Y-66694532D01*
X182999998Y-66694532D01*
X182773313Y-66714364D01*
X182773302Y-66714366D01*
X182553511Y-66773258D01*
X182553502Y-66773261D01*
X182347267Y-66869431D01*
X182347265Y-66869432D01*
X182160862Y-66999951D01*
X182087681Y-67073132D01*
X182026357Y-67106616D01*
X181956666Y-67101631D01*
X181912319Y-67073132D01*
X181839137Y-66999951D01*
X181652734Y-66869432D01*
X181652732Y-66869431D01*
X181446497Y-66773261D01*
X181446488Y-66773258D01*
X181226697Y-66714366D01*
X181226693Y-66714365D01*
X181226692Y-66714365D01*
X181226691Y-66714364D01*
X181226686Y-66714364D01*
X181000002Y-66694532D01*
X180999998Y-66694532D01*
X180773313Y-66714364D01*
X180773302Y-66714366D01*
X180553511Y-66773258D01*
X180553502Y-66773261D01*
X180347267Y-66869431D01*
X180347265Y-66869432D01*
X180160858Y-66999954D01*
X179999954Y-67160858D01*
X179869432Y-67347265D01*
X179869431Y-67347267D01*
X179773261Y-67553502D01*
X179773258Y-67553511D01*
X179714366Y-67773302D01*
X179714364Y-67773313D01*
X179694532Y-67999998D01*
X179694532Y-68000001D01*
X178305468Y-68000001D01*
X178305468Y-68000000D01*
X178285635Y-67773308D01*
X178226739Y-67553504D01*
X178130568Y-67347266D01*
X178000047Y-67160861D01*
X178000045Y-67160858D01*
X177839141Y-66999954D01*
X177652734Y-66869432D01*
X177652732Y-66869431D01*
X177446497Y-66773261D01*
X177446488Y-66773258D01*
X177226697Y-66714366D01*
X177226693Y-66714365D01*
X177226692Y-66714365D01*
X177226691Y-66714364D01*
X177226686Y-66714364D01*
X177000002Y-66694532D01*
X176999998Y-66694532D01*
X176773313Y-66714364D01*
X176773302Y-66714366D01*
X176553511Y-66773258D01*
X176553502Y-66773261D01*
X176347267Y-66869431D01*
X176347265Y-66869432D01*
X176160858Y-66999954D01*
X175999954Y-67160858D01*
X175869432Y-67347265D01*
X175869431Y-67347267D01*
X175773261Y-67553502D01*
X175773258Y-67553511D01*
X175714366Y-67773302D01*
X175714364Y-67773313D01*
X175694532Y-67999998D01*
X175694532Y-68000001D01*
X174305468Y-68000001D01*
X174305468Y-68000000D01*
X174285635Y-67773308D01*
X174226739Y-67553504D01*
X174130568Y-67347266D01*
X174000047Y-67160861D01*
X174000045Y-67160858D01*
X173839141Y-66999954D01*
X173652734Y-66869432D01*
X173652732Y-66869431D01*
X173446497Y-66773261D01*
X173446488Y-66773258D01*
X173226697Y-66714366D01*
X173226693Y-66714365D01*
X173226692Y-66714365D01*
X173226691Y-66714364D01*
X173226686Y-66714364D01*
X173000002Y-66694532D01*
X172999998Y-66694532D01*
X172773313Y-66714364D01*
X172773302Y-66714366D01*
X172553511Y-66773258D01*
X172553502Y-66773261D01*
X172347267Y-66869431D01*
X172347265Y-66869432D01*
X172160862Y-66999951D01*
X172087681Y-67073132D01*
X172026357Y-67106616D01*
X171956666Y-67101631D01*
X171912319Y-67073132D01*
X171839137Y-66999951D01*
X171652734Y-66869432D01*
X171652732Y-66869431D01*
X171446497Y-66773261D01*
X171446488Y-66773258D01*
X171226697Y-66714366D01*
X171226693Y-66714365D01*
X171226692Y-66714365D01*
X171226691Y-66714364D01*
X171226686Y-66714364D01*
X171000002Y-66694532D01*
X170999998Y-66694532D01*
X170773313Y-66714364D01*
X170773302Y-66714366D01*
X170553511Y-66773258D01*
X170553502Y-66773261D01*
X170347267Y-66869431D01*
X170347265Y-66869432D01*
X170160862Y-66999951D01*
X170087681Y-67073132D01*
X170026357Y-67106616D01*
X169956666Y-67101631D01*
X169912319Y-67073132D01*
X169839137Y-66999951D01*
X169652734Y-66869432D01*
X169652732Y-66869431D01*
X169446497Y-66773261D01*
X169446488Y-66773258D01*
X169226697Y-66714366D01*
X169226693Y-66714365D01*
X169226692Y-66714365D01*
X169226691Y-66714364D01*
X169226686Y-66714364D01*
X169000002Y-66694532D01*
X168999998Y-66694532D01*
X168773313Y-66714364D01*
X168773302Y-66714366D01*
X168553511Y-66773258D01*
X168553502Y-66773261D01*
X168347267Y-66869431D01*
X168347265Y-66869432D01*
X168160858Y-66999954D01*
X167999954Y-67160858D01*
X167869432Y-67347265D01*
X167869431Y-67347267D01*
X167773261Y-67553502D01*
X167773258Y-67553511D01*
X167714366Y-67773302D01*
X167714364Y-67773313D01*
X167694532Y-67999998D01*
X167694532Y-68000001D01*
X112305468Y-68000001D01*
X112305468Y-68000000D01*
X112285635Y-67773308D01*
X112226739Y-67553504D01*
X112130568Y-67347266D01*
X112000047Y-67160861D01*
X112000045Y-67160858D01*
X111839141Y-66999954D01*
X111652734Y-66869432D01*
X111652732Y-66869431D01*
X111446497Y-66773261D01*
X111446488Y-66773258D01*
X111226697Y-66714366D01*
X111226693Y-66714365D01*
X111226692Y-66714365D01*
X111226691Y-66714364D01*
X111226686Y-66714364D01*
X111000002Y-66694532D01*
X110999998Y-66694532D01*
X110773313Y-66714364D01*
X110773302Y-66714366D01*
X110553511Y-66773258D01*
X110553502Y-66773261D01*
X110347267Y-66869431D01*
X110347265Y-66869432D01*
X110160858Y-66999954D01*
X110087681Y-67073132D01*
X110026358Y-67106617D01*
X109956666Y-67101633D01*
X109912319Y-67073132D01*
X109839141Y-66999954D01*
X109652734Y-66869432D01*
X109652732Y-66869431D01*
X109446497Y-66773261D01*
X109446488Y-66773258D01*
X109226697Y-66714366D01*
X109226693Y-66714365D01*
X109226692Y-66714365D01*
X109226691Y-66714364D01*
X109226686Y-66714364D01*
X109000002Y-66694532D01*
X108999998Y-66694532D01*
X108773313Y-66714364D01*
X108773302Y-66714366D01*
X108553511Y-66773258D01*
X108553502Y-66773261D01*
X108347267Y-66869431D01*
X108347265Y-66869432D01*
X108160858Y-66999954D01*
X108087681Y-67073132D01*
X108026358Y-67106617D01*
X107956666Y-67101633D01*
X107912319Y-67073132D01*
X107839141Y-66999954D01*
X107652734Y-66869432D01*
X107652732Y-66869431D01*
X107446497Y-66773261D01*
X107446488Y-66773258D01*
X107226697Y-66714366D01*
X107226693Y-66714365D01*
X107226692Y-66714365D01*
X107226691Y-66714364D01*
X107226686Y-66714364D01*
X107000002Y-66694532D01*
X106999998Y-66694532D01*
X106773313Y-66714364D01*
X106773302Y-66714366D01*
X106553511Y-66773258D01*
X106553502Y-66773261D01*
X106347267Y-66869431D01*
X106347265Y-66869432D01*
X106160858Y-66999954D01*
X105999954Y-67160858D01*
X105869432Y-67347265D01*
X105869431Y-67347267D01*
X105773261Y-67553502D01*
X105773258Y-67553511D01*
X105714366Y-67773302D01*
X105714364Y-67773313D01*
X105694532Y-67999998D01*
X105694532Y-68000001D01*
X90305468Y-68000001D01*
X90305468Y-68000000D01*
X90285635Y-67773308D01*
X90226739Y-67553504D01*
X90130568Y-67347266D01*
X90000047Y-67160861D01*
X90000045Y-67160858D01*
X89839141Y-66999954D01*
X89652734Y-66869432D01*
X89652732Y-66869431D01*
X89446497Y-66773261D01*
X89446488Y-66773258D01*
X89226697Y-66714366D01*
X89226693Y-66714365D01*
X89226692Y-66714365D01*
X89226691Y-66714364D01*
X89226686Y-66714364D01*
X89000002Y-66694532D01*
X88999998Y-66694532D01*
X88773313Y-66714364D01*
X88773302Y-66714366D01*
X88553511Y-66773258D01*
X88553502Y-66773261D01*
X88347267Y-66869431D01*
X88347265Y-66869432D01*
X88160858Y-66999954D01*
X88087681Y-67073132D01*
X88026358Y-67106617D01*
X87956666Y-67101633D01*
X87912319Y-67073132D01*
X87839141Y-66999954D01*
X87652734Y-66869432D01*
X87652732Y-66869431D01*
X87446497Y-66773261D01*
X87446488Y-66773258D01*
X87226697Y-66714366D01*
X87226693Y-66714365D01*
X87226692Y-66714365D01*
X87226691Y-66714364D01*
X87226686Y-66714364D01*
X87000002Y-66694532D01*
X86999998Y-66694532D01*
X86773313Y-66714364D01*
X86773302Y-66714366D01*
X86553511Y-66773258D01*
X86553502Y-66773261D01*
X86347267Y-66869431D01*
X86347265Y-66869432D01*
X86160862Y-66999951D01*
X86087680Y-67073133D01*
X86026356Y-67106617D01*
X85956665Y-67101632D01*
X85912319Y-67073133D01*
X85839139Y-66999953D01*
X85839138Y-66999952D01*
X85839137Y-66999951D01*
X85652734Y-66869432D01*
X85652732Y-66869431D01*
X85446497Y-66773261D01*
X85446488Y-66773258D01*
X85226697Y-66714366D01*
X85226693Y-66714365D01*
X85226692Y-66714365D01*
X85226691Y-66714364D01*
X85226686Y-66714364D01*
X85000002Y-66694532D01*
X84999998Y-66694532D01*
X84773313Y-66714364D01*
X84773302Y-66714366D01*
X84553511Y-66773258D01*
X84553502Y-66773261D01*
X84347267Y-66869431D01*
X84347265Y-66869432D01*
X84160858Y-66999954D01*
X84087681Y-67073132D01*
X84026358Y-67106617D01*
X83956666Y-67101633D01*
X83912319Y-67073132D01*
X83839141Y-66999954D01*
X83652734Y-66869432D01*
X83652732Y-66869431D01*
X83446497Y-66773261D01*
X83446488Y-66773258D01*
X83226697Y-66714366D01*
X83226693Y-66714365D01*
X83226692Y-66714365D01*
X83226691Y-66714364D01*
X83226686Y-66714364D01*
X83000002Y-66694532D01*
X82999998Y-66694532D01*
X82773313Y-66714364D01*
X82773302Y-66714366D01*
X82553511Y-66773258D01*
X82553502Y-66773261D01*
X82347267Y-66869431D01*
X82347265Y-66869432D01*
X82195123Y-66975962D01*
X82128916Y-66998290D01*
X82061149Y-66981278D01*
X82013337Y-66930330D01*
X82000000Y-66874387D01*
X82000000Y-66003048D01*
X82000299Y-65996967D01*
X82004706Y-65952213D01*
X82018018Y-65817056D01*
X82022757Y-65793232D01*
X82072577Y-65628994D01*
X82081875Y-65606549D01*
X82162775Y-65455195D01*
X82176272Y-65434995D01*
X82285149Y-65302328D01*
X82302328Y-65285149D01*
X82434995Y-65176272D01*
X82455195Y-65162775D01*
X82606549Y-65081875D01*
X82628994Y-65072577D01*
X82793232Y-65022757D01*
X82817056Y-65018018D01*
X82931501Y-65006746D01*
X82996969Y-65000299D01*
X83003049Y-65000000D01*
X218996951Y-65000000D01*
X219003032Y-65000299D01*
G37*
G04 #@! TD.AperFunction*
M02*
