G04 #@! TF.GenerationSoftware,KiCad,Pcbnew,7.0.7*
G04 #@! TF.CreationDate,2024-06-14T09:16:29+02:00*
G04 #@! TF.ProjectId,vfd_display,7666645f-6469-4737-906c-61792e6b6963,rev?*
G04 #@! TF.SameCoordinates,Original*
G04 #@! TF.FileFunction,Legend,Top*
G04 #@! TF.FilePolarity,Positive*
%FSLAX46Y46*%
G04 Gerber Fmt 4.6, Leading zero omitted, Abs format (unit mm)*
G04 Created by KiCad (PCBNEW 7.0.7) date 2024-06-14 09:16:29*
%MOMM*%
%LPD*%
G01*
G04 APERTURE LIST*
%ADD10C,3.200000*%
%ADD11C,1.600000*%
%ADD12C,2.000000*%
G04 APERTURE END LIST*
G36*
X151121186Y-71999766D02*
G01*
X151376380Y-72001644D01*
X151597601Y-72004841D01*
X151791086Y-72009530D01*
X151963072Y-72015881D01*
X152119798Y-72024063D01*
X152267499Y-72034251D01*
X152347264Y-72040781D01*
X153091395Y-72116372D01*
X153803351Y-72212911D01*
X154493424Y-72332526D01*
X155171915Y-72477338D01*
X155849117Y-72649472D01*
X156535327Y-72851057D01*
X156993005Y-72999534D01*
X157337289Y-73117733D01*
X157636716Y-73226057D01*
X157891782Y-73324697D01*
X158102984Y-73413854D01*
X158270814Y-73493725D01*
X158364082Y-73545000D01*
X158475431Y-73602074D01*
X158612416Y-73658686D01*
X158754881Y-73706553D01*
X158763019Y-73708925D01*
X158910911Y-73759829D01*
X159091983Y-73835908D01*
X159302067Y-73934708D01*
X159536991Y-74053777D01*
X159792587Y-74190667D01*
X160064683Y-74342922D01*
X160349107Y-74508091D01*
X160641691Y-74683725D01*
X160938265Y-74867372D01*
X161234657Y-75056576D01*
X161526698Y-75248890D01*
X161810218Y-75441860D01*
X162081045Y-75633035D01*
X162265922Y-75768255D01*
X162442664Y-75900373D01*
X162593968Y-76015450D01*
X162729140Y-76121057D01*
X162857485Y-76224770D01*
X162988306Y-76334158D01*
X163130908Y-76456796D01*
X163294597Y-76600257D01*
X163369286Y-76666253D01*
X163498898Y-76780431D01*
X163631606Y-76896393D01*
X163758441Y-77006366D01*
X163870434Y-77102582D01*
X163958612Y-77177266D01*
X163973233Y-77189461D01*
X164090257Y-77288594D01*
X164191674Y-77379624D01*
X164285894Y-77471151D01*
X164381326Y-77571774D01*
X164486378Y-77690086D01*
X164609460Y-77834690D01*
X164640480Y-77871706D01*
X164791036Y-78050546D01*
X164916167Y-78196280D01*
X165019137Y-78312341D01*
X165103207Y-78402163D01*
X165171643Y-78469181D01*
X165227704Y-78516830D01*
X165274656Y-78548544D01*
X165292514Y-78557972D01*
X165359256Y-78582470D01*
X165451086Y-78602089D01*
X165575828Y-78618208D01*
X165692158Y-78628559D01*
X165819725Y-78636643D01*
X165992731Y-78644634D01*
X166210156Y-78652521D01*
X166470983Y-78660288D01*
X166774194Y-78667925D01*
X167118767Y-78675416D01*
X167503688Y-78682751D01*
X167927934Y-78689914D01*
X168390489Y-78696895D01*
X168890332Y-78703680D01*
X169426447Y-78710255D01*
X169997814Y-78716606D01*
X170603415Y-78722725D01*
X171242231Y-78728594D01*
X171913243Y-78734200D01*
X172615432Y-78739533D01*
X173347779Y-78744577D01*
X174109267Y-78749321D01*
X174898877Y-78753753D01*
X175715591Y-78757857D01*
X175866333Y-78758565D01*
X176402782Y-78761148D01*
X176894933Y-78763757D01*
X177344942Y-78766471D01*
X177754966Y-78769371D01*
X178127167Y-78772539D01*
X178463700Y-78776052D01*
X178766724Y-78779996D01*
X179038394Y-78784445D01*
X179280873Y-78789483D01*
X179496317Y-78795189D01*
X179686882Y-78801643D01*
X179854729Y-78808928D01*
X180002011Y-78817121D01*
X180130893Y-78826305D01*
X180243529Y-78836558D01*
X180342075Y-78847961D01*
X180428694Y-78860596D01*
X180505540Y-78874540D01*
X180574774Y-78889878D01*
X180638551Y-78906687D01*
X180699030Y-78925047D01*
X180744361Y-78940174D01*
X180890273Y-78994856D01*
X181066794Y-79068130D01*
X181265936Y-79156094D01*
X181479722Y-79254839D01*
X181700170Y-79360463D01*
X181919297Y-79469060D01*
X182129119Y-79576727D01*
X182321660Y-79679557D01*
X182488932Y-79773645D01*
X182622958Y-79855086D01*
X182648133Y-79871547D01*
X182849997Y-80025692D01*
X183025624Y-80199775D01*
X183172357Y-80388638D01*
X183287539Y-80587117D01*
X183368513Y-80790053D01*
X183412622Y-80992287D01*
X183417211Y-81188656D01*
X183394919Y-81322079D01*
X183314543Y-81543718D01*
X183192084Y-81751040D01*
X183030921Y-81939329D01*
X182837136Y-82101940D01*
X182433557Y-82363848D01*
X182000186Y-82597608D01*
X181545251Y-82799962D01*
X181076974Y-82967658D01*
X180603585Y-83097436D01*
X180133311Y-83186041D01*
X180079989Y-83193417D01*
X180026214Y-83199487D01*
X179958303Y-83205072D01*
X179873620Y-83210232D01*
X179769527Y-83215022D01*
X179643395Y-83219504D01*
X179492585Y-83223734D01*
X179314464Y-83227772D01*
X179106397Y-83231672D01*
X178865749Y-83235497D01*
X178589886Y-83239302D01*
X178276173Y-83243146D01*
X177921975Y-83247087D01*
X177524657Y-83251183D01*
X177411041Y-83252309D01*
X176730631Y-83259030D01*
X176094648Y-83265364D01*
X175501065Y-83271344D01*
X174947853Y-83276999D01*
X174432985Y-83282362D01*
X173954435Y-83287463D01*
X173510171Y-83292333D01*
X173098168Y-83297003D01*
X172716399Y-83301503D01*
X172362832Y-83305864D01*
X172035442Y-83310117D01*
X171732203Y-83314293D01*
X171451083Y-83318424D01*
X171190057Y-83322540D01*
X170947095Y-83326671D01*
X170720171Y-83330847D01*
X170507257Y-83335104D01*
X170306323Y-83339465D01*
X170115343Y-83343966D01*
X169932289Y-83348639D01*
X169755133Y-83353511D01*
X169581846Y-83358615D01*
X169410401Y-83363981D01*
X169238770Y-83369641D01*
X169064927Y-83375624D01*
X168886841Y-83381962D01*
X168886105Y-83381988D01*
X168456374Y-83397495D01*
X168473608Y-83725765D01*
X168483886Y-83897467D01*
X168496323Y-84041397D01*
X168513177Y-84169469D01*
X168536707Y-84293600D01*
X168569172Y-84425705D01*
X168612831Y-84577701D01*
X168669934Y-84761480D01*
X168708555Y-84883558D01*
X168742025Y-84990646D01*
X168771760Y-85088210D01*
X168799178Y-85181716D01*
X168825694Y-85276627D01*
X168852724Y-85378408D01*
X168881686Y-85492524D01*
X168913997Y-85624439D01*
X168951073Y-85779617D01*
X168994328Y-85963524D01*
X169045182Y-86181625D01*
X169105048Y-86439382D01*
X169106722Y-86446592D01*
X169169560Y-86717851D01*
X169222800Y-86947411D01*
X169267716Y-87138740D01*
X169305583Y-87295307D01*
X169337672Y-87420580D01*
X169365259Y-87518028D01*
X169389616Y-87591119D01*
X169412018Y-87643321D01*
X169433737Y-87678106D01*
X169456044Y-87698939D01*
X169480217Y-87709287D01*
X169507528Y-87712622D01*
X169539253Y-87712412D01*
X169571353Y-87712044D01*
X169616302Y-87712916D01*
X169701551Y-87714949D01*
X169820957Y-87717985D01*
X169968379Y-87721862D01*
X170137678Y-87726416D01*
X170322711Y-87731493D01*
X170465658Y-87735474D01*
X170810277Y-87744459D01*
X171194667Y-87753200D01*
X171619164Y-87761698D01*
X172084107Y-87769960D01*
X172589834Y-87777987D01*
X173136683Y-87785785D01*
X173724991Y-87793352D01*
X174355094Y-87800694D01*
X175027334Y-87807815D01*
X175742048Y-87814715D01*
X176499569Y-87821399D01*
X177300242Y-87827869D01*
X178144400Y-87834129D01*
X179032383Y-87840181D01*
X179964529Y-87846029D01*
X180941174Y-87851677D01*
X181962658Y-87857124D01*
X183029317Y-87862377D01*
X184141490Y-87867438D01*
X185299514Y-87872309D01*
X186249565Y-87876035D01*
X186897902Y-87878507D01*
X187501440Y-87880828D01*
X188061835Y-87883016D01*
X188580746Y-87885086D01*
X189059832Y-87887059D01*
X189500749Y-87888953D01*
X189905155Y-87890782D01*
X190274705Y-87892565D01*
X190611063Y-87894320D01*
X190915882Y-87896066D01*
X191190821Y-87897819D01*
X191437537Y-87899595D01*
X191657688Y-87901414D01*
X191852931Y-87903293D01*
X192024926Y-87905248D01*
X192175329Y-87907299D01*
X192305797Y-87909461D01*
X192417990Y-87911753D01*
X192513562Y-87914193D01*
X192594175Y-87916798D01*
X192661484Y-87919583D01*
X192717148Y-87922571D01*
X192762824Y-87925775D01*
X192800169Y-87929214D01*
X192830841Y-87932907D01*
X192856498Y-87936866D01*
X192878799Y-87941116D01*
X192899401Y-87945671D01*
X192902596Y-87946417D01*
X193133673Y-88007867D01*
X193392938Y-88089357D01*
X193669027Y-88186546D01*
X193950579Y-88295097D01*
X194226232Y-88410673D01*
X194484624Y-88528937D01*
X194665119Y-88619333D01*
X194925697Y-88763547D01*
X195156970Y-88909420D01*
X195371931Y-89066473D01*
X195583564Y-89244232D01*
X195804859Y-89452218D01*
X195815953Y-89463133D01*
X196032929Y-89676955D01*
X196048271Y-89954913D01*
X196052491Y-90094925D01*
X196051620Y-90254998D01*
X196046268Y-90424184D01*
X196037045Y-90591540D01*
X196024570Y-90746126D01*
X196009451Y-90876992D01*
X195992303Y-90973193D01*
X195990941Y-90978752D01*
X195970938Y-91040482D01*
X195940717Y-91095798D01*
X195894536Y-91150162D01*
X195826646Y-91209040D01*
X195731302Y-91277897D01*
X195602757Y-91362200D01*
X195557803Y-91390724D01*
X195028297Y-91698026D01*
X194480349Y-91962850D01*
X193913046Y-92185581D01*
X193325479Y-92366607D01*
X193129985Y-92416529D01*
X192953109Y-92458419D01*
X192797701Y-92492255D01*
X192654542Y-92519188D01*
X192514416Y-92540368D01*
X192368104Y-92556946D01*
X192206391Y-92570077D01*
X192020054Y-92580908D01*
X191799880Y-92590593D01*
X191708312Y-92594107D01*
X191575730Y-92597879D01*
X191400499Y-92601000D01*
X191186422Y-92603489D01*
X190937300Y-92605361D01*
X190656938Y-92606632D01*
X190349138Y-92607323D01*
X190017706Y-92607449D01*
X189666440Y-92607029D01*
X189299149Y-92606079D01*
X188919631Y-92604614D01*
X188531692Y-92602652D01*
X188139132Y-92600213D01*
X187745758Y-92597313D01*
X187355372Y-92593967D01*
X186971775Y-92590195D01*
X186598771Y-92586011D01*
X186240166Y-92581438D01*
X185899757Y-92576487D01*
X185581353Y-92571177D01*
X185288752Y-92565527D01*
X185262345Y-92564970D01*
X185153721Y-92563127D01*
X185000737Y-92561242D01*
X184805494Y-92559323D01*
X184570091Y-92557379D01*
X184296627Y-92555420D01*
X183987201Y-92553453D01*
X183643914Y-92551487D01*
X183268862Y-92549533D01*
X182864148Y-92547597D01*
X182431868Y-92545690D01*
X181974121Y-92543819D01*
X181493008Y-92541992D01*
X180990628Y-92540221D01*
X180469078Y-92538515D01*
X179930459Y-92536879D01*
X179376870Y-92535323D01*
X178810410Y-92533858D01*
X178233180Y-92532492D01*
X177647273Y-92531232D01*
X177054794Y-92530087D01*
X176853553Y-92529730D01*
X169501666Y-92516910D01*
X169410516Y-92611130D01*
X169359196Y-92667100D01*
X169336221Y-92704763D01*
X169336037Y-92737587D01*
X169346823Y-92765610D01*
X169354728Y-92792534D01*
X169357263Y-92831770D01*
X169353736Y-92889235D01*
X169343460Y-92970848D01*
X169325746Y-93082523D01*
X169299899Y-93230177D01*
X169279706Y-93341209D01*
X169226061Y-93629838D01*
X169177865Y-93880413D01*
X169133405Y-94100788D01*
X169090968Y-94298807D01*
X169048841Y-94482323D01*
X169005310Y-94659186D01*
X168958663Y-94837243D01*
X168931451Y-94937110D01*
X168862290Y-95188960D01*
X168804594Y-95402078D01*
X168757099Y-95582409D01*
X168718530Y-95735896D01*
X168687621Y-95868487D01*
X168663103Y-95986126D01*
X168643704Y-96094759D01*
X168628159Y-96200328D01*
X168615194Y-96308781D01*
X168603543Y-96426062D01*
X168596344Y-96506719D01*
X168590854Y-96603836D01*
X168595411Y-96663571D01*
X168610696Y-96694044D01*
X168612126Y-96695245D01*
X168653788Y-96709622D01*
X168741681Y-96723474D01*
X168875576Y-96736797D01*
X169055250Y-96749582D01*
X169280477Y-96761822D01*
X169551033Y-96773509D01*
X169866690Y-96784636D01*
X170227223Y-96795192D01*
X170632409Y-96805172D01*
X171082021Y-96814569D01*
X171575834Y-96823373D01*
X172113622Y-96831578D01*
X172695160Y-96839177D01*
X172869829Y-96841239D01*
X173497905Y-96848602D01*
X174081552Y-96855672D01*
X174622793Y-96862483D01*
X175123655Y-96869072D01*
X175586164Y-96875475D01*
X176012349Y-96881728D01*
X176404230Y-96887864D01*
X176763835Y-96893922D01*
X177093192Y-96899936D01*
X177394324Y-96905941D01*
X177669258Y-96911976D01*
X177920020Y-96918074D01*
X178148635Y-96924272D01*
X178357131Y-96930603D01*
X178547533Y-96937106D01*
X178721864Y-96943816D01*
X178746692Y-96944839D01*
X178972902Y-96954231D01*
X179213752Y-96964196D01*
X179457964Y-96974267D01*
X179694262Y-96983983D01*
X179911364Y-96992879D01*
X180097995Y-97000490D01*
X180163645Y-97003153D01*
X180381202Y-97012909D01*
X180561168Y-97023732D01*
X180712400Y-97037038D01*
X180843766Y-97054239D01*
X180964125Y-97076750D01*
X181082343Y-97105981D01*
X181207279Y-97143347D01*
X181347795Y-97190262D01*
X181357081Y-97193469D01*
X181708261Y-97330981D01*
X182069055Y-97502312D01*
X182426679Y-97700579D01*
X182768354Y-97918899D01*
X182960287Y-98056582D01*
X183154077Y-98207288D01*
X183310621Y-98341983D01*
X183433912Y-98466040D01*
X183527944Y-98584833D01*
X183596712Y-98703742D01*
X183644210Y-98828136D01*
X183674434Y-98963396D01*
X183683536Y-99029890D01*
X183693952Y-99147074D01*
X183700916Y-99280938D01*
X183704514Y-99422404D01*
X183704821Y-99562393D01*
X183701923Y-99691820D01*
X183695900Y-99801608D01*
X183686830Y-99882673D01*
X183675557Y-99924651D01*
X183641501Y-99968144D01*
X183577859Y-100033610D01*
X183491807Y-100114619D01*
X183390517Y-100204738D01*
X183281169Y-100297539D01*
X183170938Y-100386590D01*
X183095579Y-100444381D01*
X182774258Y-100666775D01*
X182438480Y-100863771D01*
X182082716Y-101037713D01*
X181701445Y-101190938D01*
X181289140Y-101325788D01*
X180840274Y-101444603D01*
X180611524Y-101496344D01*
X180233330Y-101577670D01*
X173078887Y-101605509D01*
X172503690Y-101607768D01*
X171939742Y-101610019D01*
X171388866Y-101612258D01*
X170852879Y-101614472D01*
X170333602Y-101616656D01*
X169832856Y-101618798D01*
X169352460Y-101620894D01*
X168894233Y-101622930D01*
X168459995Y-101624903D01*
X168051568Y-101626799D01*
X167670770Y-101628614D01*
X167319421Y-101630336D01*
X166999340Y-101631959D01*
X166712350Y-101633472D01*
X166460267Y-101634867D01*
X166244915Y-101636137D01*
X166068110Y-101637273D01*
X165931675Y-101638264D01*
X165837426Y-101639104D01*
X165787187Y-101639784D01*
X165780389Y-101639980D01*
X165628456Y-101661966D01*
X165500396Y-101710794D01*
X165404068Y-101783044D01*
X165377879Y-101815260D01*
X165332725Y-101875001D01*
X165261320Y-101963006D01*
X165168828Y-102073311D01*
X165060419Y-102199956D01*
X164941255Y-102336981D01*
X164816506Y-102478424D01*
X164691338Y-102618323D01*
X164570912Y-102750717D01*
X164510370Y-102816245D01*
X164093279Y-103242857D01*
X163634040Y-103671706D01*
X163136651Y-104099637D01*
X162605109Y-104523503D01*
X162043410Y-104940148D01*
X161455552Y-105346424D01*
X160845531Y-105739179D01*
X160651528Y-105858318D01*
X160256542Y-106094469D01*
X159892895Y-106304012D01*
X159555736Y-106489472D01*
X159240221Y-106653379D01*
X158941503Y-106798258D01*
X158654734Y-106926638D01*
X158409957Y-107027364D01*
X158197717Y-107110129D01*
X157964485Y-107199352D01*
X157718716Y-107291931D01*
X157468858Y-107384755D01*
X157223365Y-107474718D01*
X156990688Y-107558719D01*
X156779277Y-107633648D01*
X156597586Y-107696399D01*
X156507285Y-107726607D01*
X155962258Y-107893258D01*
X155380859Y-108047369D01*
X154771903Y-108187178D01*
X154144205Y-108310930D01*
X153506584Y-108416867D01*
X152867852Y-108503233D01*
X152324035Y-108560544D01*
X152202742Y-108569326D01*
X152042797Y-108577458D01*
X151850621Y-108584863D01*
X151632631Y-108591467D01*
X151395245Y-108597193D01*
X151144883Y-108601964D01*
X150887963Y-108605705D01*
X150630901Y-108608339D01*
X150380116Y-108609791D01*
X150142025Y-108609985D01*
X149923050Y-108608844D01*
X149729606Y-108606291D01*
X149568114Y-108602252D01*
X149444990Y-108596652D01*
X149420449Y-108594959D01*
X148452167Y-108499408D01*
X147501102Y-108360797D01*
X146567365Y-108179160D01*
X145651059Y-107954528D01*
X144752290Y-107686940D01*
X143871164Y-107376422D01*
X143007787Y-107023011D01*
X142162264Y-106626741D01*
X141334702Y-106187643D01*
X140849056Y-105904982D01*
X140404508Y-105626680D01*
X139951928Y-105322772D01*
X139496766Y-104997762D01*
X139044474Y-104656159D01*
X138600500Y-104302469D01*
X138170297Y-103941201D01*
X137759311Y-103576858D01*
X137372998Y-103213952D01*
X137016804Y-102856987D01*
X136696182Y-102510471D01*
X136574065Y-102369869D01*
X136415073Y-102183953D01*
X136268405Y-102014379D01*
X136136738Y-101864137D01*
X136022747Y-101736214D01*
X135929111Y-101633600D01*
X135858502Y-101559284D01*
X135813602Y-101516253D01*
X135801823Y-101507511D01*
X135771350Y-101502887D01*
X135697236Y-101497527D01*
X135582287Y-101491515D01*
X135429311Y-101484943D01*
X135241117Y-101477897D01*
X135020514Y-101470463D01*
X134770308Y-101462733D01*
X134493307Y-101454791D01*
X134192318Y-101446727D01*
X133870152Y-101438628D01*
X133529615Y-101430581D01*
X133173514Y-101422676D01*
X132918090Y-101417306D01*
X132762332Y-101414444D01*
X132563928Y-101411360D01*
X132326688Y-101408090D01*
X132054423Y-101404673D01*
X131750943Y-101401148D01*
X131420058Y-101397551D01*
X131065581Y-101393923D01*
X130691319Y-101390301D01*
X130301084Y-101386725D01*
X129898688Y-101383232D01*
X129487939Y-101379862D01*
X129072650Y-101376653D01*
X128656629Y-101373640D01*
X128446564Y-101372201D01*
X127771663Y-101367677D01*
X127141556Y-101363450D01*
X126554578Y-101359487D01*
X126009067Y-101355752D01*
X125503358Y-101352209D01*
X125035789Y-101348821D01*
X124604695Y-101345553D01*
X124208416Y-101342369D01*
X123845285Y-101339233D01*
X123513642Y-101336110D01*
X123211822Y-101332964D01*
X122938159Y-101329759D01*
X122690996Y-101326459D01*
X122468665Y-101323026D01*
X122269503Y-101319428D01*
X122091846Y-101315628D01*
X121934034Y-101311589D01*
X121794402Y-101307275D01*
X121671286Y-101302654D01*
X121563024Y-101297685D01*
X121467950Y-101292335D01*
X121384404Y-101286567D01*
X121310721Y-101280346D01*
X121245238Y-101273636D01*
X121186292Y-101266403D01*
X121132218Y-101258607D01*
X121081354Y-101250214D01*
X121032038Y-101241191D01*
X120982604Y-101231499D01*
X120931390Y-101221103D01*
X120876733Y-101209967D01*
X120872365Y-101209084D01*
X120325896Y-101077495D01*
X119807439Y-100909013D01*
X119316472Y-100703403D01*
X118852472Y-100460432D01*
X118414917Y-100179867D01*
X118187062Y-100010788D01*
X118012405Y-99864875D01*
X117876896Y-99728600D01*
X117775897Y-99596078D01*
X117704770Y-99461418D01*
X117666748Y-99350006D01*
X117648388Y-99241073D01*
X117641261Y-99105038D01*
X117644994Y-98959791D01*
X117650029Y-98911445D01*
X119287141Y-98911445D01*
X119287854Y-98973157D01*
X119328885Y-99037661D01*
X119409674Y-99110327D01*
X119483353Y-99164556D01*
X119653958Y-99276135D01*
X119834621Y-99376958D01*
X120030039Y-99468587D01*
X120244908Y-99552592D01*
X120483926Y-99630538D01*
X120751789Y-99703996D01*
X121053192Y-99774527D01*
X121392834Y-99843702D01*
X121673756Y-99895329D01*
X122115103Y-99973375D01*
X128286198Y-99969538D01*
X128818614Y-99969140D01*
X129338919Y-99968623D01*
X129845197Y-99967992D01*
X130335532Y-99967255D01*
X130808007Y-99966416D01*
X131260709Y-99965484D01*
X131691723Y-99964466D01*
X132099132Y-99963367D01*
X132481023Y-99962195D01*
X132835478Y-99960954D01*
X133160585Y-99959657D01*
X133454424Y-99958303D01*
X133715083Y-99956903D01*
X133940647Y-99955462D01*
X134129199Y-99953988D01*
X134278825Y-99952487D01*
X134387610Y-99950966D01*
X134453636Y-99949432D01*
X134474995Y-99947994D01*
X134481287Y-99917147D01*
X134467900Y-99855293D01*
X134434146Y-99760760D01*
X134379340Y-99631875D01*
X134302794Y-99466961D01*
X134203822Y-99264345D01*
X134152316Y-99161481D01*
X134022851Y-98906900D01*
X133911159Y-98692603D01*
X133816016Y-98516480D01*
X133736195Y-98376415D01*
X133670472Y-98270303D01*
X133617616Y-98196027D01*
X133576406Y-98151481D01*
X133558368Y-98138945D01*
X133545255Y-98135359D01*
X133519231Y-98132027D01*
X133478633Y-98128939D01*
X133421797Y-98126079D01*
X133347065Y-98123439D01*
X133252772Y-98121004D01*
X133137258Y-98118764D01*
X132998860Y-98116708D01*
X132835916Y-98114821D01*
X132646766Y-98113094D01*
X132429746Y-98111515D01*
X132183195Y-98110071D01*
X131905449Y-98108750D01*
X131594850Y-98107541D01*
X131249734Y-98106431D01*
X130868440Y-98105411D01*
X130449305Y-98104466D01*
X129990667Y-98103583D01*
X129490866Y-98102757D01*
X128948236Y-98101968D01*
X128361122Y-98101210D01*
X128247481Y-98101071D01*
X127740501Y-98100552D01*
X127236899Y-98100216D01*
X126739357Y-98100059D01*
X126250556Y-98100076D01*
X125773180Y-98100261D01*
X125309913Y-98100607D01*
X124863435Y-98101110D01*
X124436432Y-98101764D01*
X124031584Y-98102566D01*
X123651574Y-98103508D01*
X123299086Y-98104586D01*
X122976801Y-98105794D01*
X122687403Y-98107127D01*
X122433573Y-98108580D01*
X122217996Y-98110146D01*
X122043353Y-98111822D01*
X121912326Y-98113601D01*
X121906042Y-98113709D01*
X120814295Y-98132678D01*
X120457772Y-98254494D01*
X120210502Y-98344059D01*
X119996289Y-98433599D01*
X119802140Y-98529220D01*
X119615061Y-98637028D01*
X119532438Y-98689379D01*
X119408878Y-98774926D01*
X119327296Y-98847159D01*
X119287141Y-98911445D01*
X117650029Y-98911445D01*
X117659218Y-98823217D01*
X117679615Y-98726149D01*
X117766886Y-98505226D01*
X117899620Y-98287981D01*
X118076901Y-98075367D01*
X118297814Y-97868336D01*
X118561442Y-97667846D01*
X118866872Y-97474849D01*
X118896793Y-97457643D01*
X119070057Y-97364667D01*
X119267355Y-97268777D01*
X119480694Y-97173065D01*
X119702079Y-97080627D01*
X119923515Y-96994558D01*
X120137004Y-96917954D01*
X120334555Y-96853907D01*
X120508170Y-96805513D01*
X120649853Y-96775868D01*
X120663307Y-96773862D01*
X120713569Y-96769934D01*
X120808651Y-96765899D01*
X120946912Y-96761785D01*
X121126715Y-96757614D01*
X121346423Y-96753412D01*
X121604395Y-96749206D01*
X121898994Y-96745019D01*
X122228582Y-96740876D01*
X122591518Y-96736804D01*
X122986167Y-96732827D01*
X123410889Y-96728970D01*
X123787568Y-96725859D01*
X124547101Y-96719714D01*
X125262229Y-96713636D01*
X125935006Y-96707591D01*
X126567484Y-96701552D01*
X127161718Y-96695487D01*
X127719758Y-96689366D01*
X128243661Y-96683157D01*
X128735478Y-96676827D01*
X129197260Y-96670351D01*
X129631065Y-96663695D01*
X130038942Y-96656827D01*
X130422946Y-96649719D01*
X130785127Y-96642338D01*
X131127541Y-96634656D01*
X131452243Y-96626638D01*
X131761281Y-96618259D01*
X132056711Y-96609482D01*
X132340586Y-96600281D01*
X132467414Y-96595913D01*
X132901069Y-96580696D01*
X132891967Y-96507815D01*
X132885666Y-96454034D01*
X132876009Y-96367755D01*
X132864519Y-96262684D01*
X132856810Y-96191032D01*
X132836718Y-96053171D01*
X132802285Y-95884583D01*
X132752583Y-95681196D01*
X132686692Y-95438938D01*
X132682602Y-95424485D01*
X132611435Y-95169853D01*
X132547272Y-94931818D01*
X132488016Y-94701524D01*
X132431569Y-94470112D01*
X132375827Y-94228734D01*
X132318700Y-93968532D01*
X132258083Y-93680651D01*
X132191881Y-93356238D01*
X132188620Y-93340063D01*
X132150199Y-93152710D01*
X132113247Y-92978864D01*
X132079037Y-92824035D01*
X132048836Y-92693733D01*
X132023921Y-92593471D01*
X132005557Y-92528755D01*
X131996248Y-92506037D01*
X131975279Y-92484256D01*
X131948732Y-92464817D01*
X131913871Y-92447538D01*
X131867962Y-92432237D01*
X131808275Y-92418724D01*
X131732078Y-92406818D01*
X131636635Y-92396332D01*
X131519213Y-92387081D01*
X131377083Y-92378880D01*
X131207507Y-92371545D01*
X131007756Y-92364890D01*
X130775096Y-92358731D01*
X130506792Y-92352883D01*
X130200116Y-92347159D01*
X129852330Y-92341375D01*
X129478602Y-92335616D01*
X129007844Y-92328666D01*
X128546090Y-92322106D01*
X128090524Y-92315912D01*
X127638331Y-92310058D01*
X127186695Y-92304525D01*
X126732801Y-92299288D01*
X126273835Y-92294323D01*
X125806978Y-92289609D01*
X125329419Y-92285123D01*
X124838341Y-92280840D01*
X124330928Y-92276738D01*
X123804364Y-92272794D01*
X123255835Y-92268986D01*
X122682526Y-92265291D01*
X122081619Y-92261684D01*
X121450301Y-92258143D01*
X120785758Y-92254645D01*
X120085171Y-92251167D01*
X119345727Y-92247687D01*
X118564612Y-92244181D01*
X117992005Y-92241699D01*
X117194280Y-92238218D01*
X116441837Y-92234782D01*
X115733501Y-92231376D01*
X115068099Y-92227990D01*
X114444453Y-92224609D01*
X113861390Y-92221220D01*
X113317735Y-92217810D01*
X112812310Y-92214365D01*
X112343946Y-92210873D01*
X111911462Y-92207321D01*
X111513688Y-92203697D01*
X111149443Y-92199984D01*
X110817559Y-92196172D01*
X110516857Y-92192245D01*
X110246162Y-92188195D01*
X110004299Y-92184005D01*
X109790097Y-92179661D01*
X109602375Y-92175152D01*
X109439962Y-92170466D01*
X109301680Y-92165587D01*
X109186358Y-92160503D01*
X109092818Y-92155201D01*
X109019887Y-92149669D01*
X108966386Y-92143891D01*
X108944422Y-92140534D01*
X108397597Y-92027157D01*
X107885971Y-91886813D01*
X107405990Y-91718150D01*
X106954099Y-91519823D01*
X106526742Y-91290479D01*
X106252828Y-91119099D01*
X106031874Y-90964763D01*
X105851585Y-90820610D01*
X105708409Y-90682581D01*
X105598796Y-90546612D01*
X105519189Y-90408648D01*
X105466037Y-90264621D01*
X105451027Y-90202693D01*
X105437452Y-90108936D01*
X105429162Y-89991671D01*
X105426901Y-89896372D01*
X107178277Y-89896372D01*
X107218894Y-89984641D01*
X107293610Y-90054436D01*
X107363316Y-90095607D01*
X107467459Y-90148819D01*
X107596904Y-90210027D01*
X107742507Y-90275184D01*
X107895123Y-90340243D01*
X108045615Y-90401156D01*
X108184841Y-90453876D01*
X108239471Y-90473192D01*
X108431868Y-90535203D01*
X108624128Y-90587900D01*
X108825557Y-90633146D01*
X109045455Y-90672819D01*
X109293121Y-90708791D01*
X109577861Y-90742932D01*
X109580604Y-90743235D01*
X109735335Y-90760877D01*
X109875121Y-90777896D01*
X109993173Y-90793378D01*
X110082701Y-90806406D01*
X110136917Y-90816070D01*
X110149708Y-90819893D01*
X110161172Y-90823168D01*
X110185922Y-90826283D01*
X110225055Y-90829241D01*
X110279676Y-90832049D01*
X110350884Y-90834711D01*
X110439778Y-90837231D01*
X110547458Y-90839614D01*
X110675030Y-90841862D01*
X110823588Y-90843983D01*
X110994237Y-90845979D01*
X111188075Y-90847857D01*
X111406204Y-90849618D01*
X111649724Y-90851269D01*
X111919737Y-90852814D01*
X112217342Y-90854258D01*
X112543639Y-90855604D01*
X112899731Y-90856859D01*
X113286716Y-90858023D01*
X113705697Y-90859105D01*
X114157773Y-90860109D01*
X114644045Y-90861036D01*
X115165612Y-90861895D01*
X115723579Y-90862687D01*
X116319043Y-90863418D01*
X116953105Y-90864092D01*
X117626866Y-90864715D01*
X118341427Y-90865290D01*
X119097889Y-90865820D01*
X119897350Y-90866313D01*
X120740914Y-90866772D01*
X121629680Y-90867200D01*
X121758343Y-90867258D01*
X131575759Y-90871658D01*
X131706038Y-90762122D01*
X131737840Y-90735384D01*
X133350838Y-90735384D01*
X133351173Y-90980988D01*
X133352344Y-91209245D01*
X133354384Y-91414838D01*
X133357333Y-91592447D01*
X133361230Y-91736757D01*
X133365972Y-91840226D01*
X133405156Y-92276866D01*
X133469192Y-92744564D01*
X133556350Y-93236275D01*
X133664902Y-93744956D01*
X133793124Y-94263557D01*
X133939287Y-94785041D01*
X134101663Y-95302355D01*
X134278524Y-95808458D01*
X134444179Y-96237490D01*
X134569654Y-96538998D01*
X134708173Y-96856808D01*
X134855429Y-97181823D01*
X135007101Y-97504948D01*
X135158877Y-97817091D01*
X135306443Y-98109152D01*
X135445481Y-98372040D01*
X135524104Y-98513904D01*
X135689059Y-98794202D01*
X135879678Y-99099105D01*
X136089641Y-99419519D01*
X136312628Y-99746355D01*
X136542320Y-100070519D01*
X136772399Y-100382920D01*
X136996544Y-100674466D01*
X137203586Y-100930262D01*
X137293234Y-101033767D01*
X137411234Y-101164045D01*
X137552374Y-101315735D01*
X137711440Y-101483496D01*
X137883222Y-101661971D01*
X138062506Y-101845809D01*
X138244079Y-102029659D01*
X138422731Y-102208169D01*
X138593247Y-102375987D01*
X138750416Y-102527763D01*
X138863308Y-102634286D01*
X139476149Y-103176136D01*
X140112606Y-103681877D01*
X140776086Y-104153873D01*
X141470000Y-104594491D01*
X142197759Y-105006095D01*
X142533137Y-105180425D01*
X143166654Y-105489895D01*
X143779434Y-105765296D01*
X144379181Y-106009300D01*
X144973600Y-106224571D01*
X145570399Y-106413776D01*
X146177280Y-106579582D01*
X146801949Y-106724657D01*
X147260179Y-106816478D01*
X147523983Y-106864963D01*
X147791545Y-106912005D01*
X148056091Y-106956551D01*
X148310849Y-106997543D01*
X148549039Y-107033927D01*
X148763887Y-107064645D01*
X148948619Y-107088643D01*
X149096457Y-107104865D01*
X149130091Y-107107851D01*
X149222858Y-107113237D01*
X149356331Y-107117741D01*
X149524765Y-107121358D01*
X149722419Y-107124085D01*
X149943548Y-107125924D01*
X150182409Y-107126872D01*
X150433259Y-107126926D01*
X150690354Y-107126087D01*
X150947950Y-107124350D01*
X151200304Y-107121715D01*
X151441674Y-107118180D01*
X151666318Y-107113744D01*
X151859460Y-107108678D01*
X152152756Y-107098623D01*
X152413161Y-107086627D01*
X152649901Y-107071597D01*
X152872203Y-107052443D01*
X153089296Y-107028073D01*
X153310404Y-106997393D01*
X153544756Y-106959313D01*
X153801579Y-106912740D01*
X154090098Y-106856583D01*
X154233374Y-106827765D01*
X155117878Y-106626232D01*
X155985303Y-106383936D01*
X156834023Y-106101680D01*
X157662422Y-105780267D01*
X158468886Y-105420499D01*
X159251792Y-105023178D01*
X160009523Y-104589106D01*
X160740462Y-104119083D01*
X161442990Y-103613916D01*
X162115490Y-103074401D01*
X162519774Y-102720176D01*
X162637564Y-102611283D01*
X162775420Y-102480275D01*
X162928630Y-102331920D01*
X163092484Y-102170981D01*
X163262270Y-102002229D01*
X163433276Y-101830429D01*
X163600792Y-101660351D01*
X163760106Y-101496762D01*
X163906508Y-101344429D01*
X164035285Y-101208119D01*
X164141728Y-101092600D01*
X164221124Y-101002640D01*
X164243223Y-100976147D01*
X164407112Y-100770893D01*
X164582059Y-100544601D01*
X164763219Y-100304029D01*
X164815606Y-100232828D01*
X166845559Y-100232828D01*
X171843748Y-100231105D01*
X172346212Y-100230837D01*
X172849588Y-100230386D01*
X173350815Y-100229762D01*
X173846827Y-100228974D01*
X174334561Y-100228035D01*
X174810954Y-100226952D01*
X175272940Y-100225734D01*
X175717458Y-100224398D01*
X176141443Y-100222947D01*
X176541830Y-100221395D01*
X176915557Y-100219749D01*
X177259560Y-100218023D01*
X177570774Y-100216225D01*
X177846137Y-100214364D01*
X178082584Y-100212450D01*
X178277051Y-100210498D01*
X178351804Y-100209586D01*
X178660972Y-100205543D01*
X178928048Y-100201885D01*
X179157393Y-100198273D01*
X179353367Y-100194360D01*
X179520329Y-100189808D01*
X179662642Y-100184276D01*
X179784662Y-100177420D01*
X179890749Y-100168899D01*
X179985267Y-100158373D01*
X180072576Y-100145498D01*
X180157032Y-100129934D01*
X180242999Y-100111339D01*
X180334835Y-100089373D01*
X180436899Y-100063691D01*
X180535795Y-100038471D01*
X180779360Y-99970118D01*
X181030976Y-99888015D01*
X181280086Y-99796297D01*
X181516133Y-99699102D01*
X181728563Y-99600562D01*
X181906819Y-99504814D01*
X181923546Y-99494834D01*
X182007878Y-99438602D01*
X182060386Y-99387416D01*
X182079578Y-99336930D01*
X182063964Y-99282804D01*
X182012053Y-99220692D01*
X181922352Y-99146247D01*
X181793374Y-99055130D01*
X181766424Y-99036994D01*
X181552987Y-98905091D01*
X181326950Y-98788101D01*
X181080704Y-98682918D01*
X180806644Y-98586425D01*
X180497159Y-98495517D01*
X180344767Y-98455715D01*
X180014858Y-98372382D01*
X173890329Y-98367649D01*
X167765799Y-98362917D01*
X167680036Y-98560361D01*
X167640144Y-98643289D01*
X167580774Y-98755177D01*
X167507589Y-98885914D01*
X167426246Y-99025393D01*
X167342407Y-99163501D01*
X167341907Y-99164308D01*
X167222150Y-99360371D01*
X167125876Y-99525883D01*
X167049491Y-99668042D01*
X166989400Y-99794054D01*
X166942012Y-99911117D01*
X166903731Y-100026433D01*
X166892741Y-100064419D01*
X166845559Y-100232828D01*
X164815606Y-100232828D01*
X164945752Y-100055940D01*
X165124812Y-99807095D01*
X165295560Y-99564251D01*
X165453151Y-99334174D01*
X165592744Y-99123620D01*
X165709494Y-98939350D01*
X165749051Y-98873949D01*
X165889270Y-98630010D01*
X166040901Y-98351709D01*
X166199364Y-98048292D01*
X166360074Y-97729014D01*
X166518448Y-97403121D01*
X166669901Y-97079870D01*
X166809851Y-96768509D01*
X166922451Y-96505457D01*
X167120825Y-95996397D01*
X167307839Y-95452653D01*
X167481233Y-94883574D01*
X167638749Y-94298505D01*
X167778124Y-93706796D01*
X167897101Y-93117791D01*
X167993418Y-92540842D01*
X168064816Y-91985291D01*
X168095883Y-91651814D01*
X168102123Y-91543797D01*
X168107426Y-91395709D01*
X168111792Y-91213927D01*
X168115219Y-91004828D01*
X168115277Y-90999416D01*
X169652651Y-90999416D01*
X181237971Y-90991453D01*
X192823290Y-90983489D01*
X193043963Y-90913053D01*
X193144782Y-90878909D01*
X193274608Y-90832063D01*
X193419564Y-90777676D01*
X193565769Y-90720901D01*
X193629259Y-90695550D01*
X193818312Y-90618426D01*
X193968287Y-90554499D01*
X194083638Y-90500747D01*
X194168819Y-90454150D01*
X194228286Y-90411677D01*
X194266492Y-90370306D01*
X194287892Y-90327014D01*
X194296941Y-90278778D01*
X194298314Y-90241384D01*
X194289078Y-90174132D01*
X194254055Y-90120620D01*
X194222821Y-90091684D01*
X194159198Y-90047996D01*
X194058919Y-89991834D01*
X193929076Y-89926334D01*
X193776768Y-89854643D01*
X193609089Y-89779896D01*
X193433137Y-89705237D01*
X193256006Y-89633806D01*
X193084791Y-89568744D01*
X192926591Y-89513194D01*
X192885413Y-89499713D01*
X192782258Y-89468742D01*
X192687457Y-89446250D01*
X192587403Y-89430045D01*
X192468489Y-89417940D01*
X192317108Y-89407743D01*
X192312259Y-89407463D01*
X192266620Y-89406135D01*
X192176001Y-89404759D01*
X192041882Y-89403343D01*
X191865743Y-89401891D01*
X191649061Y-89400404D01*
X191393317Y-89398892D01*
X191099988Y-89397356D01*
X190770551Y-89395802D01*
X190406490Y-89394236D01*
X190009277Y-89392660D01*
X189580397Y-89391081D01*
X189121326Y-89389502D01*
X188633542Y-89387929D01*
X188118525Y-89386367D01*
X187577754Y-89384819D01*
X187012707Y-89383291D01*
X186424864Y-89381788D01*
X185815703Y-89380313D01*
X185186700Y-89378874D01*
X184539339Y-89377471D01*
X183875097Y-89376113D01*
X183195450Y-89374802D01*
X182501880Y-89373544D01*
X181795863Y-89372344D01*
X181078880Y-89371206D01*
X180808241Y-89370797D01*
X169652652Y-89354183D01*
X169652652Y-90176801D01*
X169652651Y-90999416D01*
X168115277Y-90999416D01*
X168117709Y-90774788D01*
X168119258Y-90530186D01*
X168119870Y-90277400D01*
X168119539Y-90022799D01*
X168118272Y-89772766D01*
X168116063Y-89533679D01*
X168112914Y-89311912D01*
X168108824Y-89113843D01*
X168103794Y-88945848D01*
X168097822Y-88814305D01*
X168096016Y-88785414D01*
X168055611Y-88339034D01*
X167993134Y-87860514D01*
X167910018Y-87357783D01*
X167807695Y-86838771D01*
X167687602Y-86311410D01*
X167557888Y-85808182D01*
X167470438Y-85504092D01*
X167367251Y-85173092D01*
X167251909Y-84825122D01*
X167127990Y-84470135D01*
X166999073Y-84118075D01*
X166868737Y-83778888D01*
X166740559Y-83462522D01*
X166618123Y-83178923D01*
X166587538Y-83111492D01*
X166432178Y-82790360D01*
X166249209Y-82442500D01*
X166042870Y-82074999D01*
X165817406Y-81694949D01*
X165577059Y-81309432D01*
X165326076Y-80925539D01*
X165068696Y-80550357D01*
X164976712Y-80420773D01*
X164810530Y-80195842D01*
X166638404Y-80195842D01*
X166642902Y-80239765D01*
X166673706Y-80307849D01*
X166731515Y-80406578D01*
X166733087Y-80409128D01*
X166776029Y-80479845D01*
X166836912Y-80581561D01*
X166910301Y-80705128D01*
X166990767Y-80841397D01*
X167072877Y-80981218D01*
X167084099Y-81000392D01*
X167169505Y-81145837D01*
X167257357Y-81294482D01*
X167341277Y-81435601D01*
X167414888Y-81558473D01*
X167471811Y-81652377D01*
X167473830Y-81655672D01*
X167612715Y-81882151D01*
X173609434Y-81881624D01*
X174219460Y-81881483D01*
X174806400Y-81881174D01*
X175368824Y-81880700D01*
X175905308Y-81880069D01*
X176414426Y-81879282D01*
X176894752Y-81878349D01*
X177344861Y-81877271D01*
X177763323Y-81876057D01*
X178148717Y-81874710D01*
X178499615Y-81873234D01*
X178814590Y-81871637D01*
X179092218Y-81869922D01*
X179331071Y-81868096D01*
X179529724Y-81866162D01*
X179686750Y-81864126D01*
X179800725Y-81861994D01*
X179870222Y-81859771D01*
X179884899Y-81858884D01*
X180157783Y-81826167D01*
X180430255Y-81770380D01*
X180710281Y-81689163D01*
X181005824Y-81580149D01*
X181324847Y-81440972D01*
X181381153Y-81414538D01*
X181539490Y-81337154D01*
X181658433Y-81273108D01*
X181742124Y-81219532D01*
X181794709Y-81173556D01*
X181820333Y-81132310D01*
X181824496Y-81107521D01*
X181803010Y-81049626D01*
X181739172Y-80975724D01*
X181633916Y-80886683D01*
X181488174Y-80783367D01*
X181446834Y-80756258D01*
X181325348Y-80681108D01*
X181200184Y-80611439D01*
X181063576Y-80543654D01*
X180907764Y-80474163D01*
X180724985Y-80399368D01*
X180507477Y-80315676D01*
X180445255Y-80292379D01*
X180036428Y-80139997D01*
X173407264Y-80139997D01*
X172854554Y-80140048D01*
X172313552Y-80140197D01*
X171786122Y-80140439D01*
X171274138Y-80140771D01*
X170779462Y-80141189D01*
X170303966Y-80141687D01*
X169849518Y-80142265D01*
X169417981Y-80142916D01*
X169011227Y-80143637D01*
X168631122Y-80144422D01*
X168279535Y-80145271D01*
X167958333Y-80146175D01*
X167669386Y-80147134D01*
X167414560Y-80148144D01*
X167195723Y-80149197D01*
X167014742Y-80150290D01*
X166873486Y-80151422D01*
X166773823Y-80152587D01*
X166717620Y-80153781D01*
X166705510Y-80154516D01*
X166659508Y-80169587D01*
X166638404Y-80195842D01*
X164810530Y-80195842D01*
X164615881Y-79932379D01*
X164251314Y-79470498D01*
X163878774Y-79031095D01*
X163494015Y-78610136D01*
X163092796Y-78203588D01*
X162670873Y-77807417D01*
X162224003Y-77417589D01*
X161747944Y-77030068D01*
X161238454Y-76640822D01*
X160691290Y-76245818D01*
X160303097Y-75977023D01*
X160188033Y-75903113D01*
X160036588Y-75812891D01*
X159854610Y-75709410D01*
X159647940Y-75595733D01*
X159422426Y-75474914D01*
X159183913Y-75350013D01*
X158938248Y-75224087D01*
X158691273Y-75100191D01*
X158448836Y-74981389D01*
X158216783Y-74870731D01*
X158000956Y-74771279D01*
X157980226Y-74761950D01*
X157186958Y-74428779D01*
X156381427Y-74136483D01*
X155560317Y-73884141D01*
X154720308Y-73670828D01*
X153858081Y-73495622D01*
X152970318Y-73357600D01*
X152893139Y-73347497D01*
X152688451Y-73322088D01*
X152498451Y-73300949D01*
X152315996Y-73283718D01*
X152133934Y-73270034D01*
X151945122Y-73259537D01*
X151742411Y-73251865D01*
X151518655Y-73246660D01*
X151266708Y-73243562D01*
X150979425Y-73242206D01*
X150802558Y-73242076D01*
X150430663Y-73243217D01*
X150098203Y-73246738D01*
X149798194Y-73253181D01*
X149523652Y-73263092D01*
X149267590Y-73277012D01*
X149023024Y-73295486D01*
X148782967Y-73319056D01*
X148540436Y-73348264D01*
X148288448Y-73383655D01*
X148020014Y-73425769D01*
X147728150Y-73475155D01*
X147666682Y-73485894D01*
X147077989Y-73598235D01*
X146506246Y-73726389D01*
X145942717Y-73872928D01*
X145378669Y-74040436D01*
X144805363Y-74231486D01*
X144214064Y-74448660D01*
X143659731Y-74668400D01*
X143520585Y-74728702D01*
X143348179Y-74808882D01*
X143149351Y-74905356D01*
X142930938Y-75014542D01*
X142699779Y-75132855D01*
X142462713Y-75256715D01*
X142226575Y-75382535D01*
X141998204Y-75506734D01*
X141784441Y-75625729D01*
X141592120Y-75735937D01*
X141428081Y-75833775D01*
X141385589Y-75860062D01*
X141075054Y-76059910D01*
X140761355Y-76273567D01*
X140440373Y-76504191D01*
X140107987Y-76754939D01*
X139760082Y-77028962D01*
X139392534Y-77329421D01*
X139001223Y-77659468D01*
X138719915Y-77902015D01*
X138526409Y-78073136D01*
X138345051Y-78240269D01*
X138170747Y-78408824D01*
X137998400Y-78584214D01*
X137822911Y-78771850D01*
X137639184Y-78977146D01*
X137442123Y-79205511D01*
X137226629Y-79462357D01*
X137060602Y-79663809D01*
X136820475Y-79967899D01*
X136567492Y-80309037D01*
X136305885Y-80681074D01*
X136039889Y-81077857D01*
X135773742Y-81493237D01*
X135548999Y-81858922D01*
X135206718Y-82463878D01*
X134886358Y-83104593D01*
X134589977Y-83774831D01*
X134319628Y-84468357D01*
X134077364Y-85178937D01*
X133865242Y-85900331D01*
X133685312Y-86626306D01*
X133539633Y-87350628D01*
X133430258Y-88067060D01*
X133390938Y-88409417D01*
X133384681Y-88494930D01*
X133378831Y-88621581D01*
X133373427Y-88784055D01*
X133368505Y-88977031D01*
X133364105Y-89195198D01*
X133360267Y-89433235D01*
X133357026Y-89685825D01*
X133354426Y-89947652D01*
X133352500Y-90213399D01*
X133351291Y-90477750D01*
X133350838Y-90735384D01*
X131737840Y-90735384D01*
X131836318Y-90652586D01*
X131836318Y-89820512D01*
X131836318Y-88988434D01*
X120274225Y-88996825D01*
X119331726Y-88997540D01*
X118434911Y-88998283D01*
X117583008Y-88999058D01*
X116775245Y-88999864D01*
X116010851Y-89000707D01*
X115289053Y-89001587D01*
X114609077Y-89002507D01*
X113970155Y-89003471D01*
X113371510Y-89004478D01*
X112812372Y-89005532D01*
X112291969Y-89006636D01*
X111809527Y-89007791D01*
X111364276Y-89008999D01*
X110955440Y-89010265D01*
X110582251Y-89011587D01*
X110243935Y-89012971D01*
X109939719Y-89014419D01*
X109668831Y-89015931D01*
X109430498Y-89017511D01*
X109223949Y-89019159D01*
X109048412Y-89020883D01*
X108903113Y-89022678D01*
X108787282Y-89024552D01*
X108700144Y-89026503D01*
X108640929Y-89028538D01*
X108608863Y-89030653D01*
X108603729Y-89031457D01*
X108473575Y-89068349D01*
X108321046Y-89120326D01*
X108154369Y-89183736D01*
X107981774Y-89254931D01*
X107811488Y-89330256D01*
X107651740Y-89406067D01*
X107510755Y-89478707D01*
X107396766Y-89544532D01*
X107317999Y-89599887D01*
X107313130Y-89604044D01*
X107225600Y-89701340D01*
X107180581Y-89800359D01*
X107178277Y-89896372D01*
X105426901Y-89896372D01*
X105426141Y-89864308D01*
X105428379Y-89740255D01*
X105435862Y-89632922D01*
X105448573Y-89555720D01*
X105451673Y-89545285D01*
X105493196Y-89459357D01*
X105565138Y-89351591D01*
X105661460Y-89228949D01*
X105776129Y-89098395D01*
X105903106Y-88966889D01*
X106036359Y-88841394D01*
X106135811Y-88756198D01*
X106336755Y-88605397D01*
X106573858Y-88450128D01*
X106837790Y-88295342D01*
X107119211Y-88145986D01*
X107408789Y-88007012D01*
X107697194Y-87883365D01*
X107975087Y-87779997D01*
X107980432Y-87778185D01*
X108340477Y-87656342D01*
X110628505Y-87639493D01*
X110863577Y-87637838D01*
X111142028Y-87636014D01*
X111460781Y-87634032D01*
X111816759Y-87631914D01*
X112206883Y-87629670D01*
X112628074Y-87627321D01*
X113077258Y-87624879D01*
X113551354Y-87622362D01*
X114047287Y-87619785D01*
X114561977Y-87617163D01*
X115092348Y-87614514D01*
X115635321Y-87611854D01*
X116187820Y-87609196D01*
X116746767Y-87606558D01*
X117309083Y-87603955D01*
X117871690Y-87601404D01*
X118431512Y-87598919D01*
X118863083Y-87597043D01*
X119412875Y-87594620D01*
X119964801Y-87592082D01*
X120515985Y-87589444D01*
X121063558Y-87586723D01*
X121604643Y-87583938D01*
X122136370Y-87581106D01*
X122655866Y-87578241D01*
X123160255Y-87575366D01*
X123646668Y-87572494D01*
X124112228Y-87569645D01*
X124554064Y-87566830D01*
X124969302Y-87564074D01*
X125355070Y-87561392D01*
X125708494Y-87558799D01*
X126026701Y-87556314D01*
X126306818Y-87553954D01*
X126545974Y-87551735D01*
X126726000Y-87549851D01*
X127087540Y-87545688D01*
X127456433Y-87541275D01*
X127829791Y-87536654D01*
X128204725Y-87531869D01*
X128578348Y-87526963D01*
X128947768Y-87521980D01*
X129310104Y-87516964D01*
X129662462Y-87511958D01*
X130001955Y-87507005D01*
X130325697Y-87502152D01*
X130630797Y-87497439D01*
X130914370Y-87492913D01*
X131173525Y-87488615D01*
X131405376Y-87484590D01*
X131607033Y-87480881D01*
X131775610Y-87477532D01*
X131908218Y-87474587D01*
X132001967Y-87472089D01*
X132053971Y-87470082D01*
X132064000Y-87469090D01*
X132076875Y-87439998D01*
X132098374Y-87372581D01*
X132126672Y-87273782D01*
X132159949Y-87150542D01*
X132196373Y-87009804D01*
X132234125Y-86858510D01*
X132271378Y-86703602D01*
X132306308Y-86552022D01*
X132313417Y-86520185D01*
X132355701Y-86331352D01*
X132393819Y-86166170D01*
X132429997Y-86016596D01*
X132466469Y-85874577D01*
X132505461Y-85732069D01*
X132549207Y-85581023D01*
X132599935Y-85413392D01*
X132659877Y-85221127D01*
X132731260Y-84996181D01*
X132765113Y-84890269D01*
X132841035Y-84652447D01*
X132904132Y-84453021D01*
X132956027Y-84286239D01*
X132998354Y-84146346D01*
X133032734Y-84027587D01*
X133060800Y-83924207D01*
X133084175Y-83830453D01*
X133104488Y-83740570D01*
X133123367Y-83648804D01*
X133138647Y-83569554D01*
X133160820Y-83442694D01*
X133168855Y-83353254D01*
X133159015Y-83293379D01*
X133127560Y-83255209D01*
X133070749Y-83230887D01*
X132984839Y-83212554D01*
X132967245Y-83209498D01*
X132911495Y-83200300D01*
X132856419Y-83192263D01*
X132798223Y-83185241D01*
X132733114Y-83179088D01*
X132657301Y-83173657D01*
X132566992Y-83168804D01*
X132458397Y-83164380D01*
X132327719Y-83160242D01*
X132171169Y-83156242D01*
X131984954Y-83152235D01*
X131765281Y-83148074D01*
X131508358Y-83143615D01*
X131210394Y-83138710D01*
X131069769Y-83136444D01*
X130452529Y-83126311D01*
X129846891Y-83115912D01*
X129257269Y-83105333D01*
X128688079Y-83094660D01*
X128143732Y-83083982D01*
X127628645Y-83073383D01*
X127147229Y-83062950D01*
X126703901Y-83052768D01*
X126342727Y-83043934D01*
X126179787Y-83040119D01*
X125976132Y-83035858D01*
X125737495Y-83031244D01*
X125469615Y-83026378D01*
X125178229Y-83021352D01*
X124869076Y-83016266D01*
X124547886Y-83011214D01*
X124220404Y-83006293D01*
X123892365Y-83001598D01*
X123569503Y-82997230D01*
X123543666Y-82996889D01*
X123182156Y-82992161D01*
X122863522Y-82987824D01*
X122584191Y-82983617D01*
X122340583Y-82979281D01*
X122129129Y-82974556D01*
X121946250Y-82969179D01*
X121788369Y-82962894D01*
X121651913Y-82955435D01*
X121533307Y-82946548D01*
X121428974Y-82935969D01*
X121335338Y-82923439D01*
X121248824Y-82908697D01*
X121165857Y-82891482D01*
X121082861Y-82871535D01*
X120996262Y-82848596D01*
X120902482Y-82822406D01*
X120818372Y-82798502D01*
X120309230Y-82634989D01*
X119831038Y-82441938D01*
X119376343Y-82215973D01*
X118937698Y-81953711D01*
X118893511Y-81924751D01*
X118711640Y-81798274D01*
X118566701Y-81682284D01*
X118452266Y-81570582D01*
X118361912Y-81456974D01*
X118296518Y-81349197D01*
X118257447Y-81270158D01*
X118231973Y-81199451D01*
X118215929Y-81120594D01*
X118205152Y-81017101D01*
X118202097Y-80975558D01*
X118195188Y-80766093D01*
X118196755Y-80743807D01*
X119751304Y-80743807D01*
X119806611Y-80826062D01*
X119876478Y-80906882D01*
X119978718Y-80987737D01*
X120116536Y-81070517D01*
X120293143Y-81157109D01*
X120511746Y-81249396D01*
X120555505Y-81266643D01*
X120696493Y-81320140D01*
X120837015Y-81369899D01*
X120983281Y-81417694D01*
X121141497Y-81465288D01*
X121317873Y-81514453D01*
X121518617Y-81566955D01*
X121749937Y-81624565D01*
X122018044Y-81689049D01*
X122138330Y-81717483D01*
X122159119Y-81722103D01*
X122181942Y-81726387D01*
X122208546Y-81730350D01*
X122240679Y-81734005D01*
X122280087Y-81737364D01*
X122328520Y-81740442D01*
X122387725Y-81743251D01*
X122459447Y-81745804D01*
X122545438Y-81748120D01*
X122647443Y-81750203D01*
X122767208Y-81752074D01*
X122906486Y-81753745D01*
X123067020Y-81755224D01*
X123250559Y-81756534D01*
X123458848Y-81757680D01*
X123693640Y-81758678D01*
X123956679Y-81759543D01*
X124249712Y-81760289D01*
X124574489Y-81760926D01*
X124932758Y-81761468D01*
X125326263Y-81761932D01*
X125756755Y-81762328D01*
X126225979Y-81762671D01*
X126735685Y-81762973D01*
X127287619Y-81763249D01*
X127883530Y-81763511D01*
X128147194Y-81763621D01*
X128761419Y-81763866D01*
X129330883Y-81764073D01*
X129857283Y-81764230D01*
X130342319Y-81764321D01*
X130787685Y-81764340D01*
X131195079Y-81764271D01*
X131566199Y-81764102D01*
X131902741Y-81763821D01*
X132206404Y-81763417D01*
X132478881Y-81762876D01*
X132721872Y-81762188D01*
X132937075Y-81761339D01*
X133126186Y-81760318D01*
X133290903Y-81759112D01*
X133432920Y-81757709D01*
X133553938Y-81756099D01*
X133655651Y-81754268D01*
X133739759Y-81752202D01*
X133807957Y-81749891D01*
X133861943Y-81747323D01*
X133903414Y-81744485D01*
X133934069Y-81741367D01*
X133955600Y-81737954D01*
X133969708Y-81734234D01*
X133978091Y-81730197D01*
X133982443Y-81725829D01*
X133984243Y-81721848D01*
X134001708Y-81685881D01*
X134043212Y-81611649D01*
X134108109Y-81500238D01*
X134195748Y-81352734D01*
X134305477Y-81170227D01*
X134436649Y-80953803D01*
X134588614Y-80704550D01*
X134727417Y-80477842D01*
X134819476Y-80326790D01*
X134888890Y-80209697D01*
X134937893Y-80121290D01*
X134968723Y-80056291D01*
X134983613Y-80009426D01*
X134984799Y-79975423D01*
X134974516Y-79949004D01*
X134959619Y-79929880D01*
X134954973Y-79925360D01*
X134948433Y-79921152D01*
X134938390Y-79917243D01*
X134923245Y-79913624D01*
X134901385Y-79910282D01*
X134871210Y-79907207D01*
X134831113Y-79904390D01*
X134779490Y-79901815D01*
X134714734Y-79899478D01*
X134635238Y-79897363D01*
X134539400Y-79895463D01*
X134425615Y-79893763D01*
X134292275Y-79892256D01*
X134137775Y-79890928D01*
X133960510Y-79889772D01*
X133758875Y-79888774D01*
X133531266Y-79887923D01*
X133276075Y-79887210D01*
X132991698Y-79886623D01*
X132676530Y-79886151D01*
X132328965Y-79885785D01*
X131947397Y-79885513D01*
X131530223Y-79885323D01*
X131075835Y-79885206D01*
X130582629Y-79885148D01*
X130048999Y-79885145D01*
X129473340Y-79885177D01*
X128854046Y-79885241D01*
X128354218Y-79885301D01*
X127785013Y-79885447D01*
X127228347Y-79885736D01*
X126686086Y-79886163D01*
X126160094Y-79886721D01*
X125652235Y-79887405D01*
X125164374Y-79888207D01*
X124698377Y-79889125D01*
X124256107Y-79890150D01*
X123839430Y-79891277D01*
X123450210Y-79892500D01*
X123090315Y-79893812D01*
X122761608Y-79895209D01*
X122465951Y-79896684D01*
X122205211Y-79898229D01*
X121981255Y-79899843D01*
X121795945Y-79901517D01*
X121651148Y-79903244D01*
X121548726Y-79905020D01*
X121490547Y-79906839D01*
X121484696Y-79907185D01*
X121332493Y-79921549D01*
X121191831Y-79944340D01*
X121053661Y-79978432D01*
X120908927Y-80026709D01*
X120748574Y-80092045D01*
X120563553Y-80177320D01*
X120431021Y-80242193D01*
X120246918Y-80336250D01*
X120101136Y-80416755D01*
X119988692Y-80486991D01*
X119904613Y-80550249D01*
X119843917Y-80609813D01*
X119813320Y-80650094D01*
X119751304Y-80743807D01*
X118196755Y-80743807D01*
X118208014Y-80583710D01*
X118243993Y-80420936D01*
X118306543Y-80270293D01*
X118399082Y-80124303D01*
X118525027Y-79975491D01*
X118687795Y-79816381D01*
X118762591Y-79749396D01*
X118937071Y-79602998D01*
X119111092Y-79472349D01*
X119290994Y-79354182D01*
X119483125Y-79245224D01*
X119693824Y-79142210D01*
X119929441Y-79041870D01*
X120196315Y-78940935D01*
X120500791Y-78836138D01*
X120595258Y-78805132D01*
X120801292Y-78738449D01*
X120971495Y-78684804D01*
X121114139Y-78642612D01*
X121237489Y-78610289D01*
X121349813Y-78586252D01*
X121459377Y-78568911D01*
X121574451Y-78556689D01*
X121703302Y-78547998D01*
X121854198Y-78541251D01*
X121998958Y-78536102D01*
X122068366Y-78534531D01*
X122182222Y-78532984D01*
X122338508Y-78531466D01*
X122535216Y-78529982D01*
X122770332Y-78528539D01*
X123041845Y-78527142D01*
X123347741Y-78525796D01*
X123686010Y-78524508D01*
X124054638Y-78523283D01*
X124451611Y-78522125D01*
X124874920Y-78521042D01*
X125322554Y-78520038D01*
X125792496Y-78519120D01*
X126282737Y-78518292D01*
X126791263Y-78517561D01*
X127316064Y-78516931D01*
X127855127Y-78516409D01*
X128406438Y-78516000D01*
X128967987Y-78515708D01*
X129409057Y-78515568D01*
X136261667Y-78513987D01*
X136981617Y-77791784D01*
X137241285Y-77532089D01*
X137473819Y-77301683D01*
X137684212Y-77096306D01*
X137877460Y-76911691D01*
X138058558Y-76743573D01*
X138232499Y-76587690D01*
X138404281Y-76439776D01*
X138578897Y-76295566D01*
X138761341Y-76150798D01*
X138956609Y-76001207D01*
X139169696Y-75842528D01*
X139405597Y-75670496D01*
X139669307Y-75480848D01*
X139786957Y-75396775D01*
X140489094Y-74923239D01*
X141223651Y-74481009D01*
X141987793Y-74071129D01*
X142778685Y-73694648D01*
X143593495Y-73352616D01*
X144429387Y-73046078D01*
X145283527Y-72776083D01*
X146153080Y-72543677D01*
X147035213Y-72349910D01*
X147927091Y-72195829D01*
X148723588Y-72093266D01*
X148945574Y-72070061D01*
X149148205Y-72050852D01*
X149339247Y-72035293D01*
X149526466Y-72023032D01*
X149717631Y-72013725D01*
X149920508Y-72007022D01*
X150142864Y-72002575D01*
X150392466Y-72000036D01*
X150677080Y-71999057D01*
X150825787Y-71999036D01*
X151121186Y-71999766D01*
G37*
G36*
X156087540Y-92479319D02*
G01*
X156216580Y-92569821D01*
X156327226Y-92725029D01*
X156349512Y-92773004D01*
X156395221Y-92945131D01*
X156369687Y-93047179D01*
X156288793Y-93075707D01*
X156168416Y-93027264D01*
X156024438Y-92898408D01*
X155985613Y-92851959D01*
X155880531Y-92704913D01*
X155844556Y-92607272D01*
X155864885Y-92536624D01*
X155962760Y-92464570D01*
X156087540Y-92479319D01*
G37*
G36*
X156708151Y-91443128D02*
G01*
X156925712Y-91630965D01*
X157022674Y-91735774D01*
X157176913Y-91942020D01*
X157272573Y-92135669D01*
X157300332Y-92294000D01*
X157280111Y-92363253D01*
X157204545Y-92405287D01*
X157098838Y-92419432D01*
X156997169Y-92394210D01*
X156870544Y-92310502D01*
X156702494Y-92156231D01*
X156608507Y-92060090D01*
X156405016Y-91827595D01*
X156291629Y-91646587D01*
X156265846Y-91509786D01*
X156325160Y-91409909D01*
X156373914Y-91377720D01*
X156523996Y-91358591D01*
X156708151Y-91443128D01*
G37*
G36*
X145615762Y-85166567D02*
G01*
X145723687Y-85263382D01*
X145812325Y-85377002D01*
X145844957Y-85462033D01*
X145797588Y-85496683D01*
X145694143Y-85510129D01*
X145484065Y-85535573D01*
X145202870Y-85605718D01*
X144876102Y-85713430D01*
X144642711Y-85803751D01*
X144446581Y-85883867D01*
X144330911Y-85927933D01*
X144274493Y-85941045D01*
X144256113Y-85928304D01*
X144254569Y-85897036D01*
X144300739Y-85817716D01*
X144424360Y-85706426D01*
X144603089Y-85576727D01*
X144814588Y-85442174D01*
X145036521Y-85316325D01*
X145246546Y-85212737D01*
X145422324Y-85144969D01*
X145525640Y-85125635D01*
X145615762Y-85166567D01*
G37*
G36*
X147213960Y-98458540D02*
G01*
X147513519Y-98484213D01*
X147797899Y-98513277D01*
X147993888Y-98540515D01*
X148122555Y-98571101D01*
X148204970Y-98610216D01*
X148262198Y-98663039D01*
X148267582Y-98669564D01*
X148354707Y-98840587D01*
X148347577Y-99003768D01*
X148247410Y-99133165D01*
X148245754Y-99134332D01*
X148165162Y-99182095D01*
X148076946Y-99206309D01*
X147956189Y-99207147D01*
X147777973Y-99184785D01*
X147517603Y-99139435D01*
X147135590Y-99060363D01*
X146853495Y-98979277D01*
X146661596Y-98891033D01*
X146550175Y-98790491D01*
X146509511Y-98672508D01*
X146512350Y-98607620D01*
X146541511Y-98530236D01*
X146612437Y-98478341D01*
X146738946Y-98450228D01*
X146934849Y-98444195D01*
X147213960Y-98458540D01*
G37*
G36*
X144926638Y-87336562D02*
G01*
X145075549Y-87496830D01*
X145101706Y-87538893D01*
X145165848Y-87678347D01*
X145199780Y-87843929D01*
X145210088Y-88072388D01*
X145209766Y-88141842D01*
X145184573Y-88534843D01*
X145114847Y-88845439D01*
X144994833Y-89093827D01*
X144904671Y-89211959D01*
X144728176Y-89363389D01*
X144561023Y-89405970D01*
X144404501Y-89339670D01*
X144299434Y-89224949D01*
X144235796Y-89118482D01*
X144194688Y-88995271D01*
X144169823Y-88825762D01*
X144154919Y-88580403D01*
X144153229Y-88537257D01*
X144147027Y-88285029D01*
X144154605Y-88107044D01*
X144181423Y-87968177D01*
X144232937Y-87833309D01*
X144276785Y-87742063D01*
X144434919Y-87486771D01*
X144600094Y-87333066D01*
X144766076Y-87282486D01*
X144926638Y-87336562D01*
G37*
G36*
X156739684Y-90263507D02*
G01*
X156870897Y-90365956D01*
X157043172Y-90517112D01*
X157239938Y-90700948D01*
X157444620Y-90901437D01*
X157640645Y-91102549D01*
X157811440Y-91288256D01*
X157940432Y-91442530D01*
X157979393Y-91495907D01*
X158126003Y-91734759D01*
X158208630Y-91921118D01*
X158227209Y-92046994D01*
X158181675Y-92104394D01*
X158071964Y-92085329D01*
X157983822Y-92039099D01*
X157862692Y-91943665D01*
X157696528Y-91784119D01*
X157506664Y-91583670D01*
X157314446Y-91365522D01*
X157141214Y-91152880D01*
X157031358Y-91003378D01*
X156912890Y-90833924D01*
X156773921Y-90639802D01*
X156717021Y-90561699D01*
X156604899Y-90386205D01*
X156576268Y-90276696D01*
X156630468Y-90228816D01*
X156666107Y-90225796D01*
X156739684Y-90263507D01*
G37*
G36*
X157230591Y-89006540D02*
G01*
X157409440Y-89123867D01*
X157627219Y-89303054D01*
X157871080Y-89530715D01*
X158128183Y-89793465D01*
X158385683Y-90077918D01*
X158630738Y-90370692D01*
X158850505Y-90658397D01*
X159032138Y-90927653D01*
X159103114Y-91048409D01*
X159234325Y-91297769D01*
X159310717Y-91473994D01*
X159330199Y-91575930D01*
X159290672Y-91602422D01*
X159190042Y-91552316D01*
X159026213Y-91424460D01*
X158797090Y-91217696D01*
X158500576Y-90930874D01*
X158134578Y-90562836D01*
X158032931Y-90458982D01*
X157747249Y-90164105D01*
X157486598Y-89890821D01*
X157260966Y-89649937D01*
X157080341Y-89452264D01*
X156954708Y-89308612D01*
X156894054Y-89229793D01*
X156890452Y-89222319D01*
X156897998Y-89093637D01*
X156986051Y-88996278D01*
X157103511Y-88964455D01*
X157230591Y-89006540D01*
G37*
G36*
X152560363Y-88942965D02*
G01*
X152578965Y-88952165D01*
X152627365Y-89018821D01*
X152702510Y-89158266D01*
X152792742Y-89344365D01*
X152886404Y-89550981D01*
X152971843Y-89751972D01*
X153037399Y-89921205D01*
X153071417Y-90032543D01*
X153072656Y-90059181D01*
X153017703Y-90060248D01*
X152885751Y-90028055D01*
X152702018Y-89969139D01*
X152639833Y-89946960D01*
X151876752Y-89724218D01*
X151103480Y-89607623D01*
X150835479Y-89592437D01*
X150613294Y-89580853D01*
X150440964Y-89563415D01*
X150341584Y-89542930D01*
X150326519Y-89530541D01*
X150384586Y-89473921D01*
X150521089Y-89391784D01*
X150711389Y-89296091D01*
X150930839Y-89198802D01*
X151154795Y-89111879D01*
X151266805Y-89074131D01*
X151480166Y-89019648D01*
X151730968Y-88974816D01*
X151991800Y-88942185D01*
X152235250Y-88924300D01*
X152433909Y-88923710D01*
X152560363Y-88942965D01*
G37*
G36*
X151664635Y-86364619D02*
G01*
X151893908Y-86411185D01*
X152145994Y-86472506D01*
X152393746Y-86542153D01*
X152610016Y-86613691D01*
X152722041Y-86658693D01*
X152886551Y-86747665D01*
X153077753Y-86873805D01*
X153273967Y-87019688D01*
X153453516Y-87167889D01*
X153594717Y-87300989D01*
X153675897Y-87401559D01*
X153687205Y-87434412D01*
X153674400Y-87467448D01*
X153626329Y-87477077D01*
X153528502Y-87460030D01*
X153366434Y-87413034D01*
X153125638Y-87332823D01*
X152919432Y-87261109D01*
X152634986Y-87164244D01*
X152414457Y-87099876D01*
X152219496Y-87060865D01*
X152011752Y-87040063D01*
X151752875Y-87030328D01*
X151671985Y-87028719D01*
X151426673Y-87024297D01*
X151227626Y-87020711D01*
X151096729Y-87018351D01*
X151055279Y-87017603D01*
X151074186Y-86971273D01*
X151123559Y-86850122D01*
X151188937Y-86689645D01*
X151266735Y-86517267D01*
X151337888Y-86391170D01*
X151383129Y-86341485D01*
X151485326Y-86339242D01*
X151664635Y-86364619D01*
G37*
G36*
X148547322Y-87852521D02*
G01*
X148520961Y-87991267D01*
X148472899Y-88112838D01*
X148382535Y-88314139D01*
X148258533Y-88577778D01*
X148109555Y-88886364D01*
X147944264Y-89222499D01*
X147771323Y-89568797D01*
X147599392Y-89907864D01*
X147437138Y-90222304D01*
X147293221Y-90494727D01*
X147176306Y-90707740D01*
X147119307Y-90805421D01*
X146963299Y-91080822D01*
X146874420Y-91298749D01*
X146849543Y-91485957D01*
X146885540Y-91669199D01*
X146979288Y-91875231D01*
X146991646Y-91897990D01*
X147180717Y-92222029D01*
X147363164Y-92496596D01*
X147524732Y-92701016D01*
X147593481Y-92770687D01*
X147678059Y-92861056D01*
X147709546Y-92920091D01*
X147661527Y-92980393D01*
X147538741Y-93050947D01*
X147373102Y-93116511D01*
X147207673Y-93159816D01*
X147075733Y-93172357D01*
X146967931Y-93139844D01*
X146840192Y-93046393D01*
X146802327Y-93013705D01*
X146697514Y-92902418D01*
X146555074Y-92725231D01*
X146391170Y-92505326D01*
X146221966Y-92265892D01*
X146063626Y-92030110D01*
X145932313Y-91821166D01*
X145844193Y-91662247D01*
X145820063Y-91604783D01*
X145807962Y-91500228D01*
X145840987Y-91377053D01*
X145927430Y-91219479D01*
X146075584Y-91011729D01*
X146242969Y-90800210D01*
X146440935Y-90543089D01*
X146687978Y-90199635D01*
X146978232Y-89778440D01*
X147305828Y-89288100D01*
X147664901Y-88737207D01*
X147873778Y-88411369D01*
X148034157Y-88181661D01*
X148189287Y-87997492D01*
X148328667Y-87865679D01*
X148441801Y-87793035D01*
X148518185Y-87786378D01*
X148547322Y-87852521D01*
G37*
G36*
X144314689Y-93823021D02*
G01*
X144335655Y-93960844D01*
X144336831Y-94019938D01*
X144347797Y-94184303D01*
X144375522Y-94303129D01*
X144391671Y-94330315D01*
X144486354Y-94380825D01*
X144672402Y-94445249D01*
X144932937Y-94519808D01*
X145251080Y-94600717D01*
X145609952Y-94684199D01*
X145992676Y-94766465D01*
X146382373Y-94843737D01*
X146762161Y-94912231D01*
X147115165Y-94968167D01*
X147405857Y-95005736D01*
X147711867Y-95029175D01*
X148073652Y-95040133D01*
X148475485Y-95039719D01*
X148901637Y-95029037D01*
X149336379Y-95009196D01*
X149763984Y-94981305D01*
X150168724Y-94946471D01*
X150534871Y-94905800D01*
X150846696Y-94860401D01*
X151088469Y-94811383D01*
X151244465Y-94759850D01*
X151286440Y-94732450D01*
X151316584Y-94658007D01*
X151308526Y-94518423D01*
X151278456Y-94363859D01*
X151245653Y-94193004D01*
X151232130Y-94069784D01*
X151237351Y-94028389D01*
X151301394Y-94036865D01*
X151432368Y-94104246D01*
X151613776Y-94218242D01*
X151829114Y-94366560D01*
X152061887Y-94536911D01*
X152295591Y-94717006D01*
X152513727Y-94894548D01*
X152699795Y-95057250D01*
X152837295Y-95192819D01*
X152894198Y-95262596D01*
X152982039Y-95420286D01*
X153019992Y-95579874D01*
X153008658Y-95769941D01*
X152948637Y-96019079D01*
X152912567Y-96137146D01*
X152775106Y-96541780D01*
X152646995Y-96860390D01*
X152531102Y-97087148D01*
X152430296Y-97216227D01*
X152367026Y-97245431D01*
X152332299Y-97197012D01*
X152275270Y-97067672D01*
X152206014Y-96881282D01*
X152176120Y-96792993D01*
X152107000Y-96587028D01*
X152050159Y-96424700D01*
X152014540Y-96331273D01*
X152008208Y-96318820D01*
X151955858Y-96332927D01*
X151845120Y-96393648D01*
X151782598Y-96433267D01*
X151546388Y-96577539D01*
X151241640Y-96747397D01*
X150898358Y-96927650D01*
X150546547Y-97103105D01*
X150216216Y-97258569D01*
X149937372Y-97378849D01*
X149844092Y-97414759D01*
X149122343Y-97632524D01*
X148433777Y-97746561D01*
X147776498Y-97757060D01*
X147218791Y-97680017D01*
X146929568Y-97608281D01*
X146622172Y-97516851D01*
X146352257Y-97422627D01*
X146293331Y-97399026D01*
X146012386Y-97264216D01*
X145676240Y-97074781D01*
X145312315Y-96848226D01*
X144948039Y-96602058D01*
X144610832Y-96353777D01*
X144435205Y-96212991D01*
X144270532Y-96080636D01*
X144135604Y-95981232D01*
X144053903Y-95931813D01*
X144044005Y-95929250D01*
X143990836Y-95974921D01*
X143964475Y-96038932D01*
X143922117Y-96126632D01*
X143889527Y-96146113D01*
X143845254Y-96101321D01*
X143759010Y-95983189D01*
X143644227Y-95813035D01*
X143514339Y-95612182D01*
X143382779Y-95401949D01*
X143262977Y-95203657D01*
X143204951Y-95102434D01*
X144009119Y-95102434D01*
X144012367Y-95244030D01*
X144080591Y-95407554D01*
X144191090Y-95549045D01*
X144268848Y-95605388D01*
X144361869Y-95660212D01*
X144522575Y-95761759D01*
X144727859Y-95895209D01*
X144940082Y-96035994D01*
X145559036Y-96426573D01*
X146126431Y-96731684D01*
X146654462Y-96955108D01*
X147155327Y-97100623D01*
X147641218Y-97172012D01*
X148124336Y-97173053D01*
X148477319Y-97132366D01*
X149069821Y-96997629D01*
X149698907Y-96781500D01*
X150338891Y-96492872D01*
X150369332Y-96477405D01*
X150721496Y-96292828D01*
X151052797Y-96110422D01*
X151349915Y-95938332D01*
X151599526Y-95784695D01*
X151788305Y-95657653D01*
X151902932Y-95565345D01*
X151932295Y-95522392D01*
X151895567Y-95444705D01*
X151804466Y-95334846D01*
X151775923Y-95306388D01*
X151619552Y-95156575D01*
X151213804Y-95269366D01*
X150808640Y-95361758D01*
X150324852Y-95438901D01*
X149792856Y-95497389D01*
X149243071Y-95533812D01*
X148753162Y-95544913D01*
X148037727Y-95527383D01*
X147375615Y-95471985D01*
X146728318Y-95373126D01*
X146057337Y-95225218D01*
X145488490Y-95070969D01*
X145093104Y-94961231D01*
X144786031Y-94888050D01*
X144552838Y-94849605D01*
X144379090Y-94844079D01*
X144250354Y-94869649D01*
X144178188Y-94905797D01*
X144066768Y-95007309D01*
X144009119Y-95102434D01*
X143204951Y-95102434D01*
X143168371Y-95038623D01*
X143112388Y-94928170D01*
X143102910Y-94897642D01*
X143138180Y-94838834D01*
X143234759Y-94716746D01*
X143378801Y-94547983D01*
X143556459Y-94349150D01*
X143599009Y-94302663D01*
X143846571Y-94042096D01*
X144035025Y-93866491D01*
X144171267Y-93773203D01*
X144262190Y-93759594D01*
X144314689Y-93823021D01*
G37*
G36*
X152856964Y-76520696D02*
G01*
X153019154Y-76526963D01*
X153299781Y-76545120D01*
X153512190Y-76576000D01*
X153697772Y-76628483D01*
X153897925Y-76711455D01*
X153914566Y-76719104D01*
X154147649Y-76846154D01*
X154434634Y-77032237D01*
X154751492Y-77259211D01*
X155074191Y-77508928D01*
X155378701Y-77763245D01*
X155640994Y-78004018D01*
X155716317Y-78079604D01*
X155970380Y-78324962D01*
X156196909Y-78497870D01*
X156428794Y-78617419D01*
X156698920Y-78702698D01*
X156847422Y-78736158D01*
X157562820Y-78896656D01*
X158174567Y-79062475D01*
X158688658Y-79235988D01*
X159111088Y-79419571D01*
X159447848Y-79615594D01*
X159704931Y-79826433D01*
X159766902Y-79892343D01*
X160119339Y-80364123D01*
X160405051Y-80894374D01*
X160612101Y-81455479D01*
X160728564Y-82019825D01*
X160741337Y-82147856D01*
X160807999Y-82581176D01*
X160934328Y-82927046D01*
X161122541Y-83191451D01*
X161131693Y-83200723D01*
X161263577Y-83353680D01*
X161430225Y-83577797D01*
X161614696Y-83847504D01*
X161800052Y-84137227D01*
X161969347Y-84421400D01*
X162098119Y-84659444D01*
X162340853Y-85252352D01*
X162503067Y-85896789D01*
X162580496Y-86565444D01*
X162568873Y-87231011D01*
X162539294Y-87483750D01*
X162498196Y-87751916D01*
X162456398Y-88005769D01*
X162419989Y-88209159D01*
X162403052Y-88292885D01*
X162302638Y-88669759D01*
X162155985Y-89115843D01*
X161973545Y-89606449D01*
X161765770Y-90116895D01*
X161543113Y-90622491D01*
X161316023Y-91098557D01*
X161094956Y-91520402D01*
X160893065Y-91859199D01*
X160767250Y-92056958D01*
X160668023Y-92221650D01*
X160608451Y-92331097D01*
X160597159Y-92361552D01*
X160628879Y-92426600D01*
X160711592Y-92548599D01*
X160814331Y-92684325D01*
X161122465Y-93109876D01*
X161344126Y-93505645D01*
X161488501Y-93895493D01*
X161564782Y-94303287D01*
X161582954Y-94679889D01*
X161571063Y-95060547D01*
X161532364Y-95371812D01*
X161458936Y-95652339D01*
X161342861Y-95940779D01*
X161310408Y-96009985D01*
X161118540Y-96324839D01*
X160851529Y-96645868D01*
X160538321Y-96944671D01*
X160207866Y-97192852D01*
X159966488Y-97328508D01*
X159574048Y-97494991D01*
X159217328Y-97612737D01*
X158917265Y-97675423D01*
X158789658Y-97684158D01*
X158616773Y-97705179D01*
X158468749Y-97779214D01*
X158322901Y-97922728D01*
X158167685Y-98135427D01*
X157973377Y-98402765D01*
X157704480Y-98736669D01*
X157367562Y-99129923D01*
X156969189Y-99575310D01*
X156515927Y-100065612D01*
X156014341Y-100593612D01*
X155471000Y-101152094D01*
X154906224Y-101720148D01*
X154325093Y-102240792D01*
X153694181Y-102691577D01*
X153001312Y-103079114D01*
X152234306Y-103410012D01*
X151380985Y-103690881D01*
X151164522Y-103750901D01*
X150859513Y-103809252D01*
X150480633Y-103846379D01*
X150061664Y-103862082D01*
X149636387Y-103856158D01*
X149238580Y-103828404D01*
X148902024Y-103778617D01*
X148840142Y-103764829D01*
X148290357Y-103591846D01*
X147734365Y-103341969D01*
X147191225Y-103028820D01*
X146679996Y-102666021D01*
X146219740Y-102267196D01*
X145829513Y-101845970D01*
X145528377Y-101415965D01*
X145510587Y-101384933D01*
X145372239Y-101177297D01*
X145208925Y-101024220D01*
X145031676Y-100911942D01*
X144762552Y-100748005D01*
X144498035Y-100559150D01*
X144217921Y-100329115D01*
X143902009Y-100041644D01*
X143657550Y-99806156D01*
X143217751Y-99340903D01*
X142790955Y-98823969D01*
X142387175Y-98271985D01*
X142016423Y-97701582D01*
X141688714Y-97129391D01*
X141414060Y-96572045D01*
X141202475Y-96046175D01*
X141063969Y-95568409D01*
X141042778Y-95463102D01*
X140995702Y-95257101D01*
X140933817Y-95046303D01*
X140926983Y-95026347D01*
X140868715Y-94812298D01*
X140810429Y-94513224D01*
X140755667Y-94153719D01*
X140707974Y-93758379D01*
X140670891Y-93351801D01*
X140657766Y-93157560D01*
X140652054Y-92804396D01*
X141497612Y-92804396D01*
X141518991Y-93555824D01*
X141580910Y-94231990D01*
X141688401Y-94861412D01*
X141846487Y-95472600D01*
X142060200Y-96094069D01*
X142092382Y-96177228D01*
X142313534Y-96696012D01*
X142558967Y-97174082D01*
X142849536Y-97648715D01*
X143180671Y-98122610D01*
X143464501Y-98497368D01*
X143723076Y-98807231D01*
X143984992Y-99082858D01*
X144278847Y-99354908D01*
X144528773Y-99567873D01*
X144719444Y-99727467D01*
X144877678Y-99862031D01*
X144985044Y-99955758D01*
X145022342Y-99991236D01*
X145077377Y-100035807D01*
X145201952Y-100125214D01*
X145374075Y-100243871D01*
X145470777Y-100309084D01*
X145889380Y-100566192D01*
X146373797Y-100824901D01*
X146902473Y-101076598D01*
X147453854Y-101312675D01*
X148006386Y-101524521D01*
X148538515Y-101703521D01*
X149028687Y-101841067D01*
X149455346Y-101928549D01*
X149560427Y-101942892D01*
X149752148Y-101971932D01*
X149839697Y-102000032D01*
X149828585Y-102025573D01*
X149724322Y-102046944D01*
X149532415Y-102062526D01*
X149258371Y-102070704D01*
X149121699Y-102071542D01*
X148720589Y-102062318D01*
X148331963Y-102036567D01*
X147997759Y-101997359D01*
X147912292Y-101983049D01*
X147694364Y-101947291D01*
X147519298Y-101926499D01*
X147413428Y-101923444D01*
X147395301Y-101928669D01*
X147398319Y-101995051D01*
X147480953Y-102100994D01*
X147626296Y-102233968D01*
X147817442Y-102381442D01*
X148037482Y-102530891D01*
X148269507Y-102669783D01*
X148496612Y-102785590D01*
X148623428Y-102838761D01*
X149038610Y-102961203D01*
X149523931Y-103048716D01*
X150044606Y-103098329D01*
X150565851Y-103107066D01*
X151052879Y-103071949D01*
X151164522Y-103056080D01*
X151694808Y-102938773D01*
X152263581Y-102754633D01*
X152835495Y-102517942D01*
X153375202Y-102242975D01*
X153750614Y-102011430D01*
X154005659Y-101831774D01*
X154166712Y-101702142D01*
X154233336Y-101623216D01*
X154205087Y-101595675D01*
X154081526Y-101620201D01*
X153982431Y-101652708D01*
X153805651Y-101701471D01*
X153579496Y-101746243D01*
X153425798Y-101768321D01*
X153235323Y-101786430D01*
X153125746Y-101782267D01*
X153069793Y-101751668D01*
X153047235Y-101710512D01*
X153052057Y-101631736D01*
X153123262Y-101527611D01*
X153267582Y-101392198D01*
X153491752Y-101219549D01*
X153802504Y-101003726D01*
X153985996Y-100882000D01*
X154556121Y-100496862D01*
X155048702Y-100138848D01*
X155486558Y-99790835D01*
X155793193Y-99525704D01*
X156020110Y-99310273D01*
X156282678Y-99041532D01*
X156562293Y-98740456D01*
X156840357Y-98428018D01*
X157098271Y-98125189D01*
X157317433Y-97852940D01*
X157479247Y-97632245D01*
X157499366Y-97601897D01*
X157614576Y-97435577D01*
X157723272Y-97296737D01*
X157779993Y-97236258D01*
X157873459Y-97186473D01*
X158047494Y-97122184D01*
X158275528Y-97052404D01*
X158483319Y-96997621D01*
X159110558Y-96805682D01*
X159645591Y-96560215D01*
X160087032Y-96262150D01*
X160433491Y-95912417D01*
X160674784Y-95530285D01*
X160815268Y-95120032D01*
X160857984Y-94685858D01*
X160806548Y-94245695D01*
X160664576Y-93817475D01*
X160435683Y-93419130D01*
X160191504Y-93133115D01*
X159953977Y-92911040D01*
X159737442Y-92744169D01*
X159496465Y-92600428D01*
X159291202Y-92497493D01*
X159139187Y-92413416D01*
X159041944Y-92337455D01*
X159020871Y-92294873D01*
X159082013Y-92252659D01*
X159219978Y-92206201D01*
X159376758Y-92171114D01*
X159567633Y-92128649D01*
X159720849Y-92080334D01*
X159790417Y-92045130D01*
X159866456Y-91958436D01*
X159968449Y-91813083D01*
X160077976Y-91639435D01*
X160176618Y-91467855D01*
X160245958Y-91328708D01*
X160268114Y-91257618D01*
X160237563Y-91182757D01*
X160153575Y-91036533D01*
X160027645Y-90835980D01*
X159871267Y-90598135D01*
X159695935Y-90340029D01*
X159513146Y-90078695D01*
X159334391Y-89831170D01*
X159171167Y-89614487D01*
X159090748Y-89512865D01*
X158862178Y-89249059D01*
X158576714Y-88946712D01*
X158260423Y-88631229D01*
X157939369Y-88328015D01*
X157639622Y-88062474D01*
X157420290Y-87884778D01*
X157252852Y-87752181D01*
X157122815Y-87639148D01*
X157052844Y-87565679D01*
X157047312Y-87555606D01*
X157081912Y-87502239D01*
X157192471Y-87426022D01*
X157322026Y-87359243D01*
X157594261Y-87219555D01*
X157881303Y-87047171D01*
X158155364Y-86861098D01*
X158388662Y-86680336D01*
X158553409Y-86523896D01*
X158567494Y-86507363D01*
X158778610Y-86192792D01*
X158884137Y-85891077D01*
X158883471Y-85605455D01*
X158782897Y-85350259D01*
X158657030Y-85172444D01*
X158508453Y-85031203D01*
X158307445Y-84902589D01*
X158093630Y-84794922D01*
X157869614Y-84702435D01*
X157622570Y-84629072D01*
X157334031Y-84571669D01*
X156985531Y-84527058D01*
X156558601Y-84492072D01*
X156209886Y-84471953D01*
X155853360Y-84450174D01*
X155588694Y-84424558D01*
X155398081Y-84392596D01*
X155263705Y-84351780D01*
X155222750Y-84332947D01*
X155120687Y-84260973D01*
X154960645Y-84124756D01*
X154759792Y-83939947D01*
X154535293Y-83722198D01*
X154372716Y-83557985D01*
X154058814Y-83243216D01*
X153799031Y-83003808D01*
X153578034Y-82830228D01*
X153380483Y-82712947D01*
X153191048Y-82642436D01*
X152994391Y-82609162D01*
X152835896Y-82602910D01*
X152673426Y-82607125D01*
X152523194Y-82623836D01*
X152366390Y-82659137D01*
X152184200Y-82719120D01*
X151957811Y-82809885D01*
X151668414Y-82937523D01*
X151345152Y-83085898D01*
X150959664Y-83258868D01*
X150649687Y-83383088D01*
X150395335Y-83463938D01*
X150176720Y-83506793D01*
X149973960Y-83517033D01*
X149798833Y-83504062D01*
X149616185Y-83477474D01*
X149457438Y-83439553D01*
X149300892Y-83380190D01*
X149124845Y-83289278D01*
X148907596Y-83156707D01*
X148627447Y-82972369D01*
X148559582Y-82926798D01*
X148299480Y-82755220D01*
X148107744Y-82638921D01*
X147964419Y-82568140D01*
X147849556Y-82533110D01*
X147743208Y-82524064D01*
X147736967Y-82524129D01*
X147481884Y-82577770D01*
X147187231Y-82730466D01*
X146855989Y-82980184D01*
X146491146Y-83324888D01*
X146360169Y-83463151D01*
X145941925Y-83877025D01*
X145461402Y-84287494D01*
X144948162Y-84672477D01*
X144431764Y-85009896D01*
X143941767Y-85277674D01*
X143911437Y-85292190D01*
X143730741Y-85382566D01*
X143581775Y-85465453D01*
X143509001Y-85513808D01*
X143441306Y-85601797D01*
X143339947Y-85774495D01*
X143212797Y-86015100D01*
X143067732Y-86306804D01*
X142912626Y-86632809D01*
X142755349Y-86976309D01*
X142603780Y-87320502D01*
X142465789Y-87648583D01*
X142349249Y-87943749D01*
X142278484Y-88139801D01*
X141933856Y-89309213D01*
X141687094Y-90497373D01*
X141540898Y-91688142D01*
X141497612Y-92804396D01*
X140652054Y-92804396D01*
X140649077Y-92620345D01*
X140678457Y-92006553D01*
X140742163Y-91341009D01*
X140836452Y-90648537D01*
X140957583Y-89953962D01*
X141101811Y-89282104D01*
X141265397Y-88657791D01*
X141400763Y-88229228D01*
X141478130Y-87978224D01*
X141505884Y-87801357D01*
X141483890Y-87674874D01*
X141412008Y-87575020D01*
X141396837Y-87560801D01*
X141211929Y-87366789D01*
X141006866Y-87108894D01*
X140807329Y-86822876D01*
X140638996Y-86544499D01*
X140569555Y-86408748D01*
X140417711Y-85959198D01*
X140378124Y-85619333D01*
X141007156Y-85619333D01*
X141041196Y-85960444D01*
X141096846Y-86141056D01*
X141179285Y-86311367D01*
X141291481Y-86505041D01*
X141417292Y-86698638D01*
X141540570Y-86868712D01*
X141645168Y-86991823D01*
X141714942Y-87044528D01*
X141719463Y-87045024D01*
X141795199Y-87000171D01*
X141824334Y-86949052D01*
X141859743Y-86865674D01*
X141932665Y-86704885D01*
X142033198Y-86488183D01*
X142151445Y-86237058D01*
X142179079Y-86178849D01*
X142323585Y-85869707D01*
X142421292Y-85645375D01*
X142475915Y-85493299D01*
X142491159Y-85400929D01*
X142470737Y-85355711D01*
X142425566Y-85344955D01*
X142310855Y-85313647D01*
X142137324Y-85230267D01*
X141932301Y-85110631D01*
X141723113Y-84970556D01*
X141555197Y-84841200D01*
X141292154Y-84620968D01*
X141151451Y-84928305D01*
X141044511Y-85261893D01*
X141007156Y-85619333D01*
X140378124Y-85619333D01*
X140362138Y-85482094D01*
X140401739Y-85000380D01*
X140535419Y-84537002D01*
X140672193Y-84256596D01*
X140739827Y-84131576D01*
X140774487Y-84026341D01*
X140774779Y-83912773D01*
X140739314Y-83762751D01*
X140666695Y-83548154D01*
X140632372Y-83452944D01*
X140580372Y-83295220D01*
X140547827Y-83148045D01*
X140531905Y-82981548D01*
X140529776Y-82765864D01*
X140538610Y-82471125D01*
X140538816Y-82465808D01*
X140546616Y-82381642D01*
X141250738Y-82381642D01*
X141273990Y-82862274D01*
X141378126Y-83381706D01*
X141564201Y-83829308D01*
X141834317Y-84208462D01*
X142190575Y-84522552D01*
X142383196Y-84645673D01*
X142562085Y-84741281D01*
X142713599Y-84795187D01*
X142884261Y-84818906D01*
X143103647Y-84823966D01*
X143288735Y-84820753D01*
X143437653Y-84805304D01*
X143580375Y-84768912D01*
X143746878Y-84702861D01*
X143967137Y-84598446D01*
X144090783Y-84537116D01*
X144376907Y-84384116D01*
X144679199Y-84205667D01*
X144953060Y-84028798D01*
X145086255Y-83933867D01*
X145250318Y-83808916D01*
X145403344Y-83688301D01*
X145562353Y-83557659D01*
X145744363Y-83402627D01*
X145966390Y-83208843D01*
X146245456Y-82961946D01*
X146386089Y-82836886D01*
X146724059Y-82575008D01*
X147072739Y-82375314D01*
X147414112Y-82244544D01*
X147730157Y-82189440D01*
X148002858Y-82216745D01*
X148025113Y-82223625D01*
X148181638Y-82291604D01*
X148378059Y-82398738D01*
X148531714Y-82495399D01*
X148859467Y-82703133D01*
X149136661Y-82844335D01*
X149390029Y-82930297D01*
X149646304Y-82972307D01*
X149664753Y-82973871D01*
X150005378Y-83001212D01*
X151201909Y-82372538D01*
X151617050Y-82155088D01*
X151949059Y-81983779D01*
X152211580Y-81853125D01*
X152418254Y-81757642D01*
X152582721Y-81691842D01*
X152718626Y-81650240D01*
X152839607Y-81627354D01*
X152959310Y-81617693D01*
X153083909Y-81615774D01*
X153295555Y-81627761D01*
X153453184Y-81674367D01*
X153610426Y-81771231D01*
X153850057Y-81981466D01*
X154127602Y-82290601D01*
X154440474Y-82695609D01*
X154646435Y-82986796D01*
X154883492Y-83322828D01*
X155075682Y-83574409D01*
X155232261Y-83752483D01*
X155362487Y-83867995D01*
X155426229Y-83908824D01*
X155504437Y-83933335D01*
X155646215Y-83953154D01*
X155861011Y-83968811D01*
X156158278Y-83980835D01*
X156547468Y-83989756D01*
X156971949Y-83995445D01*
X158385647Y-84010071D01*
X158747719Y-84179504D01*
X159141164Y-84413314D01*
X159441014Y-84696670D01*
X159646005Y-85019915D01*
X159754870Y-85373391D01*
X159766350Y-85747440D01*
X159679176Y-86132404D01*
X159492086Y-86518626D01*
X159203814Y-86896449D01*
X159115489Y-86988761D01*
X158845096Y-87220770D01*
X158543432Y-87418597D01*
X158447823Y-87468587D01*
X158266348Y-87560757D01*
X158126473Y-87639819D01*
X158055535Y-87690194D01*
X158052977Y-87693534D01*
X158078619Y-87747709D01*
X158172985Y-87849497D01*
X158317723Y-87979819D01*
X158370005Y-88023074D01*
X158704995Y-88318362D01*
X159057574Y-88670243D01*
X159408358Y-89056002D01*
X159737968Y-89452922D01*
X160027022Y-89838284D01*
X160256141Y-90189370D01*
X160328719Y-90319016D01*
X160434964Y-90519500D01*
X160502755Y-90639411D01*
X160544400Y-90695399D01*
X160572207Y-90704117D01*
X160597742Y-90683010D01*
X160635513Y-90616872D01*
X160705755Y-90471705D01*
X160798166Y-90269475D01*
X160894356Y-90050852D01*
X161191045Y-89324621D01*
X161420276Y-88669291D01*
X161584875Y-88071561D01*
X161687671Y-87518131D01*
X161731492Y-86995702D01*
X161719169Y-86490973D01*
X161697252Y-86275593D01*
X161659123Y-86012784D01*
X161609281Y-85763644D01*
X161542076Y-85513583D01*
X161451862Y-85248009D01*
X161332989Y-84952330D01*
X161179809Y-84611959D01*
X160986674Y-84212302D01*
X160747935Y-83738769D01*
X160615184Y-83480365D01*
X160555807Y-83348074D01*
X160470009Y-83134044D01*
X160366262Y-82860523D01*
X160253030Y-82549759D01*
X160155969Y-82273865D01*
X159986662Y-81793470D01*
X159840859Y-81404176D01*
X159711204Y-81091830D01*
X159590347Y-80842282D01*
X159470933Y-80641382D01*
X159345610Y-80474974D01*
X159207026Y-80328911D01*
X159091811Y-80225768D01*
X158734783Y-79970848D01*
X158299140Y-79748059D01*
X157773689Y-79552236D01*
X157388965Y-79439706D01*
X156893443Y-79283900D01*
X156457027Y-79091336D01*
X156049989Y-78844996D01*
X155642598Y-78527869D01*
X155376515Y-78287970D01*
X154974533Y-77927244D01*
X154615542Y-77648302D01*
X154280717Y-77442323D01*
X153951227Y-77300492D01*
X153608248Y-77213990D01*
X153232952Y-77173999D01*
X152986589Y-77168657D01*
X152764703Y-77176752D01*
X152565413Y-77205032D01*
X152375726Y-77261454D01*
X152182647Y-77353982D01*
X151973183Y-77490574D01*
X151734342Y-77679190D01*
X151453131Y-77927792D01*
X151116554Y-78244336D01*
X150917740Y-78436110D01*
X150672500Y-78669596D01*
X150438017Y-78884902D01*
X150231877Y-79066466D01*
X150071669Y-79198724D01*
X149987931Y-79258850D01*
X149777479Y-79350002D01*
X149531615Y-79383538D01*
X149235471Y-79358554D01*
X148874176Y-79274143D01*
X148552263Y-79171554D01*
X148222442Y-79066367D01*
X147961227Y-79009090D01*
X147738617Y-78999609D01*
X147524611Y-79037807D01*
X147289208Y-79123566D01*
X147192958Y-79166285D01*
X147086113Y-79219147D01*
X146981324Y-79282052D01*
X146868629Y-79364201D01*
X146738067Y-79474794D01*
X146579670Y-79623034D01*
X146383481Y-79818120D01*
X146139533Y-80069250D01*
X145837863Y-80385629D01*
X145598172Y-80639025D01*
X145335529Y-80909027D01*
X145120835Y-81109062D01*
X144934547Y-81255628D01*
X144757123Y-81365218D01*
X144707009Y-81391204D01*
X144274112Y-81570163D01*
X143851331Y-81674351D01*
X143452254Y-81704620D01*
X143090464Y-81661810D01*
X142779548Y-81546770D01*
X142533088Y-81360343D01*
X142444819Y-81250430D01*
X142376891Y-81137015D01*
X142335755Y-81021764D01*
X142314961Y-80872363D01*
X142308051Y-80656499D01*
X142307717Y-80564104D01*
X142304481Y-80349089D01*
X142295826Y-80183157D01*
X142283327Y-80091025D01*
X142276846Y-80080229D01*
X142209307Y-80123018D01*
X142100473Y-80237384D01*
X141967857Y-80402319D01*
X141828982Y-80596818D01*
X141767103Y-80691560D01*
X141488344Y-81229289D01*
X141316236Y-81792585D01*
X141250738Y-82381642D01*
X140546616Y-82381642D01*
X140591723Y-81894832D01*
X140708678Y-81398007D01*
X140899025Y-80954416D01*
X141172109Y-80543145D01*
X141537270Y-80143280D01*
X141605174Y-80078675D01*
X141981639Y-79751456D01*
X142334005Y-79501144D01*
X142690358Y-79308166D01*
X142749567Y-79281328D01*
X142971641Y-79188658D01*
X143107269Y-79149719D01*
X143166758Y-79166576D01*
X143160414Y-79241297D01*
X143110075Y-79353587D01*
X142972638Y-79681585D01*
X142879704Y-80025319D01*
X142834707Y-80358224D01*
X142841082Y-80653737D01*
X142902264Y-80885286D01*
X142910013Y-80900997D01*
X143050227Y-81055232D01*
X143275009Y-81144259D01*
X143579663Y-81166601D01*
X143723351Y-81156483D01*
X143928323Y-81126013D01*
X144120826Y-81074303D01*
X144311224Y-80993595D01*
X144509881Y-80876126D01*
X144727162Y-80714140D01*
X144973429Y-80499874D01*
X145259046Y-80225571D01*
X145594377Y-79883468D01*
X145989786Y-79465809D01*
X146009479Y-79444773D01*
X146261515Y-79185974D01*
X146476973Y-78994949D01*
X146685117Y-78851753D01*
X146915206Y-78736434D01*
X147196504Y-78629044D01*
X147215979Y-78622303D01*
X147391107Y-78571592D01*
X147574426Y-78542979D01*
X147799772Y-78533249D01*
X148093433Y-78538912D01*
X148489571Y-78552644D01*
X148793712Y-78560751D01*
X149023470Y-78561592D01*
X149196460Y-78553527D01*
X149330291Y-78534919D01*
X149442580Y-78504124D01*
X149550940Y-78459503D01*
X149672981Y-78399416D01*
X149691286Y-78390122D01*
X149871318Y-78282374D01*
X150101079Y-78121350D01*
X150350587Y-77929115D01*
X150582359Y-77734368D01*
X150932239Y-77429774D01*
X151219220Y-77190894D01*
X151458779Y-77006709D01*
X151666392Y-76866199D01*
X151857530Y-76758348D01*
X152047672Y-76672136D01*
X152107002Y-76648780D01*
X152302230Y-76579193D01*
X152466060Y-76538154D01*
X152637852Y-76520408D01*
X152856964Y-76520696D01*
G37*
%LPC*%
D10*
X77500000Y-114000000D03*
X77500000Y-67000000D03*
D11*
X219000000Y-68000000D03*
X217000000Y-68000000D03*
X215000000Y-68000000D03*
X213000000Y-68000000D03*
X203000000Y-68000000D03*
X201000000Y-68000000D03*
X199000000Y-68000000D03*
X197000000Y-68000000D03*
X195000000Y-68000000D03*
X193000000Y-68000000D03*
X191000000Y-68000000D03*
X189000000Y-68000000D03*
X187000000Y-68000000D03*
X185000000Y-68000000D03*
X183000000Y-68000000D03*
X181000000Y-68000000D03*
X179000000Y-68000000D03*
X177000000Y-68000000D03*
X175000000Y-68000000D03*
X173000000Y-68000000D03*
X171000000Y-68000000D03*
X169000000Y-68000000D03*
X111000000Y-68000000D03*
X109000000Y-68000000D03*
X107000000Y-68000000D03*
X101000000Y-68000000D03*
X99000000Y-68000000D03*
X89000000Y-68000000D03*
X87000000Y-68000000D03*
X85000000Y-68000000D03*
X83000000Y-68000000D03*
D10*
X224500000Y-114000000D03*
X224500000Y-67000000D03*
D12*
X78700000Y-79450000D03*
%LPD*%
M02*
