%TF.GenerationSoftware,KiCad,Pcbnew,7.0.7*%
%TF.CreationDate,2024-04-09T00:53:37+02:00*%
%TF.ProjectId,vfd_display,7666645f-6469-4737-906c-61792e6b6963,rev?*%
%TF.SameCoordinates,Original*%
%TF.FileFunction,Copper,L1,Top*%
%TF.FilePolarity,Positive*%
%FSLAX46Y46*%
G04 Gerber Fmt 4.6, Leading zero omitted, Abs format (unit mm)*
G04 Created by KiCad (PCBNEW 7.0.7) date 2024-04-09 00:53:37*
%MOMM*%
%LPD*%
G01*
G04 APERTURE LIST*
%TA.AperFunction,ComponentPad*%
%ADD10C,1.600000*%
%TD*%
%TA.AperFunction,ComponentPad*%
%ADD11O,1.700000X1.700000*%
%TD*%
%TA.AperFunction,ComponentPad*%
%ADD12R,1.700000X1.700000*%
%TD*%
%TA.AperFunction,ViaPad*%
%ADD13C,1.000000*%
%TD*%
%TA.AperFunction,ViaPad*%
%ADD14C,0.800000*%
%TD*%
%TA.AperFunction,ViaPad*%
%ADD15C,4.000000*%
%TD*%
G04 APERTURE END LIST*
D10*
%TO.P,U5,1,F+*%
%TO.N,V_FILAMENT*%
X219000000Y-68000000D03*
%TO.P,U5,2,F+*%
X217000000Y-68000000D03*
%TO.P,U5,3,F+*%
X215000000Y-68000000D03*
%TO.P,U5,4,F+*%
X213000000Y-68000000D03*
%TO.P,U5,5,GND*%
%TO.N,GND*%
X203000000Y-68000000D03*
%TO.P,U5,6,VDD*%
%TO.N,VDD*%
X201000000Y-68000000D03*
%TO.P,U5,7,NC*%
%TO.N,unconnected-(U5-NC-Pad7)*%
X199000000Y-68000000D03*
%TO.P,U5,8,NC*%
%TO.N,unconnected-(U5-NC-Pad8)*%
X197000000Y-68000000D03*
%TO.P,U5,9,TEST*%
%TO.N,Net-(U5-TEST)*%
X195000000Y-68000000D03*
%TO.P,U5,10,RESET*%
%TO.N,Net-(D4-K)*%
X193000000Y-68000000D03*
%TO.P,U5,11,DIO*%
%TO.N,Net-(D5-K)*%
X191000000Y-68000000D03*
%TO.P,U5,12,CS*%
%TO.N,Net-(D6-K)*%
X189000000Y-68000000D03*
%TO.P,U5,13,CLK*%
%TO.N,Net-(D7-K)*%
X187000000Y-68000000D03*
%TO.P,U5,14,VDD*%
%TO.N,VDD*%
X185000000Y-68000000D03*
%TO.P,U5,15,INT*%
%TO.N,unconnected-(U5-INT-Pad15)*%
X183000000Y-68000000D03*
%TO.P,U5,16,NC*%
%TO.N,unconnected-(U5-NC-Pad16)*%
X181000000Y-68000000D03*
%TO.P,U5,17,GND*%
%TO.N,GND*%
X179000000Y-68000000D03*
%TO.P,U5,18,NC*%
%TO.N,unconnected-(U5-NC-Pad18)*%
X177000000Y-68000000D03*
%TO.P,U5,19,GND*%
%TO.N,GND*%
X175000000Y-68000000D03*
%TO.P,U5,20,NC*%
%TO.N,unconnected-(U5-NC-Pad20)*%
X173000000Y-68000000D03*
%TO.P,U5,21,VHG*%
%TO.N,Net-(U5-VHG)*%
X171000000Y-68000000D03*
%TO.P,U5,22,NC*%
%TO.N,unconnected-(U5-NC-Pad22)*%
X169000000Y-68000000D03*
%TO.P,U5,23,NC*%
%TO.N,unconnected-(U5-NC-Pad23)*%
X111000000Y-68000000D03*
%TO.P,U5,24,VDD*%
%TO.N,VDD*%
X109000000Y-68000000D03*
%TO.P,U5,25,VHP*%
%TO.N,Net-(U5-VHP)*%
X107000000Y-68000000D03*
%TO.P,U5,26,GND*%
%TO.N,GND*%
X101000000Y-68000000D03*
%TO.P,U5,27,GND*%
X99000000Y-68000000D03*
%TO.P,U5,28,F-*%
%TO.N,Net-(D8-K)*%
X89000000Y-68000000D03*
%TO.P,U5,29,F-*%
X87000000Y-68000000D03*
%TO.P,U5,30,F-*%
X85000000Y-68000000D03*
%TO.P,U5,31,F-*%
X83000000Y-68000000D03*
%TD*%
D11*
%TO.P,J1,4,Pin_4*%
%TO.N,VFD_RESET*%
X213600000Y-95770000D03*
%TO.P,J1,3,Pin_3*%
%TO.N,VFD_SDA*%
X213600000Y-93230000D03*
%TO.P,J1,2,Pin_2*%
%TO.N,VFD_CS*%
X213600000Y-90690000D03*
D12*
%TO.P,J1,1,Pin_1*%
%TO.N,VFD_SCK*%
X213600000Y-88150000D03*
%TD*%
D11*
%TO.P,J2,4,Pin_4*%
%TO.N,GND*%
X213600000Y-107770000D03*
%TO.P,J2,3,Pin_3*%
%TO.N,FILAMENT_EN*%
X213600000Y-105230000D03*
%TO.P,J2,2,Pin_2*%
%TO.N,VDD*%
X213600000Y-102690000D03*
D12*
%TO.P,J2,1,Pin_1*%
%TO.N,GND*%
X213600000Y-100150000D03*
%TD*%
D13*
%TO.N,GND*%
X211500000Y-74800000D03*
D14*
X190950000Y-71810000D03*
X187000000Y-71810000D03*
D15*
X82500000Y-79500000D03*
D14*
X193000000Y-71810000D03*
X173890000Y-104695000D03*
X189000000Y-71810000D03*
X182882500Y-95805000D03*
X189000000Y-105500000D03*
X173890000Y-96270000D03*
%TD*%
%TA.AperFunction,Conductor*%
%TO.N,GND*%
G36*
X226742539Y-65220185D02*
G01*
X226788294Y-65272989D01*
X226799500Y-65324500D01*
X226799500Y-115675500D01*
X226779815Y-115742539D01*
X226727011Y-115788294D01*
X226675500Y-115799500D01*
X75324500Y-115799500D01*
X75257461Y-115779815D01*
X75211706Y-115727011D01*
X75200500Y-115675500D01*
X75200500Y-113567909D01*
X75641779Y-113567909D01*
X75671468Y-113837735D01*
X75671470Y-113837748D01*
X75706127Y-113970315D01*
X75740132Y-114100384D01*
X75846303Y-114350224D01*
X75918588Y-114468668D01*
X75987716Y-114581940D01*
X75987717Y-114581942D01*
X75987719Y-114581944D01*
X76161368Y-114790604D01*
X76363546Y-114971757D01*
X76589947Y-115121542D01*
X76835743Y-115236767D01*
X77095697Y-115314975D01*
X77364268Y-115354500D01*
X77364273Y-115354500D01*
X77567786Y-115354500D01*
X77619394Y-115350722D01*
X77770740Y-115339645D01*
X77881488Y-115314975D01*
X78035702Y-115280623D01*
X78035704Y-115280622D01*
X78035709Y-115280621D01*
X78289261Y-115183646D01*
X78525991Y-115050786D01*
X78740853Y-114884875D01*
X78929269Y-114689447D01*
X79087223Y-114468668D01*
X79211348Y-114227244D01*
X79298998Y-113970320D01*
X79348306Y-113703371D01*
X79353256Y-113567909D01*
X222641779Y-113567909D01*
X222671468Y-113837735D01*
X222671470Y-113837748D01*
X222706127Y-113970315D01*
X222740132Y-114100384D01*
X222846303Y-114350224D01*
X222918588Y-114468668D01*
X222987716Y-114581940D01*
X222987717Y-114581942D01*
X222987719Y-114581944D01*
X223161368Y-114790604D01*
X223363546Y-114971757D01*
X223589947Y-115121542D01*
X223835743Y-115236767D01*
X224095697Y-115314975D01*
X224364268Y-115354500D01*
X224364273Y-115354500D01*
X224567786Y-115354500D01*
X224619394Y-115350722D01*
X224770740Y-115339645D01*
X224881488Y-115314975D01*
X225035702Y-115280623D01*
X225035704Y-115280622D01*
X225035709Y-115280621D01*
X225289261Y-115183646D01*
X225525991Y-115050786D01*
X225740853Y-114884875D01*
X225929269Y-114689447D01*
X226087223Y-114468668D01*
X226211348Y-114227244D01*
X226298998Y-113970320D01*
X226348306Y-113703371D01*
X226358220Y-113432089D01*
X226328530Y-113162253D01*
X226259868Y-112899616D01*
X226153697Y-112649776D01*
X226012281Y-112418056D01*
X225838632Y-112209396D01*
X225636454Y-112028243D01*
X225410053Y-111878458D01*
X225164257Y-111763233D01*
X224904303Y-111685025D01*
X224904301Y-111685024D01*
X224904299Y-111685024D01*
X224807999Y-111670852D01*
X224635732Y-111645500D01*
X224432219Y-111645500D01*
X224432214Y-111645500D01*
X224229260Y-111660355D01*
X224229246Y-111660357D01*
X223964297Y-111719376D01*
X223964290Y-111719379D01*
X223710736Y-111816355D01*
X223474012Y-111949211D01*
X223259140Y-112115130D01*
X223259139Y-112115132D01*
X223070734Y-112310549D01*
X223070732Y-112310551D01*
X222912778Y-112531329D01*
X222788656Y-112772746D01*
X222788649Y-112772762D01*
X222701005Y-113029666D01*
X222701001Y-113029684D01*
X222651693Y-113296631D01*
X222651693Y-113296633D01*
X222641779Y-113567909D01*
X79353256Y-113567909D01*
X79358220Y-113432089D01*
X79328530Y-113162253D01*
X79259868Y-112899616D01*
X79153697Y-112649776D01*
X79012281Y-112418056D01*
X78838632Y-112209396D01*
X78636454Y-112028243D01*
X78410053Y-111878458D01*
X78164257Y-111763233D01*
X77904303Y-111685025D01*
X77904301Y-111685024D01*
X77904299Y-111685024D01*
X77807999Y-111670852D01*
X77635732Y-111645500D01*
X77432219Y-111645500D01*
X77432214Y-111645500D01*
X77229260Y-111660355D01*
X77229246Y-111660357D01*
X76964297Y-111719376D01*
X76964290Y-111719379D01*
X76710736Y-111816355D01*
X76474012Y-111949211D01*
X76259140Y-112115130D01*
X76259139Y-112115132D01*
X76070734Y-112310549D01*
X76070732Y-112310551D01*
X75912778Y-112531329D01*
X75788656Y-112772746D01*
X75788649Y-112772762D01*
X75701005Y-113029666D01*
X75701001Y-113029684D01*
X75651693Y-113296631D01*
X75651693Y-113296633D01*
X75641779Y-113567909D01*
X75200500Y-113567909D01*
X75200500Y-105230000D01*
X212244341Y-105230000D01*
X212264936Y-105465403D01*
X212264938Y-105465413D01*
X212326094Y-105693655D01*
X212326096Y-105693659D01*
X212326097Y-105693663D01*
X212425965Y-105907830D01*
X212425967Y-105907834D01*
X212534281Y-106062521D01*
X212561505Y-106101401D01*
X212728599Y-106268495D01*
X212825384Y-106336264D01*
X212922165Y-106404032D01*
X212922167Y-106404033D01*
X212922170Y-106404035D01*
X213136337Y-106503903D01*
X213364592Y-106565063D01*
X213552918Y-106581539D01*
X213599999Y-106585659D01*
X213600000Y-106585659D01*
X213600001Y-106585659D01*
X213639234Y-106582226D01*
X213835408Y-106565063D01*
X214063663Y-106503903D01*
X214277830Y-106404035D01*
X214471401Y-106268495D01*
X214638495Y-106101401D01*
X214774035Y-105907830D01*
X214873903Y-105693663D01*
X214935063Y-105465408D01*
X214955659Y-105230000D01*
X214935063Y-104994592D01*
X214873903Y-104766337D01*
X214774035Y-104552171D01*
X214638495Y-104358599D01*
X214638494Y-104358597D01*
X214471402Y-104191506D01*
X214471396Y-104191501D01*
X214285842Y-104061575D01*
X214242217Y-104006998D01*
X214235023Y-103937500D01*
X214266546Y-103875145D01*
X214285842Y-103858425D01*
X214308026Y-103842891D01*
X214471401Y-103728495D01*
X214638495Y-103561401D01*
X214774035Y-103367830D01*
X214873903Y-103153663D01*
X214935063Y-102925408D01*
X214955659Y-102690000D01*
X214935063Y-102454592D01*
X214873903Y-102226337D01*
X214774035Y-102012171D01*
X214638495Y-101818599D01*
X214638494Y-101818597D01*
X214471402Y-101651506D01*
X214471395Y-101651501D01*
X214277834Y-101515967D01*
X214277830Y-101515965D01*
X214277828Y-101515964D01*
X214063663Y-101416097D01*
X214063659Y-101416096D01*
X214063655Y-101416094D01*
X213835413Y-101354938D01*
X213835403Y-101354936D01*
X213600001Y-101334341D01*
X213599999Y-101334341D01*
X213364596Y-101354936D01*
X213364586Y-101354938D01*
X213136344Y-101416094D01*
X213136335Y-101416098D01*
X212922171Y-101515964D01*
X212922169Y-101515965D01*
X212728597Y-101651505D01*
X212561505Y-101818597D01*
X212425965Y-102012169D01*
X212425964Y-102012171D01*
X212326098Y-102226335D01*
X212326094Y-102226344D01*
X212264938Y-102454586D01*
X212264936Y-102454596D01*
X212244341Y-102689999D01*
X212244341Y-102690000D01*
X212264936Y-102925403D01*
X212264938Y-102925413D01*
X212326094Y-103153655D01*
X212326096Y-103153659D01*
X212326097Y-103153663D01*
X212425965Y-103367829D01*
X212425965Y-103367830D01*
X212425967Y-103367834D01*
X212561501Y-103561395D01*
X212561506Y-103561402D01*
X212728597Y-103728493D01*
X212728603Y-103728498D01*
X212914158Y-103858425D01*
X212957783Y-103913002D01*
X212964977Y-103982500D01*
X212933454Y-104044855D01*
X212914158Y-104061575D01*
X212728597Y-104191505D01*
X212561505Y-104358597D01*
X212425965Y-104552169D01*
X212425964Y-104552171D01*
X212326098Y-104766335D01*
X212326094Y-104766344D01*
X212264938Y-104994586D01*
X212264936Y-104994596D01*
X212244341Y-105229999D01*
X212244341Y-105230000D01*
X75200500Y-105230000D01*
X75200500Y-95770000D01*
X212244341Y-95770000D01*
X212264936Y-96005403D01*
X212264938Y-96005413D01*
X212326094Y-96233655D01*
X212326096Y-96233659D01*
X212326097Y-96233663D01*
X212425965Y-96447829D01*
X212425965Y-96447830D01*
X212425967Y-96447834D01*
X212534281Y-96602521D01*
X212561505Y-96641401D01*
X212728599Y-96808495D01*
X212825384Y-96876264D01*
X212922165Y-96944032D01*
X212922167Y-96944033D01*
X212922170Y-96944035D01*
X213136337Y-97043903D01*
X213364592Y-97105063D01*
X213552918Y-97121539D01*
X213599999Y-97125659D01*
X213600000Y-97125659D01*
X213600001Y-97125659D01*
X213639234Y-97122226D01*
X213835408Y-97105063D01*
X214063663Y-97043903D01*
X214277830Y-96944035D01*
X214471401Y-96808495D01*
X214638495Y-96641401D01*
X214774035Y-96447830D01*
X214873903Y-96233663D01*
X214935063Y-96005408D01*
X214955659Y-95770000D01*
X214935063Y-95534592D01*
X214873903Y-95306337D01*
X214774035Y-95092171D01*
X214638495Y-94898599D01*
X214638494Y-94898597D01*
X214471402Y-94731506D01*
X214471396Y-94731501D01*
X214285842Y-94601575D01*
X214242217Y-94546998D01*
X214235023Y-94477500D01*
X214266546Y-94415145D01*
X214285842Y-94398425D01*
X214308026Y-94382891D01*
X214471401Y-94268495D01*
X214638495Y-94101401D01*
X214774035Y-93907830D01*
X214873903Y-93693663D01*
X214935063Y-93465408D01*
X214955659Y-93230000D01*
X214935063Y-92994592D01*
X214873903Y-92766337D01*
X214774035Y-92552171D01*
X214638495Y-92358599D01*
X214638494Y-92358597D01*
X214471402Y-92191506D01*
X214471396Y-92191501D01*
X214285842Y-92061575D01*
X214242217Y-92006998D01*
X214235023Y-91937500D01*
X214266546Y-91875145D01*
X214285842Y-91858425D01*
X214308026Y-91842891D01*
X214471401Y-91728495D01*
X214638495Y-91561401D01*
X214774035Y-91367830D01*
X214873903Y-91153663D01*
X214935063Y-90925408D01*
X214955659Y-90690000D01*
X214935063Y-90454592D01*
X214873903Y-90226337D01*
X214774035Y-90012171D01*
X214638495Y-89818599D01*
X214516567Y-89696671D01*
X214483084Y-89635351D01*
X214488068Y-89565659D01*
X214529939Y-89509725D01*
X214560915Y-89492810D01*
X214692331Y-89443796D01*
X214807546Y-89357546D01*
X214893796Y-89242331D01*
X214944091Y-89107483D01*
X214950500Y-89047873D01*
X214950499Y-87252128D01*
X214944091Y-87192517D01*
X214893796Y-87057669D01*
X214893795Y-87057668D01*
X214893793Y-87057664D01*
X214807547Y-86942455D01*
X214807544Y-86942452D01*
X214692335Y-86856206D01*
X214692328Y-86856202D01*
X214557482Y-86805908D01*
X214557483Y-86805908D01*
X214497883Y-86799501D01*
X214497881Y-86799500D01*
X214497873Y-86799500D01*
X214497864Y-86799500D01*
X212702129Y-86799500D01*
X212702123Y-86799501D01*
X212642516Y-86805908D01*
X212507671Y-86856202D01*
X212507664Y-86856206D01*
X212392455Y-86942452D01*
X212392452Y-86942455D01*
X212306206Y-87057664D01*
X212306202Y-87057671D01*
X212255908Y-87192517D01*
X212249501Y-87252116D01*
X212249501Y-87252123D01*
X212249500Y-87252135D01*
X212249500Y-89047870D01*
X212249501Y-89047876D01*
X212255908Y-89107483D01*
X212306202Y-89242328D01*
X212306206Y-89242335D01*
X212392452Y-89357544D01*
X212392455Y-89357547D01*
X212507664Y-89443793D01*
X212507671Y-89443797D01*
X212639081Y-89492810D01*
X212695015Y-89534681D01*
X212719432Y-89600145D01*
X212704580Y-89668418D01*
X212683430Y-89696673D01*
X212561503Y-89818600D01*
X212425965Y-90012169D01*
X212425964Y-90012171D01*
X212326098Y-90226335D01*
X212326094Y-90226344D01*
X212264938Y-90454586D01*
X212264936Y-90454596D01*
X212244341Y-90689999D01*
X212244341Y-90690000D01*
X212264936Y-90925403D01*
X212264938Y-90925413D01*
X212326094Y-91153655D01*
X212326096Y-91153659D01*
X212326097Y-91153663D01*
X212425965Y-91367830D01*
X212425967Y-91367834D01*
X212561501Y-91561395D01*
X212561506Y-91561402D01*
X212728597Y-91728493D01*
X212728603Y-91728498D01*
X212914158Y-91858425D01*
X212957783Y-91913002D01*
X212964977Y-91982500D01*
X212933454Y-92044855D01*
X212914158Y-92061575D01*
X212728597Y-92191505D01*
X212561505Y-92358597D01*
X212425965Y-92552169D01*
X212425964Y-92552171D01*
X212326098Y-92766335D01*
X212326094Y-92766344D01*
X212264938Y-92994586D01*
X212264936Y-92994596D01*
X212244341Y-93229999D01*
X212244341Y-93230000D01*
X212264936Y-93465403D01*
X212264938Y-93465413D01*
X212326094Y-93693655D01*
X212326096Y-93693659D01*
X212326097Y-93693663D01*
X212425965Y-93907830D01*
X212425967Y-93907834D01*
X212561501Y-94101395D01*
X212561506Y-94101402D01*
X212728597Y-94268493D01*
X212728603Y-94268498D01*
X212914158Y-94398425D01*
X212957783Y-94453002D01*
X212964977Y-94522500D01*
X212933454Y-94584855D01*
X212914158Y-94601575D01*
X212728597Y-94731505D01*
X212561505Y-94898597D01*
X212425965Y-95092169D01*
X212425964Y-95092171D01*
X212326098Y-95306335D01*
X212326094Y-95306344D01*
X212264938Y-95534586D01*
X212264936Y-95534596D01*
X212244341Y-95769999D01*
X212244341Y-95770000D01*
X75200500Y-95770000D01*
X75200500Y-79506506D01*
X77441696Y-79506506D01*
X77441697Y-79506510D01*
X77472009Y-79730281D01*
X77472010Y-79730284D01*
X77541789Y-79945044D01*
X77648794Y-80143891D01*
X77648796Y-80143894D01*
X77789586Y-80320439D01*
X77959639Y-80469011D01*
X77959640Y-80469012D01*
X77959643Y-80469014D01*
X78153493Y-80584834D01*
X78364908Y-80664179D01*
X78364908Y-80664180D01*
X78587090Y-80704500D01*
X78587093Y-80704500D01*
X78756337Y-80704500D01*
X78756343Y-80704500D01*
X78914443Y-80690270D01*
X78924906Y-80689329D01*
X79142570Y-80629258D01*
X79142575Y-80629255D01*
X79142582Y-80629254D01*
X79346033Y-80531277D01*
X79528721Y-80398547D01*
X79684772Y-80235330D01*
X79809173Y-80046871D01*
X79897923Y-79839229D01*
X79948172Y-79619076D01*
X79958303Y-79393490D01*
X79927991Y-79169719D01*
X79858211Y-78954957D01*
X79751204Y-78756106D01*
X79610411Y-78579558D01*
X79521007Y-78501448D01*
X79440360Y-78430988D01*
X79336146Y-78368723D01*
X79246507Y-78315166D01*
X79128154Y-78270747D01*
X79035091Y-78235819D01*
X78812910Y-78195500D01*
X78812907Y-78195500D01*
X78643657Y-78195500D01*
X78612271Y-78198324D01*
X78475093Y-78210670D01*
X78257429Y-78270741D01*
X78257414Y-78270747D01*
X78053973Y-78368719D01*
X78053965Y-78368723D01*
X77871284Y-78501448D01*
X77871282Y-78501449D01*
X77715226Y-78664671D01*
X77590828Y-78853125D01*
X77502077Y-79060772D01*
X77502075Y-79060778D01*
X77451828Y-79280922D01*
X77451828Y-79280926D01*
X77441696Y-79506506D01*
X75200500Y-79506506D01*
X75200500Y-67567909D01*
X75641779Y-67567909D01*
X75671468Y-67837735D01*
X75671470Y-67837748D01*
X75713888Y-68000001D01*
X75740132Y-68100384D01*
X75846303Y-68350224D01*
X75905052Y-68446488D01*
X75987716Y-68581940D01*
X75987717Y-68581942D01*
X76161369Y-68790605D01*
X76262456Y-68881180D01*
X76363546Y-68971757D01*
X76589947Y-69121542D01*
X76835743Y-69236767D01*
X77095697Y-69314975D01*
X77364268Y-69354500D01*
X77364273Y-69354500D01*
X77567786Y-69354500D01*
X77619394Y-69350722D01*
X77770740Y-69339645D01*
X77881488Y-69314975D01*
X78035702Y-69280623D01*
X78035704Y-69280622D01*
X78035709Y-69280621D01*
X78289261Y-69183646D01*
X78525991Y-69050786D01*
X78740853Y-68884875D01*
X78929269Y-68689447D01*
X79087223Y-68468668D01*
X79211348Y-68227244D01*
X79254629Y-68100378D01*
X79288873Y-68000001D01*
X81694532Y-68000001D01*
X81714364Y-68226686D01*
X81714366Y-68226697D01*
X81773258Y-68446488D01*
X81773261Y-68446497D01*
X81869431Y-68652732D01*
X81869432Y-68652734D01*
X81999954Y-68839141D01*
X82160858Y-69000045D01*
X82160861Y-69000047D01*
X82347266Y-69130568D01*
X82553504Y-69226739D01*
X82773308Y-69285635D01*
X82935230Y-69299801D01*
X82999998Y-69305468D01*
X83000000Y-69305468D01*
X83000002Y-69305468D01*
X83056672Y-69300509D01*
X83226692Y-69285635D01*
X83446496Y-69226739D01*
X83652734Y-69130568D01*
X83839139Y-69000047D01*
X83912320Y-68926865D01*
X83973641Y-68893382D01*
X84043333Y-68898366D01*
X84087679Y-68926865D01*
X84160861Y-69000047D01*
X84347266Y-69130568D01*
X84553504Y-69226739D01*
X84773308Y-69285635D01*
X84935230Y-69299801D01*
X84999998Y-69305468D01*
X85000000Y-69305468D01*
X85000002Y-69305468D01*
X85056672Y-69300509D01*
X85226692Y-69285635D01*
X85446496Y-69226739D01*
X85652734Y-69130568D01*
X85839139Y-69000047D01*
X85912320Y-68926865D01*
X85973641Y-68893382D01*
X86043333Y-68898366D01*
X86087679Y-68926865D01*
X86160861Y-69000047D01*
X86347266Y-69130568D01*
X86553504Y-69226739D01*
X86773308Y-69285635D01*
X86935230Y-69299801D01*
X86999998Y-69305468D01*
X87000000Y-69305468D01*
X87000002Y-69305468D01*
X87056672Y-69300509D01*
X87226692Y-69285635D01*
X87446496Y-69226739D01*
X87652734Y-69130568D01*
X87839139Y-69000047D01*
X87912320Y-68926865D01*
X87973641Y-68893382D01*
X88043333Y-68898366D01*
X88087679Y-68926865D01*
X88160861Y-69000047D01*
X88347266Y-69130568D01*
X88553504Y-69226739D01*
X88773308Y-69285635D01*
X88935230Y-69299801D01*
X88999998Y-69305468D01*
X89000000Y-69305468D01*
X89000002Y-69305468D01*
X89056672Y-69300509D01*
X89226692Y-69285635D01*
X89446496Y-69226739D01*
X89652734Y-69130568D01*
X89839139Y-69000047D01*
X90000047Y-68839139D01*
X90130568Y-68652734D01*
X90226739Y-68446496D01*
X90285635Y-68226692D01*
X90305468Y-68000001D01*
X105694532Y-68000001D01*
X105714364Y-68226686D01*
X105714366Y-68226697D01*
X105773258Y-68446488D01*
X105773261Y-68446497D01*
X105869431Y-68652732D01*
X105869432Y-68652734D01*
X105999954Y-68839141D01*
X106160858Y-69000045D01*
X106160861Y-69000047D01*
X106347266Y-69130568D01*
X106553504Y-69226739D01*
X106773308Y-69285635D01*
X106935230Y-69299801D01*
X106999998Y-69305468D01*
X107000000Y-69305468D01*
X107000002Y-69305468D01*
X107056672Y-69300509D01*
X107226692Y-69285635D01*
X107446496Y-69226739D01*
X107652734Y-69130568D01*
X107839139Y-69000047D01*
X107912320Y-68926865D01*
X107973641Y-68893382D01*
X108043333Y-68898366D01*
X108087679Y-68926865D01*
X108160861Y-69000047D01*
X108347266Y-69130568D01*
X108553504Y-69226739D01*
X108773308Y-69285635D01*
X108935230Y-69299801D01*
X108999998Y-69305468D01*
X109000000Y-69305468D01*
X109000002Y-69305468D01*
X109056672Y-69300509D01*
X109226692Y-69285635D01*
X109446496Y-69226739D01*
X109652734Y-69130568D01*
X109839139Y-69000047D01*
X109912319Y-68926866D01*
X109973639Y-68893382D01*
X110043331Y-68898366D01*
X110087680Y-68926867D01*
X110160858Y-69000045D01*
X110160861Y-69000047D01*
X110347266Y-69130568D01*
X110553504Y-69226739D01*
X110773308Y-69285635D01*
X110935230Y-69299801D01*
X110999998Y-69305468D01*
X111000000Y-69305468D01*
X111000002Y-69305468D01*
X111056672Y-69300509D01*
X111226692Y-69285635D01*
X111446496Y-69226739D01*
X111652734Y-69130568D01*
X111839139Y-69000047D01*
X112000047Y-68839139D01*
X112130568Y-68652734D01*
X112226739Y-68446496D01*
X112285635Y-68226692D01*
X112305468Y-68000001D01*
X167694532Y-68000001D01*
X167714364Y-68226686D01*
X167714366Y-68226697D01*
X167773258Y-68446488D01*
X167773261Y-68446497D01*
X167869431Y-68652732D01*
X167869432Y-68652734D01*
X167999954Y-68839141D01*
X168160858Y-69000045D01*
X168160861Y-69000047D01*
X168347266Y-69130568D01*
X168553504Y-69226739D01*
X168773308Y-69285635D01*
X168935230Y-69299801D01*
X168999998Y-69305468D01*
X169000000Y-69305468D01*
X169000002Y-69305468D01*
X169056672Y-69300509D01*
X169226692Y-69285635D01*
X169446496Y-69226739D01*
X169652734Y-69130568D01*
X169839139Y-69000047D01*
X169912320Y-68926865D01*
X169973641Y-68893382D01*
X170043333Y-68898366D01*
X170087679Y-68926865D01*
X170160861Y-69000047D01*
X170347266Y-69130568D01*
X170553504Y-69226739D01*
X170773308Y-69285635D01*
X170935230Y-69299801D01*
X170999998Y-69305468D01*
X171000000Y-69305468D01*
X171000002Y-69305468D01*
X171056672Y-69300509D01*
X171226692Y-69285635D01*
X171446496Y-69226739D01*
X171652734Y-69130568D01*
X171839139Y-69000047D01*
X171912320Y-68926865D01*
X171973641Y-68893382D01*
X172043333Y-68898366D01*
X172087679Y-68926865D01*
X172160861Y-69000047D01*
X172347266Y-69130568D01*
X172553504Y-69226739D01*
X172773308Y-69285635D01*
X172935230Y-69299801D01*
X172999998Y-69305468D01*
X173000000Y-69305468D01*
X173000002Y-69305468D01*
X173056672Y-69300509D01*
X173226692Y-69285635D01*
X173446496Y-69226739D01*
X173652734Y-69130568D01*
X173839139Y-69000047D01*
X174000047Y-68839139D01*
X174130568Y-68652734D01*
X174226739Y-68446496D01*
X174285635Y-68226692D01*
X174305468Y-68000001D01*
X175694532Y-68000001D01*
X175714364Y-68226686D01*
X175714366Y-68226697D01*
X175773258Y-68446488D01*
X175773261Y-68446497D01*
X175869431Y-68652732D01*
X175869432Y-68652734D01*
X175999954Y-68839141D01*
X176160858Y-69000045D01*
X176160861Y-69000047D01*
X176347266Y-69130568D01*
X176553504Y-69226739D01*
X176773308Y-69285635D01*
X176935230Y-69299801D01*
X176999998Y-69305468D01*
X177000000Y-69305468D01*
X177000002Y-69305468D01*
X177056672Y-69300509D01*
X177226692Y-69285635D01*
X177446496Y-69226739D01*
X177652734Y-69130568D01*
X177839139Y-69000047D01*
X178000047Y-68839139D01*
X178130568Y-68652734D01*
X178226739Y-68446496D01*
X178285635Y-68226692D01*
X178305468Y-68000001D01*
X179694532Y-68000001D01*
X179714364Y-68226686D01*
X179714366Y-68226697D01*
X179773258Y-68446488D01*
X179773261Y-68446497D01*
X179869431Y-68652732D01*
X179869432Y-68652734D01*
X179999954Y-68839141D01*
X180160858Y-69000045D01*
X180160861Y-69000047D01*
X180347266Y-69130568D01*
X180553504Y-69226739D01*
X180773308Y-69285635D01*
X180935230Y-69299801D01*
X180999998Y-69305468D01*
X181000000Y-69305468D01*
X181000002Y-69305468D01*
X181056672Y-69300509D01*
X181226692Y-69285635D01*
X181446496Y-69226739D01*
X181652734Y-69130568D01*
X181839139Y-69000047D01*
X181912319Y-68926866D01*
X181973639Y-68893382D01*
X182043331Y-68898366D01*
X182087680Y-68926867D01*
X182160858Y-69000045D01*
X182160861Y-69000047D01*
X182347266Y-69130568D01*
X182553504Y-69226739D01*
X182773308Y-69285635D01*
X182935230Y-69299801D01*
X182999998Y-69305468D01*
X183000000Y-69305468D01*
X183000002Y-69305468D01*
X183056672Y-69300509D01*
X183226692Y-69285635D01*
X183446496Y-69226739D01*
X183652734Y-69130568D01*
X183839139Y-69000047D01*
X183912320Y-68926865D01*
X183973641Y-68893382D01*
X184043333Y-68898366D01*
X184087679Y-68926865D01*
X184160861Y-69000047D01*
X184347266Y-69130568D01*
X184553504Y-69226739D01*
X184773308Y-69285635D01*
X184935230Y-69299801D01*
X184999998Y-69305468D01*
X185000000Y-69305468D01*
X185000002Y-69305468D01*
X185056672Y-69300509D01*
X185226692Y-69285635D01*
X185446496Y-69226739D01*
X185652734Y-69130568D01*
X185839139Y-69000047D01*
X185912320Y-68926865D01*
X185973641Y-68893382D01*
X186043333Y-68898366D01*
X186087679Y-68926865D01*
X186160861Y-69000047D01*
X186347266Y-69130568D01*
X186553504Y-69226739D01*
X186773308Y-69285635D01*
X186935230Y-69299801D01*
X186999998Y-69305468D01*
X187000000Y-69305468D01*
X187000002Y-69305468D01*
X187056672Y-69300509D01*
X187226692Y-69285635D01*
X187446496Y-69226739D01*
X187652734Y-69130568D01*
X187839139Y-69000047D01*
X187912320Y-68926865D01*
X187973641Y-68893382D01*
X188043333Y-68898366D01*
X188087679Y-68926865D01*
X188160861Y-69000047D01*
X188347266Y-69130568D01*
X188553504Y-69226739D01*
X188773308Y-69285635D01*
X188935230Y-69299801D01*
X188999998Y-69305468D01*
X189000000Y-69305468D01*
X189000002Y-69305468D01*
X189056672Y-69300509D01*
X189226692Y-69285635D01*
X189446496Y-69226739D01*
X189652734Y-69130568D01*
X189839139Y-69000047D01*
X189912320Y-68926865D01*
X189973641Y-68893382D01*
X190043333Y-68898366D01*
X190087679Y-68926865D01*
X190160861Y-69000047D01*
X190347266Y-69130568D01*
X190553504Y-69226739D01*
X190773308Y-69285635D01*
X190935230Y-69299801D01*
X190999998Y-69305468D01*
X191000000Y-69305468D01*
X191000002Y-69305468D01*
X191056672Y-69300509D01*
X191226692Y-69285635D01*
X191446496Y-69226739D01*
X191652734Y-69130568D01*
X191839139Y-69000047D01*
X191912320Y-68926865D01*
X191973641Y-68893382D01*
X192043333Y-68898366D01*
X192087679Y-68926865D01*
X192160861Y-69000047D01*
X192347266Y-69130568D01*
X192553504Y-69226739D01*
X192773308Y-69285635D01*
X192935230Y-69299801D01*
X192999998Y-69305468D01*
X193000000Y-69305468D01*
X193000002Y-69305468D01*
X193056672Y-69300509D01*
X193226692Y-69285635D01*
X193446496Y-69226739D01*
X193652734Y-69130568D01*
X193839139Y-69000047D01*
X193912320Y-68926865D01*
X193973641Y-68893382D01*
X194043333Y-68898366D01*
X194087679Y-68926865D01*
X194160861Y-69000047D01*
X194347266Y-69130568D01*
X194553504Y-69226739D01*
X194773308Y-69285635D01*
X194935230Y-69299801D01*
X194999998Y-69305468D01*
X195000000Y-69305468D01*
X195000002Y-69305468D01*
X195056672Y-69300509D01*
X195226692Y-69285635D01*
X195446496Y-69226739D01*
X195652734Y-69130568D01*
X195839139Y-69000047D01*
X195912319Y-68926866D01*
X195973639Y-68893382D01*
X196043331Y-68898366D01*
X196087680Y-68926867D01*
X196160858Y-69000045D01*
X196160861Y-69000047D01*
X196347266Y-69130568D01*
X196553504Y-69226739D01*
X196773308Y-69285635D01*
X196935230Y-69299801D01*
X196999998Y-69305468D01*
X197000000Y-69305468D01*
X197000002Y-69305468D01*
X197056672Y-69300509D01*
X197226692Y-69285635D01*
X197446496Y-69226739D01*
X197652734Y-69130568D01*
X197839139Y-69000047D01*
X197912319Y-68926866D01*
X197973639Y-68893382D01*
X198043331Y-68898366D01*
X198087680Y-68926867D01*
X198160858Y-69000045D01*
X198160861Y-69000047D01*
X198347266Y-69130568D01*
X198553504Y-69226739D01*
X198773308Y-69285635D01*
X198935230Y-69299801D01*
X198999998Y-69305468D01*
X199000000Y-69305468D01*
X199000002Y-69305468D01*
X199056672Y-69300509D01*
X199226692Y-69285635D01*
X199446496Y-69226739D01*
X199652734Y-69130568D01*
X199839139Y-69000047D01*
X199912320Y-68926865D01*
X199973641Y-68893382D01*
X200043333Y-68898366D01*
X200087679Y-68926865D01*
X200160861Y-69000047D01*
X200347266Y-69130568D01*
X200553504Y-69226739D01*
X200773308Y-69285635D01*
X200935230Y-69299801D01*
X200999998Y-69305468D01*
X201000000Y-69305468D01*
X201000002Y-69305468D01*
X201056672Y-69300509D01*
X201226692Y-69285635D01*
X201446496Y-69226739D01*
X201652734Y-69130568D01*
X201839139Y-69000047D01*
X202000047Y-68839139D01*
X202130568Y-68652734D01*
X202226739Y-68446496D01*
X202285635Y-68226692D01*
X202305468Y-68000001D01*
X211694532Y-68000001D01*
X211714364Y-68226686D01*
X211714366Y-68226697D01*
X211773258Y-68446488D01*
X211773261Y-68446497D01*
X211869431Y-68652732D01*
X211869432Y-68652734D01*
X211999954Y-68839141D01*
X212160858Y-69000045D01*
X212160861Y-69000047D01*
X212347266Y-69130568D01*
X212553504Y-69226739D01*
X212773308Y-69285635D01*
X212935230Y-69299801D01*
X212999998Y-69305468D01*
X213000000Y-69305468D01*
X213000002Y-69305468D01*
X213056672Y-69300509D01*
X213226692Y-69285635D01*
X213446496Y-69226739D01*
X213652734Y-69130568D01*
X213839139Y-69000047D01*
X213912319Y-68926866D01*
X213973639Y-68893382D01*
X214043331Y-68898366D01*
X214087680Y-68926867D01*
X214160858Y-69000045D01*
X214160861Y-69000047D01*
X214347266Y-69130568D01*
X214553504Y-69226739D01*
X214773308Y-69285635D01*
X214935230Y-69299801D01*
X214999998Y-69305468D01*
X215000000Y-69305468D01*
X215000002Y-69305468D01*
X215056672Y-69300509D01*
X215226692Y-69285635D01*
X215446496Y-69226739D01*
X215652734Y-69130568D01*
X215839139Y-69000047D01*
X215912320Y-68926865D01*
X215973641Y-68893382D01*
X216043333Y-68898366D01*
X216087679Y-68926865D01*
X216160861Y-69000047D01*
X216347266Y-69130568D01*
X216553504Y-69226739D01*
X216773308Y-69285635D01*
X216935230Y-69299801D01*
X216999998Y-69305468D01*
X217000000Y-69305468D01*
X217000002Y-69305468D01*
X217056672Y-69300509D01*
X217226692Y-69285635D01*
X217446496Y-69226739D01*
X217652734Y-69130568D01*
X217839139Y-69000047D01*
X217912320Y-68926865D01*
X217973641Y-68893382D01*
X218043333Y-68898366D01*
X218087679Y-68926865D01*
X218160861Y-69000047D01*
X218347266Y-69130568D01*
X218553504Y-69226739D01*
X218773308Y-69285635D01*
X218935230Y-69299801D01*
X218999998Y-69305468D01*
X219000000Y-69305468D01*
X219000002Y-69305468D01*
X219056672Y-69300509D01*
X219226692Y-69285635D01*
X219446496Y-69226739D01*
X219652734Y-69130568D01*
X219839139Y-69000047D01*
X220000047Y-68839139D01*
X220130568Y-68652734D01*
X220226739Y-68446496D01*
X220285635Y-68226692D01*
X220305468Y-68000000D01*
X220302872Y-67970333D01*
X220291273Y-67837748D01*
X220285635Y-67773308D01*
X220230599Y-67567909D01*
X222641779Y-67567909D01*
X222671468Y-67837735D01*
X222671470Y-67837748D01*
X222713888Y-68000001D01*
X222740132Y-68100384D01*
X222846303Y-68350224D01*
X222905052Y-68446488D01*
X222987716Y-68581940D01*
X222987717Y-68581942D01*
X223161369Y-68790605D01*
X223262456Y-68881180D01*
X223363546Y-68971757D01*
X223589947Y-69121542D01*
X223835743Y-69236767D01*
X224095697Y-69314975D01*
X224364268Y-69354500D01*
X224364273Y-69354500D01*
X224567786Y-69354500D01*
X224619394Y-69350722D01*
X224770740Y-69339645D01*
X224881488Y-69314975D01*
X225035702Y-69280623D01*
X225035704Y-69280622D01*
X225035709Y-69280621D01*
X225289261Y-69183646D01*
X225525991Y-69050786D01*
X225740853Y-68884875D01*
X225929269Y-68689447D01*
X226087223Y-68468668D01*
X226211348Y-68227244D01*
X226254629Y-68100378D01*
X226298994Y-67970333D01*
X226298994Y-67970329D01*
X226298998Y-67970320D01*
X226348306Y-67703371D01*
X226358220Y-67432089D01*
X226328530Y-67162253D01*
X226259868Y-66899616D01*
X226153697Y-66649776D01*
X226012281Y-66418056D01*
X225838632Y-66209396D01*
X225636454Y-66028243D01*
X225410053Y-65878458D01*
X225164257Y-65763233D01*
X224904303Y-65685025D01*
X224904301Y-65685024D01*
X224904299Y-65685024D01*
X224807999Y-65670852D01*
X224635732Y-65645500D01*
X224432219Y-65645500D01*
X224432214Y-65645500D01*
X224229260Y-65660355D01*
X224229246Y-65660357D01*
X223964297Y-65719376D01*
X223964290Y-65719379D01*
X223710736Y-65816355D01*
X223474012Y-65949211D01*
X223259140Y-66115130D01*
X223259139Y-66115132D01*
X223070734Y-66310549D01*
X223070732Y-66310551D01*
X222912778Y-66531329D01*
X222788656Y-66772746D01*
X222788649Y-66772762D01*
X222701005Y-67029666D01*
X222701001Y-67029684D01*
X222651693Y-67296631D01*
X222651693Y-67296633D01*
X222641779Y-67567909D01*
X220230599Y-67567909D01*
X220226739Y-67553504D01*
X220130568Y-67347266D01*
X220000047Y-67160861D01*
X220000045Y-67160858D01*
X219839141Y-66999954D01*
X219652734Y-66869432D01*
X219652732Y-66869431D01*
X219446497Y-66773261D01*
X219446488Y-66773258D01*
X219226697Y-66714366D01*
X219226693Y-66714365D01*
X219226692Y-66714365D01*
X219226691Y-66714364D01*
X219226686Y-66714364D01*
X219000002Y-66694532D01*
X218999998Y-66694532D01*
X218773313Y-66714364D01*
X218773302Y-66714366D01*
X218553511Y-66773258D01*
X218553502Y-66773261D01*
X218347267Y-66869431D01*
X218347265Y-66869432D01*
X218160862Y-66999951D01*
X218087681Y-67073132D01*
X218026357Y-67106616D01*
X217956666Y-67101631D01*
X217912319Y-67073132D01*
X217839137Y-66999951D01*
X217652734Y-66869432D01*
X217652732Y-66869431D01*
X217446497Y-66773261D01*
X217446488Y-66773258D01*
X217226697Y-66714366D01*
X217226693Y-66714365D01*
X217226692Y-66714365D01*
X217226691Y-66714364D01*
X217226686Y-66714364D01*
X217000002Y-66694532D01*
X216999998Y-66694532D01*
X216773313Y-66714364D01*
X216773302Y-66714366D01*
X216553511Y-66773258D01*
X216553502Y-66773261D01*
X216347267Y-66869431D01*
X216347265Y-66869432D01*
X216160862Y-66999951D01*
X216087681Y-67073132D01*
X216026357Y-67106616D01*
X215956666Y-67101631D01*
X215912319Y-67073132D01*
X215839137Y-66999951D01*
X215652734Y-66869432D01*
X215652732Y-66869431D01*
X215446497Y-66773261D01*
X215446488Y-66773258D01*
X215226697Y-66714366D01*
X215226693Y-66714365D01*
X215226692Y-66714365D01*
X215226691Y-66714364D01*
X215226686Y-66714364D01*
X215000002Y-66694532D01*
X214999998Y-66694532D01*
X214773313Y-66714364D01*
X214773302Y-66714366D01*
X214553511Y-66773258D01*
X214553502Y-66773261D01*
X214347267Y-66869431D01*
X214347265Y-66869432D01*
X214160862Y-66999951D01*
X214087681Y-67073132D01*
X214026357Y-67106616D01*
X213956666Y-67101631D01*
X213912319Y-67073132D01*
X213839137Y-66999951D01*
X213652734Y-66869432D01*
X213652732Y-66869431D01*
X213446497Y-66773261D01*
X213446488Y-66773258D01*
X213226697Y-66714366D01*
X213226693Y-66714365D01*
X213226692Y-66714365D01*
X213226691Y-66714364D01*
X213226686Y-66714364D01*
X213000002Y-66694532D01*
X212999998Y-66694532D01*
X212773313Y-66714364D01*
X212773302Y-66714366D01*
X212553511Y-66773258D01*
X212553502Y-66773261D01*
X212347267Y-66869431D01*
X212347265Y-66869432D01*
X212160858Y-66999954D01*
X211999954Y-67160858D01*
X211869432Y-67347265D01*
X211869431Y-67347267D01*
X211773261Y-67553502D01*
X211773258Y-67553511D01*
X211714366Y-67773302D01*
X211714364Y-67773313D01*
X211694532Y-67999998D01*
X211694532Y-68000001D01*
X202305468Y-68000001D01*
X202305468Y-68000000D01*
X202302872Y-67970333D01*
X202291273Y-67837748D01*
X202285635Y-67773308D01*
X202226739Y-67553504D01*
X202130568Y-67347266D01*
X202000047Y-67160861D01*
X202000045Y-67160858D01*
X201839141Y-66999954D01*
X201652734Y-66869432D01*
X201652732Y-66869431D01*
X201446497Y-66773261D01*
X201446488Y-66773258D01*
X201226697Y-66714366D01*
X201226693Y-66714365D01*
X201226692Y-66714365D01*
X201226691Y-66714364D01*
X201226686Y-66714364D01*
X201000002Y-66694532D01*
X200999998Y-66694532D01*
X200773313Y-66714364D01*
X200773302Y-66714366D01*
X200553511Y-66773258D01*
X200553502Y-66773261D01*
X200347267Y-66869431D01*
X200347265Y-66869432D01*
X200160862Y-66999951D01*
X200087681Y-67073132D01*
X200026357Y-67106616D01*
X199956666Y-67101631D01*
X199912319Y-67073132D01*
X199839137Y-66999951D01*
X199652734Y-66869432D01*
X199652732Y-66869431D01*
X199446497Y-66773261D01*
X199446488Y-66773258D01*
X199226697Y-66714366D01*
X199226693Y-66714365D01*
X199226692Y-66714365D01*
X199226691Y-66714364D01*
X199226686Y-66714364D01*
X199000002Y-66694532D01*
X198999998Y-66694532D01*
X198773313Y-66714364D01*
X198773302Y-66714366D01*
X198553511Y-66773258D01*
X198553502Y-66773261D01*
X198347267Y-66869431D01*
X198347265Y-66869432D01*
X198160862Y-66999951D01*
X198087681Y-67073132D01*
X198026357Y-67106616D01*
X197956666Y-67101631D01*
X197912319Y-67073132D01*
X197839137Y-66999951D01*
X197652734Y-66869432D01*
X197652732Y-66869431D01*
X197446497Y-66773261D01*
X197446488Y-66773258D01*
X197226697Y-66714366D01*
X197226693Y-66714365D01*
X197226692Y-66714365D01*
X197226691Y-66714364D01*
X197226686Y-66714364D01*
X197000002Y-66694532D01*
X196999998Y-66694532D01*
X196773313Y-66714364D01*
X196773302Y-66714366D01*
X196553511Y-66773258D01*
X196553502Y-66773261D01*
X196347267Y-66869431D01*
X196347265Y-66869432D01*
X196160862Y-66999951D01*
X196087681Y-67073132D01*
X196026357Y-67106616D01*
X195956666Y-67101631D01*
X195912319Y-67073132D01*
X195839137Y-66999951D01*
X195652734Y-66869432D01*
X195652732Y-66869431D01*
X195446497Y-66773261D01*
X195446488Y-66773258D01*
X195226697Y-66714366D01*
X195226693Y-66714365D01*
X195226692Y-66714365D01*
X195226691Y-66714364D01*
X195226686Y-66714364D01*
X195000002Y-66694532D01*
X194999998Y-66694532D01*
X194773313Y-66714364D01*
X194773302Y-66714366D01*
X194553511Y-66773258D01*
X194553502Y-66773261D01*
X194347267Y-66869431D01*
X194347265Y-66869432D01*
X194160862Y-66999951D01*
X194087681Y-67073132D01*
X194026357Y-67106616D01*
X193956666Y-67101631D01*
X193912319Y-67073132D01*
X193839137Y-66999951D01*
X193652734Y-66869432D01*
X193652732Y-66869431D01*
X193446497Y-66773261D01*
X193446488Y-66773258D01*
X193226697Y-66714366D01*
X193226693Y-66714365D01*
X193226692Y-66714365D01*
X193226691Y-66714364D01*
X193226686Y-66714364D01*
X193000002Y-66694532D01*
X192999998Y-66694532D01*
X192773313Y-66714364D01*
X192773302Y-66714366D01*
X192553511Y-66773258D01*
X192553502Y-66773261D01*
X192347267Y-66869431D01*
X192347265Y-66869432D01*
X192160862Y-66999951D01*
X192087681Y-67073132D01*
X192026357Y-67106616D01*
X191956666Y-67101631D01*
X191912319Y-67073132D01*
X191839137Y-66999951D01*
X191652734Y-66869432D01*
X191652732Y-66869431D01*
X191446497Y-66773261D01*
X191446488Y-66773258D01*
X191226697Y-66714366D01*
X191226693Y-66714365D01*
X191226692Y-66714365D01*
X191226691Y-66714364D01*
X191226686Y-66714364D01*
X191000002Y-66694532D01*
X190999998Y-66694532D01*
X190773313Y-66714364D01*
X190773302Y-66714366D01*
X190553511Y-66773258D01*
X190553502Y-66773261D01*
X190347267Y-66869431D01*
X190347265Y-66869432D01*
X190160862Y-66999951D01*
X190087681Y-67073132D01*
X190026357Y-67106616D01*
X189956666Y-67101631D01*
X189912319Y-67073132D01*
X189839137Y-66999951D01*
X189652734Y-66869432D01*
X189652732Y-66869431D01*
X189446497Y-66773261D01*
X189446488Y-66773258D01*
X189226697Y-66714366D01*
X189226693Y-66714365D01*
X189226692Y-66714365D01*
X189226691Y-66714364D01*
X189226686Y-66714364D01*
X189000002Y-66694532D01*
X188999998Y-66694532D01*
X188773313Y-66714364D01*
X188773302Y-66714366D01*
X188553511Y-66773258D01*
X188553502Y-66773261D01*
X188347267Y-66869431D01*
X188347265Y-66869432D01*
X188160862Y-66999951D01*
X188087681Y-67073132D01*
X188026357Y-67106616D01*
X187956666Y-67101631D01*
X187912319Y-67073132D01*
X187839137Y-66999951D01*
X187652734Y-66869432D01*
X187652732Y-66869431D01*
X187446497Y-66773261D01*
X187446488Y-66773258D01*
X187226697Y-66714366D01*
X187226693Y-66714365D01*
X187226692Y-66714365D01*
X187226691Y-66714364D01*
X187226686Y-66714364D01*
X187000002Y-66694532D01*
X186999998Y-66694532D01*
X186773313Y-66714364D01*
X186773302Y-66714366D01*
X186553511Y-66773258D01*
X186553502Y-66773261D01*
X186347267Y-66869431D01*
X186347265Y-66869432D01*
X186160862Y-66999951D01*
X186087681Y-67073132D01*
X186026357Y-67106616D01*
X185956666Y-67101631D01*
X185912319Y-67073132D01*
X185839137Y-66999951D01*
X185652734Y-66869432D01*
X185652732Y-66869431D01*
X185446497Y-66773261D01*
X185446488Y-66773258D01*
X185226697Y-66714366D01*
X185226693Y-66714365D01*
X185226692Y-66714365D01*
X185226691Y-66714364D01*
X185226686Y-66714364D01*
X185000002Y-66694532D01*
X184999998Y-66694532D01*
X184773313Y-66714364D01*
X184773302Y-66714366D01*
X184553511Y-66773258D01*
X184553502Y-66773261D01*
X184347267Y-66869431D01*
X184347265Y-66869432D01*
X184160862Y-66999951D01*
X184087681Y-67073132D01*
X184026357Y-67106616D01*
X183956666Y-67101631D01*
X183912319Y-67073132D01*
X183839137Y-66999951D01*
X183652734Y-66869432D01*
X183652732Y-66869431D01*
X183446497Y-66773261D01*
X183446488Y-66773258D01*
X183226697Y-66714366D01*
X183226693Y-66714365D01*
X183226692Y-66714365D01*
X183226691Y-66714364D01*
X183226686Y-66714364D01*
X183000002Y-66694532D01*
X182999998Y-66694532D01*
X182773313Y-66714364D01*
X182773302Y-66714366D01*
X182553511Y-66773258D01*
X182553502Y-66773261D01*
X182347267Y-66869431D01*
X182347265Y-66869432D01*
X182160862Y-66999951D01*
X182087681Y-67073132D01*
X182026357Y-67106616D01*
X181956666Y-67101631D01*
X181912319Y-67073132D01*
X181839137Y-66999951D01*
X181652734Y-66869432D01*
X181652732Y-66869431D01*
X181446497Y-66773261D01*
X181446488Y-66773258D01*
X181226697Y-66714366D01*
X181226693Y-66714365D01*
X181226692Y-66714365D01*
X181226691Y-66714364D01*
X181226686Y-66714364D01*
X181000002Y-66694532D01*
X180999998Y-66694532D01*
X180773313Y-66714364D01*
X180773302Y-66714366D01*
X180553511Y-66773258D01*
X180553502Y-66773261D01*
X180347267Y-66869431D01*
X180347265Y-66869432D01*
X180160858Y-66999954D01*
X179999954Y-67160858D01*
X179869432Y-67347265D01*
X179869431Y-67347267D01*
X179773261Y-67553502D01*
X179773258Y-67553511D01*
X179714366Y-67773302D01*
X179714364Y-67773313D01*
X179694532Y-67999998D01*
X179694532Y-68000001D01*
X178305468Y-68000001D01*
X178305468Y-68000000D01*
X178302872Y-67970333D01*
X178291273Y-67837748D01*
X178285635Y-67773308D01*
X178226739Y-67553504D01*
X178130568Y-67347266D01*
X178000047Y-67160861D01*
X178000045Y-67160858D01*
X177839141Y-66999954D01*
X177652734Y-66869432D01*
X177652732Y-66869431D01*
X177446497Y-66773261D01*
X177446488Y-66773258D01*
X177226697Y-66714366D01*
X177226693Y-66714365D01*
X177226692Y-66714365D01*
X177226691Y-66714364D01*
X177226686Y-66714364D01*
X177000002Y-66694532D01*
X176999998Y-66694532D01*
X176773313Y-66714364D01*
X176773302Y-66714366D01*
X176553511Y-66773258D01*
X176553502Y-66773261D01*
X176347267Y-66869431D01*
X176347265Y-66869432D01*
X176160858Y-66999954D01*
X175999954Y-67160858D01*
X175869432Y-67347265D01*
X175869431Y-67347267D01*
X175773261Y-67553502D01*
X175773258Y-67553511D01*
X175714366Y-67773302D01*
X175714364Y-67773313D01*
X175694532Y-67999998D01*
X175694532Y-68000001D01*
X174305468Y-68000001D01*
X174305468Y-68000000D01*
X174302872Y-67970333D01*
X174291273Y-67837748D01*
X174285635Y-67773308D01*
X174226739Y-67553504D01*
X174130568Y-67347266D01*
X174000047Y-67160861D01*
X174000045Y-67160858D01*
X173839141Y-66999954D01*
X173652734Y-66869432D01*
X173652732Y-66869431D01*
X173446497Y-66773261D01*
X173446488Y-66773258D01*
X173226697Y-66714366D01*
X173226693Y-66714365D01*
X173226692Y-66714365D01*
X173226691Y-66714364D01*
X173226686Y-66714364D01*
X173000002Y-66694532D01*
X172999998Y-66694532D01*
X172773313Y-66714364D01*
X172773302Y-66714366D01*
X172553511Y-66773258D01*
X172553502Y-66773261D01*
X172347267Y-66869431D01*
X172347265Y-66869432D01*
X172160862Y-66999951D01*
X172087681Y-67073132D01*
X172026357Y-67106616D01*
X171956666Y-67101631D01*
X171912319Y-67073132D01*
X171839137Y-66999951D01*
X171652734Y-66869432D01*
X171652732Y-66869431D01*
X171446497Y-66773261D01*
X171446488Y-66773258D01*
X171226697Y-66714366D01*
X171226693Y-66714365D01*
X171226692Y-66714365D01*
X171226691Y-66714364D01*
X171226686Y-66714364D01*
X171000002Y-66694532D01*
X170999998Y-66694532D01*
X170773313Y-66714364D01*
X170773302Y-66714366D01*
X170553511Y-66773258D01*
X170553502Y-66773261D01*
X170347267Y-66869431D01*
X170347265Y-66869432D01*
X170160862Y-66999951D01*
X170087681Y-67073132D01*
X170026357Y-67106616D01*
X169956666Y-67101631D01*
X169912319Y-67073132D01*
X169839137Y-66999951D01*
X169652734Y-66869432D01*
X169652732Y-66869431D01*
X169446497Y-66773261D01*
X169446488Y-66773258D01*
X169226697Y-66714366D01*
X169226693Y-66714365D01*
X169226692Y-66714365D01*
X169226691Y-66714364D01*
X169226686Y-66714364D01*
X169000002Y-66694532D01*
X168999998Y-66694532D01*
X168773313Y-66714364D01*
X168773302Y-66714366D01*
X168553511Y-66773258D01*
X168553502Y-66773261D01*
X168347267Y-66869431D01*
X168347265Y-66869432D01*
X168160858Y-66999954D01*
X167999954Y-67160858D01*
X167869432Y-67347265D01*
X167869431Y-67347267D01*
X167773261Y-67553502D01*
X167773258Y-67553511D01*
X167714366Y-67773302D01*
X167714364Y-67773313D01*
X167694532Y-67999998D01*
X167694532Y-68000001D01*
X112305468Y-68000001D01*
X112305468Y-68000000D01*
X112302872Y-67970333D01*
X112291273Y-67837748D01*
X112285635Y-67773308D01*
X112226739Y-67553504D01*
X112130568Y-67347266D01*
X112000047Y-67160861D01*
X112000045Y-67160858D01*
X111839141Y-66999954D01*
X111652734Y-66869432D01*
X111652732Y-66869431D01*
X111446497Y-66773261D01*
X111446488Y-66773258D01*
X111226697Y-66714366D01*
X111226693Y-66714365D01*
X111226692Y-66714365D01*
X111226691Y-66714364D01*
X111226686Y-66714364D01*
X111000002Y-66694532D01*
X110999998Y-66694532D01*
X110773313Y-66714364D01*
X110773302Y-66714366D01*
X110553511Y-66773258D01*
X110553502Y-66773261D01*
X110347267Y-66869431D01*
X110347265Y-66869432D01*
X110160858Y-66999954D01*
X110087681Y-67073132D01*
X110026358Y-67106617D01*
X109956666Y-67101633D01*
X109912319Y-67073132D01*
X109839141Y-66999954D01*
X109652734Y-66869432D01*
X109652732Y-66869431D01*
X109446497Y-66773261D01*
X109446488Y-66773258D01*
X109226697Y-66714366D01*
X109226693Y-66714365D01*
X109226692Y-66714365D01*
X109226691Y-66714364D01*
X109226686Y-66714364D01*
X109000002Y-66694532D01*
X108999998Y-66694532D01*
X108773313Y-66714364D01*
X108773302Y-66714366D01*
X108553511Y-66773258D01*
X108553502Y-66773261D01*
X108347267Y-66869431D01*
X108347265Y-66869432D01*
X108160858Y-66999954D01*
X108087681Y-67073132D01*
X108026358Y-67106617D01*
X107956666Y-67101633D01*
X107912319Y-67073132D01*
X107839141Y-66999954D01*
X107652734Y-66869432D01*
X107652732Y-66869431D01*
X107446497Y-66773261D01*
X107446488Y-66773258D01*
X107226697Y-66714366D01*
X107226693Y-66714365D01*
X107226692Y-66714365D01*
X107226691Y-66714364D01*
X107226686Y-66714364D01*
X107000002Y-66694532D01*
X106999998Y-66694532D01*
X106773313Y-66714364D01*
X106773302Y-66714366D01*
X106553511Y-66773258D01*
X106553502Y-66773261D01*
X106347267Y-66869431D01*
X106347265Y-66869432D01*
X106160858Y-66999954D01*
X105999954Y-67160858D01*
X105869432Y-67347265D01*
X105869431Y-67347267D01*
X105773261Y-67553502D01*
X105773258Y-67553511D01*
X105714366Y-67773302D01*
X105714364Y-67773313D01*
X105694532Y-67999998D01*
X105694532Y-68000001D01*
X90305468Y-68000001D01*
X90305468Y-68000000D01*
X90302872Y-67970333D01*
X90291273Y-67837748D01*
X90285635Y-67773308D01*
X90226739Y-67553504D01*
X90130568Y-67347266D01*
X90000047Y-67160861D01*
X90000045Y-67160858D01*
X89839141Y-66999954D01*
X89652734Y-66869432D01*
X89652732Y-66869431D01*
X89446497Y-66773261D01*
X89446488Y-66773258D01*
X89226697Y-66714366D01*
X89226693Y-66714365D01*
X89226692Y-66714365D01*
X89226691Y-66714364D01*
X89226686Y-66714364D01*
X89000002Y-66694532D01*
X88999998Y-66694532D01*
X88773313Y-66714364D01*
X88773302Y-66714366D01*
X88553511Y-66773258D01*
X88553502Y-66773261D01*
X88347267Y-66869431D01*
X88347265Y-66869432D01*
X88160858Y-66999954D01*
X88087681Y-67073132D01*
X88026358Y-67106617D01*
X87956666Y-67101633D01*
X87912319Y-67073132D01*
X87839141Y-66999954D01*
X87652734Y-66869432D01*
X87652732Y-66869431D01*
X87446497Y-66773261D01*
X87446488Y-66773258D01*
X87226697Y-66714366D01*
X87226693Y-66714365D01*
X87226692Y-66714365D01*
X87226691Y-66714364D01*
X87226686Y-66714364D01*
X87000002Y-66694532D01*
X86999998Y-66694532D01*
X86773313Y-66714364D01*
X86773302Y-66714366D01*
X86553511Y-66773258D01*
X86553502Y-66773261D01*
X86347267Y-66869431D01*
X86347265Y-66869432D01*
X86160862Y-66999951D01*
X86087680Y-67073133D01*
X86026356Y-67106617D01*
X85956665Y-67101632D01*
X85912319Y-67073133D01*
X85839139Y-66999953D01*
X85839138Y-66999952D01*
X85839137Y-66999951D01*
X85652734Y-66869432D01*
X85652732Y-66869431D01*
X85446497Y-66773261D01*
X85446488Y-66773258D01*
X85226697Y-66714366D01*
X85226693Y-66714365D01*
X85226692Y-66714365D01*
X85226691Y-66714364D01*
X85226686Y-66714364D01*
X85000002Y-66694532D01*
X84999998Y-66694532D01*
X84773313Y-66714364D01*
X84773302Y-66714366D01*
X84553511Y-66773258D01*
X84553502Y-66773261D01*
X84347267Y-66869431D01*
X84347265Y-66869432D01*
X84160858Y-66999954D01*
X84087681Y-67073132D01*
X84026358Y-67106617D01*
X83956666Y-67101633D01*
X83912319Y-67073132D01*
X83839141Y-66999954D01*
X83652734Y-66869432D01*
X83652732Y-66869431D01*
X83446497Y-66773261D01*
X83446488Y-66773258D01*
X83226697Y-66714366D01*
X83226693Y-66714365D01*
X83226692Y-66714365D01*
X83226691Y-66714364D01*
X83226686Y-66714364D01*
X83000002Y-66694532D01*
X82999998Y-66694532D01*
X82773313Y-66714364D01*
X82773302Y-66714366D01*
X82553511Y-66773258D01*
X82553502Y-66773261D01*
X82347267Y-66869431D01*
X82347265Y-66869432D01*
X82160858Y-66999954D01*
X81999954Y-67160858D01*
X81869432Y-67347265D01*
X81869431Y-67347267D01*
X81773261Y-67553502D01*
X81773258Y-67553511D01*
X81714366Y-67773302D01*
X81714364Y-67773313D01*
X81694532Y-67999998D01*
X81694532Y-68000001D01*
X79288873Y-68000001D01*
X79298994Y-67970333D01*
X79298994Y-67970329D01*
X79298998Y-67970320D01*
X79348306Y-67703371D01*
X79358220Y-67432089D01*
X79328530Y-67162253D01*
X79259868Y-66899616D01*
X79153697Y-66649776D01*
X79012281Y-66418056D01*
X78838632Y-66209396D01*
X78636454Y-66028243D01*
X78410053Y-65878458D01*
X78164257Y-65763233D01*
X77904303Y-65685025D01*
X77904301Y-65685024D01*
X77904299Y-65685024D01*
X77807999Y-65670852D01*
X77635732Y-65645500D01*
X77432219Y-65645500D01*
X77432214Y-65645500D01*
X77229260Y-65660355D01*
X77229246Y-65660357D01*
X76964297Y-65719376D01*
X76964290Y-65719379D01*
X76710736Y-65816355D01*
X76474012Y-65949211D01*
X76259140Y-66115130D01*
X76259139Y-66115132D01*
X76070734Y-66310549D01*
X76070732Y-66310551D01*
X75912778Y-66531329D01*
X75788656Y-66772746D01*
X75788649Y-66772762D01*
X75701005Y-67029666D01*
X75701001Y-67029684D01*
X75651693Y-67296631D01*
X75651693Y-67296633D01*
X75641779Y-67567909D01*
X75200500Y-67567909D01*
X75200500Y-65324500D01*
X75220185Y-65257461D01*
X75272989Y-65211706D01*
X75324500Y-65200500D01*
X226675500Y-65200500D01*
X226742539Y-65220185D01*
G37*
%TD.AperFunction*%
%TD*%
M02*
